<?xml version="1.0" encoding="utf-8"?>
<!-- Generator: Adobe Illustrator 16.0.0, SVG Export Plug-In . SVG Version: 6.00 Build 0)  -->
<!DOCTYPE svg PUBLIC "-//W3C//DTD SVG 1.1//EN" "http://www.w3.org/Graphics/SVG/1.1/DTD/svg11.dtd">
<svg version="1.1"
	 id="svg2" xmlns:dc="http://purl.org/dc/elements/1.1/" xmlns:cc="http://creativecommons.org/ns#" xmlns:rdf="http://www.w3.org/1999/02/22-rdf-syntax-ns#" xmlns:svg="http://www.w3.org/2000/svg" xmlns:inkscape="http://www.inkscape.org/namespaces/inkscape"
	 xmlns="http://www.w3.org/2000/svg" xmlns:xlink="http://www.w3.org/1999/xlink" x="0px" y="0px" width="765px" height="990px"
	 viewBox="0 0 765 990" enable-background="new 0 0 765 990" xml:space="preserve">
<g id="g10" transform="matrix(1.25,0,0,-1.25,0,990)">
	<g id="g12">
		<g>
			<defs>
				<rect id="SVGID_1_" x="-27.822" y="613.547" width="244.8" height="316.96"/>
			</defs>
			<clipPath id="SVGID_2_">
				<use xlink:href="#SVGID_1_"  overflow="visible"/>
			</clipPath>
			<g id="g14" clip-path="url(#SVGID_2_)">
				<g id="g20" transform="translate(162.5767,412.1089)">
					<path id="path22" inkscape:connector-curvature="0" fill="#373535" d="M-113.894,365.075c0,0.638,0.273,0.843,1.126,0.843
						c1.599,0,2.059-2.004,2.193-3.575c0.283-3.327-1.025-4.639-2.684-4.639h-0.635V365.075z M-117.189,366.782v-0.486
						c1.085-0.082,1.342-0.318,1.342-0.969v-14.953c0-0.652-0.247-0.888-1.342-0.97v-0.485h4.637v0.485
						c-1.089,0.082-1.342,0.318-1.342,0.97v6.466h1.327c1.974,0,4.098,1.569,4.098,4.967c0,3.401-1.508,4.974-4.36,4.974H-117.189z"
						/>
				</g>
				<g id="g24" transform="translate(162.5767,412.1089)">
					<path id="path26" inkscape:connector-curvature="0" fill="none" stroke="#373535" stroke-width="0.5" d="M-113.894,365.075
						c0,0.638,0.273,0.843,1.126,0.843c1.599,0,2.059-2.004,2.193-3.575c0.283-3.327-1.025-4.639-2.684-4.639h-0.635V365.075z
						 M-117.189,366.782v-0.486c1.085-0.082,1.342-0.318,1.342-0.969v-14.953c0-0.652-0.247-0.888-1.342-0.97v-0.485h4.637v0.485
						c-1.089,0.082-1.342,0.318-1.342,0.97v6.466h1.327c1.974,0,4.098,1.569,4.098,4.967c0,3.401-1.508,4.974-4.36,4.974H-117.189z"
						/>
				</g>
				<g id="g28" transform="translate(436.5986,417.4399)">
					<path id="path30" inkscape:connector-curvature="0" fill="#373535" d="M-300.229,361.451v-0.486
						c1.075-0.063,1.342-0.318,1.342-0.969v-11.929c0-3.262-1.786-3.749-2.85-3.749c-1.827,0-2.678,1.144-2.678,3.598v12.08
						c0,0.651,0.257,0.882,1.341,0.969v0.486h-4.636v-0.486c1.079-0.073,1.341-0.318,1.341-0.969v-12.08
						c0-3.088,1.466-4.59,4.481-4.59c1.818,0,3.986,0.86,3.986,4.957v11.713c0,0.651,0.27,0.891,1.342,0.969v0.486H-300.229z"/>
				</g>
				<g id="g32" transform="translate(436.5986,417.4399)">
					<path id="path34" inkscape:connector-curvature="0" fill="none" stroke="#373535" stroke-width="0.5" d="M-300.229,361.451
						v-0.486c1.075-0.063,1.342-0.318,1.342-0.969v-11.929c0-3.262-1.786-3.749-2.85-3.749c-1.827,0-2.678,1.144-2.678,3.598v12.08
						c0,0.651,0.257,0.882,1.341,0.969v0.486h-4.636v-0.486c1.079-0.073,1.341-0.318,1.341-0.969v-12.08
						c0-3.088,1.466-4.59,4.481-4.59c1.818,0,3.986,0.86,3.986,4.957v11.713c0,0.651,0.27,0.891,1.342,0.969v0.486H-300.229z"/>
				</g>
				<g id="g36" transform="translate(483.8857,403.8926)">
					<path id="path38" inkscape:connector-curvature="0" fill="#373535" d="M-332.384,370.661c0-3.131,1.524-4.134,3.829-5.234
						c2.166-1.034,3.091-2.359,3.091-4.434c0-1.55-0.789-3.359-3.016-3.359c-1.853,0-3.022,1.486-3.531,4.684h-0.45v-5.25h0.428
						c0.113,0.62,0.289,0.79,0.491,0.79c0.285,0,0.545-0.235,0.718-0.364c0.545-0.407,1.333-0.637,2.327-0.637
						c2.788,0,4.453,1.943,4.453,5.199c0,2.655-1.304,4.433-3.902,5.627c-2.367,1.087-2.951,2.019-2.951,3.855
						c0,2.016,1.2,2.961,2.739,2.961c1.204,0,2.65-0.813,2.923-4.138h0.452v4.738h-0.428c-0.154-0.497-0.285-0.609-0.491-0.609
						c-0.065,0-0.229,0.087-0.376,0.189c-0.373,0.257-1.062,0.646-2.023,0.646C-330.584,375.324-332.384,373.294-332.384,370.661"/>
				</g>
				<g id="g40" transform="translate(483.8857,403.8926)">
					<path id="path42" inkscape:connector-curvature="0" fill="none" stroke="#373535" stroke-width="0.5" d="M-332.384,370.661
						c0-3.131,1.524-4.134,3.829-5.234c2.166-1.034,3.091-2.359,3.091-4.434c0-1.55-0.789-3.359-3.016-3.359
						c-1.853,0-3.022,1.486-3.531,4.684h-0.45v-5.25h0.428c0.113,0.62,0.289,0.79,0.491,0.79c0.285,0,0.545-0.235,0.718-0.364
						c0.545-0.407,1.333-0.637,2.327-0.637c2.788,0,4.453,1.943,4.453,5.199c0,2.655-1.304,4.433-3.902,5.627
						c-2.367,1.087-2.951,2.019-2.951,3.855c0,2.016,1.2,2.961,2.739,2.961c1.204,0,2.65-0.813,2.923-4.138h0.452v4.738h-0.428
						c-0.154-0.497-0.285-0.609-0.491-0.609c-0.065,0-0.229,0.087-0.376,0.189c-0.373,0.257-1.062,0.646-2.023,0.646
						C-330.584,375.324-332.384,373.294-332.384,370.661z"/>
				</g>
				<g id="g44" transform="translate(131.3887,412.1089)">
					<path id="path46" inkscape:connector-curvature="0" fill="#373535" d="M-92.686,365.075c0,0.638,0.461,0.843,1.314,0.843
						c1.397,0,2.011-1.679,2.144-3.251c0.215-2.551-0.605-4.464-2.823-4.464h-0.635V365.075z M-95.981,366.782v-0.486
						c1.092-0.082,1.342-0.318,1.342-0.969v-14.953c0-0.652-0.259-0.888-1.342-0.97v-0.485h4.636v0.485
						c-1.1,0.082-1.341,0.318-1.341,0.97v7.062h0.638c1.102-2.694,2.06-5.155,2.577-6.484l0.393-1.001
						c0.311-0.757,0.8-1.079,1.603-1.079c0.854,0,1.409,0.047,1.409,0.047v0.485c-0.588,0-0.729,0.2-0.943,0.654l-0.543,1.372
						c0,0-2.368,5.951-2.477,6.225c1.757,0.574,2.916,2.184,2.916,4.459c0,3.053-1.468,4.666-4.32,4.666H-95.981z"/>
				</g>
				<g id="g48" transform="translate(131.3887,412.1089)">
					<path id="path50" inkscape:connector-curvature="0" fill="none" stroke="#373535" stroke-width="0.5" d="M-92.686,365.075
						c0,0.638,0.461,0.843,1.314,0.843c1.397,0,2.011-1.679,2.144-3.251c0.215-2.551-0.605-4.464-2.823-4.464h-0.635V365.075z
						 M-95.981,366.782v-0.486c1.092-0.082,1.342-0.318,1.342-0.969v-14.953c0-0.652-0.259-0.888-1.342-0.97v-0.485h4.636v0.485
						c-1.1,0.082-1.341,0.318-1.341,0.97v7.062h0.638c1.102-2.694,2.06-5.155,2.577-6.484l0.393-1.001
						c0.311-0.757,0.8-1.079,1.603-1.079c0.854,0,1.409,0.047,1.409,0.047v0.485c-0.588,0-0.729,0.2-0.943,0.654l-0.543,1.372
						c0,0-2.368,5.951-2.477,6.225c1.757,0.574,2.916,2.184,2.916,4.459c0,3.053-1.468,4.666-4.32,4.666H-95.981z"/>
				</g>
				<g id="g52" transform="translate(93.8477,389.1621)">
					<path id="path54" inkscape:connector-curvature="0" fill="#373535" d="M-67.158,380.675c-0.391,7.398,1.51,8.51,2.799,8.55
						c1.934,0.061,3.252-1.884,3.463-8.262c0.237-7.173-1.118-8.588-2.801-8.6C-65.232,372.351-66.767,373.277-67.158,380.675
						 M-69.227,380.794c0-6.369,2.131-9.217,5.2-9.217c3.349,0,5.199,3.101,5.199,9.217c0,6.116-1.874,9.218-5.112,9.218
						C-67.2,390.012-69.227,386.911-69.227,380.794"/>
				</g>
				<g id="g56" transform="translate(93.8477,389.1621)">
					<path id="path58" inkscape:connector-curvature="0" fill="none" stroke="#373535" stroke-width="0.5" d="M-67.158,380.675
						c-0.391,7.398,1.51,8.51,2.799,8.55c1.934,0.061,3.252-1.884,3.463-8.262c0.237-7.173-1.118-8.588-2.801-8.6
						C-65.232,372.351-66.767,373.277-67.158,380.675z M-69.227,380.794c0-6.369,2.131-9.217,5.2-9.217
						c3.349,0,5.199,3.101,5.199,9.217c0,6.116-1.874,9.218-5.112,9.218C-67.2,390.012-69.227,386.911-69.227,380.794z"/>
				</g>
				<g id="g60" transform="translate(188.6709,389.1621)">
					<path id="path62" inkscape:connector-curvature="0" fill="#373535" d="M-131.638,380.675c-0.391,7.398,1.51,8.51,2.8,8.55
						c1.934,0.061,3.251-1.884,3.461-8.262c0.237-7.173-1.117-8.588-2.8-8.6C-129.711,372.351-131.246,373.277-131.638,380.675
						 M-133.707,380.794c0-6.369,2.13-9.217,5.2-9.217c3.349,0,5.199,3.101,5.199,9.217c0,6.116-1.874,9.218-5.112,9.218
						C-131.68,390.012-133.707,386.911-133.707,380.794"/>
				</g>
				<g id="g64" transform="translate(188.6709,389.1621)">
					<path id="path66" inkscape:connector-curvature="0" fill="none" stroke="#373535" stroke-width="0.5" d="M-131.638,380.675
						c-0.391,7.398,1.51,8.51,2.8,8.55c1.934,0.061,3.251-1.884,3.461-8.262c0.237-7.173-1.117-8.588-2.8-8.6
						C-129.711,372.351-131.246,373.277-131.638,380.675z M-133.707,380.794c0-6.369,2.13-9.217,5.2-9.217
						c3.349,0,5.199,3.101,5.199,9.217c0,6.116-1.874,9.218-5.112,9.218C-131.68,390.012-133.707,386.911-133.707,380.794z"/>
				</g>
				<g id="g68" transform="translate(386.5391,389.1621)">
					<path id="path70" inkscape:connector-curvature="0" fill="#373535" d="M-266.188,380.675c-0.391,7.398,1.511,8.51,2.8,8.55
						c1.934,0.061,3.251-1.884,3.462-8.262c0.237-7.173-1.118-8.588-2.8-8.6C-264.262,372.351-265.797,373.277-266.188,380.675
						 M-268.258,380.794c0-6.369,2.13-9.217,5.2-9.217c3.349,0,5.199,3.101,5.199,9.217c0,6.116-1.874,9.218-5.113,9.218
						C-266.23,390.012-268.258,386.911-268.258,380.794"/>
				</g>
				<g id="g72" transform="translate(386.5391,389.1621)">
					<path id="path74" inkscape:connector-curvature="0" fill="none" stroke="#373535" stroke-width="0.5" d="M-266.188,380.675
						c-0.391,7.398,1.511,8.51,2.8,8.55c1.934,0.061,3.251-1.884,3.462-8.262c0.237-7.173-1.118-8.588-2.8-8.6
						C-264.262,372.351-265.797,373.277-266.188,380.675z M-268.258,380.794c0-6.369,2.13-9.217,5.2-9.217
						c3.349,0,5.199,3.101,5.199,9.217c0,6.116-1.874,9.218-5.113,9.218C-266.23,390.012-268.258,386.911-268.258,380.794z"/>
				</g>
				<g id="g76" transform="translate(46.4473,395.9844)">
					<path id="path78" inkscape:connector-curvature="0" fill="#373535" d="M-34.926,376.037c0-7.486,2.227-11.282,6.578-11.282
						c3.554,0,5.164,2.95,5.338,7.532h-1.418c-0.241-5.67-2.202-6.624-3.729-6.684c-1.62-0.065-4.059,1.035-4.422,10.285
						c-0.259,6.609,1.393,10.443,4.212,10.584c1.904,0,3.533-0.558,4.377-5.298h0.476v5.797h-0.418
						c-0.294-0.357-0.522-0.435-0.831-0.435c-0.274,0-0.61,0.11-0.924,0.249c-0.509,0.224-1.207,0.533-2.445,0.533
						C-30.669,387.319-34.926,385.43-34.926,376.037"/>
				</g>
				<g id="g80" transform="translate(46.4473,395.9844)">
					<path id="path82" inkscape:connector-curvature="0" fill="none" stroke="#373535" stroke-width="0.5" d="M-34.926,376.037
						c0-7.486,2.227-11.282,6.578-11.282c3.554,0,5.164,2.95,5.338,7.532h-1.418c-0.241-5.67-2.202-6.624-3.729-6.684
						c-1.62-0.065-4.059,1.035-4.422,10.285c-0.259,6.609,1.393,10.443,4.212,10.584c1.904,0,3.533-0.558,4.377-5.298h0.476v5.797
						h-0.418c-0.294-0.357-0.522-0.435-0.831-0.435c-0.274,0-0.61,0.11-0.924,0.249c-0.509,0.224-1.207,0.533-2.445,0.533
						C-30.669,387.319-34.926,385.43-34.926,376.037z"/>
				</g>
				<g id="g84" transform="translate(340.4385,395.9844)">
					<path id="path86" inkscape:connector-curvature="0" fill="#373535" d="M-234.84,376.037c0-7.486,2.227-11.282,6.578-11.282
						c3.554,0,5.164,2.95,5.338,7.532h-1.418c-0.241-5.67-2.202-6.624-3.729-6.684c-1.621-0.065-4.059,1.035-4.421,10.285
						c-0.259,6.609,1.393,10.443,4.212,10.584c1.904,0,3.532-0.558,4.377-5.298h0.475v5.797h-0.418
						c-0.294-0.357-0.522-0.435-0.831-0.435c-0.274,0-0.609,0.11-0.923,0.249c-0.509,0.224-1.207,0.533-2.445,0.533
						C-230.583,387.319-234.84,385.43-234.84,376.037"/>
				</g>
				<g id="g88" transform="translate(340.4385,395.9844)">
					<path id="path90" inkscape:connector-curvature="0" fill="none" stroke="#373535" stroke-width="0.5" d="M-234.84,376.037
						c0-7.486,2.227-11.282,6.578-11.282c3.554,0,5.164,2.95,5.338,7.532h-1.418c-0.241-5.67-2.202-6.624-3.729-6.684
						c-1.621-0.065-4.059,1.035-4.421,10.285c-0.259,6.609,1.393,10.443,4.212,10.584c1.904,0,3.532-0.558,4.377-5.298h0.475v5.797
						h-0.418c-0.294-0.357-0.522-0.435-0.831-0.435c-0.274,0-0.609,0.11-0.923,0.249c-0.509,0.224-1.207,0.533-2.445,0.533
						C-230.583,387.319-234.84,385.43-234.84,376.037z"/>
				</g>
				<g id="g92" transform="translate(254.667,384.543)">
					<path id="path94" inkscape:connector-curvature="0" fill="#373535" d="M-176.515,383.815c0.439,1.844,0.904,3.83,1.27,5.477
						c0.062,0.294,0.105,0.571,0.13,0.842c0.024-0.262,0.057-0.558,0.129-0.825c0.375-1.494,0.869-3.541,1.335-5.494H-176.515z
						 M-185.085,385.768h-0.635v6.873c0,0.638,0.461,0.843,1.314,0.843c1.397,0,2.021-1.678,2.145-3.251
						C-182.015,387.109-183.257,385.768-185.085,385.768 M-168.849,376.97c-1.014,0.078-1.184,0.39-1.346,1.008l-1.257,4.791
						c-1.093,4.408-2.961,11.862-2.961,11.862h-0.484c0,0-4.036-16.077-4.179-16.66c-0.146-0.595-0.296-0.991-0.474-0.991
						c-0.177,0-0.33,0.265-0.457,0.55l-0.579,1.467c0,0-2.368,5.951-2.477,6.225c1.757,0.574,2.915,2.184,2.915,4.459
						c0,3.053-1.467,4.666-4.32,4.666h-4.548v-0.486c1.105-0.082,1.342-0.318,1.342-0.969v-14.953c0-0.651-0.262-0.887-1.342-0.969
						v-0.485h4.636v0.485c-1.089,0.082-1.341,0.318-1.341,0.969v7.062h0.638c1.102-2.694,2.059-5.155,2.577-6.484l0.392-1.001
						c0.312-0.757,0.857-1.032,1.661-1.032h3.578v0.485c-0.611,0.042-0.879,0.115-1.004,0.315c-0.089,0.143-0.109,0.389-0.044,0.658
						c0.064,0.268,0.922,3.838,1.202,5.009h3.275c0.28-1.178,1.073-4.533,1.162-4.896c0.063-0.262,0.087-0.555-0.037-0.709
						c-0.188-0.234-0.508-0.328-1.273-0.378v-0.485h4.746V376.97z"/>
				</g>
				<g id="g96" transform="translate(254.667,384.543)">
					<path id="path98" inkscape:connector-curvature="0" fill="none" stroke="#373535" stroke-width="0.5" d="M-176.515,383.815
						c0.439,1.844,0.904,3.83,1.27,5.477c0.062,0.294,0.105,0.571,0.13,0.842c0.024-0.262,0.057-0.558,0.129-0.825
						c0.375-1.494,0.869-3.541,1.335-5.494H-176.515z M-185.085,385.768h-0.635v6.873c0,0.638,0.461,0.843,1.314,0.843
						c1.397,0,2.021-1.678,2.145-3.251C-182.015,387.109-183.257,385.768-185.085,385.768z M-168.849,376.97
						c-1.014,0.078-1.184,0.39-1.346,1.008l-1.257,4.791c-1.093,4.408-2.961,11.862-2.961,11.862h-0.484
						c0,0-4.036-16.077-4.179-16.66c-0.146-0.595-0.296-0.991-0.474-0.991c-0.177,0-0.33,0.265-0.457,0.55l-0.579,1.467
						c0,0-2.368,5.951-2.477,6.225c1.757,0.574,2.915,2.184,2.915,4.459c0,3.053-1.467,4.666-4.32,4.666h-4.548v-0.486
						c1.105-0.082,1.342-0.318,1.342-0.969v-14.953c0-0.651-0.262-0.887-1.342-0.969v-0.485h4.636v0.485
						c-1.089,0.082-1.341,0.318-1.341,0.969v7.062h0.638c1.102-2.694,2.059-5.155,2.577-6.484l0.392-1.001
						c0.312-0.757,0.857-1.032,1.661-1.032h3.578v0.485c-0.611,0.042-0.879,0.115-1.004,0.315c-0.089,0.143-0.109,0.389-0.044,0.658
						c0.064,0.268,0.922,3.838,1.202,5.009h3.275c0.28-1.178,1.073-4.533,1.162-4.896c0.063-0.262,0.087-0.555-0.037-0.709
						c-0.188-0.234-0.508-0.328-1.273-0.378v-0.485h4.746V376.97z"/>
				</g>
				<g id="g100" transform="translate(328.375,373.9434)">
					<path id="path102" inkscape:connector-curvature="0" fill="#373535" d="M-226.637,391.021c-0.769-2.61-1.297-3.073-2.098-3.073
						h-2.317c-0.427,0-0.545,0.128-0.545,0.591v7.271h2.098c0.939,0,1.371-1.082,1.436-2.128h0.486v4.77h-0.486
						c-0.1-1.084-0.39-1.778-1.436-1.778h-2.098v7.194c0,0.2,0.084,0.216,0.212,0.216h2.175c0.801,0,1.347-0.527,2.099-3.073h0.506
						l-0.456,4.334l-0.042,0.016c0,0-0.202-0.413-0.814-0.413h-6.974v-0.486c1.109-0.081,1.342-0.318,1.342-0.969v-14.953
						c0-0.652-0.259-0.892-1.342-0.97v-0.486h7.448c0.612,0,0.813-0.413,0.813-0.413l0.043,0.007l0.455,4.343H-226.637z"/>
				</g>
				<g id="g104" transform="translate(328.375,373.9434)">
					<path id="path106" inkscape:connector-curvature="0" fill="none" stroke="#373535" stroke-width="0.5" d="M-226.637,391.021
						c-0.769-2.61-1.297-3.073-2.098-3.073h-2.317c-0.427,0-0.545,0.128-0.545,0.591v7.271h2.098c0.939,0,1.371-1.082,1.436-2.128
						h0.486v4.77h-0.486c-0.1-1.084-0.39-1.778-1.436-1.778h-2.098v7.194c0,0.2,0.084,0.216,0.212,0.216h2.175
						c0.801,0,1.347-0.527,2.099-3.073h0.506l-0.456,4.334l-0.042,0.016c0,0-0.202-0.413-0.814-0.413h-6.974v-0.486
						c1.109-0.081,1.342-0.318,1.342-0.969v-14.953c0-0.652-0.259-0.892-1.342-0.97v-0.486h7.448c0.612,0,0.813-0.413,0.813-0.413
						l0.043,0.007l0.455,4.343H-226.637z"/>
				</g>
				<g id="g108" transform="translate(537.2607,373.9434)">
					<path id="path110" inkscape:connector-curvature="0" fill="#373535" d="M-368.679,391.021c-0.77-2.61-1.298-3.073-2.099-3.073
						h-2.317c-0.427,0-0.543,0.128-0.543,0.591v7.271h2.097c0.938,0,1.371-1.082,1.436-2.128h0.486v4.77h-0.486
						c-0.1-1.084-0.39-1.778-1.436-1.778h-2.097v7.194c0,0.2,0.084,0.216,0.211,0.216h2.175c0.801,0,1.347-0.527,2.098-3.073h0.507
						l-0.456,4.334l-0.042,0.016c0,0-0.202-0.413-0.814-0.413h-6.973v-0.486c1.108-0.081,1.341-0.318,1.341-0.969v-14.953
						c0-0.652-0.259-0.892-1.341-0.97v-0.486h7.448c0.611,0,0.813-0.413,0.813-0.413l0.043,0.007l0.455,4.343H-368.679z"/>
				</g>
				<g id="g112" transform="translate(537.2607,373.9434)">
					<path id="path114" inkscape:connector-curvature="0" fill="none" stroke="#373535" stroke-width="0.5" d="M-368.679,391.021
						c-0.77-2.61-1.298-3.073-2.099-3.073h-2.317c-0.427,0-0.543,0.128-0.543,0.591v7.271h2.097c0.938,0,1.371-1.082,1.436-2.128
						h0.486v4.77h-0.486c-0.1-1.084-0.39-1.778-1.436-1.778h-2.097v7.194c0,0.2,0.084,0.216,0.211,0.216h2.175
						c0.801,0,1.347-0.527,2.098-3.073h0.507l-0.456,4.334l-0.042,0.016c0,0-0.202-0.413-0.814-0.413h-6.973v-0.486
						c1.108-0.081,1.341-0.318,1.341-0.969v-14.953c0-0.652-0.259-0.892-1.341-0.97v-0.486h7.448c0.611,0,0.813-0.413,0.813-0.413
						l0.043,0.007l0.455,4.343H-368.679z"/>
				</g>
				<g id="g116" transform="translate(482.0342,417.4399)">
					<path id="path118" inkscape:connector-curvature="0" fill="#373535" d="M-331.125,361.451h-3.518v-0.486
						c1.067-0.068,1.342-0.318,1.342-0.969v-9.49l0.036-1.13l-0.402,1.029l-4.859,11.046h-3.146v-0.486
						c1.096-0.092,1.341-0.318,1.341-0.969v-14.953c0-0.651-0.275-0.901-1.341-0.969v-0.485h3.668v0.485
						c-1.06,0.073-1.341,0.318-1.341,0.969v12.58c0,0.382-0.019,0.762-0.043,0.99c0.068-0.209,0.196-0.536,0.347-0.887
						c1.332-3.091,6.202-14.415,6.202-14.415h0.524v16.686c0,0.651,0.292,0.906,1.343,0.969v0.486H-331.125z"/>
				</g>
				<g id="g120" transform="translate(482.0342,417.4399)">
					<path id="path122" inkscape:connector-curvature="0" fill="none" stroke="#373535" stroke-width="0.5" d="M-331.125,361.451
						h-3.518v-0.486c1.067-0.068,1.342-0.318,1.342-0.969v-9.49l0.036-1.13l-0.402,1.029l-4.859,11.046h-3.146v-0.486
						c1.096-0.092,1.341-0.318,1.341-0.969v-14.953c0-0.651-0.275-0.901-1.341-0.969v-0.485h3.668v0.485
						c-1.06,0.073-1.341,0.318-1.341,0.969v12.58c0,0.382-0.019,0.762-0.043,0.99c0.068-0.209,0.196-0.536,0.347-0.887
						c1.332-3.091,6.202-14.415,6.202-14.415h0.524v16.686c0,0.651,0.292,0.906,1.343,0.969v0.486H-331.125z"/>
				</g>
				<g id="g124" transform="translate(300.5308,418.6958)">
					<path id="path126" inkscape:connector-curvature="0" fill="#373535" d="M-207.702,360.597l-0.039,0.005
						c0,0-0.192-0.407-0.804-0.407h-6.725c-0.611,0-0.804,0.407-0.804,0.407l-0.039-0.005l-0.469-4.339h0.506
						c0.757,2.607,1.298,3.073,2.099,3.073h1.093v-15.544c0-0.652-0.296-0.911-1.342-0.97v-0.485h4.635v0.485
						c-1.046,0.059-1.342,0.318-1.342,0.97v15.544h1.094c0.801,0,1.341-0.466,2.098-3.073h0.507L-207.702,360.597z"/>
				</g>
				<g id="g128" transform="translate(300.5308,418.6958)">
					<path id="path130" inkscape:connector-curvature="0" fill="none" stroke="#373535" stroke-width="0.5" d="M-207.702,360.597
						l-0.039,0.005c0,0-0.192-0.407-0.804-0.407h-6.725c-0.611,0-0.804,0.407-0.804,0.407l-0.039-0.005l-0.469-4.339h0.506
						c0.757,2.607,1.298,3.073,2.099,3.073h1.093v-15.544c0-0.652-0.296-0.911-1.342-0.97v-0.485h4.635v0.485
						c-1.046,0.059-1.342,0.318-1.342,0.97v15.544h1.094c0.801,0,1.341-0.466,2.098-3.073h0.507L-207.702,360.597z"/>
				</g>
				<g id="g132" transform="translate(565.5352,373.9434)">
					<path id="path134" inkscape:connector-curvature="0" fill="#373535" d="M-387.905,391.021c-0.77-2.61-1.298-3.073-2.098-3.073
						h-1.808c-0.428,0-0.545,0.128-0.545,0.591v15.05c0,0.539,0.288,0.809,1.718,0.864v0.495h-5.013v-0.486
						c1.085-0.082,1.341-0.318,1.341-0.969v-14.953c0-0.652-0.295-0.915-1.341-0.97v-0.486h6.94c0.611,0,0.813-0.413,0.813-0.413
						l0.044,0.007l0.455,4.343H-387.905z"/>
				</g>
				<g id="g136" transform="translate(565.5352,373.9434)">
					<path id="path138" inkscape:connector-curvature="0" fill="none" stroke="#373535" stroke-width="0.5" d="M-387.905,391.021
						c-0.77-2.61-1.298-3.073-2.098-3.073h-1.808c-0.428,0-0.545,0.128-0.545,0.591v15.05c0,0.539,0.288,0.809,1.718,0.864v0.495
						h-5.013v-0.486c1.085-0.082,1.341-0.318,1.341-0.969v-14.953c0-0.652-0.295-0.915-1.341-0.97v-0.486h6.94
						c0.611,0,0.813-0.413,0.813-0.413l0.044,0.007l0.455,4.343H-387.905z"/>
				</g>
			</g>
		</g>
	</g>
	<g id="g144">
		<g>
			<defs>
				<rect id="SVGID_3_" x="-27.822" y="613.547" width="244.8" height="316.96"/>
			</defs>
			<clipPath id="SVGID_4_">
				<use xlink:href="#SVGID_3_"  overflow="visible"/>
			</clipPath>
			<g id="g146" clip-path="url(#SVGID_4_)">
				<g id="g152" transform="translate(163.5767,412.1089)">
					<path id="path154" inkscape:connector-curvature="0" fill="#AED3DC" d="M-114.574,365.075c0,0.638,0.273,0.843,1.126,0.843
						c1.6,0,2.059-2.004,2.193-3.575c0.283-3.327-1.025-4.639-2.684-4.639h-0.635V365.075z M-117.869,366.782v-0.486
						c1.085-0.082,1.342-0.318,1.342-0.969v-14.953c0-0.652-0.247-0.888-1.342-0.97v-0.485h4.637v0.485
						c-1.089,0.082-1.342,0.318-1.342,0.97v6.466h1.327c1.974,0,4.098,1.569,4.098,4.967c0,3.401-1.508,4.974-4.36,4.974H-117.869z"
						/>
				</g>
				<g id="g156" transform="translate(163.5767,412.1089)">
					<path id="path158" inkscape:connector-curvature="0" fill="none" stroke="#AED3DC" stroke-width="0.5" d="M-114.574,365.075
						c0,0.638,0.273,0.843,1.126,0.843c1.6,0,2.059-2.004,2.193-3.575c0.283-3.327-1.025-4.639-2.684-4.639h-0.635V365.075z
						 M-117.869,366.782v-0.486c1.085-0.082,1.342-0.318,1.342-0.969v-14.953c0-0.652-0.247-0.888-1.342-0.97v-0.485h4.637v0.485
						c-1.089,0.082-1.342,0.318-1.342,0.97v6.466h1.327c1.974,0,4.098,1.569,4.098,4.967c0,3.401-1.508,4.974-4.36,4.974H-117.869z"
						/>
				</g>
				<g id="g160" transform="translate(437.5986,417.4399)">
					<path id="path162" inkscape:connector-curvature="0" fill="#AED3DC" d="M-300.909,361.451v-0.486
						c1.075-0.063,1.342-0.318,1.342-0.969v-11.929c0-3.262-1.786-3.749-2.85-3.749c-1.827,0-2.678,1.144-2.678,3.598v12.08
						c0,0.651,0.257,0.882,1.341,0.969v0.486h-4.636v-0.486c1.079-0.073,1.341-0.318,1.341-0.969v-12.08
						c0-3.088,1.466-4.59,4.482-4.59c1.818,0,3.986,0.86,3.986,4.957v11.713c0,0.651,0.27,0.891,1.342,0.969v0.486H-300.909z"/>
				</g>
				<g id="g164" transform="translate(437.5986,417.4399)">
					<path id="path166" inkscape:connector-curvature="0" fill="none" stroke="#AED3DC" stroke-width="0.5" d="M-300.909,361.451
						v-0.486c1.075-0.063,1.342-0.318,1.342-0.969v-11.929c0-3.262-1.786-3.749-2.85-3.749c-1.827,0-2.678,1.144-2.678,3.598v12.08
						c0,0.651,0.257,0.882,1.341,0.969v0.486h-4.636v-0.486c1.079-0.073,1.341-0.318,1.341-0.969v-12.08
						c0-3.088,1.466-4.59,4.482-4.59c1.818,0,3.986,0.86,3.986,4.957v11.713c0,0.651,0.27,0.891,1.342,0.969v0.486H-300.909z"/>
				</g>
				<g id="g168" transform="translate(484.8857,403.8926)">
					<path id="path170" inkscape:connector-curvature="0" fill="#AED3DC" d="M-333.064,370.661c0-3.131,1.523-4.134,3.829-5.234
						c2.166-1.034,3.091-2.359,3.091-4.434c0-1.55-0.789-3.359-3.016-3.359c-1.853,0-3.022,1.486-3.531,4.684h-0.45v-5.25h0.428
						c0.113,0.62,0.289,0.79,0.491,0.79c0.285,0,0.545-0.235,0.718-0.364c0.544-0.407,1.332-0.637,2.327-0.637
						c2.788,0,4.452,1.943,4.452,5.199c0,2.655-1.304,4.433-3.902,5.627c-2.366,1.087-2.951,2.019-2.951,3.855
						c0,2.016,1.2,2.961,2.738,2.961c1.203,0,2.65-0.813,2.923-4.138h0.452v4.738h-0.429c-0.154-0.497-0.285-0.609-0.491-0.609
						c-0.065,0-0.229,0.087-0.376,0.189c-0.373,0.257-1.061,0.646-2.023,0.646C-331.264,375.324-333.064,373.294-333.064,370.661"/>
				</g>
				<g id="g172" transform="translate(484.8857,403.8926)">
					<path id="path174" inkscape:connector-curvature="0" fill="none" stroke="#AED3DC" stroke-width="0.5" d="M-333.064,370.661
						c0-3.131,1.523-4.134,3.829-5.234c2.166-1.034,3.091-2.359,3.091-4.434c0-1.55-0.789-3.359-3.016-3.359
						c-1.853,0-3.022,1.486-3.531,4.684h-0.45v-5.25h0.428c0.113,0.62,0.289,0.79,0.491,0.79c0.285,0,0.545-0.235,0.718-0.364
						c0.544-0.407,1.332-0.637,2.327-0.637c2.788,0,4.452,1.943,4.452,5.199c0,2.655-1.304,4.433-3.902,5.627
						c-2.366,1.087-2.951,2.019-2.951,3.855c0,2.016,1.2,2.961,2.738,2.961c1.203,0,2.65-0.813,2.923-4.138h0.452v4.738h-0.429
						c-0.154-0.497-0.285-0.609-0.491-0.609c-0.065,0-0.229,0.087-0.376,0.189c-0.373,0.257-1.061,0.646-2.023,0.646
						C-331.264,375.324-333.064,373.294-333.064,370.661z"/>
				</g>
				<g id="g176" transform="translate(132.3887,412.1089)">
					<path id="path178" inkscape:connector-curvature="0" fill="#AED3DC" d="M-93.366,365.075c0,0.638,0.462,0.843,1.314,0.843
						c1.397,0,2.011-1.679,2.144-3.251c0.215-2.551-0.605-4.464-2.823-4.464h-0.635V365.075z M-96.661,366.782v-0.486
						c1.093-0.082,1.342-0.318,1.342-0.969v-14.953c0-0.652-0.259-0.888-1.342-0.97v-0.485h4.636v0.485
						c-1.1,0.082-1.341,0.318-1.341,0.97v7.062h0.638c1.102-2.694,2.06-5.155,2.577-6.484l0.393-1.001
						c0.311-0.757,0.8-1.079,1.603-1.079c0.854,0,1.409,0.047,1.409,0.047v0.485c-0.588,0-0.73,0.2-0.943,0.654l-0.543,1.372
						c0,0-2.368,5.951-2.477,6.225c1.757,0.574,2.916,2.184,2.916,4.459c0,3.053-1.468,4.666-4.32,4.666H-96.661z"/>
				</g>
				<g id="g180" transform="translate(132.3887,412.1089)">
					<path id="path182" inkscape:connector-curvature="0" fill="none" stroke="#AED3DC" stroke-width="0.5" d="M-93.366,365.075
						c0,0.638,0.462,0.843,1.314,0.843c1.397,0,2.011-1.679,2.144-3.251c0.215-2.551-0.605-4.464-2.823-4.464h-0.635V365.075z
						 M-96.661,366.782v-0.486c1.093-0.082,1.342-0.318,1.342-0.969v-14.953c0-0.652-0.259-0.888-1.342-0.97v-0.485h4.636v0.485
						c-1.1,0.082-1.341,0.318-1.341,0.97v7.062h0.638c1.102-2.694,2.06-5.155,2.577-6.484l0.393-1.001
						c0.311-0.757,0.8-1.079,1.603-1.079c0.854,0,1.409,0.047,1.409,0.047v0.485c-0.588,0-0.73,0.2-0.943,0.654l-0.543,1.372
						c0,0-2.368,5.951-2.477,6.225c1.757,0.574,2.916,2.184,2.916,4.459c0,3.053-1.468,4.666-4.32,4.666H-96.661z"/>
				</g>
				<g id="g184" transform="translate(94.8477,389.1621)">
					<path id="path186" inkscape:connector-curvature="0" fill="#AED3DC" d="M-67.838,380.675c-0.391,7.398,1.51,8.51,2.799,8.55
						c1.934,0.061,3.252-1.884,3.462-8.262c0.237-7.173-1.118-8.588-2.801-8.6C-65.912,372.351-67.447,373.277-67.838,380.675
						 M-69.907,380.794c0-6.369,2.131-9.217,5.2-9.217c3.349,0,5.199,3.101,5.199,9.217c0,6.116-1.873,9.218-5.112,9.218
						C-67.88,390.012-69.907,386.911-69.907,380.794"/>
				</g>
				<g id="g188" transform="translate(94.8477,389.1621)">
					<path id="path190" inkscape:connector-curvature="0" fill="none" stroke="#AED3DC" stroke-width="0.5" d="M-67.838,380.675
						c-0.391,7.398,1.51,8.51,2.799,8.55c1.934,0.061,3.252-1.884,3.462-8.262c0.237-7.173-1.118-8.588-2.801-8.6
						C-65.912,372.351-67.447,373.277-67.838,380.675z M-69.907,380.794c0-6.369,2.131-9.217,5.2-9.217
						c3.349,0,5.199,3.101,5.199,9.217c0,6.116-1.873,9.218-5.112,9.218C-67.88,390.012-69.907,386.911-69.907,380.794z"/>
				</g>
				<g id="g192" transform="translate(189.6709,389.1621)">
					<path id="path194" inkscape:connector-curvature="0" fill="#AED3DC" d="M-132.318,380.675c-0.391,7.398,1.51,8.51,2.8,8.55
						c1.934,0.061,3.251-1.884,3.461-8.262c0.238-7.173-1.117-8.588-2.8-8.6C-130.391,372.351-131.927,373.277-132.318,380.675
						 M-134.387,380.794c0-6.369,2.13-9.217,5.2-9.217c3.349,0,5.199,3.101,5.199,9.217c0,6.116-1.874,9.218-5.113,9.218
						C-132.36,390.012-134.387,386.911-134.387,380.794"/>
				</g>
				<g id="g196" transform="translate(189.6709,389.1621)">
					<path id="path198" inkscape:connector-curvature="0" fill="none" stroke="#AED3DC" stroke-width="0.5" d="M-132.318,380.675
						c-0.391,7.398,1.51,8.51,2.8,8.55c1.934,0.061,3.251-1.884,3.461-8.262c0.238-7.173-1.117-8.588-2.8-8.6
						C-130.391,372.351-131.927,373.277-132.318,380.675z M-134.387,380.794c0-6.369,2.13-9.217,5.2-9.217
						c3.349,0,5.199,3.101,5.199,9.217c0,6.116-1.874,9.218-5.113,9.218C-132.36,390.012-134.387,386.911-134.387,380.794z"/>
				</g>
				<g id="g200" transform="translate(387.5391,389.1621)">
					<path id="path202" inkscape:connector-curvature="0" fill="#AED3DC" d="M-266.869,380.675c-0.391,7.398,1.511,8.51,2.8,8.55
						c1.934,0.061,3.251-1.884,3.462-8.262c0.237-7.173-1.118-8.588-2.8-8.6C-264.942,372.351-266.477,373.277-266.869,380.675
						 M-268.938,380.794c0-6.369,2.13-9.217,5.2-9.217c3.349,0,5.199,3.101,5.199,9.217c0,6.116-1.874,9.218-5.113,9.218
						C-266.91,390.012-268.938,386.911-268.938,380.794"/>
				</g>
				<g id="g204" transform="translate(387.5391,389.1621)">
					<path id="path206" inkscape:connector-curvature="0" fill="none" stroke="#AED3DC" stroke-width="0.5" d="M-266.869,380.675
						c-0.391,7.398,1.511,8.51,2.8,8.55c1.934,0.061,3.251-1.884,3.462-8.262c0.237-7.173-1.118-8.588-2.8-8.6
						C-264.942,372.351-266.477,373.277-266.869,380.675z M-268.938,380.794c0-6.369,2.13-9.217,5.2-9.217
						c3.349,0,5.199,3.101,5.199,9.217c0,6.116-1.874,9.218-5.113,9.218C-266.91,390.012-268.938,386.911-268.938,380.794z"/>
				</g>
				<g id="g208" transform="translate(47.4473,395.9844)">
					<path id="path210" inkscape:connector-curvature="0" fill="#AED3DC" d="M-35.606,376.037c0-7.486,2.228-11.282,6.578-11.282
						c3.554,0,5.164,2.95,5.338,7.532h-1.418c-0.241-5.67-2.202-6.624-3.729-6.684c-1.62-0.065-4.059,1.035-4.422,10.285
						c-0.259,6.609,1.393,10.443,4.212,10.584c1.904,0,3.533-0.558,4.377-5.298h0.476v5.797h-0.418
						c-0.294-0.357-0.522-0.435-0.831-0.435c-0.274,0-0.61,0.11-0.924,0.249c-0.509,0.224-1.207,0.533-2.445,0.533
						C-31.349,387.319-35.606,385.43-35.606,376.037"/>
				</g>
				<g id="g212" transform="translate(47.4473,395.9844)">
					<path id="path214" inkscape:connector-curvature="0" fill="none" stroke="#AED3DC" stroke-width="0.5" d="M-35.606,376.037
						c0-7.486,2.228-11.282,6.578-11.282c3.554,0,5.164,2.95,5.338,7.532h-1.418c-0.241-5.67-2.202-6.624-3.729-6.684
						c-1.62-0.065-4.059,1.035-4.422,10.285c-0.259,6.609,1.393,10.443,4.212,10.584c1.904,0,3.533-0.558,4.377-5.298h0.476v5.797
						h-0.418c-0.294-0.357-0.522-0.435-0.831-0.435c-0.274,0-0.61,0.11-0.924,0.249c-0.509,0.224-1.207,0.533-2.445,0.533
						C-31.349,387.319-35.606,385.43-35.606,376.037z"/>
				</g>
				<g id="g216" transform="translate(341.4385,395.9844)">
					<path id="path218" inkscape:connector-curvature="0" fill="#AED3DC" d="M-235.52,376.037c0-7.486,2.227-11.282,6.577-11.282
						c3.554,0,5.164,2.95,5.338,7.532h-1.418c-0.241-5.67-2.202-6.624-3.729-6.684c-1.62-0.065-4.059,1.035-4.421,10.285
						c-0.258,6.609,1.393,10.443,4.212,10.584c1.904,0,3.532-0.558,4.377-5.298h0.475v5.797h-0.418
						c-0.293-0.357-0.522-0.435-0.831-0.435c-0.274,0-0.609,0.11-0.923,0.249c-0.51,0.224-1.207,0.533-2.446,0.533
						C-231.263,387.319-235.52,385.43-235.52,376.037"/>
				</g>
				<g id="g220" transform="translate(341.4385,395.9844)">
					<path id="path222" inkscape:connector-curvature="0" fill="none" stroke="#AED3DC" stroke-width="0.5" d="M-235.52,376.037
						c0-7.486,2.227-11.282,6.577-11.282c3.554,0,5.164,2.95,5.338,7.532h-1.418c-0.241-5.67-2.202-6.624-3.729-6.684
						c-1.62-0.065-4.059,1.035-4.421,10.285c-0.258,6.609,1.393,10.443,4.212,10.584c1.904,0,3.532-0.558,4.377-5.298h0.475v5.797
						h-0.418c-0.293-0.357-0.522-0.435-0.831-0.435c-0.274,0-0.609,0.11-0.923,0.249c-0.51,0.224-1.207,0.533-2.446,0.533
						C-231.263,387.319-235.52,385.43-235.52,376.037z"/>
				</g>
				<g id="g224" transform="translate(255.667,384.543)">
					<path id="path226" inkscape:connector-curvature="0" fill="#AED3DC" d="M-177.195,383.815c0.438,1.844,0.903,3.83,1.269,5.477
						c0.062,0.294,0.106,0.571,0.13,0.842c0.024-0.262,0.057-0.558,0.129-0.825c0.375-1.494,0.869-3.541,1.335-5.494H-177.195z
						 M-185.765,385.768h-0.635v6.873c0,0.638,0.461,0.843,1.314,0.843c1.397,0,2.021-1.678,2.145-3.251
						C-182.695,387.109-183.937,385.768-185.765,385.768 M-169.529,376.97c-1.014,0.078-1.184,0.39-1.346,1.008l-1.257,4.791
						c-1.093,4.408-2.961,11.862-2.961,11.862h-0.484c0,0-4.036-16.077-4.179-16.66c-0.146-0.595-0.296-0.991-0.474-0.991
						c-0.177,0-0.329,0.265-0.457,0.55l-0.579,1.467c0,0-2.368,5.951-2.477,6.225c1.757,0.574,2.915,2.184,2.915,4.459
						c0,3.053-1.467,4.666-4.319,4.666h-4.548v-0.486c1.105-0.082,1.342-0.318,1.342-0.969v-14.953c0-0.651-0.262-0.887-1.342-0.969
						v-0.485h4.636v0.485c-1.089,0.082-1.341,0.318-1.341,0.969v7.062h0.638c1.102-2.694,2.059-5.155,2.577-6.484l0.392-1.001
						c0.312-0.757,0.857-1.032,1.661-1.032h3.578v0.485c-0.611,0.042-0.879,0.115-1.004,0.315c-0.089,0.143-0.109,0.389-0.044,0.658
						c0.064,0.268,0.922,3.838,1.202,5.009h3.275c0.28-1.178,1.072-4.533,1.161-4.896c0.064-0.262,0.087-0.555-0.036-0.709
						c-0.189-0.234-0.509-0.328-1.273-0.378v-0.485h4.746V376.97z"/>
				</g>
				<g id="g228" transform="translate(255.667,384.543)">
					<path id="path230" inkscape:connector-curvature="0" fill="none" stroke="#AED3DC" stroke-width="0.5" d="M-177.195,383.815
						c0.438,1.844,0.903,3.83,1.269,5.477c0.062,0.294,0.106,0.571,0.13,0.842c0.024-0.262,0.057-0.558,0.129-0.825
						c0.375-1.494,0.869-3.541,1.335-5.494H-177.195z M-185.765,385.768h-0.635v6.873c0,0.638,0.461,0.843,1.314,0.843
						c1.397,0,2.021-1.678,2.145-3.251C-182.695,387.109-183.937,385.768-185.765,385.768z M-169.529,376.97
						c-1.014,0.078-1.184,0.39-1.346,1.008l-1.257,4.791c-1.093,4.408-2.961,11.862-2.961,11.862h-0.484
						c0,0-4.036-16.077-4.179-16.66c-0.146-0.595-0.296-0.991-0.474-0.991c-0.177,0-0.329,0.265-0.457,0.55l-0.579,1.467
						c0,0-2.368,5.951-2.477,6.225c1.757,0.574,2.915,2.184,2.915,4.459c0,3.053-1.467,4.666-4.319,4.666h-4.548v-0.486
						c1.105-0.082,1.342-0.318,1.342-0.969v-14.953c0-0.651-0.262-0.887-1.342-0.969v-0.485h4.636v0.485
						c-1.089,0.082-1.341,0.318-1.341,0.969v7.062h0.638c1.102-2.694,2.059-5.155,2.577-6.484l0.392-1.001
						c0.312-0.757,0.857-1.032,1.661-1.032h3.578v0.485c-0.611,0.042-0.879,0.115-1.004,0.315c-0.089,0.143-0.109,0.389-0.044,0.658
						c0.064,0.268,0.922,3.838,1.202,5.009h3.275c0.28-1.178,1.072-4.533,1.161-4.896c0.064-0.262,0.087-0.555-0.036-0.709
						c-0.189-0.234-0.509-0.328-1.273-0.378v-0.485h4.746V376.97z"/>
				</g>
				<g id="g232" transform="translate(329.375,373.9434)">
					<path id="path234" inkscape:connector-curvature="0" fill="#AED3DC" d="M-227.317,391.021c-0.769-2.61-1.297-3.073-2.098-3.073
						h-2.317c-0.427,0-0.545,0.128-0.545,0.591v7.271h2.098c0.939,0,1.371-1.082,1.437-2.128h0.485v4.77h-0.485
						c-0.1-1.084-0.39-1.778-1.437-1.778h-2.098v7.194c0,0.2,0.084,0.216,0.212,0.216h2.175c0.801,0,1.348-0.527,2.099-3.073h0.506
						l-0.456,4.334l-0.042,0.016c0,0-0.202-0.413-0.814-0.413h-6.974v-0.486c1.108-0.081,1.341-0.318,1.341-0.969v-14.953
						c0-0.652-0.259-0.892-1.341-0.97v-0.486h7.448c0.611,0,0.813-0.413,0.813-0.413l0.043,0.007l0.455,4.343H-227.317z"/>
				</g>
				<g id="g236" transform="translate(329.375,373.9434)">
					<path id="path238" inkscape:connector-curvature="0" fill="none" stroke="#AED3DC" stroke-width="0.5" d="M-227.317,391.021
						c-0.769-2.61-1.297-3.073-2.098-3.073h-2.317c-0.427,0-0.545,0.128-0.545,0.591v7.271h2.098c0.939,0,1.371-1.082,1.437-2.128
						h0.485v4.77h-0.485c-0.1-1.084-0.39-1.778-1.437-1.778h-2.098v7.194c0,0.2,0.084,0.216,0.212,0.216h2.175
						c0.801,0,1.348-0.527,2.099-3.073h0.506l-0.456,4.334l-0.042,0.016c0,0-0.202-0.413-0.814-0.413h-6.974v-0.486
						c1.108-0.081,1.341-0.318,1.341-0.969v-14.953c0-0.652-0.259-0.892-1.341-0.97v-0.486h7.448c0.611,0,0.813-0.413,0.813-0.413
						l0.043,0.007l0.455,4.343H-227.317z"/>
				</g>
				<g id="g240" transform="translate(538.2607,373.9434)">
					<path id="path242" inkscape:connector-curvature="0" fill="#AED3DC" d="M-369.359,391.021c-0.77-2.61-1.298-3.073-2.098-3.073
						h-2.318c-0.426,0-0.543,0.128-0.543,0.591v7.271h2.097c0.939,0,1.371-1.082,1.436-2.128h0.486v4.77h-0.486
						c-0.1-1.084-0.39-1.778-1.436-1.778h-2.097v7.194c0,0.2,0.084,0.216,0.211,0.216h2.175c0.801,0,1.347-0.527,2.098-3.073h0.507
						l-0.456,4.334l-0.042,0.016c0,0-0.202-0.413-0.814-0.413h-6.974v-0.486c1.108-0.081,1.341-0.318,1.341-0.969v-14.953
						c0-0.652-0.259-0.892-1.341-0.97v-0.486h7.449c0.611,0,0.812-0.413,0.812-0.413l0.044,0.007l0.455,4.343H-369.359z"/>
				</g>
				<g id="g244" transform="translate(538.2607,373.9434)">
					<path id="path246" inkscape:connector-curvature="0" fill="none" stroke="#AED3DC" stroke-width="0.5" d="M-369.359,391.021
						c-0.77-2.61-1.298-3.073-2.098-3.073h-2.318c-0.426,0-0.543,0.128-0.543,0.591v7.271h2.097c0.939,0,1.371-1.082,1.436-2.128
						h0.486v4.77h-0.486c-0.1-1.084-0.39-1.778-1.436-1.778h-2.097v7.194c0,0.2,0.084,0.216,0.211,0.216h2.175
						c0.801,0,1.347-0.527,2.098-3.073h0.507l-0.456,4.334l-0.042,0.016c0,0-0.202-0.413-0.814-0.413h-6.974v-0.486
						c1.108-0.081,1.341-0.318,1.341-0.969v-14.953c0-0.652-0.259-0.892-1.341-0.97v-0.486h7.449c0.611,0,0.812-0.413,0.812-0.413
						l0.044,0.007l0.455,4.343H-369.359z"/>
				</g>
				<g id="g248" transform="translate(483.0342,417.4399)">
					<path id="path250" inkscape:connector-curvature="0" fill="#AED3DC" d="M-331.805,361.451h-3.518v-0.486
						c1.067-0.068,1.342-0.318,1.342-0.969v-9.49l0.036-1.13l-0.402,1.029l-4.859,11.046h-3.146v-0.486
						c1.096-0.092,1.341-0.318,1.341-0.969v-14.953c0-0.651-0.275-0.901-1.341-0.969v-0.485h3.668v0.485
						c-1.06,0.073-1.341,0.318-1.341,0.969v12.58c0,0.382-0.019,0.762-0.043,0.99c0.068-0.209,0.195-0.536,0.347-0.887
						c1.332-3.091,6.202-14.415,6.202-14.415h0.524v16.686c0,0.651,0.292,0.906,1.343,0.969v0.486H-331.805z"/>
				</g>
				<g id="g252" transform="translate(483.0342,417.4399)">
					<path id="path254" inkscape:connector-curvature="0" fill="none" stroke="#AED3DC" stroke-width="0.5" d="M-331.805,361.451
						h-3.518v-0.486c1.067-0.068,1.342-0.318,1.342-0.969v-9.49l0.036-1.13l-0.402,1.029l-4.859,11.046h-3.146v-0.486
						c1.096-0.092,1.341-0.318,1.341-0.969v-14.953c0-0.651-0.275-0.901-1.341-0.969v-0.485h3.668v0.485
						c-1.06,0.073-1.341,0.318-1.341,0.969v12.58c0,0.382-0.019,0.762-0.043,0.99c0.068-0.209,0.195-0.536,0.347-0.887
						c1.332-3.091,6.202-14.415,6.202-14.415h0.524v16.686c0,0.651,0.292,0.906,1.343,0.969v0.486H-331.805z"/>
				</g>
				<g id="g256" transform="translate(301.5308,418.6958)">
					<path id="path258" inkscape:connector-curvature="0" fill="#AED3DC" d="M-208.383,360.597l-0.039,0.005
						c0,0-0.193-0.407-0.804-0.407h-6.725c-0.611,0-0.804,0.407-0.804,0.407l-0.039-0.005l-0.469-4.339h0.506
						c0.757,2.607,1.298,3.073,2.099,3.073h1.093v-15.544c0-0.652-0.296-0.911-1.342-0.97v-0.485h4.635v0.485
						c-1.046,0.059-1.342,0.318-1.342,0.97v15.544h1.093c0.801,0,1.341-0.466,2.098-3.073h0.507L-208.383,360.597z"/>
				</g>
				<g id="g260" transform="translate(301.5308,418.6958)">
					<path id="path262" inkscape:connector-curvature="0" fill="none" stroke="#AED3DC" stroke-width="0.5" d="M-208.383,360.597
						l-0.039,0.005c0,0-0.193-0.407-0.804-0.407h-6.725c-0.611,0-0.804,0.407-0.804,0.407l-0.039-0.005l-0.469-4.339h0.506
						c0.757,2.607,1.298,3.073,2.099,3.073h1.093v-15.544c0-0.652-0.296-0.911-1.342-0.97v-0.485h4.635v0.485
						c-1.046,0.059-1.342,0.318-1.342,0.97v15.544h1.093c0.801,0,1.341-0.466,2.098-3.073h0.507L-208.383,360.597z"/>
				</g>
				<g id="g264" transform="translate(566.5352,373.9434)">
					<path id="path266" inkscape:connector-curvature="0" fill="#AED3DC" d="M-388.585,391.021c-0.77-2.61-1.298-3.073-2.098-3.073
						h-1.808c-0.427,0-0.545,0.128-0.545,0.591v15.05c0,0.539,0.288,0.809,1.719,0.864v0.495h-5.013v-0.486
						c1.085-0.082,1.341-0.318,1.341-0.969v-14.953c0-0.652-0.295-0.915-1.341-0.97v-0.486h6.94c0.611,0,0.814-0.413,0.814-0.413
						l0.043,0.007l0.455,4.343H-388.585z"/>
				</g>
				<g id="g268" transform="translate(566.5352,373.9434)">
					<path id="path270" inkscape:connector-curvature="0" fill="none" stroke="#AED3DC" stroke-width="0.5" d="M-388.585,391.021
						c-0.77-2.61-1.298-3.073-2.098-3.073h-1.808c-0.427,0-0.545,0.128-0.545,0.591v15.05c0,0.539,0.288,0.809,1.719,0.864v0.495
						h-5.013v-0.486c1.085-0.082,1.341-0.318,1.341-0.969v-14.953c0-0.652-0.295-0.915-1.341-0.97v-0.486h6.94
						c0.611,0,0.814-0.413,0.814-0.413l0.043,0.007l0.455,4.343H-388.585z"/>
				</g>
			</g>
		</g>
	</g>
</g>
</svg>
