<?xml version="1.0" encoding="utf-8"?>
<!-- Generator: Adobe Illustrator 16.0.0, SVG Export Plug-In . SVG Version: 6.00 Build 0)  -->
<!DOCTYPE svg PUBLIC "-//W3C//DTD SVG 1.1//EN" "http://www.w3.org/Graphics/SVG/1.1/DTD/svg11.dtd">
<svg version="1.1"
	 id="svg2" xmlns:dc="http://purl.org/dc/elements/1.1/" xmlns:cc="http://creativecommons.org/ns#" xmlns:rdf="http://www.w3.org/1999/02/22-rdf-syntax-ns#" xmlns:svg="http://www.w3.org/2000/svg" xmlns:inkscape="http://www.inkscape.org/namespaces/inkscape"
	 xmlns="http://www.w3.org/2000/svg" xmlns:xlink="http://www.w3.org/1999/xlink" x="0px" y="0px" width="765px" height="990px"
	 viewBox="0 0 765 990" enable-background="new 0 0 765 990" xml:space="preserve">
<g id="g10" transform="matrix(1.25,0,0,-1.25,0,990)">
	<g id="g12">
		<g>
			<defs>
				<rect id="SVGID_1_" x="-42.398" y="574.471" width="306" height="396.2"/>
			</defs>
			<clipPath id="SVGID_2_">
				<use xlink:href="#SVGID_1_"  overflow="visible"/>
			</clipPath>
			<g id="g14" clip-path="url(#SVGID_2_)">
				<g id="g20" transform="translate(162.5767,412.1089)">
					<path id="path22" inkscape:connector-curvature="0" fill="#373535" d="M-109.344,366.908c0,0.798,0.342,1.054,1.407,1.054
						c1.999,0,2.574-2.505,2.742-4.469c0.354-4.159-1.281-5.798-3.355-5.798h-0.794V366.908z M-113.462,369.042v-0.607
						c1.356-0.102,1.677-0.398,1.677-1.211v-18.691c0-0.815-0.309-1.109-1.677-1.212v-0.607h5.796v0.607
						c-1.361,0.103-1.677,0.397-1.677,1.212v8.083h1.659c2.468,0,5.123,1.961,5.123,6.209c0,4.251-1.885,6.218-5.45,6.218H-113.462z
						"/>
				</g>
				<g id="g24" transform="translate(162.5767,412.1089)">
					<path id="path26" inkscape:connector-curvature="0" fill="none" stroke="#373535" stroke-width="0.5" d="M-109.344,366.908
						c0,0.798,0.342,1.054,1.407,1.054c1.999,0,2.574-2.505,2.742-4.469c0.354-4.159-1.281-5.798-3.355-5.798h-0.794V366.908z
						 M-113.462,369.042v-0.607c1.356-0.102,1.677-0.398,1.677-1.211v-18.691c0-0.815-0.309-1.109-1.677-1.212v-0.607h5.796v0.607
						c-1.361,0.103-1.677,0.397-1.677,1.212v8.083h1.659c2.468,0,5.123,1.961,5.123,6.209c0,4.251-1.885,6.218-5.45,6.218H-113.462z
						"/>
				</g>
				<g id="g28" transform="translate(436.5986,417.4399)">
					<path id="path30" inkscape:connector-curvature="0" fill="#373535" d="M-273.757,363.711v-0.607
						c1.343-0.079,1.678-0.398,1.678-1.211v-14.911c0-4.078-2.233-4.687-3.562-4.687c-2.284,0-3.348,1.43-3.348,4.497v15.1
						c0,0.813,0.322,1.102,1.676,1.211v0.607h-5.795v-0.607c1.349-0.091,1.676-0.398,1.676-1.211v-15.1
						c0-3.861,1.833-5.738,5.602-5.738c2.273,0,4.982,1.075,4.982,6.196v14.642c0,0.813,0.338,1.114,1.677,1.211v0.607H-273.757z"/>
				</g>
				<g id="g32" transform="translate(436.5986,417.4399)">
					<path id="path34" inkscape:connector-curvature="0" fill="none" stroke="#373535" stroke-width="0.5" d="M-273.757,363.711
						v-0.607c1.343-0.079,1.678-0.398,1.678-1.211v-14.911c0-4.078-2.233-4.687-3.562-4.687c-2.284,0-3.348,1.43-3.348,4.497v15.1
						c0,0.813,0.322,1.102,1.676,1.211v0.607h-5.795v-0.607c1.349-0.091,1.676-0.398,1.676-1.211v-15.1
						c0-3.861,1.833-5.738,5.602-5.738c2.273,0,4.982,1.075,4.982,6.196v14.642c0,0.813,0.338,1.114,1.677,1.211v0.607H-273.757z"/>
				</g>
				<g id="g36" transform="translate(483.8857,403.8926)">
					<path id="path38" inkscape:connector-curvature="0" fill="#373535" d="M-302.129,371.837c0-3.914,1.905-5.167,4.786-6.543
						c2.708-1.292,3.863-2.949,3.863-5.543c0-1.937-0.987-4.198-3.77-4.198c-2.316,0-3.777,1.857-4.414,5.855h-0.562v-6.563h0.536
						c0.141,0.774,0.361,0.987,0.614,0.987c0.356,0,0.681-0.293,0.898-0.454c0.68-0.509,1.666-0.797,2.908-0.797
						c3.484,0,5.566,2.429,5.566,6.499c0,3.318-1.63,5.541-4.877,7.033c-2.958,1.359-3.689,2.523-3.689,4.819
						c0,2.52,1.5,3.701,3.423,3.701c1.504,0,3.313-1.016,3.654-5.173h0.565v5.923h-0.536c-0.192-0.621-0.356-0.762-0.614-0.762
						c-0.081,0-0.286,0.109-0.47,0.236c-0.466,0.321-1.327,0.807-2.529,0.807C-299.878,377.666-302.129,375.128-302.129,371.837"/>
				</g>
				<g id="g40" transform="translate(483.8857,403.8926)">
					<path id="path42" inkscape:connector-curvature="0" fill="none" stroke="#373535" stroke-width="0.5" d="M-302.129,371.837
						c0-3.914,1.905-5.167,4.786-6.543c2.708-1.292,3.863-2.949,3.863-5.543c0-1.937-0.987-4.198-3.77-4.198
						c-2.316,0-3.777,1.857-4.414,5.855h-0.562v-6.563h0.536c0.141,0.774,0.361,0.987,0.614,0.987c0.356,0,0.681-0.293,0.898-0.454
						c0.68-0.509,1.666-0.797,2.908-0.797c3.484,0,5.566,2.429,5.566,6.499c0,3.318-1.63,5.541-4.877,7.033
						c-2.958,1.359-3.689,2.523-3.689,4.819c0,2.52,1.5,3.701,3.423,3.701c1.504,0,3.313-1.016,3.654-5.173h0.565v5.923h-0.536
						c-0.192-0.621-0.356-0.762-0.614-0.762c-0.081,0-0.286,0.109-0.47,0.236c-0.466,0.321-1.327,0.807-2.529,0.807
						C-299.878,377.666-302.129,375.128-302.129,371.837z"/>
				</g>
				<g id="g44" transform="translate(131.3887,412.1089)">
					<path id="path46" inkscape:connector-curvature="0" fill="#373535" d="M-90.631,366.908c0,0.798,0.577,1.054,1.643,1.054
						c1.746,0,2.514-2.099,2.68-4.064c0.269-3.189-0.757-5.58-3.529-5.58h-0.794V366.908z M-94.749,369.042v-0.607
						c1.366-0.102,1.677-0.398,1.677-1.211v-18.691c0-0.815-0.324-1.109-1.677-1.212v-0.607h5.796v0.607
						c-1.376,0.103-1.677,0.397-1.677,1.212v8.827h0.797c1.378-3.367,2.575-6.443,3.221-8.105l0.491-1.251
						c0.389-0.946,1-1.348,2.004-1.348c1.067,0,1.761,0.059,1.761,0.059v0.607c-0.734,0-0.912,0.25-1.179,0.818l-0.678,1.716
						c0,0-2.959,7.438-3.096,7.781c2.197,0.718,3.645,2.73,3.645,5.575c0,3.816-1.834,5.833-5.4,5.833H-94.749z"/>
				</g>
				<g id="g48" transform="translate(131.3887,412.1089)">
					<path id="path50" inkscape:connector-curvature="0" fill="none" stroke="#373535" stroke-width="0.5" d="M-90.631,366.908
						c0,0.798,0.577,1.054,1.643,1.054c1.746,0,2.514-2.099,2.68-4.064c0.269-3.189-0.757-5.58-3.529-5.58h-0.794V366.908z
						 M-94.749,369.042v-0.607c1.366-0.102,1.677-0.398,1.677-1.211v-18.691c0-0.815-0.324-1.109-1.677-1.212v-0.607h5.796v0.607
						c-1.376,0.103-1.677,0.397-1.677,1.212v8.827h0.797c1.378-3.367,2.575-6.443,3.221-8.105l0.491-1.251
						c0.389-0.946,1-1.348,2.004-1.348c1.067,0,1.761,0.059,1.761,0.059v0.607c-0.734,0-0.912,0.25-1.179,0.818l-0.678,1.716
						c0,0-2.959,7.438-3.096,7.781c2.197,0.718,3.645,2.73,3.645,5.575c0,3.816-1.834,5.833-5.4,5.833H-94.749z"/>
				</g>
				<g id="g52" transform="translate(93.8477,389.1621)">
					<path id="path54" inkscape:connector-curvature="0" fill="#373535" d="M-68.106,380.672
						c-0.489,9.248,1.887,10.638,3.499,10.688c2.418,0.076,4.064-2.355,4.328-10.327c0.296-8.967-1.397-10.734-3.501-10.75
						C-65.699,370.267-67.617,371.425-68.106,380.672 M-70.693,380.821c0-7.961,2.664-11.521,6.5-11.521
						c4.186,0,6.499,3.877,6.499,11.521c0,7.646-2.342,11.522-6.391,11.522C-68.158,392.343-70.693,388.467-70.693,380.821"/>
				</g>
				<g id="g56" transform="translate(93.8477,389.1621)">
					<path id="path58" inkscape:connector-curvature="0" fill="none" stroke="#373535" stroke-width="0.5" d="M-68.106,380.672
						c-0.489,9.248,1.887,10.638,3.499,10.688c2.418,0.076,4.064-2.355,4.328-10.327c0.296-8.967-1.397-10.734-3.501-10.75
						C-65.699,370.267-67.617,371.425-68.106,380.672z M-70.693,380.821c0-7.961,2.664-11.521,6.5-11.521
						c4.186,0,6.499,3.877,6.499,11.521c0,7.646-2.342,11.522-6.391,11.522C-68.158,392.343-70.693,388.467-70.693,380.821z"/>
				</g>
				<g id="g60" transform="translate(188.6709,389.1621)">
					<path id="path62" inkscape:connector-curvature="0" fill="#373535" d="M-125,380.672c-0.489,9.248,1.888,10.638,3.5,10.688
						c2.418,0.076,4.064-2.355,4.327-10.327c0.297-8.967-1.396-10.734-3.501-10.75C-122.592,370.267-124.511,371.425-125,380.672
						 M-127.587,380.821c0-7.961,2.663-11.521,6.5-11.521c4.186,0,6.499,3.877,6.499,11.521c0,7.646-2.343,11.522-6.39,11.522
						C-125.052,392.343-127.587,388.467-127.587,380.821"/>
				</g>
				<g id="g64" transform="translate(188.6709,389.1621)">
					<path id="path66" inkscape:connector-curvature="0" fill="none" stroke="#373535" stroke-width="0.5" d="M-125,380.672
						c-0.489,9.248,1.888,10.638,3.5,10.688c2.418,0.076,4.064-2.355,4.327-10.327c0.297-8.967-1.396-10.734-3.501-10.75
						C-122.592,370.267-124.511,371.425-125,380.672z M-127.587,380.821c0-7.961,2.663-11.521,6.5-11.521
						c4.186,0,6.499,3.877,6.499,11.521c0,7.646-2.343,11.522-6.39,11.522C-125.052,392.343-127.587,388.467-127.587,380.821z"/>
				</g>
				<g id="g68" transform="translate(386.5391,389.1621)">
					<path id="path70" inkscape:connector-curvature="0" fill="#373535" d="M-243.721,380.672c-0.489,9.248,1.888,10.638,3.5,10.688
						c2.418,0.076,4.064-2.355,4.327-10.327c0.296-8.967-1.397-10.734-3.5-10.75C-241.313,370.267-243.232,371.425-243.721,380.672
						 M-246.308,380.821c0-7.961,2.663-11.521,6.5-11.521c4.187,0,6.499,3.877,6.499,11.521c0,7.646-2.342,11.522-6.391,11.522
						C-243.774,392.343-246.308,388.467-246.308,380.821"/>
				</g>
				<g id="g72" transform="translate(386.5391,389.1621)">
					<path id="path74" inkscape:connector-curvature="0" fill="none" stroke="#373535" stroke-width="0.5" d="M-243.721,380.672
						c-0.489,9.248,1.888,10.638,3.5,10.688c2.418,0.076,4.064-2.355,4.327-10.327c0.296-8.967-1.397-10.734-3.5-10.75
						C-241.313,370.267-243.232,371.425-243.721,380.672z M-246.308,380.821c0-7.961,2.663-11.521,6.5-11.521
						c4.187,0,6.499,3.877,6.499,11.521c0,7.646-2.342,11.522-6.391,11.522C-243.774,392.343-246.308,388.467-246.308,380.821z"/>
				</g>
				<g id="g76" transform="translate(46.4473,395.9844)">
					<path id="path78" inkscape:connector-curvature="0" fill="#373535" d="M-39.666,376.58c0-9.358,2.784-14.103,8.223-14.103
						c4.442,0,6.455,3.688,6.672,9.416h-1.772c-0.302-7.088-2.753-8.28-4.661-8.355c-2.025-0.081-5.073,1.294-5.527,12.856
						c-0.323,8.261,1.741,13.053,5.265,13.23c2.38,0,4.416-0.698,5.471-6.622h0.595v7.246h-0.523
						c-0.368-0.447-0.653-0.543-1.039-0.543c-0.343,0-0.762,0.138-1.155,0.311c-0.637,0.28-1.509,0.666-3.057,0.666
						C-34.345,390.682-39.666,388.321-39.666,376.58"/>
				</g>
				<g id="g80" transform="translate(46.4473,395.9844)">
					<path id="path82" inkscape:connector-curvature="0" fill="none" stroke="#373535" stroke-width="0.5" d="M-39.666,376.58
						c0-9.358,2.784-14.103,8.223-14.103c4.442,0,6.455,3.688,6.672,9.416h-1.772c-0.302-7.088-2.753-8.28-4.661-8.355
						c-2.025-0.081-5.073,1.294-5.527,12.856c-0.323,8.261,1.741,13.053,5.265,13.23c2.38,0,4.416-0.698,5.471-6.622h0.595v7.246
						h-0.523c-0.368-0.447-0.653-0.543-1.039-0.543c-0.343,0-0.762,0.138-1.155,0.311c-0.637,0.28-1.509,0.666-3.057,0.666
						C-34.345,390.682-39.666,388.321-39.666,376.58z"/>
				</g>
				<g id="g84" transform="translate(340.4385,395.9844)">
					<path id="path86" inkscape:connector-curvature="0" fill="#373535" d="M-216.061,376.58c0-9.358,2.783-14.103,8.222-14.103
						c4.443,0,6.455,3.688,6.673,9.416h-1.773c-0.301-7.088-2.752-8.28-4.661-8.355c-2.026-0.081-5.074,1.294-5.527,12.856
						c-0.323,8.261,1.741,13.053,5.264,13.23c2.38,0,4.416-0.698,5.472-6.622h0.594v7.246h-0.523
						c-0.367-0.447-0.652-0.543-1.039-0.543c-0.343,0-0.762,0.138-1.154,0.311c-0.637,0.28-1.509,0.666-3.057,0.666
						C-210.74,390.682-216.061,388.321-216.061,376.58"/>
				</g>
				<g id="g88" transform="translate(340.4385,395.9844)">
					<path id="path90" inkscape:connector-curvature="0" fill="none" stroke="#373535" stroke-width="0.5" d="M-216.061,376.58
						c0-9.358,2.783-14.103,8.222-14.103c4.443,0,6.455,3.688,6.673,9.416h-1.773c-0.301-7.088-2.752-8.28-4.661-8.355
						c-2.026-0.081-5.074,1.294-5.527,12.856c-0.323,8.261,1.741,13.053,5.264,13.23c2.38,0,4.416-0.698,5.472-6.622h0.594v7.246
						h-0.523c-0.367-0.447-0.652-0.543-1.039-0.543c-0.343,0-0.762,0.138-1.154,0.311c-0.637,0.28-1.509,0.666-3.057,0.666
						C-210.74,390.682-216.061,388.321-216.061,376.58z"/>
				</g>
				<g id="g92" transform="translate(254.667,384.543)">
					<path id="path94" inkscape:connector-curvature="0" fill="#373535" d="M-164.598,383.442c0.548,2.305,1.129,4.787,1.587,6.846
						c0.077,0.367,0.132,0.713,0.163,1.052c0.03-0.328,0.072-0.697,0.161-1.031c0.469-1.868,1.086-4.427,1.669-6.868H-164.598z
						 M-175.31,385.884h-0.794v8.591c0,0.797,0.577,1.054,1.642,1.054c1.746,0,2.526-2.098,2.681-4.064
						C-171.473,387.56-173.025,385.884-175.31,385.884 M-155.015,374.886c-1.268,0.097-1.48,0.487-1.683,1.259l-1.571,5.989
						c-1.366,5.51-3.701,14.828-3.701,14.828h-0.605c0,0-5.045-20.097-5.223-20.825c-0.182-0.744-0.371-1.239-0.593-1.239
						c-0.221,0-0.412,0.331-0.571,0.688l-0.724,1.834c0,0-2.96,7.438-3.096,7.781c2.197,0.718,3.644,2.73,3.644,5.575
						c0,3.816-1.834,5.833-5.399,5.833h-5.686v-0.607c1.381-0.102,1.677-0.398,1.677-1.211v-18.692c0-0.814-0.328-1.109-1.677-1.211
						v-0.607h5.795v0.607c-1.361,0.103-1.677,0.397-1.677,1.211v8.828h0.798c1.377-3.367,2.574-6.444,3.221-8.105l0.49-1.251
						c0.389-0.946,1.071-1.29,2.076-1.29h4.472v0.607c-0.764,0.053-1.099,0.143-1.255,0.394c-0.112,0.179-0.136,0.487-0.055,0.823
						c0.08,0.335,1.152,4.797,1.502,6.261h4.094c0.35-1.473,1.341-5.666,1.452-6.12c0.079-0.327,0.109-0.695-0.046-0.886
						c-0.236-0.292-0.636-0.41-1.592-0.472v-0.607h5.932V374.886z"/>
				</g>
				<g id="g96" transform="translate(254.667,384.543)">
					<path id="path98" inkscape:connector-curvature="0" fill="none" stroke="#373535" stroke-width="0.5" d="M-164.598,383.442
						c0.548,2.305,1.129,4.787,1.587,6.846c0.077,0.367,0.132,0.713,0.163,1.052c0.03-0.328,0.072-0.697,0.161-1.031
						c0.469-1.868,1.086-4.427,1.669-6.868H-164.598z M-175.31,385.884h-0.794v8.591c0,0.797,0.577,1.054,1.642,1.054
						c1.746,0,2.526-2.098,2.681-4.064C-171.473,387.56-173.025,385.884-175.31,385.884z M-155.015,374.886
						c-1.268,0.097-1.48,0.487-1.683,1.259l-1.571,5.989c-1.366,5.51-3.701,14.828-3.701,14.828h-0.605
						c0,0-5.045-20.097-5.223-20.825c-0.182-0.744-0.371-1.239-0.593-1.239c-0.221,0-0.412,0.331-0.571,0.688l-0.724,1.834
						c0,0-2.96,7.438-3.096,7.781c2.197,0.718,3.644,2.73,3.644,5.575c0,3.816-1.834,5.833-5.399,5.833h-5.686v-0.607
						c1.381-0.102,1.677-0.398,1.677-1.211v-18.692c0-0.814-0.328-1.109-1.677-1.211v-0.607h5.795v0.607
						c-1.361,0.103-1.677,0.397-1.677,1.211v8.828h0.798c1.377-3.367,2.574-6.444,3.221-8.105l0.49-1.251
						c0.389-0.946,1.071-1.29,2.076-1.29h4.472v0.607c-0.764,0.053-1.099,0.143-1.255,0.394c-0.112,0.179-0.136,0.487-0.055,0.823
						c0.08,0.335,1.152,4.797,1.502,6.261h4.094c0.35-1.473,1.341-5.666,1.452-6.12c0.079-0.327,0.109-0.695-0.046-0.886
						c-0.236-0.292-0.636-0.41-1.592-0.472v-0.607h5.932V374.886z"/>
				</g>
				<g id="g100" transform="translate(328.375,373.9434)">
					<path id="path102" inkscape:connector-curvature="0" fill="#373535" d="M-208.823,389.8c-0.962-3.263-1.622-3.842-2.622-3.842
						h-2.896c-0.534,0-0.68,0.16-0.68,0.739v9.089h2.622c1.174,0,1.714-1.353,1.796-2.661h0.607v5.963h-0.607
						c-0.125-1.354-0.488-2.223-1.796-2.223h-2.622v8.993c0,0.25,0.105,0.27,0.265,0.27h2.718c1.001,0,1.684-0.658,2.624-3.841
						h0.633l-0.57,5.417l-0.052,0.02c0,0-0.253-0.517-1.018-0.517h-8.718V406.6c1.386-0.101,1.678-0.398,1.678-1.211v-18.691
						c0-0.814-0.325-1.115-1.678-1.212v-0.607h9.311c0.764,0,1.016-0.516,1.016-0.516l0.054,0.009l0.569,5.429H-208.823z"/>
				</g>
				<g id="g104" transform="translate(328.375,373.9434)">
					<path id="path106" inkscape:connector-curvature="0" fill="none" stroke="#373535" stroke-width="0.5" d="M-208.823,389.8
						c-0.962-3.263-1.622-3.842-2.622-3.842h-2.896c-0.534,0-0.68,0.16-0.68,0.739v9.089h2.622c1.174,0,1.714-1.353,1.796-2.661
						h0.607v5.963h-0.607c-0.125-1.354-0.488-2.223-1.796-2.223h-2.622v8.993c0,0.25,0.105,0.27,0.265,0.27h2.718
						c1.001,0,1.684-0.658,2.624-3.841h0.633l-0.57,5.417l-0.052,0.02c0,0-0.253-0.517-1.018-0.517h-8.718V406.6
						c1.386-0.101,1.678-0.398,1.678-1.211v-18.691c0-0.814-0.325-1.115-1.678-1.212v-0.607h9.311c0.764,0,1.016-0.516,1.016-0.516
						l0.054,0.009l0.569,5.429H-208.823z"/>
				</g>
				<g id="g108" transform="translate(537.2607,373.9434)">
					<path id="path110" inkscape:connector-curvature="0" fill="#373535" d="M-334.154,389.8c-0.962-3.263-1.623-3.842-2.623-3.842
						h-2.897c-0.533,0-0.679,0.16-0.679,0.739v9.089h2.621c1.173,0,1.713-1.353,1.795-2.661h0.608v5.963h-0.608
						c-0.125-1.354-0.488-2.223-1.795-2.223h-2.621v8.993c0,0.25,0.104,0.27,0.264,0.27h2.719c1.001,0,1.684-0.658,2.623-3.841
						h0.633l-0.57,5.417l-0.052,0.02c0,0-0.253-0.517-1.018-0.517h-8.717V406.6c1.385-0.101,1.677-0.398,1.677-1.211v-18.691
						c0-0.814-0.324-1.115-1.677-1.212v-0.607h9.311c0.764,0,1.016-0.516,1.016-0.516l0.054,0.009l0.569,5.429H-334.154z"/>
				</g>
				<g id="g112" transform="translate(537.2607,373.9434)">
					<path id="path114" inkscape:connector-curvature="0" fill="none" stroke="#373535" stroke-width="0.5" d="M-334.154,389.8
						c-0.962-3.263-1.623-3.842-2.623-3.842h-2.897c-0.533,0-0.679,0.16-0.679,0.739v9.089h2.621c1.173,0,1.713-1.353,1.795-2.661
						h0.608v5.963h-0.608c-0.125-1.354-0.488-2.223-1.795-2.223h-2.621v8.993c0,0.25,0.104,0.27,0.264,0.27h2.719
						c1.001,0,1.684-0.658,2.623-3.841h0.633l-0.57,5.417l-0.052,0.02c0,0-0.253-0.517-1.018-0.517h-8.717V406.6
						c1.385-0.101,1.677-0.398,1.677-1.211v-18.691c0-0.814-0.324-1.115-1.677-1.212v-0.607h9.311c0.764,0,1.016-0.516,1.016-0.516
						l0.054,0.009l0.569,5.429H-334.154z"/>
				</g>
				<g id="g116" transform="translate(482.0342,417.4399)">
					<path id="path118" inkscape:connector-curvature="0" fill="#373535" d="M-301.018,363.711h-4.397v-0.607
						c1.334-0.085,1.677-0.398,1.677-1.211V350.03l0.045-1.413l-0.503,1.287l-6.074,13.807h-3.932v-0.607
						c1.37-0.115,1.677-0.398,1.677-1.211v-18.692c0-0.814-0.343-1.126-1.677-1.211v-0.607h4.586v0.607
						c-1.325,0.092-1.677,0.397-1.677,1.211v15.725c0,0.478-0.024,0.952-0.054,1.237c0.085-0.261,0.245-0.671,0.434-1.109
						c1.665-3.864,7.752-18.019,7.752-18.019h0.655v20.857c0,0.813,0.365,1.132,1.678,1.211v0.607H-301.018z"/>
				</g>
				<g id="g120" transform="translate(482.0342,417.4399)">
					<path id="path122" inkscape:connector-curvature="0" fill="none" stroke="#373535" stroke-width="0.5" d="M-301.018,363.711
						h-4.397v-0.607c1.334-0.085,1.677-0.398,1.677-1.211V350.03l0.045-1.413l-0.503,1.287l-6.074,13.807h-3.932v-0.607
						c1.37-0.115,1.677-0.398,1.677-1.211v-18.692c0-0.814-0.343-1.126-1.677-1.211v-0.607h4.586v0.607
						c-1.325,0.092-1.677,0.397-1.677,1.211v15.725c0,0.478-0.024,0.952-0.054,1.237c0.085-0.261,0.245-0.671,0.434-1.109
						c1.665-3.864,7.752-18.019,7.752-18.019h0.655v20.857c0,0.813,0.365,1.132,1.678,1.211v0.607H-301.018z"/>
				</g>
				<g id="g124" transform="translate(300.5308,418.6958)">
					<path id="path126" inkscape:connector-curvature="0" fill="#373535" d="M-192.116,362.958l-0.048,0.006
						c0,0-0.241-0.509-1.005-0.509h-8.406c-0.764,0-1.005,0.509-1.005,0.509l-0.048-0.006l-0.586-5.423h0.633
						c0.947,3.259,1.622,3.841,2.623,3.841h1.367v-19.43c0-0.815-0.37-1.139-1.678-1.212v-0.607h5.794v0.607
						c-1.307,0.073-1.677,0.397-1.677,1.212v19.43h1.367c1.001,0,1.676-0.582,2.623-3.841h0.633L-192.116,362.958z"/>
				</g>
				<g id="g128" transform="translate(300.5308,418.6958)">
					<path id="path130" inkscape:connector-curvature="0" fill="none" stroke="#373535" stroke-width="0.5" d="M-192.116,362.958
						l-0.048,0.006c0,0-0.241-0.509-1.005-0.509h-8.406c-0.764,0-1.005,0.509-1.005,0.509l-0.048-0.006l-0.586-5.423h0.633
						c0.947,3.259,1.622,3.841,2.623,3.841h1.367v-19.43c0-0.815-0.37-1.139-1.678-1.212v-0.607h5.794v0.607
						c-1.307,0.073-1.677,0.397-1.677,1.212v19.43h1.367c1.001,0,1.676-0.582,2.623-3.841h0.633L-192.116,362.958z"/>
				</g>
				<g id="g132" transform="translate(565.5352,373.9434)">
					<path id="path134" inkscape:connector-curvature="0" fill="#373535" d="M-351.119,389.8c-0.962-3.263-1.622-3.842-2.623-3.842
						h-2.26c-0.534,0-0.68,0.16-0.68,0.739v18.812c0,0.673,0.36,1.012,2.148,1.08v0.618h-6.266V406.6
						c1.356-0.103,1.677-0.398,1.677-1.211v-18.691c0-0.814-0.369-1.144-1.677-1.212v-0.607h8.675c0.764,0,1.017-0.516,1.017-0.516
						l0.054,0.009l0.569,5.429H-351.119z"/>
				</g>
				<g id="g136" transform="translate(565.5352,373.9434)">
					<path id="path138" inkscape:connector-curvature="0" fill="none" stroke="#373535" stroke-width="0.5" d="M-351.119,389.8
						c-0.962-3.263-1.622-3.842-2.623-3.842h-2.26c-0.534,0-0.68,0.16-0.68,0.739v18.812c0,0.673,0.36,1.012,2.148,1.08v0.618
						h-6.266V406.6c1.356-0.103,1.677-0.398,1.677-1.211v-18.691c0-0.814-0.369-1.144-1.677-1.212v-0.607h8.675
						c0.764,0,1.017-0.516,1.017-0.516l0.054,0.009l0.569,5.429H-351.119z"/>
				</g>
			</g>
		</g>
	</g>
	<g id="g144">
		<g>
			<defs>
				<rect id="SVGID_3_" x="-42.398" y="574.471" width="306" height="396.2"/>
			</defs>
			<clipPath id="SVGID_4_">
				<use xlink:href="#SVGID_3_"  overflow="visible"/>
			</clipPath>
			<g id="g146" clip-path="url(#SVGID_4_)">
				<g id="g152" transform="translate(163.5767,412.1089)">
					<path id="path154" inkscape:connector-curvature="0" fill="#AED3DC" d="M-109.944,366.908c0,0.798,0.342,1.054,1.407,1.054
						c1.999,0,2.574-2.505,2.742-4.469c0.354-4.159-1.281-5.798-3.355-5.798h-0.794V366.908z M-114.062,369.042v-0.607
						c1.356-0.102,1.677-0.398,1.677-1.211v-18.691c0-0.815-0.309-1.109-1.677-1.212v-0.607h5.796v0.607
						c-1.361,0.103-1.677,0.397-1.677,1.212v8.083h1.659c2.468,0,5.123,1.961,5.123,6.209c0,4.251-1.885,6.218-5.45,6.218H-114.062z
						"/>
				</g>
				<g id="g156" transform="translate(163.5767,412.1089)">
					<path id="path158" inkscape:connector-curvature="0" fill="none" stroke="#AED3DC" stroke-width="0.5" d="M-109.944,366.908
						c0,0.798,0.342,1.054,1.407,1.054c1.999,0,2.574-2.505,2.742-4.469c0.354-4.159-1.281-5.798-3.355-5.798h-0.794V366.908z
						 M-114.062,369.042v-0.607c1.356-0.102,1.677-0.398,1.677-1.211v-18.691c0-0.815-0.309-1.109-1.677-1.212v-0.607h5.796v0.607
						c-1.361,0.103-1.677,0.397-1.677,1.212v8.083h1.659c2.468,0,5.123,1.961,5.123,6.209c0,4.251-1.885,6.218-5.45,6.218H-114.062z
						"/>
				</g>
				<g id="g160" transform="translate(437.5986,417.4399)">
					<path id="path162" inkscape:connector-curvature="0" fill="#AED3DC" d="M-274.357,363.711v-0.607
						c1.343-0.079,1.678-0.398,1.678-1.211v-14.911c0-4.078-2.233-4.687-3.562-4.687c-2.284,0-3.348,1.43-3.348,4.497v15.1
						c0,0.813,0.322,1.102,1.676,1.211v0.607h-5.795v-0.607c1.349-0.091,1.676-0.398,1.676-1.211v-15.1
						c0-3.861,1.833-5.738,5.602-5.738c2.273,0,4.982,1.075,4.982,6.196v14.642c0,0.813,0.338,1.114,1.677,1.211v0.607H-274.357z"/>
				</g>
				<g id="g164" transform="translate(437.5986,417.4399)">
					<path id="path166" inkscape:connector-curvature="0" fill="none" stroke="#AED3DC" stroke-width="0.5" d="M-274.357,363.711
						v-0.607c1.343-0.079,1.678-0.398,1.678-1.211v-14.911c0-4.078-2.233-4.687-3.562-4.687c-2.284,0-3.348,1.43-3.348,4.497v15.1
						c0,0.813,0.322,1.102,1.676,1.211v0.607h-5.795v-0.607c1.349-0.091,1.676-0.398,1.676-1.211v-15.1
						c0-3.861,1.833-5.738,5.602-5.738c2.273,0,4.982,1.075,4.982,6.196v14.642c0,0.813,0.338,1.114,1.677,1.211v0.607H-274.357z"/>
				</g>
				<g id="g168" transform="translate(484.8857,403.8926)">
					<path id="path170" inkscape:connector-curvature="0" fill="#AED3DC" d="M-302.729,371.837c0-3.914,1.905-5.167,4.786-6.543
						c2.708-1.292,3.863-2.949,3.863-5.543c0-1.937-0.987-4.198-3.77-4.198c-2.316,0-3.777,1.857-4.414,5.855h-0.562v-6.563h0.536
						c0.141,0.774,0.361,0.987,0.614,0.987c0.356,0,0.681-0.293,0.898-0.454c0.68-0.509,1.666-0.797,2.908-0.797
						c3.484,0,5.566,2.429,5.566,6.499c0,3.318-1.63,5.541-4.877,7.033c-2.958,1.359-3.689,2.523-3.689,4.819
						c0,2.52,1.5,3.701,3.423,3.701c1.504,0,3.313-1.016,3.654-5.173h0.565v5.923h-0.536c-0.192-0.621-0.356-0.762-0.614-0.762
						c-0.081,0-0.286,0.109-0.47,0.236c-0.466,0.321-1.327,0.807-2.529,0.807C-300.478,377.666-302.729,375.128-302.729,371.837"/>
				</g>
				<g id="g172" transform="translate(484.8857,403.8926)">
					<path id="path174" inkscape:connector-curvature="0" fill="none" stroke="#AED3DC" stroke-width="0.5" d="M-302.729,371.837
						c0-3.914,1.905-5.167,4.786-6.543c2.708-1.292,3.863-2.949,3.863-5.543c0-1.937-0.987-4.198-3.77-4.198
						c-2.316,0-3.777,1.857-4.414,5.855h-0.562v-6.563h0.536c0.141,0.774,0.361,0.987,0.614,0.987c0.356,0,0.681-0.293,0.898-0.454
						c0.68-0.509,1.666-0.797,2.908-0.797c3.484,0,5.566,2.429,5.566,6.499c0,3.318-1.63,5.541-4.877,7.033
						c-2.958,1.359-3.689,2.523-3.689,4.819c0,2.52,1.5,3.701,3.423,3.701c1.504,0,3.313-1.016,3.654-5.173h0.565v5.923h-0.536
						c-0.192-0.621-0.356-0.762-0.614-0.762c-0.081,0-0.286,0.109-0.47,0.236c-0.466,0.321-1.327,0.807-2.529,0.807
						C-300.478,377.666-302.729,375.128-302.729,371.837z"/>
				</g>
				<g id="g176" transform="translate(132.3887,412.1089)">
					<path id="path178" inkscape:connector-curvature="0" fill="#AED3DC" d="M-91.231,366.908c0,0.798,0.577,1.054,1.643,1.054
						c1.746,0,2.514-2.099,2.68-4.064c0.269-3.189-0.757-5.58-3.529-5.58h-0.794V366.908z M-95.349,369.042v-0.607
						c1.366-0.102,1.677-0.398,1.677-1.211v-18.691c0-0.815-0.324-1.109-1.677-1.212v-0.607h5.796v0.607
						c-1.376,0.103-1.677,0.397-1.677,1.212v8.827h0.797c1.378-3.367,2.575-6.443,3.221-8.105l0.491-1.251
						c0.389-0.946,1-1.348,2.004-1.348c1.067,0,1.761,0.059,1.761,0.059v0.607c-0.734,0-0.912,0.25-1.179,0.818l-0.678,1.716
						c0,0-2.959,7.438-3.096,7.781c2.197,0.718,3.645,2.73,3.645,5.575c0,3.816-1.834,5.833-5.4,5.833H-95.349z"/>
				</g>
				<g id="g180" transform="translate(132.3887,412.1089)">
					<path id="path182" inkscape:connector-curvature="0" fill="none" stroke="#AED3DC" stroke-width="0.5" d="M-91.231,366.908
						c0,0.798,0.577,1.054,1.643,1.054c1.746,0,2.514-2.099,2.68-4.064c0.269-3.189-0.757-5.58-3.529-5.58h-0.794V366.908z
						 M-95.349,369.042v-0.607c1.366-0.102,1.677-0.398,1.677-1.211v-18.691c0-0.815-0.324-1.109-1.677-1.212v-0.607h5.796v0.607
						c-1.376,0.103-1.677,0.397-1.677,1.212v8.827h0.797c1.378-3.367,2.575-6.443,3.221-8.105l0.491-1.251
						c0.389-0.946,1-1.348,2.004-1.348c1.067,0,1.761,0.059,1.761,0.059v0.607c-0.734,0-0.912,0.25-1.179,0.818l-0.678,1.716
						c0,0-2.959,7.438-3.096,7.781c2.197,0.718,3.645,2.73,3.645,5.575c0,3.816-1.834,5.833-5.4,5.833H-95.349z"/>
				</g>
				<g id="g184" transform="translate(94.8477,389.1621)">
					<path id="path186" inkscape:connector-curvature="0" fill="#AED3DC" d="M-68.706,380.672
						c-0.489,9.248,1.887,10.638,3.499,10.688c2.418,0.076,4.064-2.355,4.328-10.327c0.296-8.967-1.397-10.734-3.501-10.75
						C-66.299,370.267-68.217,371.425-68.706,380.672 M-71.293,380.821c0-7.961,2.664-11.521,6.5-11.521
						c4.186,0,6.499,3.877,6.499,11.521c0,7.646-2.342,11.522-6.391,11.522C-68.758,392.343-71.293,388.467-71.293,380.821"/>
				</g>
				<g id="g188" transform="translate(94.8477,389.1621)">
					<path id="path190" inkscape:connector-curvature="0" fill="none" stroke="#AED3DC" stroke-width="0.5" d="M-68.706,380.672
						c-0.489,9.248,1.887,10.638,3.499,10.688c2.418,0.076,4.064-2.355,4.328-10.327c0.296-8.967-1.397-10.734-3.501-10.75
						C-66.299,370.267-68.217,371.425-68.706,380.672z M-71.293,380.821c0-7.961,2.664-11.521,6.5-11.521
						c4.186,0,6.499,3.877,6.499,11.521c0,7.646-2.342,11.522-6.391,11.522C-68.758,392.343-71.293,388.467-71.293,380.821z"/>
				</g>
				<g id="g192" transform="translate(189.6709,389.1621)">
					<path id="path194" inkscape:connector-curvature="0" fill="#AED3DC" d="M-125.6,380.672c-0.489,9.248,1.888,10.638,3.5,10.688
						c2.418,0.076,4.064-2.355,4.327-10.327c0.297-8.967-1.396-10.734-3.501-10.75C-123.192,370.267-125.111,371.425-125.6,380.672
						 M-128.187,380.821c0-7.961,2.663-11.521,6.5-11.521c4.186,0,6.499,3.877,6.499,11.521c0,7.646-2.343,11.522-6.39,11.522
						C-125.652,392.343-128.187,388.467-128.187,380.821"/>
				</g>
				<g id="g196" transform="translate(189.6709,389.1621)">
					<path id="path198" inkscape:connector-curvature="0" fill="none" stroke="#AED3DC" stroke-width="0.5" d="M-125.6,380.672
						c-0.489,9.248,1.888,10.638,3.5,10.688c2.418,0.076,4.064-2.355,4.327-10.327c0.297-8.967-1.396-10.734-3.501-10.75
						C-123.192,370.267-125.111,371.425-125.6,380.672z M-128.187,380.821c0-7.961,2.663-11.521,6.5-11.521
						c4.186,0,6.499,3.877,6.499,11.521c0,7.646-2.343,11.522-6.39,11.522C-125.652,392.343-128.187,388.467-128.187,380.821z"/>
				</g>
				<g id="g200" transform="translate(387.5391,389.1621)">
					<path id="path202" inkscape:connector-curvature="0" fill="#AED3DC" d="M-244.321,380.672
						c-0.489,9.248,1.888,10.638,3.5,10.688c2.418,0.076,4.064-2.355,4.327-10.327c0.296-8.967-1.397-10.734-3.5-10.75
						C-241.913,370.267-243.832,371.425-244.321,380.672 M-246.908,380.821c0-7.961,2.663-11.521,6.5-11.521
						c4.187,0,6.499,3.877,6.499,11.521c0,7.646-2.342,11.522-6.391,11.522C-244.374,392.343-246.908,388.467-246.908,380.821"/>
				</g>
				<g id="g204" transform="translate(387.5391,389.1621)">
					<path id="path206" inkscape:connector-curvature="0" fill="none" stroke="#AED3DC" stroke-width="0.5" d="M-244.321,380.672
						c-0.489,9.248,1.888,10.638,3.5,10.688c2.418,0.076,4.064-2.355,4.327-10.327c0.296-8.967-1.397-10.734-3.5-10.75
						C-241.913,370.267-243.832,371.425-244.321,380.672z M-246.908,380.821c0-7.961,2.663-11.521,6.5-11.521
						c4.187,0,6.499,3.877,6.499,11.521c0,7.646-2.342,11.522-6.391,11.522C-244.374,392.343-246.908,388.467-246.908,380.821z"/>
				</g>
				<g id="g208" transform="translate(47.4473,395.9844)">
					<path id="path210" inkscape:connector-curvature="0" fill="#AED3DC" d="M-40.266,376.58c0-9.358,2.784-14.103,8.223-14.103
						c4.442,0,6.455,3.688,6.672,9.416h-1.772c-0.302-7.088-2.753-8.28-4.661-8.355c-2.025-0.081-5.073,1.294-5.527,12.856
						c-0.323,8.261,1.741,13.053,5.265,13.23c2.38,0,4.416-0.698,5.471-6.622h0.595v7.246h-0.523
						c-0.368-0.447-0.653-0.543-1.039-0.543c-0.343,0-0.762,0.138-1.155,0.311c-0.637,0.28-1.509,0.666-3.057,0.666
						C-34.945,390.682-40.266,388.321-40.266,376.58"/>
				</g>
				<g id="g212" transform="translate(47.4473,395.9844)">
					<path id="path214" inkscape:connector-curvature="0" fill="none" stroke="#AED3DC" stroke-width="0.5" d="M-40.266,376.58
						c0-9.358,2.784-14.103,8.223-14.103c4.442,0,6.455,3.688,6.672,9.416h-1.772c-0.302-7.088-2.753-8.28-4.661-8.355
						c-2.025-0.081-5.073,1.294-5.527,12.856c-0.323,8.261,1.741,13.053,5.265,13.23c2.38,0,4.416-0.698,5.471-6.622h0.595v7.246
						h-0.523c-0.368-0.447-0.653-0.543-1.039-0.543c-0.343,0-0.762,0.138-1.155,0.311c-0.637,0.28-1.509,0.666-3.057,0.666
						C-34.945,390.682-40.266,388.321-40.266,376.58z"/>
				</g>
				<g id="g216" transform="translate(341.4385,395.9844)">
					<path id="path218" inkscape:connector-curvature="0" fill="#AED3DC" d="M-216.661,376.58c0-9.358,2.783-14.103,8.222-14.103
						c4.443,0,6.455,3.688,6.673,9.416h-1.773c-0.301-7.088-2.752-8.28-4.661-8.355c-2.026-0.081-5.074,1.294-5.527,12.856
						c-0.323,8.261,1.741,13.053,5.264,13.23c2.38,0,4.416-0.698,5.472-6.622h0.594v7.246h-0.523
						c-0.367-0.447-0.652-0.543-1.039-0.543c-0.343,0-0.762,0.138-1.154,0.311c-0.637,0.28-1.509,0.666-3.057,0.666
						C-211.34,390.682-216.661,388.321-216.661,376.58"/>
				</g>
				<g id="g220" transform="translate(341.4385,395.9844)">
					<path id="path222" inkscape:connector-curvature="0" fill="none" stroke="#AED3DC" stroke-width="0.5" d="M-216.661,376.58
						c0-9.358,2.783-14.103,8.222-14.103c4.443,0,6.455,3.688,6.673,9.416h-1.773c-0.301-7.088-2.752-8.28-4.661-8.355
						c-2.026-0.081-5.074,1.294-5.527,12.856c-0.323,8.261,1.741,13.053,5.264,13.23c2.38,0,4.416-0.698,5.472-6.622h0.594v7.246
						h-0.523c-0.367-0.447-0.652-0.543-1.039-0.543c-0.343,0-0.762,0.138-1.154,0.311c-0.637,0.28-1.509,0.666-3.057,0.666
						C-211.34,390.682-216.661,388.321-216.661,376.58z"/>
				</g>
				<g id="g224" transform="translate(255.667,384.543)">
					<path id="path226" inkscape:connector-curvature="0" fill="#AED3DC" d="M-165.198,383.442c0.548,2.305,1.129,4.787,1.587,6.846
						c0.077,0.367,0.132,0.713,0.162,1.052c0.03-0.328,0.072-0.697,0.161-1.031c0.469-1.868,1.086-4.427,1.669-6.868H-165.198z
						 M-175.91,385.884h-0.794v8.591c0,0.797,0.577,1.054,1.642,1.054c1.746,0,2.526-2.098,2.681-4.064
						C-172.073,387.56-173.625,385.884-175.91,385.884 M-155.615,374.886c-1.268,0.097-1.48,0.487-1.683,1.259l-1.571,5.989
						c-1.366,5.51-3.701,14.828-3.701,14.828h-0.605c0,0-5.045-20.097-5.223-20.825c-0.182-0.744-0.371-1.239-0.593-1.239
						c-0.221,0-0.412,0.331-0.571,0.688l-0.724,1.834c0,0-2.96,7.438-3.096,7.781c2.197,0.718,3.644,2.73,3.644,5.575
						c0,3.816-1.834,5.833-5.399,5.833h-5.686v-0.607c1.381-0.102,1.677-0.398,1.677-1.211v-18.692c0-0.814-0.328-1.109-1.677-1.211
						v-0.607h5.795v0.607c-1.361,0.103-1.677,0.397-1.677,1.211v8.828h0.798c1.377-3.367,2.574-6.444,3.221-8.105l0.49-1.251
						c0.389-0.946,1.071-1.29,2.076-1.29h4.472v0.607c-0.764,0.053-1.099,0.143-1.255,0.394c-0.112,0.179-0.136,0.487-0.055,0.823
						c0.08,0.335,1.152,4.797,1.502,6.261h4.094c0.35-1.473,1.341-5.666,1.452-6.12c0.079-0.327,0.109-0.695-0.046-0.886
						c-0.236-0.292-0.636-0.41-1.592-0.472v-0.607h5.932V374.886z"/>
				</g>
				<g id="g228" transform="translate(255.667,384.543)">
					<path id="path230" inkscape:connector-curvature="0" fill="none" stroke="#AED3DC" stroke-width="0.5" d="M-165.198,383.442
						c0.548,2.305,1.129,4.787,1.587,6.846c0.077,0.367,0.132,0.713,0.162,1.052c0.03-0.328,0.072-0.697,0.161-1.031
						c0.469-1.868,1.086-4.427,1.669-6.868H-165.198z M-175.91,385.884h-0.794v8.591c0,0.797,0.577,1.054,1.642,1.054
						c1.746,0,2.526-2.098,2.681-4.064C-172.073,387.56-173.625,385.884-175.91,385.884z M-155.615,374.886
						c-1.268,0.097-1.48,0.487-1.683,1.259l-1.571,5.989c-1.366,5.51-3.701,14.828-3.701,14.828h-0.605
						c0,0-5.045-20.097-5.223-20.825c-0.182-0.744-0.371-1.239-0.593-1.239c-0.221,0-0.412,0.331-0.571,0.688l-0.724,1.834
						c0,0-2.96,7.438-3.096,7.781c2.197,0.718,3.644,2.73,3.644,5.575c0,3.816-1.834,5.833-5.399,5.833h-5.686v-0.607
						c1.381-0.102,1.677-0.398,1.677-1.211v-18.692c0-0.814-0.328-1.109-1.677-1.211v-0.607h5.795v0.607
						c-1.361,0.103-1.677,0.397-1.677,1.211v8.828h0.798c1.377-3.367,2.574-6.444,3.221-8.105l0.49-1.251
						c0.389-0.946,1.071-1.29,2.076-1.29h4.472v0.607c-0.764,0.053-1.099,0.143-1.255,0.394c-0.112,0.179-0.136,0.487-0.055,0.823
						c0.08,0.335,1.152,4.797,1.502,6.261h4.094c0.35-1.473,1.341-5.666,1.452-6.12c0.079-0.327,0.109-0.695-0.046-0.886
						c-0.236-0.292-0.636-0.41-1.592-0.472v-0.607h5.932V374.886z"/>
				</g>
				<g id="g232" transform="translate(329.375,373.9434)">
					<path id="path234" inkscape:connector-curvature="0" fill="#AED3DC" d="M-209.423,389.8c-0.962-3.263-1.622-3.842-2.622-3.842
						h-2.896c-0.534,0-0.68,0.16-0.68,0.739v9.089H-213c1.174,0,1.714-1.353,1.796-2.661h0.607v5.963h-0.607
						c-0.125-1.354-0.488-2.223-1.796-2.223h-2.622v8.993c0,0.25,0.105,0.27,0.265,0.27h2.718c1.001,0,1.684-0.658,2.624-3.841
						h0.633l-0.57,5.417l-0.052,0.02c0,0-0.253-0.517-1.018-0.517h-8.718V406.6c1.386-0.101,1.677-0.398,1.677-1.211v-18.691
						c0-0.814-0.324-1.115-1.677-1.212v-0.607h9.311c0.764,0,1.016-0.516,1.016-0.516l0.054,0.009l0.569,5.429H-209.423z"/>
				</g>
				<g id="g236" transform="translate(329.375,373.9434)">
					<path id="path238" inkscape:connector-curvature="0" fill="none" stroke="#AED3DC" stroke-width="0.5" d="M-209.423,389.8
						c-0.962-3.263-1.622-3.842-2.622-3.842h-2.896c-0.534,0-0.68,0.16-0.68,0.739v9.089H-213c1.174,0,1.714-1.353,1.796-2.661
						h0.607v5.963h-0.607c-0.125-1.354-0.488-2.223-1.796-2.223h-2.622v8.993c0,0.25,0.105,0.27,0.265,0.27h2.718
						c1.001,0,1.684-0.658,2.624-3.841h0.633l-0.57,5.417l-0.052,0.02c0,0-0.253-0.517-1.018-0.517h-8.718V406.6
						c1.386-0.101,1.677-0.398,1.677-1.211v-18.691c0-0.814-0.324-1.115-1.677-1.212v-0.607h9.311c0.764,0,1.016-0.516,1.016-0.516
						l0.054,0.009l0.569,5.429H-209.423z"/>
				</g>
				<g id="g240" transform="translate(538.2607,373.9434)">
					<path id="path242" inkscape:connector-curvature="0" fill="#AED3DC" d="M-334.754,389.8c-0.962-3.263-1.623-3.842-2.623-3.842
						h-2.897c-0.533,0-0.678,0.16-0.678,0.739v9.089h2.621c1.173,0,1.713-1.353,1.795-2.661h0.608v5.963h-0.608
						c-0.125-1.354-0.488-2.223-1.795-2.223h-2.621v8.993c0,0.25,0.104,0.27,0.264,0.27h2.719c1.001,0,1.684-0.658,2.623-3.841
						h0.633l-0.57,5.417l-0.052,0.02c0,0-0.253-0.517-1.018-0.517h-8.717V406.6c1.385-0.101,1.677-0.398,1.677-1.211v-18.691
						c0-0.814-0.324-1.115-1.677-1.212v-0.607h9.311c0.764,0,1.016-0.516,1.016-0.516l0.054,0.009l0.569,5.429H-334.754z"/>
				</g>
				<g id="g244" transform="translate(538.2607,373.9434)">
					<path id="path246" inkscape:connector-curvature="0" fill="none" stroke="#AED3DC" stroke-width="0.5" d="M-334.754,389.8
						c-0.962-3.263-1.623-3.842-2.623-3.842h-2.897c-0.533,0-0.678,0.16-0.678,0.739v9.089h2.621c1.173,0,1.713-1.353,1.795-2.661
						h0.608v5.963h-0.608c-0.125-1.354-0.488-2.223-1.795-2.223h-2.621v8.993c0,0.25,0.104,0.27,0.264,0.27h2.719
						c1.001,0,1.684-0.658,2.623-3.841h0.633l-0.57,5.417l-0.052,0.02c0,0-0.253-0.517-1.018-0.517h-8.717V406.6
						c1.385-0.101,1.677-0.398,1.677-1.211v-18.691c0-0.814-0.324-1.115-1.677-1.212v-0.607h9.311c0.764,0,1.016-0.516,1.016-0.516
						l0.054,0.009l0.569,5.429H-334.754z"/>
				</g>
				<g id="g248" transform="translate(483.0342,417.4399)">
					<path id="path250" inkscape:connector-curvature="0" fill="#AED3DC" d="M-301.618,363.711h-4.397v-0.607
						c1.334-0.085,1.677-0.398,1.677-1.211V350.03l0.045-1.413l-0.503,1.287l-6.074,13.807h-3.932v-0.607
						c1.37-0.115,1.677-0.398,1.677-1.211v-18.692c0-0.814-0.343-1.126-1.677-1.211v-0.607h4.586v0.607
						c-1.325,0.092-1.677,0.397-1.677,1.211v15.725c0,0.478-0.024,0.952-0.054,1.237c0.085-0.261,0.245-0.671,0.434-1.109
						c1.665-3.864,7.752-18.019,7.752-18.019h0.655v20.857c0,0.813,0.365,1.132,1.678,1.211v0.607H-301.618z"/>
				</g>
				<g id="g252" transform="translate(483.0342,417.4399)">
					<path id="path254" inkscape:connector-curvature="0" fill="none" stroke="#AED3DC" stroke-width="0.5" d="M-301.618,363.711
						h-4.397v-0.607c1.334-0.085,1.677-0.398,1.677-1.211V350.03l0.045-1.413l-0.503,1.287l-6.074,13.807h-3.932v-0.607
						c1.37-0.115,1.677-0.398,1.677-1.211v-18.692c0-0.814-0.343-1.126-1.677-1.211v-0.607h4.586v0.607
						c-1.325,0.092-1.677,0.397-1.677,1.211v15.725c0,0.478-0.024,0.952-0.054,1.237c0.085-0.261,0.245-0.671,0.434-1.109
						c1.665-3.864,7.752-18.019,7.752-18.019h0.655v20.857c0,0.813,0.365,1.132,1.678,1.211v0.607H-301.618z"/>
				</g>
				<g id="g256" transform="translate(301.5308,418.6958)">
					<path id="path258" inkscape:connector-curvature="0" fill="#AED3DC" d="M-192.716,362.958l-0.048,0.006
						c0,0-0.241-0.509-1.005-0.509h-8.406c-0.764,0-1.005,0.509-1.005,0.509l-0.048-0.006l-0.586-5.423h0.633
						c0.947,3.259,1.622,3.841,2.623,3.841h1.367v-19.43c0-0.815-0.37-1.139-1.678-1.212v-0.607h5.794v0.607
						c-1.307,0.073-1.677,0.397-1.677,1.212v19.43h1.367c1.001,0,1.676-0.582,2.623-3.841h0.633L-192.716,362.958z"/>
				</g>
				<g id="g260" transform="translate(301.5308,418.6958)">
					<path id="path262" inkscape:connector-curvature="0" fill="none" stroke="#AED3DC" stroke-width="0.5" d="M-192.716,362.958
						l-0.048,0.006c0,0-0.241-0.509-1.005-0.509h-8.406c-0.764,0-1.005,0.509-1.005,0.509l-0.048-0.006l-0.586-5.423h0.633
						c0.947,3.259,1.622,3.841,2.623,3.841h1.367v-19.43c0-0.815-0.37-1.139-1.678-1.212v-0.607h5.794v0.607
						c-1.307,0.073-1.677,0.397-1.677,1.212v19.43h1.367c1.001,0,1.676-0.582,2.623-3.841h0.633L-192.716,362.958z"/>
				</g>
				<g id="g264" transform="translate(566.5352,373.9434)">
					<path id="path266" inkscape:connector-curvature="0" fill="#AED3DC" d="M-351.719,389.8c-0.962-3.263-1.622-3.842-2.623-3.842
						h-2.26c-0.534,0-0.68,0.16-0.68,0.739v18.812c0,0.673,0.36,1.012,2.148,1.08v0.618h-6.266V406.6
						c1.356-0.103,1.677-0.398,1.677-1.211v-18.691c0-0.814-0.369-1.144-1.677-1.212v-0.607h8.675c0.764,0,1.017-0.516,1.017-0.516
						l0.054,0.009l0.569,5.429H-351.719z"/>
				</g>
				<g id="g268" transform="translate(566.5352,373.9434)">
					<path id="path270" inkscape:connector-curvature="0" fill="none" stroke="#AED3DC" stroke-width="0.5" d="M-351.719,389.8
						c-0.962-3.263-1.622-3.842-2.623-3.842h-2.26c-0.534,0-0.68,0.16-0.68,0.739v18.812c0,0.673,0.36,1.012,2.148,1.08v0.618
						h-6.266V406.6c1.356-0.103,1.677-0.398,1.677-1.211v-18.691c0-0.814-0.369-1.144-1.677-1.212v-0.607h8.675
						c0.764,0,1.017-0.516,1.017-0.516l0.054,0.009l0.569,5.429H-351.719z"/>
				</g>
			</g>
		</g>
	</g>
</g>
</svg>
