<?xml version="1.0" encoding="utf-8"?>
<!-- Generator: Adobe Illustrator 16.0.0, SVG Export Plug-In . SVG Version: 6.00 Build 0)  -->
<!DOCTYPE svg PUBLIC "-//W3C//DTD SVG 1.1//EN" "http://www.w3.org/Graphics/SVG/1.1/DTD/svg11.dtd">
<svg version="1.1"
	 id="svg2" xmlns:dc="http://purl.org/dc/elements/1.1/" xmlns:cc="http://creativecommons.org/ns#" xmlns:rdf="http://www.w3.org/1999/02/22-rdf-syntax-ns#" xmlns:svg="http://www.w3.org/2000/svg" xmlns:inkscape="http://www.inkscape.org/namespaces/inkscape"
	 xmlns="http://www.w3.org/2000/svg" xmlns:xlink="http://www.w3.org/1999/xlink" x="0px" y="0px" width="765px" height="990px"
	 viewBox="0 0 765 990" enable-background="new 0 0 765 990" xml:space="preserve">
<g id="g10" transform="matrix(1.25,0,0,-1.25,0,990)">
	<g id="g12">
		<g>
			<defs>
				<rect id="SVGID_1_" x="-48.945" y="346.305" width="419" height="813"/>
			</defs>
			<clipPath id="SVGID_2_">
				<use xlink:href="#SVGID_1_"  overflow="visible"/>
			</clipPath>
			<g id="g14" clip-path="url(#SVGID_2_)">
				<g id="g20" transform="translate(162.5767,412.1089)">
					<path id="path22" inkscape:connector-curvature="0" fill="#373535" d="M-80.577,353.924c0,1.637,0.468,2.163,1.927,2.163
						c2.738,0,3.525-5.14,3.754-9.171c0.485-8.535-1.754-11.898-4.594-11.898h-1.088V353.924z M-86.216,358.302v-1.246
						c1.857-0.21,2.296-0.816,2.296-2.485v-38.354c0-1.672-0.423-2.277-2.296-2.487v-1.246h7.936v1.246
						c-1.864,0.21-2.296,0.815-2.296,2.487v16.586h2.271c3.379,0,7.015,4.024,7.015,12.74c0,8.723-2.581,12.759-7.463,12.759
						H-86.216z"/>
				</g>
				<g id="g24" transform="translate(162.5767,412.1089)">
					<path id="path26" inkscape:connector-curvature="0" fill="none" stroke="#373535" stroke-width="0.5" d="M-80.577,353.924
						c0,1.637,0.468,2.163,1.927,2.163c2.738,0,3.525-5.14,3.754-9.171c0.485-8.535-1.754-11.898-4.594-11.898h-1.088V353.924z
						 M-86.216,358.302v-1.246c1.857-0.21,2.296-0.816,2.296-2.485v-38.354c0-1.672-0.423-2.277-2.296-2.487v-1.246h7.936v1.246
						c-1.864,0.21-2.296,0.815-2.296,2.487v16.586h2.271c3.379,0,7.015,4.024,7.015,12.74c0,8.723-2.581,12.759-7.463,12.759
						H-86.216z"/>
				</g>
				<g id="g28" transform="translate(436.5986,417.4399)">
					<path id="path30" inkscape:connector-curvature="0" fill="#373535" d="M-204.513,352.971v-1.246
						c1.839-0.162,2.297-0.816,2.297-2.485v-30.596c0-8.368-3.058-9.617-4.879-9.617c-3.128,0-4.584,2.933-4.584,9.229v30.985
						c0,1.669,0.441,2.261,2.295,2.485v1.246h-7.935v-1.246c1.848-0.186,2.296-0.816,2.296-2.485v-30.985
						c0-7.922,2.509-11.774,7.67-11.774c3.113,0,6.821,2.205,6.821,12.715v30.045c0,1.669,0.463,2.287,2.298,2.485v1.246H-204.513z"
						/>
				</g>
				<g id="g32" transform="translate(436.5986,417.4399)">
					<path id="path34" inkscape:connector-curvature="0" fill="none" stroke="#373535" stroke-width="0.5" d="M-204.513,352.971
						v-1.246c1.839-0.162,2.297-0.816,2.297-2.485v-30.596c0-8.368-3.058-9.617-4.879-9.617c-3.128,0-4.584,2.933-4.584,9.229
						v30.985c0,1.669,0.441,2.261,2.295,2.485v1.246h-7.935v-1.246c1.848-0.186,2.296-0.816,2.296-2.485v-30.985
						c0-7.922,2.509-11.774,7.67-11.774c3.113,0,6.821,2.205,6.821,12.715v30.045c0,1.669,0.463,2.287,2.298,2.485v1.246H-204.513z"
						/>
				</g>
				<g id="g36" transform="translate(483.8857,403.8926)">
					<path id="path38" inkscape:connector-curvature="0" fill="#373535" d="M-225.901,355.394c0-8.031,2.609-10.602,6.555-13.425
						c3.707-2.651,5.289-6.051,5.289-11.373c0-3.975-1.352-8.615-5.161-8.615c-3.173,0-5.173,3.811-6.045,12.016h-0.77v-13.467
						h0.734c0.193,1.589,0.495,2.026,0.841,2.026c0.488,0,0.933-0.602,1.228-0.932c0.933-1.045,2.281-1.634,3.982-1.634
						c4.772,0,7.622,4.985,7.622,13.336c0,6.809-2.233,11.369-6.679,14.43c-4.05,2.788-5.051,5.179-5.051,9.889
						c0,5.171,2.054,7.594,4.688,7.594c2.059,0,4.537-2.086,5.003-10.615h0.773v12.154h-0.733c-0.262-1.275-0.487-1.563-0.841-1.563
						c-0.112,0-0.39,0.223-0.642,0.483c-0.64,0.66-1.818,1.657-3.464,1.657C-222.819,367.354-225.901,362.147-225.901,355.394"/>
				</g>
				<g id="g40" transform="translate(483.8857,403.8926)">
					<path id="path42" inkscape:connector-curvature="0" fill="none" stroke="#373535" stroke-width="0.5" d="M-225.901,355.394
						c0-8.031,2.609-10.602,6.555-13.425c3.707-2.651,5.289-6.051,5.289-11.373c0-3.975-1.352-8.615-5.161-8.615
						c-3.173,0-5.173,3.811-6.045,12.016h-0.77v-13.467h0.734c0.193,1.589,0.495,2.026,0.841,2.026c0.488,0,0.933-0.602,1.228-0.932
						c0.933-1.045,2.281-1.634,3.982-1.634c4.772,0,7.622,4.985,7.622,13.336c0,6.809-2.233,11.369-6.679,14.43
						c-4.05,2.788-5.051,5.179-5.051,9.889c0,5.171,2.054,7.594,4.688,7.594c2.059,0,4.537-2.086,5.003-10.615h0.773v12.154h-0.733
						c-0.262-1.275-0.487-1.563-0.841-1.563c-0.112,0-0.39,0.223-0.642,0.483c-0.64,0.66-1.818,1.657-3.464,1.657
						C-222.819,367.354-225.901,362.147-225.901,355.394z"/>
				</g>
				<g id="g44" transform="translate(131.3887,412.1089)">
					<path id="path46" inkscape:connector-curvature="0" fill="#373535" d="M-66.471,353.924c0,1.637,0.79,2.163,2.249,2.163
						c2.391,0,3.443-4.307,3.67-8.339c0.368-6.544-1.036-11.452-4.832-11.452h-1.088V353.924z M-72.11,358.302v-1.246
						c1.87-0.21,2.296-0.816,2.296-2.485v-38.354c0-1.672-0.444-2.277-2.296-2.487v-1.246h7.936v1.246
						c-1.884,0.21-2.297,0.815-2.297,2.487v18.114h1.093c1.887-6.91,3.526-13.222,4.411-16.631l0.672-2.568
						c0.532-1.941,1.37-2.767,2.744-2.767c1.461,0,2.411,0.119,2.411,0.119v1.246c-1.005,0-1.248,0.511-1.614,1.678l-0.928,3.52
						c0,0-4.052,15.263-4.239,15.966c3.007,1.472,4.991,5.601,4.991,11.439c0,7.83-2.512,11.968-7.394,11.968H-72.11z"/>
				</g>
				<g id="g48" transform="translate(131.3887,412.1089)">
					<path id="path50" inkscape:connector-curvature="0" fill="none" stroke="#373535" stroke-width="0.5" d="M-66.471,353.924
						c0,1.637,0.79,2.163,2.249,2.163c2.391,0,3.443-4.307,3.67-8.339c0.368-6.544-1.036-11.452-4.832-11.452h-1.088V353.924z
						 M-72.11,358.302v-1.246c1.87-0.21,2.296-0.816,2.296-2.485v-38.354c0-1.672-0.444-2.277-2.296-2.487v-1.246h7.936v1.246
						c-1.884,0.21-2.297,0.815-2.297,2.487v18.114h1.093c1.887-6.91,3.526-13.222,4.411-16.631l0.672-2.568
						c0.532-1.941,1.37-2.767,2.744-2.767c1.461,0,2.411,0.119,2.411,0.119v1.246c-1.005,0-1.248,0.511-1.614,1.678l-0.928,3.52
						c0,0-4.052,15.263-4.239,15.966c3.007,1.472,4.991,5.601,4.991,11.439c0,7.83-2.512,11.968-7.394,11.968H-72.11z"/>
				</g>
				<g id="g52" transform="translate(93.8477,389.1621)">
					<path id="path54" inkscape:connector-curvature="0" fill="#373535" d="M-49.491,358.027
						c-0.67,18.976,2.584,21.828,4.791,21.932c3.311,0.155,5.565-4.834,5.926-21.192c0.406-18.399-1.912-22.025-4.794-22.059
						C-46.194,336.677-48.822,339.052-49.491,358.027 M-53.033,358.334c0-16.337,3.648-23.642,8.9-23.642
						c5.732,0,8.899,7.955,8.899,23.642c0,15.688-3.207,23.643-8.75,23.643C-49.563,381.977-53.033,374.022-53.033,358.334"/>
				</g>
				<g id="g56" transform="translate(93.8477,389.1621)">
					<path id="path58" inkscape:connector-curvature="0" fill="none" stroke="#373535" stroke-width="0.5" d="M-49.491,358.027
						c-0.67,18.976,2.584,21.828,4.791,21.932c3.311,0.155,5.565-4.834,5.926-21.192c0.406-18.399-1.912-22.025-4.794-22.059
						C-46.194,336.677-48.822,339.052-49.491,358.027z M-53.033,358.334c0-16.337,3.648-23.642,8.9-23.642
						c5.732,0,8.899,7.955,8.899,23.642c0,15.688-3.207,23.643-8.75,23.643C-49.563,381.977-53.033,374.022-53.033,358.334z"/>
				</g>
				<g id="g60" transform="translate(188.6709,389.1621)">
					<path id="path62" inkscape:connector-curvature="0" fill="#373535" d="M-92.379,358.027
						c-0.669,18.976,2.586,21.828,4.792,21.932c3.311,0.155,5.565-4.834,5.925-21.192c0.407-18.399-1.912-22.025-4.793-22.059
						C-89.082,336.677-91.709,339.052-92.379,358.027 M-95.92,358.334c0-16.337,3.646-23.642,8.9-23.642
						c5.732,0,8.899,7.955,8.899,23.642c0,15.688-3.208,23.643-8.75,23.643C-92.45,381.977-95.92,374.022-95.92,358.334"/>
				</g>
				<g id="g64" transform="translate(188.6709,389.1621)">
					<path id="path66" inkscape:connector-curvature="0" fill="none" stroke="#373535" stroke-width="0.5" d="M-92.379,358.027
						c-0.669,18.976,2.586,21.828,4.792,21.932c3.311,0.155,5.565-4.834,5.925-21.192c0.407-18.399-1.912-22.025-4.793-22.059
						C-89.082,336.677-91.709,339.052-92.379,358.027z M-95.92,358.334c0-16.337,3.646-23.642,8.9-23.642
						c5.732,0,8.899,7.955,8.899,23.642c0,15.688-3.208,23.643-8.75,23.643C-92.45,381.977-95.92,374.022-95.92,358.334z"/>
				</g>
				<g id="g68" transform="translate(386.5391,389.1621)">
					<path id="path70" inkscape:connector-curvature="0" fill="#373535" d="M-181.872,358.027
						c-0.67,18.976,2.585,21.828,4.792,21.932c3.31,0.155,5.564-4.834,5.925-21.192c0.407-18.399-1.913-22.025-4.793-22.059
						C-178.574,336.677-181.203,339.052-181.872,358.027 M-185.414,358.334c0-16.337,3.646-23.642,8.9-23.642
						c5.733,0,8.9,7.955,8.9,23.642c0,15.688-3.207,23.643-8.751,23.643C-181.944,381.977-185.414,374.022-185.414,358.334"/>
				</g>
				<g id="g72" transform="translate(386.5391,389.1621)">
					<path id="path74" inkscape:connector-curvature="0" fill="none" stroke="#373535" stroke-width="0.5" d="M-181.872,358.027
						c-0.67,18.976,2.585,21.828,4.792,21.932c3.31,0.155,5.564-4.834,5.925-21.192c0.407-18.399-1.913-22.025-4.793-22.059
						C-178.574,336.677-181.203,339.052-181.872,358.027z M-185.414,358.334c0-16.337,3.646-23.642,8.9-23.642
						c5.733,0,8.9,7.955,8.9,23.642c0,15.688-3.207,23.643-8.751,23.643C-181.944,381.977-185.414,374.022-185.414,358.334z"/>
				</g>
				<g id="g76" transform="translate(46.4473,395.9844)">
					<path id="path78" inkscape:connector-curvature="0" fill="#373535" d="M-28.053,356.807c0-19.202,3.812-28.938,11.259-28.938
						c6.083,0,8.838,7.568,9.137,19.321h-2.427c-0.414-14.545-3.77-16.992-6.382-17.145c-2.773-0.165-6.947,2.655-7.568,26.381
						c-0.443,16.952,2.384,26.784,7.209,27.149c3.259,0,6.046-1.431,7.492-13.589h0.815v14.869h-0.717
						c-0.503-0.916-0.894-1.115-1.423-1.115c-0.468,0-1.043,0.282-1.58,0.639c-0.872,0.575-2.066,1.367-4.186,1.367
						C-20.767,385.746-28.053,380.901-28.053,356.807"/>
				</g>
				<g id="g80" transform="translate(46.4473,395.9844)">
					<path id="path82" inkscape:connector-curvature="0" fill="none" stroke="#373535" stroke-width="0.5" d="M-28.053,356.807
						c0-19.202,3.812-28.938,11.259-28.938c6.083,0,8.838,7.568,9.137,19.321h-2.427c-0.414-14.545-3.77-16.992-6.382-17.145
						c-2.773-0.165-6.947,2.655-7.568,26.381c-0.443,16.952,2.384,26.784,7.209,27.149c3.259,0,6.046-1.431,7.492-13.589h0.815
						v14.869h-0.717c-0.503-0.916-0.894-1.115-1.423-1.115c-0.468,0-1.043,0.282-1.58,0.639c-0.872,0.575-2.066,1.367-4.186,1.367
						C-20.767,385.746-28.053,380.901-28.053,356.807z"/>
				</g>
				<g id="g84" transform="translate(340.4385,395.9844)">
					<path id="path86" inkscape:connector-curvature="0" fill="#373535" d="M-161.021,356.807c0-19.202,3.812-28.938,11.259-28.938
						c6.082,0,8.839,7.568,9.136,19.321h-2.427c-0.413-14.545-3.769-16.992-6.382-17.145c-2.773-0.165-6.948,2.655-7.567,26.381
						c-0.443,16.952,2.383,26.784,7.209,27.149c3.26,0,6.046-1.431,7.491-13.589h0.814v14.869h-0.715
						c-0.503-0.916-0.894-1.115-1.423-1.115c-0.469,0-1.042,0.282-1.58,0.639c-0.873,0.575-2.067,1.367-4.187,1.367
						C-153.736,385.746-161.021,380.901-161.021,356.807"/>
				</g>
				<g id="g88" transform="translate(340.4385,395.9844)">
					<path id="path90" inkscape:connector-curvature="0" fill="none" stroke="#373535" stroke-width="0.5" d="M-161.021,356.807
						c0-19.202,3.812-28.938,11.259-28.938c6.082,0,8.839,7.568,9.136,19.321h-2.427c-0.413-14.545-3.769-16.992-6.382-17.145
						c-2.773-0.165-6.948,2.655-7.567,26.381c-0.443,16.952,2.383,26.784,7.209,27.149c3.26,0,6.046-1.431,7.491-13.589h0.814
						v14.869h-0.715c-0.503-0.916-0.894-1.115-1.423-1.115c-0.469,0-1.042,0.282-1.58,0.639c-0.873,0.575-2.067,1.367-4.187,1.367
						C-153.736,385.746-161.021,380.901-161.021,356.807z"/>
				</g>
				<g id="g92" transform="translate(254.667,384.543)">
					<path id="path94" inkscape:connector-curvature="0" fill="#373535" d="M-122.228,358.853c0.751,4.73,1.547,9.823,2.173,14.048
						c0.106,0.754,0.18,1.464,0.223,2.159c0.041-0.672,0.098-1.43,0.221-2.115c0.642-3.834,1.487-9.084,2.284-14.093H-122.228z
						 M-136.896,363.862h-1.087v17.629c0,1.636,0.79,2.162,2.249,2.162c2.391,0,3.459-4.305,3.671-8.339
						C-131.642,367.302-133.766,363.862-136.896,363.862 M-109.106,341.296c-1.736,0.199-2.027,1-2.305,2.584l-2.152,12.289
						c-1.87,11.306-5.068,30.426-5.068,30.426h-0.829c0,0-6.908-41.238-7.152-42.732c-0.25-1.527-0.507-2.544-0.811-2.544
						c-0.304,0-0.564,0.68-0.783,1.411l-0.991,3.763c0,0-4.053,15.263-4.24,15.966c3.009,1.472,4.991,5.601,4.991,11.439
						c0,7.83-2.511,11.968-7.393,11.968h-7.785v-1.246c1.891-0.21,2.297-0.816,2.297-2.485v-38.356c0-1.67-0.449-2.275-2.297-2.485
						v-1.246h7.936v1.246c-1.864,0.211-2.296,0.815-2.296,2.485v18.116h1.093c1.887-6.91,3.526-13.223,4.41-16.631l0.671-2.568
						c0.533-1.941,1.467-2.648,2.842-2.648h6.124v1.246c-1.046,0.108-1.504,0.294-1.719,0.807c-0.153,0.368-0.186,1-0.076,1.688
						c0.109,0.688,1.579,9.843,2.057,12.848h5.606c0.479-3.022,1.836-11.626,1.987-12.557c0.109-0.671,0.149-1.425-0.062-1.818
						c-0.323-0.6-0.87-0.843-2.18-0.969v-1.246h8.123V341.296z"/>
				</g>
				<g id="g96" transform="translate(254.667,384.543)">
					<path id="path98" inkscape:connector-curvature="0" fill="none" stroke="#373535" stroke-width="0.5" d="M-122.228,358.853
						c0.751,4.73,1.547,9.823,2.173,14.048c0.106,0.754,0.18,1.464,0.223,2.159c0.041-0.672,0.098-1.43,0.221-2.115
						c0.642-3.834,1.487-9.084,2.284-14.093H-122.228z M-136.896,363.862h-1.087v17.629c0,1.636,0.79,2.162,2.249,2.162
						c2.391,0,3.459-4.305,3.671-8.339C-131.642,367.302-133.766,363.862-136.896,363.862z M-109.106,341.296
						c-1.736,0.199-2.027,1-2.305,2.584l-2.152,12.289c-1.87,11.306-5.068,30.426-5.068,30.426h-0.829
						c0,0-6.908-41.238-7.152-42.732c-0.25-1.527-0.507-2.544-0.811-2.544c-0.304,0-0.564,0.68-0.783,1.411l-0.991,3.763
						c0,0-4.053,15.263-4.24,15.966c3.009,1.472,4.991,5.601,4.991,11.439c0,7.83-2.511,11.968-7.393,11.968h-7.785v-1.246
						c1.891-0.21,2.297-0.816,2.297-2.485v-38.356c0-1.67-0.449-2.275-2.297-2.485v-1.246h7.936v1.246
						c-1.864,0.211-2.296,0.815-2.296,2.485v18.116h1.093c1.887-6.91,3.526-13.223,4.41-16.631l0.671-2.568
						c0.533-1.941,1.467-2.648,2.842-2.648h6.124v1.246c-1.046,0.108-1.504,0.294-1.719,0.807c-0.153,0.368-0.186,1-0.076,1.688
						c0.109,0.688,1.579,9.843,2.057,12.848h5.606c0.479-3.022,1.836-11.626,1.987-12.557c0.109-0.671,0.149-1.425-0.062-1.818
						c-0.323-0.6-0.87-0.843-2.18-0.969v-1.246h8.123V341.296z"/>
				</g>
				<g id="g100" transform="translate(328.375,373.9434)">
					<path id="path102" inkscape:connector-curvature="0" fill="#373535" d="M-155.565,360.748
						c-1.317-6.695-2.222-7.884-3.592-7.884h-3.966c-0.73,0-0.931,0.327-0.931,1.517v18.65h3.59c1.606,0,2.346-2.775,2.457-5.459
						h0.831v12.235h-0.831c-0.17-2.779-0.667-4.561-2.457-4.561h-3.59v18.453c0,0.513,0.143,0.553,0.362,0.553h3.722
						c1.372,0,2.307-1.35,3.593-7.882h0.868l-0.781,11.116l-0.072,0.041c0,0-0.346-1.06-1.393-1.06h-11.936v-1.246
						c1.897-0.208,2.296-0.816,2.296-2.486v-38.355c0-1.671-0.444-2.287-2.296-2.486v-1.246h12.748c1.046,0,1.393-1.06,1.393-1.06
						l0.074,0.018l0.779,11.141H-155.565z"/>
				</g>
				<g id="g104" transform="translate(328.375,373.9434)">
					<path id="path106" inkscape:connector-curvature="0" fill="none" stroke="#373535" stroke-width="0.5" d="M-155.565,360.748
						c-1.317-6.695-2.222-7.884-3.592-7.884h-3.966c-0.73,0-0.931,0.327-0.931,1.517v18.65h3.59c1.606,0,2.346-2.775,2.457-5.459
						h0.831v12.235h-0.831c-0.17-2.779-0.667-4.561-2.457-4.561h-3.59v18.453c0,0.513,0.143,0.553,0.362,0.553h3.722
						c1.372,0,2.307-1.35,3.593-7.882h0.868l-0.781,11.116l-0.072,0.041c0,0-0.346-1.06-1.393-1.06h-11.936v-1.246
						c1.897-0.208,2.296-0.816,2.296-2.486v-38.355c0-1.671-0.444-2.287-2.296-2.486v-1.246h12.748c1.046,0,1.393-1.06,1.393-1.06
						l0.074,0.018l0.779,11.141H-155.565z"/>
				</g>
				<g id="g108" transform="translate(537.2607,373.9434)">
					<path id="path110" inkscape:connector-curvature="0" fill="#373535" d="M-250.042,360.748
						c-1.317-6.695-2.221-7.884-3.592-7.884h-3.966c-0.73,0-0.93,0.327-0.93,1.517v18.65h3.589c1.607,0,2.347-2.775,2.459-5.459
						h0.831v12.235h-0.831c-0.171-2.779-0.668-4.561-2.459-4.561h-3.589v18.453c0,0.513,0.144,0.553,0.362,0.553h3.723
						c1.37,0,2.305-1.35,3.591-7.882h0.867l-0.78,11.116l-0.072,0.041c0,0-0.347-1.06-1.393-1.06h-11.937v-1.246
						c1.898-0.208,2.296-0.816,2.296-2.486v-38.355c0-1.671-0.443-2.287-2.296-2.486v-1.246h12.749c1.047,0,1.392-1.06,1.392-1.06
						l0.074,0.018l0.779,11.141H-250.042z"/>
				</g>
				<g id="g112" transform="translate(537.2607,373.9434)">
					<path id="path114" inkscape:connector-curvature="0" fill="none" stroke="#373535" stroke-width="0.5" d="M-250.042,360.748
						c-1.317-6.695-2.221-7.884-3.592-7.884h-3.966c-0.73,0-0.93,0.327-0.93,1.517v18.65h3.589c1.607,0,2.347-2.775,2.459-5.459
						h0.831v12.235h-0.831c-0.171-2.779-0.668-4.561-2.459-4.561h-3.589v18.453c0,0.513,0.144,0.553,0.362,0.553h3.723
						c1.37,0,2.305-1.35,3.591-7.882h0.867l-0.78,11.116l-0.072,0.041c0,0-0.347-1.06-1.393-1.06h-11.937v-1.246
						c1.898-0.208,2.296-0.816,2.296-2.486v-38.355c0-1.671-0.443-2.287-2.296-2.486v-1.246h12.749c1.047,0,1.392-1.06,1.392-1.06
						l0.074,0.018l0.779,11.141H-250.042z"/>
				</g>
				<g id="g116" transform="translate(482.0342,417.4399)">
					<path id="path118" inkscape:connector-curvature="0" fill="#373535" d="M-225.063,352.971h-6.02v-1.246
						c1.827-0.174,2.296-0.816,2.296-2.485v-24.341l0.062-2.9l-0.689,2.64l-8.317,28.332h-5.385v-1.246
						c1.875-0.236,2.296-0.816,2.296-2.485v-38.356c0-1.67-0.471-2.311-2.296-2.485v-1.246h6.279v1.246
						c-1.814,0.188-2.297,0.815-2.297,2.485v32.268c0,0.982-0.032,1.953-0.074,2.539c0.116-0.536,0.336-1.375,0.594-2.276
						c2.28-7.93,10.616-36.974,10.616-36.974h0.896v42.8c0,1.669,0.501,2.323,2.298,2.485v1.246H-225.063z"/>
				</g>
				<g id="g120" transform="translate(482.0342,417.4399)">
					<path id="path122" inkscape:connector-curvature="0" fill="none" stroke="#373535" stroke-width="0.5" d="M-225.063,352.971
						h-6.02v-1.246c1.827-0.174,2.296-0.816,2.296-2.485v-24.341l0.062-2.9l-0.689,2.64l-8.317,28.332h-5.385v-1.246
						c1.875-0.236,2.296-0.816,2.296-2.485v-38.356c0-1.67-0.471-2.311-2.296-2.485v-1.246h6.279v1.246
						c-1.814,0.188-2.297,0.815-2.297,2.485v32.268c0,0.982-0.032,1.953-0.074,2.539c0.116-0.536,0.336-1.375,0.594-2.276
						c2.28-7.93,10.616-36.974,10.616-36.974h0.896v42.8c0,1.669,0.501,2.323,2.298,2.485v1.246H-225.063z"/>
				</g>
				<g id="g124" transform="translate(300.5308,418.6958)">
					<path id="path126" inkscape:connector-curvature="0" fill="#373535" d="M-142.971,352.747l-0.067,0.012
						c0,0-0.33-1.044-1.375-1.044h-11.511c-1.047,0-1.376,1.044-1.376,1.044l-0.066-0.012l-0.802-11.129h0.867
						c1.296,6.686,2.22,7.882,3.591,7.882h1.871v-39.87c0-1.673-0.506-2.337-2.297-2.487v-1.246h7.934v1.246
						c-1.791,0.15-2.297,0.814-2.297,2.487v39.87h1.872c1.371,0,2.295-1.196,3.591-7.882h0.867L-142.971,352.747z"/>
				</g>
				<g id="g128" transform="translate(300.5308,418.6958)">
					<path id="path130" inkscape:connector-curvature="0" fill="none" stroke="#373535" stroke-width="0.5" d="M-142.971,352.747
						l-0.067,0.012c0,0-0.33-1.044-1.375-1.044h-11.511c-1.047,0-1.376,1.044-1.376,1.044l-0.066-0.012l-0.802-11.129h0.867
						c1.296,6.686,2.22,7.882,3.591,7.882h1.871v-39.87c0-1.673-0.506-2.337-2.297-2.487v-1.246h7.934v1.246
						c-1.791,0.15-2.297,0.814-2.297,2.487v39.87h1.872c1.371,0,2.295-1.196,3.591-7.882h0.867L-142.971,352.747z"/>
				</g>
				<g id="g132" transform="translate(565.5352,373.9434)">
					<path id="path134" inkscape:connector-curvature="0" fill="#373535" d="M-262.83,360.748c-1.318-6.695-2.222-7.884-3.591-7.884
						h-3.094c-0.732,0-0.933,0.327-0.933,1.517v38.602c0,1.381,0.492,2.077,2.941,2.216v1.269h-8.58v-1.246
						c1.858-0.211,2.297-0.816,2.297-2.486v-38.355c0-1.671-0.505-2.348-2.297-2.486v-1.246h11.879c1.047,0,1.393-1.06,1.393-1.06
						l0.073,0.018l0.778,11.141H-262.83z"/>
				</g>
				<g id="g136" transform="translate(565.5352,373.9434)">
					<path id="path138" inkscape:connector-curvature="0" fill="none" stroke="#373535" stroke-width="0.5" d="M-262.83,360.748
						c-1.318-6.695-2.222-7.884-3.591-7.884h-3.094c-0.732,0-0.933,0.327-0.933,1.517v38.602c0,1.381,0.492,2.077,2.941,2.216v1.269
						h-8.58v-1.246c1.858-0.211,2.297-0.816,2.297-2.486v-38.355c0-1.671-0.505-2.348-2.297-2.486v-1.246h11.879
						c1.047,0,1.393-1.06,1.393-1.06l0.073,0.018l0.778,11.141H-262.83z"/>
				</g>
			</g>
		</g>
	</g>
	<g id="g144">
		<g>
			<defs>
				<rect id="SVGID_3_" x="-48.945" y="346.305" width="419" height="813"/>
			</defs>
			<clipPath id="SVGID_4_">
				<use xlink:href="#SVGID_3_"  overflow="visible"/>
			</clipPath>
			<g id="g146" clip-path="url(#SVGID_4_)">
				<g id="g152" transform="translate(163.5767,412.1089)">
					<path id="path154" inkscape:connector-curvature="0" fill="#AED3DC" d="M-81.029,353.924c0,1.637,0.468,2.163,1.927,2.163
						c2.738,0,3.525-5.14,3.754-9.171c0.485-8.535-1.754-11.898-4.594-11.898h-1.088V353.924z M-86.668,358.302v-1.246
						c1.857-0.21,2.296-0.816,2.296-2.485v-38.354c0-1.672-0.423-2.277-2.296-2.487v-1.246h7.936v1.246
						c-1.864,0.21-2.296,0.815-2.296,2.487v16.586h2.271c3.379,0,7.015,4.024,7.015,12.74c0,8.723-2.581,12.759-7.463,12.759
						H-86.668z"/>
				</g>
				<g id="g156" transform="translate(163.5767,412.1089)">
					<path id="path158" inkscape:connector-curvature="0" fill="none" stroke="#AED3DC" stroke-width="0.5" d="M-81.029,353.924
						c0,1.637,0.468,2.163,1.927,2.163c2.738,0,3.525-5.14,3.754-9.171c0.485-8.535-1.754-11.898-4.594-11.898h-1.088V353.924z
						 M-86.668,358.302v-1.246c1.857-0.21,2.296-0.816,2.296-2.485v-38.354c0-1.672-0.423-2.277-2.296-2.487v-1.246h7.936v1.246
						c-1.864,0.21-2.296,0.815-2.296,2.487v16.586h2.271c3.379,0,7.015,4.024,7.015,12.74c0,8.723-2.581,12.759-7.463,12.759
						H-86.668z"/>
				</g>
				<g id="g160" transform="translate(437.5986,417.4399)">
					<path id="path162" inkscape:connector-curvature="0" fill="#AED3DC" d="M-204.965,352.971v-1.246
						c1.839-0.162,2.297-0.816,2.297-2.485v-30.596c0-8.368-3.058-9.617-4.879-9.617c-3.128,0-4.584,2.933-4.584,9.229v30.985
						c0,1.669,0.441,2.261,2.295,2.485v1.246h-7.935v-1.246c1.848-0.186,2.296-0.816,2.296-2.485v-30.985
						c0-7.922,2.509-11.774,7.67-11.774c3.113,0,6.822,2.205,6.822,12.715v30.045c0,1.669,0.463,2.287,2.298,2.485v1.246H-204.965z"
						/>
				</g>
				<g id="g164" transform="translate(437.5986,417.4399)">
					<path id="path166" inkscape:connector-curvature="0" fill="none" stroke="#AED3DC" stroke-width="0.5" d="M-204.965,352.971
						v-1.246c1.839-0.162,2.297-0.816,2.297-2.485v-30.596c0-8.368-3.058-9.617-4.879-9.617c-3.128,0-4.584,2.933-4.584,9.229
						v30.985c0,1.669,0.441,2.261,2.295,2.485v1.246h-7.935v-1.246c1.848-0.186,2.296-0.816,2.296-2.485v-30.985
						c0-7.922,2.509-11.774,7.67-11.774c3.113,0,6.822,2.205,6.822,12.715v30.045c0,1.669,0.463,2.287,2.298,2.485v1.246H-204.965z"
						/>
				</g>
				<g id="g168" transform="translate(484.8857,403.8926)">
					<path id="path170" inkscape:connector-curvature="0" fill="#AED3DC" d="M-226.353,355.394c0-8.031,2.609-10.602,6.555-13.425
						c3.707-2.651,5.289-6.051,5.289-11.373c0-3.975-1.352-8.615-5.161-8.615c-3.173,0-5.173,3.811-6.045,12.016h-0.77v-13.467
						h0.734c0.193,1.589,0.495,2.026,0.841,2.026c0.487,0,0.933-0.602,1.228-0.932c0.933-1.045,2.281-1.634,3.982-1.634
						c4.772,0,7.622,4.985,7.622,13.336c0,6.809-2.233,11.369-6.679,14.43c-4.05,2.788-5.051,5.179-5.051,9.889
						c0,5.171,2.054,7.594,4.688,7.594c2.059,0,4.537-2.086,5.003-10.615h0.773v12.154h-0.733c-0.262-1.275-0.487-1.563-0.841-1.563
						c-0.112,0-0.39,0.223-0.642,0.483c-0.64,0.66-1.818,1.657-3.464,1.657C-223.271,367.354-226.353,362.147-226.353,355.394"/>
				</g>
				<g id="g172" transform="translate(484.8857,403.8926)">
					<path id="path174" inkscape:connector-curvature="0" fill="none" stroke="#AED3DC" stroke-width="0.5" d="M-226.353,355.394
						c0-8.031,2.609-10.602,6.555-13.425c3.707-2.651,5.289-6.051,5.289-11.373c0-3.975-1.352-8.615-5.161-8.615
						c-3.173,0-5.173,3.811-6.045,12.016h-0.77v-13.467h0.734c0.193,1.589,0.495,2.026,0.841,2.026c0.487,0,0.933-0.602,1.228-0.932
						c0.933-1.045,2.281-1.634,3.982-1.634c4.772,0,7.622,4.985,7.622,13.336c0,6.809-2.233,11.369-6.679,14.43
						c-4.05,2.788-5.051,5.179-5.051,9.889c0,5.171,2.054,7.594,4.688,7.594c2.059,0,4.537-2.086,5.003-10.615h0.773v12.154h-0.733
						c-0.262-1.275-0.487-1.563-0.841-1.563c-0.112,0-0.39,0.223-0.642,0.483c-0.64,0.66-1.818,1.657-3.464,1.657
						C-223.271,367.354-226.353,362.147-226.353,355.394z"/>
				</g>
				<g id="g176" transform="translate(132.3887,412.1089)">
					<path id="path178" inkscape:connector-curvature="0" fill="#AED3DC" d="M-66.923,353.924c0,1.637,0.79,2.163,2.249,2.163
						c2.391,0,3.443-4.307,3.67-8.339c0.368-6.544-1.036-11.452-4.832-11.452h-1.088V353.924z M-72.562,358.302v-1.246
						c1.87-0.21,2.296-0.816,2.296-2.485v-38.354c0-1.672-0.444-2.277-2.296-2.487v-1.246h7.936v1.246
						c-1.884,0.21-2.297,0.815-2.297,2.487v18.114h1.093c1.887-6.91,3.526-13.222,4.411-16.631l0.672-2.568
						c0.532-1.941,1.37-2.767,2.744-2.767c1.461,0,2.411,0.119,2.411,0.119v1.246c-1.005,0-1.248,0.511-1.614,1.678l-0.928,3.52
						c0,0-4.053,15.263-4.239,15.966c3.007,1.472,4.991,5.601,4.991,11.439c0,7.83-2.512,11.968-7.394,11.968H-72.562z"/>
				</g>
				<g id="g180" transform="translate(132.3887,412.1089)">
					<path id="path182" inkscape:connector-curvature="0" fill="none" stroke="#AED3DC" stroke-width="0.5" d="M-66.923,353.924
						c0,1.637,0.79,2.163,2.249,2.163c2.391,0,3.443-4.307,3.67-8.339c0.368-6.544-1.036-11.452-4.832-11.452h-1.088V353.924z
						 M-72.562,358.302v-1.246c1.87-0.21,2.296-0.816,2.296-2.485v-38.354c0-1.672-0.444-2.277-2.296-2.487v-1.246h7.936v1.246
						c-1.884,0.21-2.297,0.815-2.297,2.487v18.114h1.093c1.887-6.91,3.526-13.222,4.411-16.631l0.672-2.568
						c0.532-1.941,1.37-2.767,2.744-2.767c1.461,0,2.411,0.119,2.411,0.119v1.246c-1.005,0-1.248,0.511-1.614,1.678l-0.928,3.52
						c0,0-4.053,15.263-4.239,15.966c3.007,1.472,4.991,5.601,4.991,11.439c0,7.83-2.512,11.968-7.394,11.968H-72.562z"/>
				</g>
				<g id="g184" transform="translate(94.8477,389.1621)">
					<path id="path186" inkscape:connector-curvature="0" fill="#AED3DC" d="M-49.944,358.027
						c-0.669,18.976,2.584,21.828,4.791,21.932c3.311,0.155,5.565-4.834,5.926-21.192c0.406-18.399-1.912-22.025-4.794-22.059
						C-46.647,336.677-49.274,339.052-49.944,358.027 M-53.486,358.334c0-16.337,3.648-23.642,8.9-23.642
						c5.732,0,8.899,7.955,8.899,23.642c0,15.688-3.207,23.643-8.751,23.643C-50.015,381.977-53.486,374.022-53.486,358.334"/>
				</g>
				<g id="g188" transform="translate(94.8477,389.1621)">
					<path id="path190" inkscape:connector-curvature="0" fill="none" stroke="#AED3DC" stroke-width="0.5" d="M-49.944,358.027
						c-0.669,18.976,2.584,21.828,4.791,21.932c3.311,0.155,5.565-4.834,5.926-21.192c0.406-18.399-1.912-22.025-4.794-22.059
						C-46.647,336.677-49.274,339.052-49.944,358.027z M-53.486,358.334c0-16.337,3.648-23.642,8.9-23.642
						c5.732,0,8.899,7.955,8.899,23.642c0,15.688-3.207,23.643-8.751,23.643C-50.015,381.977-53.486,374.022-53.486,358.334z"/>
				</g>
				<g id="g192" transform="translate(189.6709,389.1621)">
					<path id="path194" inkscape:connector-curvature="0" fill="#AED3DC" d="M-92.831,358.027
						c-0.669,18.976,2.586,21.828,4.792,21.932c3.311,0.155,5.565-4.834,5.925-21.192c0.406-18.399-1.912-22.025-4.793-22.059
						C-89.534,336.677-92.161,339.052-92.831,358.027 M-96.372,358.334c0-16.337,3.646-23.642,8.9-23.642
						c5.732,0,8.899,7.955,8.899,23.642c0,15.688-3.207,23.643-8.75,23.643C-92.902,381.977-96.372,374.022-96.372,358.334"/>
				</g>
				<g id="g196" transform="translate(189.6709,389.1621)">
					<path id="path198" inkscape:connector-curvature="0" fill="none" stroke="#AED3DC" stroke-width="0.5" d="M-92.831,358.027
						c-0.669,18.976,2.586,21.828,4.792,21.932c3.311,0.155,5.565-4.834,5.925-21.192c0.406-18.399-1.912-22.025-4.793-22.059
						C-89.534,336.677-92.161,339.052-92.831,358.027z M-96.372,358.334c0-16.337,3.646-23.642,8.9-23.642
						c5.732,0,8.899,7.955,8.899,23.642c0,15.688-3.207,23.643-8.75,23.643C-92.902,381.977-96.372,374.022-96.372,358.334z"/>
				</g>
				<g id="g200" transform="translate(387.5391,389.1621)">
					<path id="path202" inkscape:connector-curvature="0" fill="#AED3DC" d="M-182.324,358.027
						c-0.67,18.976,2.585,21.828,4.792,21.932c3.31,0.155,5.564-4.834,5.925-21.192c0.407-18.399-1.913-22.025-4.793-22.059
						C-179.026,336.677-181.654,339.052-182.324,358.027 M-185.866,358.334c0-16.337,3.646-23.642,8.901-23.642
						c5.733,0,8.899,7.955,8.899,23.642c0,15.688-3.207,23.643-8.751,23.643C-182.396,381.977-185.866,374.022-185.866,358.334"/>
				</g>
				<g id="g204" transform="translate(387.5391,389.1621)">
					<path id="path206" inkscape:connector-curvature="0" fill="none" stroke="#AED3DC" stroke-width="0.5" d="M-182.324,358.027
						c-0.67,18.976,2.585,21.828,4.792,21.932c3.31,0.155,5.564-4.834,5.925-21.192c0.407-18.399-1.913-22.025-4.793-22.059
						C-179.026,336.677-181.654,339.052-182.324,358.027z M-185.866,358.334c0-16.337,3.646-23.642,8.901-23.642
						c5.733,0,8.899,7.955,8.899,23.642c0,15.688-3.207,23.643-8.751,23.643C-182.396,381.977-185.866,374.022-185.866,358.334z"/>
				</g>
				<g id="g208" transform="translate(47.4473,395.9844)">
					<path id="path210" inkscape:connector-curvature="0" fill="#AED3DC" d="M-28.505,356.807c0-19.202,3.812-28.938,11.259-28.938
						c6.083,0,8.838,7.568,9.137,19.321h-2.427c-0.414-14.545-3.77-16.992-6.382-17.145c-2.773-0.165-6.947,2.655-7.568,26.381
						c-0.443,16.952,2.384,26.784,7.209,27.149c3.259,0,6.047-1.431,7.492-13.589h0.815v14.869h-0.716
						c-0.504-0.916-0.894-1.115-1.423-1.115c-0.468,0-1.043,0.282-1.58,0.639c-0.872,0.575-2.066,1.367-4.186,1.367
						C-21.219,385.746-28.505,380.901-28.505,356.807"/>
				</g>
				<g id="g212" transform="translate(47.4473,395.9844)">
					<path id="path214" inkscape:connector-curvature="0" fill="none" stroke="#AED3DC" stroke-width="0.5" d="M-28.505,356.807
						c0-19.202,3.812-28.938,11.259-28.938c6.083,0,8.838,7.568,9.137,19.321h-2.427c-0.414-14.545-3.77-16.992-6.382-17.145
						c-2.773-0.165-6.947,2.655-7.568,26.381c-0.443,16.952,2.384,26.784,7.209,27.149c3.259,0,6.047-1.431,7.492-13.589h0.815
						v14.869h-0.716c-0.504-0.916-0.894-1.115-1.423-1.115c-0.468,0-1.043,0.282-1.58,0.639c-0.872,0.575-2.066,1.367-4.186,1.367
						C-21.219,385.746-28.505,380.901-28.505,356.807z"/>
				</g>
				<g id="g216" transform="translate(341.4385,395.9844)">
					<path id="path218" inkscape:connector-curvature="0" fill="#AED3DC" d="M-161.474,356.807c0-19.202,3.812-28.938,11.259-28.938
						c6.082,0,8.839,7.568,9.137,19.321h-2.427c-0.413-14.545-3.769-16.992-6.382-17.145c-2.773-0.165-6.947,2.655-7.567,26.381
						c-0.443,16.952,2.382,26.784,7.208,27.149c3.26,0,6.046-1.431,7.492-13.589h0.814v14.869h-0.715
						c-0.503-0.916-0.894-1.115-1.423-1.115c-0.469,0-1.042,0.282-1.58,0.639c-0.873,0.575-2.067,1.367-4.187,1.367
						C-154.188,385.746-161.474,380.901-161.474,356.807"/>
				</g>
				<g id="g220" transform="translate(341.4385,395.9844)">
					<path id="path222" inkscape:connector-curvature="0" fill="none" stroke="#AED3DC" stroke-width="0.5" d="M-161.474,356.807
						c0-19.202,3.812-28.938,11.259-28.938c6.082,0,8.839,7.568,9.137,19.321h-2.427c-0.413-14.545-3.769-16.992-6.382-17.145
						c-2.773-0.165-6.947,2.655-7.567,26.381c-0.443,16.952,2.382,26.784,7.208,27.149c3.26,0,6.046-1.431,7.492-13.589h0.814
						v14.869h-0.715c-0.503-0.916-0.894-1.115-1.423-1.115c-0.469,0-1.042,0.282-1.58,0.639c-0.873,0.575-2.067,1.367-4.187,1.367
						C-154.188,385.746-161.474,380.901-161.474,356.807z"/>
				</g>
				<g id="g224" transform="translate(255.667,384.543)">
					<path id="path226" inkscape:connector-curvature="0" fill="#AED3DC" d="M-122.68,358.853c0.751,4.73,1.547,9.823,2.173,14.048
						c0.106,0.754,0.18,1.464,0.223,2.159c0.041-0.672,0.098-1.43,0.221-2.115c0.642-3.834,1.487-9.084,2.284-14.093H-122.68z
						 M-137.348,363.862h-1.087v17.629c0,1.636,0.79,2.162,2.249,2.162c2.391,0,3.458-4.305,3.67-8.339
						C-132.094,367.302-134.219,363.862-137.348,363.862 M-109.558,341.296c-1.737,0.199-2.028,1-2.305,2.584l-2.152,12.289
						c-1.87,11.306-5.068,30.426-5.068,30.426h-0.829c0,0-6.908-41.238-7.152-42.732c-0.25-1.527-0.507-2.544-0.811-2.544
						s-0.564,0.68-0.782,1.411l-0.991,3.763c0,0-4.053,15.263-4.24,15.966c3.009,1.472,4.991,5.601,4.991,11.439
						c0,7.83-2.511,11.968-7.393,11.968h-7.785v-1.246c1.891-0.21,2.297-0.816,2.297-2.485v-38.356c0-1.67-0.449-2.275-2.297-2.485
						v-1.246h7.936v1.246c-1.864,0.211-2.296,0.815-2.296,2.485v18.116h1.093c1.887-6.91,3.526-13.223,4.41-16.631l0.671-2.568
						c0.533-1.941,1.467-2.648,2.842-2.648h6.124v1.246c-1.046,0.108-1.504,0.294-1.718,0.807c-0.153,0.368-0.186,1-0.076,1.688
						c0.109,0.688,1.579,9.843,2.057,12.848h5.606c0.479-3.022,1.836-11.626,1.988-12.557c0.109-0.671,0.149-1.425-0.062-1.818
						c-0.323-0.6-0.871-0.843-2.18-0.969v-1.246h8.124V341.296z"/>
				</g>
				<g id="g228" transform="translate(255.667,384.543)">
					<path id="path230" inkscape:connector-curvature="0" fill="none" stroke="#AED3DC" stroke-width="0.5" d="M-122.68,358.853
						c0.751,4.73,1.547,9.823,2.173,14.048c0.106,0.754,0.18,1.464,0.223,2.159c0.041-0.672,0.098-1.43,0.221-2.115
						c0.642-3.834,1.487-9.084,2.284-14.093H-122.68z M-137.348,363.862h-1.087v17.629c0,1.636,0.79,2.162,2.249,2.162
						c2.391,0,3.458-4.305,3.67-8.339C-132.094,367.302-134.219,363.862-137.348,363.862z M-109.558,341.296
						c-1.737,0.199-2.028,1-2.305,2.584l-2.152,12.289c-1.87,11.306-5.068,30.426-5.068,30.426h-0.829
						c0,0-6.908-41.238-7.152-42.732c-0.25-1.527-0.507-2.544-0.811-2.544s-0.564,0.68-0.782,1.411l-0.991,3.763
						c0,0-4.053,15.263-4.24,15.966c3.009,1.472,4.991,5.601,4.991,11.439c0,7.83-2.511,11.968-7.393,11.968h-7.785v-1.246
						c1.891-0.21,2.297-0.816,2.297-2.485v-38.356c0-1.67-0.449-2.275-2.297-2.485v-1.246h7.936v1.246
						c-1.864,0.211-2.296,0.815-2.296,2.485v18.116h1.093c1.887-6.91,3.526-13.223,4.41-16.631l0.671-2.568
						c0.533-1.941,1.467-2.648,2.842-2.648h6.124v1.246c-1.046,0.108-1.504,0.294-1.718,0.807c-0.153,0.368-0.186,1-0.076,1.688
						c0.109,0.688,1.579,9.843,2.057,12.848h5.606c0.479-3.022,1.836-11.626,1.988-12.557c0.109-0.671,0.149-1.425-0.062-1.818
						c-0.323-0.6-0.871-0.843-2.18-0.969v-1.246h8.124V341.296z"/>
				</g>
				<g id="g232" transform="translate(329.375,373.9434)">
					<path id="path234" inkscape:connector-curvature="0" fill="#AED3DC" d="M-156.017,360.748
						c-1.317-6.695-2.221-7.884-3.592-7.884h-3.966c-0.73,0-0.931,0.327-0.931,1.517v18.65h3.59c1.606,0,2.346-2.775,2.457-5.459
						h0.831v12.235h-0.831c-0.17-2.779-0.667-4.561-2.457-4.561h-3.59v18.453c0,0.513,0.143,0.553,0.362,0.553h3.722
						c1.372,0,2.307-1.35,3.593-7.882h0.868l-0.781,11.116l-0.072,0.041c0,0-0.346-1.06-1.393-1.06h-11.936v-1.246
						c1.897-0.208,2.296-0.816,2.296-2.486v-38.355c0-1.671-0.444-2.287-2.296-2.486v-1.246h12.748c1.047,0,1.393-1.06,1.393-1.06
						l0.074,0.018l0.779,11.141H-156.017z"/>
				</g>
				<g id="g236" transform="translate(329.375,373.9434)">
					<path id="path238" inkscape:connector-curvature="0" fill="none" stroke="#AED3DC" stroke-width="0.5" d="M-156.017,360.748
						c-1.317-6.695-2.221-7.884-3.592-7.884h-3.966c-0.73,0-0.931,0.327-0.931,1.517v18.65h3.59c1.606,0,2.346-2.775,2.457-5.459
						h0.831v12.235h-0.831c-0.17-2.779-0.667-4.561-2.457-4.561h-3.59v18.453c0,0.513,0.143,0.553,0.362,0.553h3.722
						c1.372,0,2.307-1.35,3.593-7.882h0.868l-0.781,11.116l-0.072,0.041c0,0-0.346-1.06-1.393-1.06h-11.936v-1.246
						c1.897-0.208,2.296-0.816,2.296-2.486v-38.355c0-1.671-0.444-2.287-2.296-2.486v-1.246h12.748c1.047,0,1.393-1.06,1.393-1.06
						l0.074,0.018l0.779,11.141H-156.017z"/>
				</g>
				<g id="g240" transform="translate(538.2607,373.9434)">
					<path id="path242" inkscape:connector-curvature="0" fill="#AED3DC" d="M-250.494,360.748
						c-1.317-6.695-2.221-7.884-3.592-7.884h-3.966c-0.73,0-0.93,0.327-0.93,1.517v18.65h3.589c1.607,0,2.346-2.775,2.459-5.459
						h0.831v12.235h-0.831c-0.171-2.779-0.668-4.561-2.459-4.561h-3.589v18.453c0,0.513,0.144,0.553,0.362,0.553h3.723
						c1.37,0,2.305-1.35,3.591-7.882h0.866l-0.779,11.116l-0.072,0.041c0,0-0.347-1.06-1.394-1.06h-11.937v-1.246
						c1.898-0.208,2.296-0.816,2.296-2.486v-38.355c0-1.671-0.443-2.287-2.296-2.486v-1.246h12.75c1.047,0,1.392-1.06,1.392-1.06
						l0.073,0.018l0.778,11.141H-250.494z"/>
				</g>
				<g id="g244" transform="translate(538.2607,373.9434)">
					<path id="path246" inkscape:connector-curvature="0" fill="none" stroke="#AED3DC" stroke-width="0.5" d="M-250.494,360.748
						c-1.317-6.695-2.221-7.884-3.592-7.884h-3.966c-0.73,0-0.93,0.327-0.93,1.517v18.65h3.589c1.607,0,2.346-2.775,2.459-5.459
						h0.831v12.235h-0.831c-0.171-2.779-0.668-4.561-2.459-4.561h-3.589v18.453c0,0.513,0.144,0.553,0.362,0.553h3.723
						c1.37,0,2.305-1.35,3.591-7.882h0.866l-0.779,11.116l-0.072,0.041c0,0-0.347-1.06-1.394-1.06h-11.937v-1.246
						c1.898-0.208,2.296-0.816,2.296-2.486v-38.355c0-1.671-0.443-2.287-2.296-2.486v-1.246h12.75c1.047,0,1.392-1.06,1.392-1.06
						l0.073,0.018l0.778,11.141H-250.494z"/>
				</g>
				<g id="g248" transform="translate(483.0342,417.4399)">
					<path id="path250" inkscape:connector-curvature="0" fill="#AED3DC" d="M-225.516,352.971h-6.02v-1.246
						c1.827-0.174,2.296-0.816,2.296-2.485v-24.341l0.062-2.9l-0.689,2.64l-8.316,28.332h-5.385v-1.246
						c1.875-0.236,2.296-0.816,2.296-2.485v-38.356c0-1.67-0.471-2.311-2.296-2.485v-1.246h6.279v1.246
						c-1.814,0.188-2.297,0.815-2.297,2.485v32.268c0,0.982-0.032,1.953-0.074,2.539c0.116-0.536,0.336-1.375,0.594-2.276
						c2.28-7.93,10.616-36.974,10.616-36.974h0.896v42.8c0,1.669,0.501,2.323,2.298,2.485v1.246H-225.516z"/>
				</g>
				<g id="g252" transform="translate(483.0342,417.4399)">
					<path id="path254" inkscape:connector-curvature="0" fill="none" stroke="#AED3DC" stroke-width="0.5" d="M-225.516,352.971
						h-6.02v-1.246c1.827-0.174,2.296-0.816,2.296-2.485v-24.341l0.062-2.9l-0.689,2.64l-8.316,28.332h-5.385v-1.246
						c1.875-0.236,2.296-0.816,2.296-2.485v-38.356c0-1.67-0.471-2.311-2.296-2.485v-1.246h6.279v1.246
						c-1.814,0.188-2.297,0.815-2.297,2.485v32.268c0,0.982-0.032,1.953-0.074,2.539c0.116-0.536,0.336-1.375,0.594-2.276
						c2.28-7.93,10.616-36.974,10.616-36.974h0.896v42.8c0,1.669,0.501,2.323,2.298,2.485v1.246H-225.516z"/>
				</g>
				<g id="g256" transform="translate(301.5308,418.6958)">
					<path id="path258" inkscape:connector-curvature="0" fill="#AED3DC" d="M-143.424,352.747l-0.067,0.012
						c0,0-0.33-1.044-1.375-1.044h-11.511c-1.047,0-1.376,1.044-1.376,1.044l-0.066-0.012l-0.802-11.129h0.867
						c1.296,6.686,2.22,7.882,3.591,7.882h1.872v-39.87c0-1.673-0.507-2.337-2.297-2.487v-1.246h7.933v1.246
						c-1.791,0.15-2.297,0.814-2.297,2.487v39.87h1.872c1.371,0,2.295-1.196,3.591-7.882h0.867L-143.424,352.747z"/>
				</g>
				<g id="g260" transform="translate(301.5308,418.6958)">
					<path id="path262" inkscape:connector-curvature="0" fill="none" stroke="#AED3DC" stroke-width="0.5" d="M-143.424,352.747
						l-0.067,0.012c0,0-0.33-1.044-1.375-1.044h-11.511c-1.047,0-1.376,1.044-1.376,1.044l-0.066-0.012l-0.802-11.129h0.867
						c1.296,6.686,2.22,7.882,3.591,7.882h1.872v-39.87c0-1.673-0.507-2.337-2.297-2.487v-1.246h7.933v1.246
						c-1.791,0.15-2.297,0.814-2.297,2.487v39.87h1.872c1.371,0,2.295-1.196,3.591-7.882h0.867L-143.424,352.747z"/>
				</g>
				<g id="g264" transform="translate(566.5352,373.9434)">
					<path id="path266" inkscape:connector-curvature="0" fill="#AED3DC" d="M-263.282,360.748
						c-1.317-6.695-2.222-7.884-3.591-7.884h-3.095c-0.731,0-0.932,0.327-0.932,1.517v38.602c0,1.381,0.492,2.077,2.941,2.216v1.269
						h-8.581v-1.246c1.858-0.211,2.298-0.816,2.298-2.486v-38.355c0-1.671-0.505-2.348-2.298-2.486v-1.246h11.88
						c1.047,0,1.392-1.06,1.392-1.06l0.073,0.018l0.78,11.141H-263.282z"/>
				</g>
				<g id="g268" transform="translate(566.5352,373.9434)">
					<path id="path270" inkscape:connector-curvature="0" fill="none" stroke="#AED3DC" stroke-width="0.5" d="M-263.282,360.748
						c-1.317-6.695-2.222-7.884-3.591-7.884h-3.095c-0.731,0-0.932,0.327-0.932,1.517v38.602c0,1.381,0.492,2.077,2.941,2.216v1.269
						h-8.581v-1.246c1.858-0.211,2.298-0.816,2.298-2.486v-38.355c0-1.671-0.505-2.348-2.298-2.486v-1.246h11.88
						c1.047,0,1.392-1.06,1.392-1.06l0.073,0.018l0.78,11.141H-263.282z"/>
				</g>
			</g>
		</g>
	</g>
</g>
</svg>
