<?xml version="1.0" encoding="utf-8"?>
<!-- Generator: Adobe Illustrator 16.0.0, SVG Export Plug-In . SVG Version: 6.00 Build 0)  -->
<!DOCTYPE svg PUBLIC "-//W3C//DTD SVG 1.1//EN" "http://www.w3.org/Graphics/SVG/1.1/DTD/svg11.dtd">
<svg version="1.1"
	 id="svg2" xmlns:dc="http://purl.org/dc/elements/1.1/" xmlns:cc="http://creativecommons.org/ns#" xmlns:rdf="http://www.w3.org/1999/02/22-rdf-syntax-ns#" xmlns:svg="http://www.w3.org/2000/svg" xmlns:inkscape="http://www.inkscape.org/namespaces/inkscape"
	 xmlns="http://www.w3.org/2000/svg" xmlns:xlink="http://www.w3.org/1999/xlink" x="0px" y="0px" width="765px" height="990px"
	 viewBox="0 0 765 990" enable-background="new 0 0 765 990" xml:space="preserve">
<g id="g10" transform="matrix(1.25,0,0,-1.25,0,990)">
	<g id="g12">
		<g>
			<defs>
				<rect id="SVGID_1_" x="-106.778" y="245.153" width="765" height="990"/>
			</defs>
			<clipPath id="SVGID_2_">
				<use xlink:href="#SVGID_1_"  overflow="visible"/>
			</clipPath>
			<g id="g14" clip-path="url(#SVGID_2_)">
				<g id="g20" transform="translate(162.5767,412.1089)">
					<path id="path22" inkscape:connector-curvature="0" fill="#373535" d="M-30.278,344.153c0,1.993,0.854,2.634,3.518,2.634
						c4.999,0,6.436-6.259,6.855-11.168c0.885-10.393-3.202-14.489-8.388-14.489h-1.985V344.153z M-40.575,349.484v-1.517
						c3.39-0.255,4.193-0.994,4.193-3.026v-46.705c0-2.036-0.772-2.773-4.193-3.028v-1.517h14.489v1.517
						c-3.402,0.255-4.193,0.992-4.193,3.028v20.197h4.147c6.169,0,12.808,4.9,12.808,15.514c0,10.623-4.713,15.537-13.625,15.537
						H-40.575z"/>
				</g>
				<g id="g24" transform="translate(162.5767,412.1089)">
					<path id="path26" inkscape:connector-curvature="0" fill="none" stroke="#373535" stroke-width="0.5" d="M-30.278,344.153
						c0,1.993,0.854,2.634,3.518,2.634c4.999,0,6.436-6.259,6.855-11.168c0.885-10.393-3.202-14.489-8.388-14.489h-1.985V344.153z
						 M-40.575,349.484v-1.517c3.39-0.255,4.193-0.994,4.193-3.026v-46.705c0-2.036-0.772-2.773-4.193-3.028v-1.517h14.489v1.517
						c-3.402,0.255-4.193,0.992-4.193,3.028v20.197h4.147c6.169,0,12.808,4.9,12.808,15.514c0,10.623-4.713,15.537-13.625,15.537
						H-40.575z"/>
				</g>
				<g id="g28" transform="translate(436.5986,417.4399)">
					<path id="path30" inkscape:connector-curvature="0" fill="#373535" d="M-30.278,344.153v-1.517
						c3.358-0.197,4.194-0.994,4.194-3.026v-37.258c0-10.19-5.583-11.711-8.908-11.711c-5.711,0-8.369,3.572-8.369,11.237v37.731
						c0,2.032,0.805,2.753,4.191,3.026v1.517h-14.487v-1.517c3.373-0.227,4.192-0.994,4.192-3.026v-37.731
						c0-9.646,4.581-14.337,14.003-14.337c5.683,0,12.455,2.686,12.455,15.483v36.586c0,2.032,0.845,2.784,4.195,3.026v1.517
						H-30.278z"/>
				</g>
				<g id="g32" transform="translate(436.5986,417.4399)">
					<path id="path34" inkscape:connector-curvature="0" fill="none" stroke="#373535" stroke-width="0.5" d="M-30.278,344.153
						v-1.517c3.358-0.197,4.194-0.994,4.194-3.026v-37.258c0-10.19-5.583-11.711-8.908-11.711c-5.711,0-8.369,3.572-8.369,11.237
						v37.731c0,2.032,0.805,2.753,4.191,3.026v1.517h-14.487v-1.517c3.373-0.227,4.192-0.994,4.192-3.026v-37.731
						c0-9.646,4.581-14.337,14.003-14.337c5.683,0,12.455,2.686,12.455,15.483v36.586c0,2.032,0.845,2.784,4.195,3.026v1.517
						H-30.278z"/>
				</g>
				<g id="g36" transform="translate(483.8857,403.8926)">
					<path id="path38" inkscape:connector-curvature="0" fill="#373535" d="M-30.279,344.153c0-9.78,4.762-12.91,11.967-16.348
						c6.769-3.228,9.658-7.369,9.658-13.849c0-4.84-2.469-10.491-9.423-10.491c-5.792,0-9.445,4.641-11.036,14.631h-1.405v-16.398
						h1.339c0.352,1.934,0.903,2.467,1.536,2.467c0.891,0,1.703-0.733,2.242-1.135c1.703-1.272,4.164-1.99,7.27-1.99
						c8.712,0,13.916,6.07,13.916,16.24c0,8.291-4.077,13.844-12.194,17.572c-7.394,3.395-9.222,6.307-9.222,12.043
						c0,6.297,3.75,9.247,8.559,9.247c3.759,0,8.283-2.54,9.134-12.927h1.411v14.8h-1.339c-0.478-1.552-0.889-1.903-1.536-1.903
						c-0.203,0-0.712,0.272-1.172,0.588c-1.167,0.804-3.319,2.018-6.323,2.018C-24.651,358.718-30.279,352.377-30.279,344.153"/>
				</g>
				<g id="g40" transform="translate(483.8857,403.8926)">
					<path id="path42" inkscape:connector-curvature="0" fill="none" stroke="#373535" stroke-width="0.5" d="M-30.279,344.153
						c0-9.78,4.762-12.91,11.967-16.348c6.769-3.228,9.658-7.369,9.658-13.849c0-4.84-2.469-10.491-9.423-10.491
						c-5.792,0-9.445,4.641-11.036,14.631h-1.405v-16.398h1.339c0.352,1.934,0.903,2.467,1.536,2.467
						c0.891,0,1.703-0.733,2.242-1.135c1.703-1.272,4.164-1.99,7.27-1.99c8.712,0,13.916,6.07,13.916,16.24
						c0,8.291-4.077,13.844-12.194,17.572c-7.394,3.395-9.222,6.307-9.222,12.043c0,6.297,3.75,9.247,8.559,9.247
						c3.759,0,8.283-2.54,9.134-12.927h1.411v14.8h-1.339c-0.478-1.552-0.889-1.903-1.536-1.903c-0.203,0-0.712,0.272-1.172,0.588
						c-1.167,0.804-3.319,2.018-6.323,2.018C-24.651,358.718-30.279,352.377-30.279,344.153z"/>
				</g>
				<g id="g44" transform="translate(131.3887,412.1089)">
					<path id="path46" inkscape:connector-curvature="0" fill="#373535" d="M-30.279,344.153c0,1.993,1.442,2.634,4.106,2.634
						c4.366,0,6.287-5.245,6.701-10.155c0.671-7.968-1.892-13.945-8.822-13.945h-1.985V344.153z M-40.575,349.484v-1.517
						c3.413-0.255,4.193-0.994,4.193-3.026v-46.705c0-2.036-0.811-2.773-4.193-3.028v-1.517h14.489v1.517
						c-3.44,0.255-4.193,0.992-4.193,3.028v22.058h1.995c3.445-8.414,6.438-16.101,8.052-20.252l1.227-3.127
						c0.973-2.363,2.501-3.37,5.01-3.37c2.666,0,4.402,0.145,4.402,0.145v1.517c-1.836,0-2.28,0.623-2.947,2.043l-1.695,4.287
						c0,0-7.398,18.586-7.739,19.442c5.491,1.793,9.112,6.82,9.112,13.93c0,9.535-4.586,14.574-13.499,14.574H-40.575z"/>
				</g>
				<g id="g48" transform="translate(131.3887,412.1089)">
					<path id="path50" inkscape:connector-curvature="0" fill="none" stroke="#373535" stroke-width="0.5" d="M-30.279,344.153
						c0,1.993,1.442,2.634,4.106,2.634c4.366,0,6.287-5.245,6.701-10.155c0.671-7.968-1.892-13.945-8.822-13.945h-1.985V344.153z
						 M-40.575,349.484v-1.517c3.413-0.255,4.193-0.994,4.193-3.026v-46.705c0-2.036-0.811-2.773-4.193-3.028v-1.517h14.489v1.517
						c-3.44,0.255-4.193,0.992-4.193,3.028v22.058h1.995c3.445-8.414,6.438-16.101,8.052-20.252l1.227-3.127
						c0.973-2.363,2.501-3.37,5.01-3.37c2.666,0,4.402,0.145,4.402,0.145v1.517c-1.836,0-2.28,0.623-2.947,2.043l-1.695,4.287
						c0,0-7.398,18.586-7.739,19.442c5.491,1.793,9.112,6.82,9.112,13.93c0,9.535-4.586,14.574-13.499,14.574H-40.575z"/>
				</g>
				<g id="g52" transform="translate(93.8477,389.1621)">
					<path id="path54" inkscape:connector-curvature="0" fill="#373535" d="M-30.278,344.154
						c-1.222,23.108,4.719,26.58,8.748,26.706c6.045,0.189,10.16-5.886,10.82-25.806c0.741-22.405-3.492-26.82-8.753-26.862
						C-24.259,318.155-29.056,321.046-30.278,344.154 M-36.746,344.526c0-19.894,6.659-28.789,16.25-28.789
						c10.466,0,16.248,9.686,16.248,28.789c0,19.104-5.855,28.791-15.977,28.791C-30.41,373.317-36.746,363.63-36.746,344.526"/>
				</g>
				<g id="g56" transform="translate(93.8477,389.1621)">
					<path id="path58" inkscape:connector-curvature="0" fill="none" stroke="#373535" stroke-width="0.5" d="M-30.278,344.154
						c-1.222,23.108,4.719,26.58,8.748,26.706c6.045,0.189,10.16-5.886,10.82-25.806c0.741-22.405-3.492-26.82-8.753-26.862
						C-24.259,318.155-29.056,321.046-30.278,344.154z M-36.746,344.526c0-19.894,6.659-28.789,16.25-28.789
						c10.466,0,16.248,9.686,16.248,28.789c0,19.104-5.855,28.791-15.977,28.791C-30.41,373.317-36.746,363.63-36.746,344.526z"/>
				</g>
				<g id="g60" transform="translate(188.6709,389.1621)">
					<path id="path62" inkscape:connector-curvature="0" fill="#373535" d="M-30.279,344.154c-1.222,23.108,4.72,26.58,8.749,26.706
						c6.045,0.189,10.16-5.886,10.818-25.806c0.742-22.405-3.491-26.82-8.752-26.862C-24.259,318.155-29.056,321.046-30.279,344.154
						 M-36.745,344.526c0-19.894,6.658-28.789,16.249-28.789c10.466,0,16.248,9.686,16.248,28.789
						c0,19.104-5.856,28.791-15.976,28.791C-30.409,373.317-36.745,363.63-36.745,344.526"/>
				</g>
				<g id="g64" transform="translate(188.6709,389.1621)">
					<path id="path66" inkscape:connector-curvature="0" fill="none" stroke="#373535" stroke-width="0.5" d="M-30.279,344.154
						c-1.222,23.108,4.72,26.58,8.749,26.706c6.045,0.189,10.16-5.886,10.818-25.806c0.742-22.405-3.491-26.82-8.752-26.862
						C-24.259,318.155-29.056,321.046-30.279,344.154z M-36.745,344.526c0-19.894,6.658-28.789,16.249-28.789
						c10.466,0,16.248,9.686,16.248,28.789c0,19.104-5.856,28.791-15.976,28.791C-30.409,373.317-36.745,363.63-36.745,344.526z"/>
				</g>
				<g id="g68" transform="translate(386.5391,389.1621)">
					<path id="path70" inkscape:connector-curvature="0" fill="#373535" d="M-30.278,344.154
						c-1.223,23.108,4.719,26.58,8.748,26.706c6.044,0.189,10.159-5.886,10.817-25.806c0.742-22.405-3.492-26.82-8.752-26.862
						C-24.258,318.155-29.056,321.046-30.278,344.154 M-36.745,344.526c0-19.894,6.658-28.789,16.25-28.789
						c10.467,0,16.248,9.686,16.248,28.789c0,19.104-5.856,28.791-15.978,28.791C-30.409,373.317-36.745,363.63-36.745,344.526"/>
				</g>
				<g id="g72" transform="translate(386.5391,389.1621)">
					<path id="path74" inkscape:connector-curvature="0" fill="none" stroke="#373535" stroke-width="0.5" d="M-30.278,344.154
						c-1.223,23.108,4.719,26.58,8.748,26.706c6.044,0.189,10.159-5.886,10.817-25.806c0.742-22.405-3.492-26.82-8.752-26.862
						C-24.258,318.155-29.056,321.046-30.278,344.154z M-36.745,344.526c0-19.894,6.658-28.789,16.25-28.789
						c10.467,0,16.248,9.686,16.248,28.789c0,19.104-5.856,28.791-15.978,28.791C-30.409,373.317-36.745,363.63-36.745,344.526z"/>
				</g>
				<g id="g76" transform="translate(46.4473,395.9844)">
					<path id="path78" inkscape:connector-curvature="0" fill="#373535" d="M-30.279,344.153c0-23.383,6.96-35.238,20.556-35.238
						c11.106,0,16.137,9.216,16.681,23.527H2.528c-0.755-17.711-6.882-20.691-11.652-20.877
						c-5.064-0.201-12.684,3.234-13.818,32.125c-0.809,20.642,4.352,32.616,13.163,33.06c5.95,0,11.04-1.743,13.678-16.548h1.488
						v18.105H4.078c-0.919-1.116-1.632-1.357-2.598-1.357c-0.855,0-1.905,0.343-2.885,0.777c-1.592,0.7-3.772,1.664-7.643,1.664
						C-16.976,379.392-30.279,373.492-30.279,344.153"/>
				</g>
				<g id="g80" transform="translate(46.4473,395.9844)">
					<path id="path82" inkscape:connector-curvature="0" fill="none" stroke="#373535" stroke-width="0.5" d="M-30.279,344.153
						c0-23.383,6.96-35.238,20.556-35.238c11.106,0,16.137,9.216,16.681,23.527H2.528c-0.755-17.711-6.882-20.691-11.652-20.877
						c-5.064-0.201-12.684,3.234-13.818,32.125c-0.809,20.642,4.352,32.616,13.163,33.06c5.95,0,11.04-1.743,13.678-16.548h1.488
						v18.105H4.078c-0.919-1.116-1.632-1.357-2.598-1.357c-0.855,0-1.905,0.343-2.885,0.777c-1.592,0.7-3.772,1.664-7.643,1.664
						C-16.976,379.392-30.279,373.492-30.279,344.153z"/>
				</g>
				<g id="g84" transform="translate(340.4385,395.9844)">
					<path id="path86" inkscape:connector-curvature="0" fill="#373535" d="M-30.279,344.153c0-23.383,6.959-35.238,20.556-35.238
						c11.105,0,16.137,9.216,16.681,23.527H2.527c-0.755-17.711-6.881-20.691-11.653-20.877
						c-5.062-0.201-12.684,3.234-13.816,32.125c-0.809,20.642,4.35,32.616,13.161,33.06c5.952,0,11.039-1.743,13.678-16.548h1.486
						v18.105H4.077c-0.919-1.116-1.631-1.357-2.598-1.357c-0.856,0-1.903,0.343-2.884,0.777c-1.594,0.7-3.773,1.664-7.644,1.664
						C-16.977,379.392-30.279,373.492-30.279,344.153"/>
				</g>
				<g id="g88" transform="translate(340.4385,395.9844)">
					<path id="path90" inkscape:connector-curvature="0" fill="none" stroke="#373535" stroke-width="0.5" d="M-30.279,344.153
						c0-23.383,6.959-35.238,20.556-35.238c11.105,0,16.137,9.216,16.681,23.527H2.527c-0.755-17.711-6.881-20.691-11.653-20.877
						c-5.062-0.201-12.684,3.234-13.816,32.125c-0.809,20.642,4.35,32.616,13.161,33.06c5.952,0,11.039-1.743,13.678-16.548h1.486
						v18.105H4.077c-0.919-1.116-1.631-1.357-2.598-1.357c-0.856,0-1.903,0.343-2.884,0.777c-1.594,0.7-3.773,1.664-7.644,1.664
						C-16.977,379.392-30.279,373.492-30.279,344.153z"/>
				</g>
				<g id="g92" transform="translate(254.667,384.543)">
					<path id="path94" inkscape:connector-curvature="0" fill="#373535" d="M-30.279,344.153c1.371,5.76,2.824,11.962,3.967,17.107
						c0.193,0.918,0.33,1.782,0.406,2.63c0.075-0.819,0.18-1.741,0.404-2.576c1.173-4.668,2.716-11.061,4.171-17.161H-30.279z
						 M-57.059,350.253h-1.985v21.466c0,1.993,1.442,2.634,4.106,2.634c4.366,0,6.314-5.242,6.702-10.155
						C-47.466,354.442-51.345,350.253-57.059,350.253 M-6.32,322.774c-3.17,0.242-3.702,1.217-4.209,3.147l-3.928,14.964
						c-3.415,13.768-9.252,37.051-9.252,37.051h-1.513c0,0-12.612-50.216-13.058-52.035c-0.456-1.859-0.927-3.098-1.48-3.098
						c-0.554,0-1.03,0.829-1.429,1.719l-1.809,4.582c0,0-7.399,18.586-7.741,19.442c5.493,1.793,9.112,6.82,9.112,13.93
						c0,9.535-4.585,14.574-13.498,14.574h-14.214v-1.517c3.452-0.255,4.194-0.994,4.194-3.026v-46.706
						c0-2.034-0.82-2.77-4.194-3.027v-1.517h14.489v1.517c-3.404,0.256-4.193,0.992-4.193,3.027v22.059h1.995
						c3.445-8.414,6.437-16.102,8.052-20.252l1.226-3.127c0.973-2.363,2.678-3.224,5.188-3.224h11.181v1.517
						c-1.909,0.131-2.746,0.358-3.137,0.984c-0.279,0.448-0.34,1.217-0.139,2.055c0.2,0.837,2.882,11.986,3.756,15.645h10.235
						c0.875-3.68,3.352-14.157,3.629-15.291c0.199-0.817,0.272-1.735-0.113-2.213c-0.589-0.73-1.589-1.026-3.98-1.18v-1.517H-6.32
						V322.774z"/>
				</g>
				<g id="g96" transform="translate(254.667,384.543)">
					<path id="path98" inkscape:connector-curvature="0" fill="none" stroke="#373535" stroke-width="0.5" d="M-30.279,344.153
						c1.371,5.76,2.824,11.962,3.967,17.107c0.193,0.918,0.33,1.782,0.406,2.63c0.075-0.819,0.18-1.741,0.404-2.576
						c1.173-4.668,2.716-11.061,4.171-17.161H-30.279z M-57.059,350.253h-1.985v21.466c0,1.993,1.442,2.634,4.106,2.634
						c4.366,0,6.314-5.242,6.702-10.155C-47.466,354.442-51.345,350.253-57.059,350.253z M-6.32,322.774
						c-3.17,0.242-3.702,1.217-4.209,3.147l-3.928,14.964c-3.415,13.768-9.252,37.051-9.252,37.051h-1.513
						c0,0-12.612-50.216-13.058-52.035c-0.456-1.859-0.927-3.098-1.48-3.098c-0.554,0-1.03,0.829-1.429,1.719l-1.809,4.582
						c0,0-7.399,18.586-7.741,19.442c5.493,1.793,9.112,6.82,9.112,13.93c0,9.535-4.585,14.574-13.498,14.574h-14.214v-1.517
						c3.452-0.255,4.194-0.994,4.194-3.026v-46.706c0-2.034-0.82-2.77-4.194-3.027v-1.517h14.489v1.517
						c-3.404,0.256-4.193,0.992-4.193,3.027v22.059h1.995c3.445-8.414,6.437-16.102,8.052-20.252l1.226-3.127
						c0.973-2.363,2.678-3.224,5.188-3.224h11.181v1.517c-1.909,0.131-2.746,0.358-3.137,0.984c-0.279,0.448-0.34,1.217-0.139,2.055
						c0.2,0.837,2.882,11.986,3.756,15.645h10.235c0.875-3.68,3.352-14.157,3.629-15.291c0.199-0.817,0.272-1.735-0.113-2.213
						c-0.589-0.73-1.589-1.026-3.98-1.18v-1.517H-6.32V322.774z"/>
				</g>
				<g id="g100" transform="translate(328.375,373.9434)">
					<path id="path102" inkscape:connector-curvature="0" fill="#373535" d="M-30.278,344.153c-2.405-8.152-4.056-9.6-6.558-9.6
						h-7.241c-1.333,0-1.7,0.398-1.7,1.848v22.711h6.555c2.933,0,4.283-3.379,4.488-6.648h1.517v14.898h-1.517
						c-0.311-3.384-1.219-5.554-4.488-5.554h-6.555v22.471c0,0.625,0.261,0.673,0.661,0.673h6.795c2.505,0,4.211-1.645,6.559-9.598
						h1.584l-1.427,13.536l-0.131,0.051c0,0-0.633-1.291-2.542-1.291H-56.07v-1.517c3.464-0.253,4.192-0.994,4.192-3.027v-46.705
						c0-2.035-0.811-2.785-4.192-3.027v-1.518h23.275c1.911,0,2.542-1.291,2.542-1.291l0.134,0.022l1.422,13.566H-30.278z"/>
				</g>
				<g id="g104" transform="translate(328.375,373.9434)">
					<path id="path106" inkscape:connector-curvature="0" fill="none" stroke="#373535" stroke-width="0.5" d="M-30.278,344.153
						c-2.405-8.152-4.056-9.6-6.558-9.6h-7.241c-1.333,0-1.7,0.398-1.7,1.848v22.711h6.555c2.933,0,4.283-3.379,4.488-6.648h1.517
						v14.898h-1.517c-0.311-3.384-1.219-5.554-4.488-5.554h-6.555v22.471c0,0.625,0.261,0.673,0.661,0.673h6.795
						c2.505,0,4.211-1.645,6.559-9.598h1.584l-1.427,13.536l-0.131,0.051c0,0-0.633-1.291-2.542-1.291H-56.07v-1.517
						c3.464-0.253,4.192-0.994,4.192-3.027v-46.705c0-2.035-0.811-2.785-4.192-3.027v-1.518h23.275c1.911,0,2.542-1.291,2.542-1.291
						l0.134,0.022l1.422,13.566H-30.278z"/>
				</g>
				<g id="g108" transform="translate(537.2607,373.9434)">
					<path id="path110" inkscape:connector-curvature="0" fill="#373535" d="M-30.279,344.153c-2.405-8.152-4.055-9.6-6.558-9.6
						h-7.241c-1.333,0-1.698,0.398-1.698,1.848v22.711h6.553c2.933,0,4.284-3.379,4.489-6.648h1.517v14.898h-1.517
						c-0.312-3.384-1.22-5.554-4.489-5.554h-6.553v22.471c0,0.625,0.263,0.673,0.661,0.673h6.797c2.5,0,4.209-1.645,6.556-9.598
						h1.583l-1.423,13.536l-0.131,0.051c0,0-0.633-1.291-2.544-1.291h-21.794v-1.517c3.464-0.253,4.192-0.994,4.192-3.027v-46.705
						c0-2.035-0.809-2.785-4.192-3.027v-1.518h23.277c1.911,0,2.542-1.291,2.542-1.291l0.134,0.022l1.422,13.566H-30.279z"/>
				</g>
				<g id="g112" transform="translate(537.2607,373.9434)">
					<path id="path114" inkscape:connector-curvature="0" fill="none" stroke="#373535" stroke-width="0.5" d="M-30.279,344.153
						c-2.405-8.152-4.055-9.6-6.558-9.6h-7.241c-1.333,0-1.698,0.398-1.698,1.848v22.711h6.553c2.933,0,4.284-3.379,4.489-6.648
						h1.517v14.898h-1.517c-0.312-3.384-1.22-5.554-4.489-5.554h-6.553v22.471c0,0.625,0.263,0.673,0.661,0.673h6.797
						c2.5,0,4.209-1.645,6.556-9.598h1.583l-1.423,13.536l-0.131,0.051c0,0-0.633-1.291-2.544-1.291h-21.794v-1.517
						c3.464-0.253,4.192-0.994,4.192-3.027v-46.705c0-2.035-0.809-2.785-4.192-3.027v-1.518h23.277c1.911,0,2.542-1.291,2.542-1.291
						l0.134,0.022l1.422,13.566H-30.279z"/>
				</g>
				<g id="g116" transform="translate(482.0342,417.4399)">
					<path id="path118" inkscape:connector-curvature="0" fill="#373535" d="M-30.279,344.153H-41.27v-1.517
						c3.334-0.212,4.192-0.994,4.192-3.026v-29.641l0.112-3.531l-1.258,3.215l-15.184,34.5h-9.831v-1.517
						c3.423-0.287,4.192-0.994,4.192-3.026v-46.706c0-2.034-0.859-2.814-4.192-3.027v-1.517h11.464v1.517
						c-3.312,0.229-4.194,0.992-4.194,3.027v39.292c0,1.195-0.058,2.379-0.134,3.092c0.213-0.652,0.613-1.675,1.084-2.772
						c4.163-9.656,19.381-45.024,19.381-45.024h1.636v52.118c0,2.032,0.914,2.829,4.195,3.026v1.517H-30.279z"/>
				</g>
				<g id="g120" transform="translate(482.0342,417.4399)">
					<path id="path122" inkscape:connector-curvature="0" fill="none" stroke="#373535" stroke-width="0.5" d="M-30.279,344.153
						H-41.27v-1.517c3.334-0.212,4.192-0.994,4.192-3.026v-29.641l0.112-3.531l-1.258,3.215l-15.184,34.5h-9.831v-1.517
						c3.423-0.287,4.192-0.994,4.192-3.026v-46.706c0-2.034-0.859-2.814-4.192-3.027v-1.517h11.464v1.517
						c-3.312,0.229-4.194,0.992-4.194,3.027v39.292c0,1.195-0.058,2.379-0.134,3.092c0.213-0.652,0.613-1.675,1.084-2.772
						c4.163-9.656,19.381-45.024,19.381-45.024h1.636v52.118c0,2.032,0.914,2.829,4.195,3.026v1.517H-30.279z"/>
				</g>
				<g id="g124" transform="translate(300.5308,418.6958)">
					<path id="path126" inkscape:connector-curvature="0" fill="#373535" d="M-30.279,344.153l-0.122,0.015
						c0,0-0.602-1.271-2.511-1.271h-21.016c-1.911,0-2.512,1.271-2.512,1.271l-0.121-0.015l-1.465-13.552h1.583
						c2.367,8.142,4.054,9.598,6.557,9.598h3.417v-48.551c0-2.037-0.925-2.846-4.194-3.028v-1.517h14.484v1.517
						c-3.269,0.182-4.194,0.991-4.194,3.028V340.2h3.417c2.503,0,4.19-1.456,6.557-9.598h1.583L-30.279,344.153z"/>
				</g>
				<g id="g128" transform="translate(300.5308,418.6958)">
					<path id="path130" inkscape:connector-curvature="0" fill="none" stroke="#373535" stroke-width="0.5" d="M-30.279,344.153
						l-0.122,0.015c0,0-0.602-1.271-2.511-1.271h-21.016c-1.911,0-2.512,1.271-2.512,1.271l-0.121-0.015l-1.465-13.552h1.583
						c2.367,8.142,4.054,9.598,6.557,9.598h3.417v-48.551c0-2.037-0.925-2.846-4.194-3.028v-1.517h14.484v1.517
						c-3.269,0.182-4.194,0.991-4.194,3.028V340.2h3.417c2.503,0,4.19-1.456,6.557-9.598h1.583L-30.279,344.153z"/>
				</g>
				<g id="g132" transform="translate(565.5352,373.9434)">
					<path id="path134" inkscape:connector-curvature="0" fill="#373535" d="M-30.279,344.153c-2.405-8.152-4.056-9.6-6.556-9.6
						h-5.65c-1.336,0-1.702,0.398-1.702,1.848v47.006c0,1.682,0.898,2.529,5.369,2.698v1.545h-15.666v-1.517
						c3.392-0.257,4.194-0.994,4.194-3.027v-46.705c0-2.035-0.922-2.859-4.194-3.027v-1.518h21.689c1.911,0,2.542-1.291,2.542-1.291
						l0.134,0.022l1.422,13.566H-30.279z"/>
				</g>
				<g id="g136" transform="translate(565.5352,373.9434)">
					<path id="path138" inkscape:connector-curvature="0" fill="none" stroke="#373535" stroke-width="0.5" d="M-30.279,344.153
						c-2.405-8.152-4.056-9.6-6.556-9.6h-5.65c-1.336,0-1.702,0.398-1.702,1.848v47.006c0,1.682,0.898,2.529,5.369,2.698v1.545
						h-15.666v-1.517c3.392-0.257,4.194-0.994,4.194-3.027v-46.705c0-2.035-0.922-2.859-4.194-3.027v-1.518h21.689
						c1.911,0,2.542-1.291,2.542-1.291l0.134,0.022l1.422,13.566H-30.279z"/>
				</g>
			</g>
		</g>
	</g>
	<g id="g144">
		<g>
			<defs>
				<rect id="SVGID_3_" x="-106.778" y="245.153" width="765" height="990"/>
			</defs>
			<clipPath id="SVGID_4_">
				<use xlink:href="#SVGID_3_"  overflow="visible"/>
			</clipPath>
			<g id="g146" clip-path="url(#SVGID_4_)">
				<g id="g152" transform="translate(163.5767,412.1089)">
					<path id="path154" inkscape:connector-curvature="0" fill="#AED3DC" d="M-30.278,344.153c0,1.993,0.854,2.634,3.518,2.634
						c4.999,0,6.436-6.259,6.855-11.168c0.885-10.393-3.202-14.489-8.388-14.489h-1.985V344.153z M-40.575,349.484v-1.517
						c3.39-0.255,4.193-0.994,4.193-3.026v-46.705c0-2.036-0.772-2.773-4.193-3.028v-1.517h14.489v1.517
						c-3.402,0.255-4.193,0.992-4.193,3.028v20.197h4.147c6.169,0,12.808,4.9,12.808,15.514c0,10.623-4.713,15.537-13.625,15.537
						H-40.575z"/>
				</g>
				<g id="g156" transform="translate(163.5767,412.1089)">
					<path id="path158" inkscape:connector-curvature="0" fill="none" stroke="#AED3DC" stroke-width="0.5" d="M-30.278,344.153
						c0,1.993,0.854,2.634,3.518,2.634c4.999,0,6.436-6.259,6.855-11.168c0.885-10.393-3.202-14.489-8.388-14.489h-1.985V344.153z
						 M-40.575,349.484v-1.517c3.39-0.255,4.193-0.994,4.193-3.026v-46.705c0-2.036-0.772-2.773-4.193-3.028v-1.517h14.489v1.517
						c-3.402,0.255-4.193,0.992-4.193,3.028v20.197h4.147c6.169,0,12.808,4.9,12.808,15.514c0,10.623-4.713,15.537-13.625,15.537
						H-40.575z"/>
				</g>
				<g id="g160" transform="translate(437.5986,417.4399)">
					<path id="path162" inkscape:connector-curvature="0" fill="#AED3DC" d="M-30.278,344.153v-1.517
						c3.358-0.197,4.194-0.994,4.194-3.026v-37.258c0-10.19-5.583-11.711-8.908-11.711c-5.711,0-8.369,3.572-8.369,11.237v37.731
						c0,2.032,0.805,2.753,4.191,3.026v1.517h-14.487v-1.517c3.373-0.227,4.192-0.994,4.192-3.026v-37.731
						c0-9.646,4.581-14.337,14.003-14.337c5.683,0,12.455,2.686,12.455,15.483v36.586c0,2.032,0.845,2.784,4.195,3.026v1.517
						H-30.278z"/>
				</g>
				<g id="g164" transform="translate(437.5986,417.4399)">
					<path id="path166" inkscape:connector-curvature="0" fill="none" stroke="#AED3DC" stroke-width="0.5" d="M-30.278,344.153
						v-1.517c3.358-0.197,4.194-0.994,4.194-3.026v-37.258c0-10.19-5.583-11.711-8.908-11.711c-5.711,0-8.369,3.572-8.369,11.237
						v37.731c0,2.032,0.805,2.753,4.191,3.026v1.517h-14.487v-1.517c3.373-0.227,4.192-0.994,4.192-3.026v-37.731
						c0-9.646,4.581-14.337,14.003-14.337c5.683,0,12.455,2.686,12.455,15.483v36.586c0,2.032,0.845,2.784,4.195,3.026v1.517
						H-30.278z"/>
				</g>
				<g id="g168" transform="translate(484.8857,403.8926)">
					<path id="path170" inkscape:connector-curvature="0" fill="#AED3DC" d="M-30.279,344.153c0-9.78,4.762-12.91,11.967-16.348
						c6.769-3.228,9.658-7.369,9.658-13.849c0-4.84-2.469-10.491-9.423-10.491c-5.792,0-9.445,4.641-11.036,14.631h-1.405v-16.398
						h1.339c0.352,1.934,0.903,2.467,1.536,2.467c0.891,0,1.703-0.733,2.242-1.135c1.703-1.272,4.164-1.99,7.27-1.99
						c8.712,0,13.916,6.07,13.916,16.24c0,8.291-4.077,13.844-12.194,17.572c-7.394,3.395-9.222,6.307-9.222,12.043
						c0,6.297,3.75,9.247,8.559,9.247c3.759,0,8.283-2.54,9.134-12.927h1.411v14.8h-1.339c-0.478-1.552-0.889-1.903-1.536-1.903
						c-0.203,0-0.712,0.272-1.172,0.588c-1.167,0.804-3.319,2.018-6.323,2.018C-24.651,358.718-30.279,352.377-30.279,344.153"/>
				</g>
				<g id="g172" transform="translate(484.8857,403.8926)">
					<path id="path174" inkscape:connector-curvature="0" fill="none" stroke="#AED3DC" stroke-width="0.5" d="M-30.279,344.153
						c0-9.78,4.762-12.91,11.967-16.348c6.769-3.228,9.658-7.369,9.658-13.849c0-4.84-2.469-10.491-9.423-10.491
						c-5.792,0-9.445,4.641-11.036,14.631h-1.405v-16.398h1.339c0.352,1.934,0.903,2.467,1.536,2.467
						c0.891,0,1.703-0.733,2.242-1.135c1.703-1.272,4.164-1.99,7.27-1.99c8.712,0,13.916,6.07,13.916,16.24
						c0,8.291-4.077,13.844-12.194,17.572c-7.394,3.395-9.222,6.307-9.222,12.043c0,6.297,3.75,9.247,8.559,9.247
						c3.759,0,8.283-2.54,9.134-12.927h1.411v14.8h-1.339c-0.478-1.552-0.889-1.903-1.536-1.903c-0.203,0-0.712,0.272-1.172,0.588
						c-1.167,0.804-3.319,2.018-6.323,2.018C-24.651,358.718-30.279,352.377-30.279,344.153z"/>
				</g>
				<g id="g176" transform="translate(132.3887,412.1089)">
					<path id="path178" inkscape:connector-curvature="0" fill="#AED3DC" d="M-30.279,344.153c0,1.993,1.442,2.634,4.106,2.634
						c4.366,0,6.287-5.245,6.701-10.155c0.671-7.968-1.892-13.945-8.822-13.945h-1.985V344.153z M-40.575,349.484v-1.517
						c3.413-0.255,4.193-0.994,4.193-3.026v-46.705c0-2.036-0.811-2.773-4.193-3.028v-1.517h14.489v1.517
						c-3.44,0.255-4.193,0.992-4.193,3.028v22.058h1.995c3.445-8.414,6.438-16.101,8.052-20.252l1.227-3.127
						c0.973-2.363,2.501-3.37,5.01-3.37c2.666,0,4.402,0.145,4.402,0.145v1.517c-1.836,0-2.28,0.623-2.947,2.043l-1.695,4.287
						c0,0-7.398,18.586-7.739,19.442c5.491,1.793,9.112,6.82,9.112,13.93c0,9.535-4.586,14.574-13.499,14.574H-40.575z"/>
				</g>
				<g id="g180" transform="translate(132.3887,412.1089)">
					<path id="path182" inkscape:connector-curvature="0" fill="none" stroke="#AED3DC" stroke-width="0.5" d="M-30.279,344.153
						c0,1.993,1.442,2.634,4.106,2.634c4.366,0,6.287-5.245,6.701-10.155c0.671-7.968-1.892-13.945-8.822-13.945h-1.985V344.153z
						 M-40.575,349.484v-1.517c3.413-0.255,4.193-0.994,4.193-3.026v-46.705c0-2.036-0.811-2.773-4.193-3.028v-1.517h14.489v1.517
						c-3.44,0.255-4.193,0.992-4.193,3.028v22.058h1.995c3.445-8.414,6.438-16.101,8.052-20.252l1.227-3.127
						c0.973-2.363,2.501-3.37,5.01-3.37c2.666,0,4.402,0.145,4.402,0.145v1.517c-1.836,0-2.28,0.623-2.947,2.043l-1.695,4.287
						c0,0-7.398,18.586-7.739,19.442c5.491,1.793,9.112,6.82,9.112,13.93c0,9.535-4.586,14.574-13.499,14.574H-40.575z"/>
				</g>
				<g id="g184" transform="translate(94.8477,389.1621)">
					<path id="path186" inkscape:connector-curvature="0" fill="#AED3DC" d="M-30.278,344.154
						c-1.222,23.108,4.719,26.58,8.748,26.706c6.045,0.189,10.16-5.886,10.82-25.806c0.741-22.405-3.492-26.82-8.753-26.862
						C-24.259,318.155-29.056,321.046-30.278,344.154 M-36.746,344.526c0-19.894,6.659-28.789,16.25-28.789
						c10.466,0,16.248,9.686,16.248,28.789c0,19.104-5.855,28.791-15.977,28.791C-30.41,373.317-36.746,363.63-36.746,344.526"/>
				</g>
				<g id="g188" transform="translate(94.8477,389.1621)">
					<path id="path190" inkscape:connector-curvature="0" fill="none" stroke="#AED3DC" stroke-width="0.5" d="M-30.278,344.154
						c-1.222,23.108,4.719,26.58,8.748,26.706c6.045,0.189,10.16-5.886,10.82-25.806c0.741-22.405-3.492-26.82-8.753-26.862
						C-24.259,318.155-29.056,321.046-30.278,344.154z M-36.746,344.526c0-19.894,6.659-28.789,16.25-28.789
						c10.466,0,16.248,9.686,16.248,28.789c0,19.104-5.855,28.791-15.977,28.791C-30.41,373.317-36.746,363.63-36.746,344.526z"/>
				</g>
				<g id="g192" transform="translate(189.6709,389.1621)">
					<path id="path194" inkscape:connector-curvature="0" fill="#AED3DC" d="M-30.279,344.154
						c-1.222,23.108,4.72,26.58,8.749,26.706c6.045,0.189,10.16-5.886,10.818-25.806c0.742-22.405-3.491-26.82-8.752-26.862
						C-24.259,318.155-29.056,321.046-30.279,344.154 M-36.745,344.526c0-19.894,6.658-28.789,16.249-28.789
						c10.466,0,16.248,9.686,16.248,28.789c0,19.104-5.856,28.791-15.976,28.791C-30.409,373.317-36.745,363.63-36.745,344.526"/>
				</g>
				<g id="g196" transform="translate(189.6709,389.1621)">
					<path id="path198" inkscape:connector-curvature="0" fill="none" stroke="#AED3DC" stroke-width="0.5" d="M-30.279,344.154
						c-1.222,23.108,4.72,26.58,8.749,26.706c6.045,0.189,10.16-5.886,10.818-25.806c0.742-22.405-3.491-26.82-8.752-26.862
						C-24.259,318.155-29.056,321.046-30.279,344.154z M-36.745,344.526c0-19.894,6.658-28.789,16.249-28.789
						c10.466,0,16.248,9.686,16.248,28.789c0,19.104-5.856,28.791-15.976,28.791C-30.409,373.317-36.745,363.63-36.745,344.526z"/>
				</g>
				<g id="g200" transform="translate(387.5391,389.1621)">
					<path id="path202" inkscape:connector-curvature="0" fill="#AED3DC" d="M-30.278,344.154
						c-1.223,23.108,4.719,26.58,8.748,26.706c6.044,0.189,10.159-5.886,10.817-25.806c0.742-22.405-3.492-26.82-8.752-26.862
						C-24.258,318.155-29.056,321.046-30.278,344.154 M-36.745,344.526c0-19.894,6.658-28.789,16.25-28.789
						c10.467,0,16.248,9.686,16.248,28.789c0,19.104-5.856,28.791-15.978,28.791C-30.409,373.317-36.745,363.63-36.745,344.526"/>
				</g>
				<g id="g204" transform="translate(387.5391,389.1621)">
					<path id="path206" inkscape:connector-curvature="0" fill="none" stroke="#AED3DC" stroke-width="0.5" d="M-30.278,344.154
						c-1.223,23.108,4.719,26.58,8.748,26.706c6.044,0.189,10.159-5.886,10.817-25.806c0.742-22.405-3.492-26.82-8.752-26.862
						C-24.258,318.155-29.056,321.046-30.278,344.154z M-36.745,344.526c0-19.894,6.658-28.789,16.25-28.789
						c10.467,0,16.248,9.686,16.248,28.789c0,19.104-5.856,28.791-15.978,28.791C-30.409,373.317-36.745,363.63-36.745,344.526z"/>
				</g>
				<g id="g208" transform="translate(47.4473,395.9844)">
					<path id="path210" inkscape:connector-curvature="0" fill="#AED3DC" d="M-30.279,344.153c0-23.383,6.96-35.238,20.556-35.238
						c11.106,0,16.137,9.216,16.681,23.527H2.528c-0.755-17.711-6.882-20.691-11.652-20.877
						c-5.064-0.201-12.684,3.234-13.818,32.125c-0.809,20.642,4.352,32.616,13.163,33.06c5.95,0,11.04-1.743,13.678-16.548h1.488
						v18.105H4.078c-0.919-1.116-1.632-1.357-2.598-1.357c-0.855,0-1.905,0.343-2.885,0.777c-1.592,0.7-3.772,1.664-7.643,1.664
						C-16.976,379.392-30.279,373.492-30.279,344.153"/>
				</g>
				<g id="g212" transform="translate(47.4473,395.9844)">
					<path id="path214" inkscape:connector-curvature="0" fill="none" stroke="#AED3DC" stroke-width="0.5" d="M-30.279,344.153
						c0-23.383,6.96-35.238,20.556-35.238c11.106,0,16.137,9.216,16.681,23.527H2.528c-0.755-17.711-6.882-20.691-11.652-20.877
						c-5.064-0.201-12.684,3.234-13.818,32.125c-0.809,20.642,4.352,32.616,13.163,33.06c5.95,0,11.04-1.743,13.678-16.548h1.488
						v18.105H4.078c-0.919-1.116-1.632-1.357-2.598-1.357c-0.855,0-1.905,0.343-2.885,0.777c-1.592,0.7-3.772,1.664-7.643,1.664
						C-16.976,379.392-30.279,373.492-30.279,344.153z"/>
				</g>
				<g id="g216" transform="translate(341.4385,395.9844)">
					<path id="path218" inkscape:connector-curvature="0" fill="#AED3DC" d="M-30.279,344.153c0-23.383,6.959-35.238,20.556-35.238
						c11.105,0,16.137,9.216,16.681,23.527H2.527c-0.755-17.711-6.881-20.691-11.653-20.877
						c-5.062-0.201-12.684,3.234-13.816,32.125c-0.809,20.642,4.35,32.616,13.161,33.06c5.952,0,11.039-1.743,13.678-16.548h1.486
						v18.105H4.077c-0.919-1.116-1.631-1.357-2.598-1.357c-0.856,0-1.903,0.343-2.884,0.777c-1.594,0.7-3.773,1.664-7.644,1.664
						C-16.977,379.392-30.279,373.492-30.279,344.153"/>
				</g>
				<g id="g220" transform="translate(341.4385,395.9844)">
					<path id="path222" inkscape:connector-curvature="0" fill="none" stroke="#AED3DC" stroke-width="0.5" d="M-30.279,344.153
						c0-23.383,6.959-35.238,20.556-35.238c11.105,0,16.137,9.216,16.681,23.527H2.527c-0.755-17.711-6.881-20.691-11.653-20.877
						c-5.062-0.201-12.684,3.234-13.816,32.125c-0.809,20.642,4.35,32.616,13.161,33.06c5.952,0,11.039-1.743,13.678-16.548h1.486
						v18.105H4.077c-0.919-1.116-1.631-1.357-2.598-1.357c-0.856,0-1.903,0.343-2.884,0.777c-1.594,0.7-3.773,1.664-7.644,1.664
						C-16.977,379.392-30.279,373.492-30.279,344.153z"/>
				</g>
				<g id="g224" transform="translate(255.667,384.543)">
					<path id="path226" inkscape:connector-curvature="0" fill="#AED3DC" d="M-30.279,344.153c1.371,5.76,2.824,11.962,3.967,17.107
						c0.193,0.918,0.33,1.782,0.406,2.63c0.075-0.819,0.18-1.741,0.404-2.576c1.173-4.668,2.716-11.061,4.171-17.161H-30.279z
						 M-57.059,350.253h-1.985v21.466c0,1.993,1.442,2.634,4.106,2.634c4.366,0,6.314-5.242,6.702-10.155
						C-47.466,354.442-51.345,350.253-57.059,350.253 M-6.32,322.774c-3.17,0.242-3.702,1.217-4.209,3.147l-3.928,14.964
						c-3.415,13.768-9.252,37.051-9.252,37.051h-1.513c0,0-12.612-50.216-13.058-52.035c-0.456-1.859-0.927-3.098-1.48-3.098
						c-0.554,0-1.03,0.829-1.429,1.719l-1.809,4.582c0,0-7.399,18.586-7.741,19.442c5.493,1.793,9.112,6.82,9.112,13.93
						c0,9.535-4.585,14.574-13.498,14.574h-14.214v-1.517c3.452-0.255,4.194-0.994,4.194-3.026v-46.706
						c0-2.034-0.82-2.77-4.194-3.027v-1.517h14.489v1.517c-3.404,0.256-4.193,0.992-4.193,3.027v22.059h1.995
						c3.445-8.414,6.437-16.102,8.052-20.252l1.226-3.127c0.973-2.363,2.678-3.224,5.188-3.224h11.181v1.517
						c-1.909,0.131-2.746,0.358-3.137,0.984c-0.279,0.448-0.34,1.217-0.139,2.055c0.2,0.837,2.882,11.986,3.756,15.645h10.235
						c0.875-3.68,3.352-14.157,3.629-15.291c0.199-0.817,0.272-1.735-0.113-2.213c-0.589-0.73-1.589-1.026-3.98-1.18v-1.517H-6.32
						V322.774z"/>
				</g>
				<g id="g228" transform="translate(255.667,384.543)">
					<path id="path230" inkscape:connector-curvature="0" fill="none" stroke="#AED3DC" stroke-width="0.5" d="M-30.279,344.153
						c1.371,5.76,2.824,11.962,3.967,17.107c0.193,0.918,0.33,1.782,0.406,2.63c0.075-0.819,0.18-1.741,0.404-2.576
						c1.173-4.668,2.716-11.061,4.171-17.161H-30.279z M-57.059,350.253h-1.985v21.466c0,1.993,1.442,2.634,4.106,2.634
						c4.366,0,6.314-5.242,6.702-10.155C-47.466,354.442-51.345,350.253-57.059,350.253z M-6.32,322.774
						c-3.17,0.242-3.702,1.217-4.209,3.147l-3.928,14.964c-3.415,13.768-9.252,37.051-9.252,37.051h-1.513
						c0,0-12.612-50.216-13.058-52.035c-0.456-1.859-0.927-3.098-1.48-3.098c-0.554,0-1.03,0.829-1.429,1.719l-1.809,4.582
						c0,0-7.399,18.586-7.741,19.442c5.493,1.793,9.112,6.82,9.112,13.93c0,9.535-4.585,14.574-13.498,14.574h-14.214v-1.517
						c3.452-0.255,4.194-0.994,4.194-3.026v-46.706c0-2.034-0.82-2.77-4.194-3.027v-1.517h14.489v1.517
						c-3.404,0.256-4.193,0.992-4.193,3.027v22.059h1.995c3.445-8.414,6.437-16.102,8.052-20.252l1.226-3.127
						c0.973-2.363,2.678-3.224,5.188-3.224h11.181v1.517c-1.909,0.131-2.746,0.358-3.137,0.984c-0.279,0.448-0.34,1.217-0.139,2.055
						c0.2,0.837,2.882,11.986,3.756,15.645h10.235c0.875-3.68,3.352-14.157,3.629-15.291c0.199-0.817,0.272-1.735-0.113-2.213
						c-0.589-0.73-1.589-1.026-3.98-1.18v-1.517H-6.32V322.774z"/>
				</g>
				<g id="g232" transform="translate(329.375,373.9434)">
					<path id="path234" inkscape:connector-curvature="0" fill="#AED3DC" d="M-30.278,344.153c-2.405-8.152-4.056-9.6-6.558-9.6
						h-7.241c-1.333,0-1.7,0.398-1.7,1.848v22.711h6.555c2.933,0,4.283-3.379,4.488-6.648h1.517v14.898h-1.517
						c-0.311-3.384-1.219-5.554-4.488-5.554h-6.555v22.471c0,0.625,0.261,0.673,0.661,0.673h6.795c2.505,0,4.211-1.645,6.559-9.598
						h1.584l-1.427,13.536l-0.131,0.051c0,0-0.633-1.291-2.542-1.291H-56.07v-1.517c3.464-0.253,4.192-0.994,4.192-3.027v-46.705
						c0-2.035-0.811-2.785-4.192-3.027v-1.518h23.275c1.911,0,2.542-1.291,2.542-1.291l0.134,0.022l1.422,13.566H-30.278z"/>
				</g>
				<g id="g236" transform="translate(329.375,373.9434)">
					<path id="path238" inkscape:connector-curvature="0" fill="none" stroke="#AED3DC" stroke-width="0.5" d="M-30.278,344.153
						c-2.405-8.152-4.056-9.6-6.558-9.6h-7.241c-1.333,0-1.7,0.398-1.7,1.848v22.711h6.555c2.933,0,4.283-3.379,4.488-6.648h1.517
						v14.898h-1.517c-0.311-3.384-1.219-5.554-4.488-5.554h-6.555v22.471c0,0.625,0.261,0.673,0.661,0.673h6.795
						c2.505,0,4.211-1.645,6.559-9.598h1.584l-1.427,13.536l-0.131,0.051c0,0-0.633-1.291-2.542-1.291H-56.07v-1.517
						c3.464-0.253,4.192-0.994,4.192-3.027v-46.705c0-2.035-0.811-2.785-4.192-3.027v-1.518h23.275c1.911,0,2.542-1.291,2.542-1.291
						l0.134,0.022l1.422,13.566H-30.278z"/>
				</g>
				<g id="g240" transform="translate(538.2607,373.9434)">
					<path id="path242" inkscape:connector-curvature="0" fill="#AED3DC" d="M-30.279,344.153c-2.405-8.152-4.055-9.6-6.558-9.6
						h-7.241c-1.333,0-1.698,0.398-1.698,1.848v22.711h6.553c2.933,0,4.284-3.379,4.489-6.648h1.517v14.898h-1.517
						c-0.312-3.384-1.22-5.554-4.489-5.554h-6.553v22.471c0,0.625,0.263,0.673,0.661,0.673h6.797c2.5,0,4.209-1.645,6.556-9.598
						h1.583l-1.423,13.536l-0.131,0.051c0,0-0.633-1.291-2.544-1.291h-21.794v-1.517c3.464-0.253,4.192-0.994,4.192-3.027v-46.705
						c0-2.035-0.809-2.785-4.192-3.027v-1.518h23.277c1.911,0,2.542-1.291,2.542-1.291l0.134,0.022l1.422,13.566H-30.279z"/>
				</g>
				<g id="g244" transform="translate(538.2607,373.9434)">
					<path id="path246" inkscape:connector-curvature="0" fill="none" stroke="#AED3DC" stroke-width="0.5" d="M-30.279,344.153
						c-2.405-8.152-4.055-9.6-6.558-9.6h-7.241c-1.333,0-1.698,0.398-1.698,1.848v22.711h6.553c2.933,0,4.284-3.379,4.489-6.648
						h1.517v14.898h-1.517c-0.312-3.384-1.22-5.554-4.489-5.554h-6.553v22.471c0,0.625,0.263,0.673,0.661,0.673h6.797
						c2.5,0,4.209-1.645,6.556-9.598h1.583l-1.423,13.536l-0.131,0.051c0,0-0.633-1.291-2.544-1.291h-21.794v-1.517
						c3.464-0.253,4.192-0.994,4.192-3.027v-46.705c0-2.035-0.809-2.785-4.192-3.027v-1.518h23.277c1.911,0,2.542-1.291,2.542-1.291
						l0.134,0.022l1.422,13.566H-30.279z"/>
				</g>
				<g id="g248" transform="translate(483.0342,417.4399)">
					<path id="path250" inkscape:connector-curvature="0" fill="#AED3DC" d="M-30.279,344.153H-41.27v-1.517
						c3.334-0.212,4.192-0.994,4.192-3.026v-29.641l0.112-3.531l-1.258,3.215l-15.184,34.5h-9.831v-1.517
						c3.423-0.287,4.192-0.994,4.192-3.026v-46.706c0-2.034-0.859-2.814-4.192-3.027v-1.517h11.464v1.517
						c-3.312,0.229-4.194,0.992-4.194,3.027v39.292c0,1.195-0.058,2.379-0.134,3.092c0.213-0.652,0.613-1.675,1.084-2.772
						c4.163-9.656,19.381-45.024,19.381-45.024h1.636v52.118c0,2.032,0.914,2.829,4.195,3.026v1.517H-30.279z"/>
				</g>
				<g id="g252" transform="translate(483.0342,417.4399)">
					<path id="path254" inkscape:connector-curvature="0" fill="none" stroke="#AED3DC" stroke-width="0.5" d="M-30.279,344.153
						H-41.27v-1.517c3.334-0.212,4.192-0.994,4.192-3.026v-29.641l0.112-3.531l-1.258,3.215l-15.184,34.5h-9.831v-1.517
						c3.423-0.287,4.192-0.994,4.192-3.026v-46.706c0-2.034-0.859-2.814-4.192-3.027v-1.517h11.464v1.517
						c-3.312,0.229-4.194,0.992-4.194,3.027v39.292c0,1.195-0.058,2.379-0.134,3.092c0.213-0.652,0.613-1.675,1.084-2.772
						c4.163-9.656,19.381-45.024,19.381-45.024h1.636v52.118c0,2.032,0.914,2.829,4.195,3.026v1.517H-30.279z"/>
				</g>
				<g id="g256" transform="translate(301.5308,418.6958)">
					<path id="path258" inkscape:connector-curvature="0" fill="#AED3DC" d="M-30.279,344.153l-0.122,0.015
						c0,0-0.602-1.271-2.511-1.271h-21.016c-1.911,0-2.512,1.271-2.512,1.271l-0.121-0.015l-1.465-13.552h1.583
						c2.367,8.142,4.054,9.598,6.557,9.598h3.417v-48.551c0-2.037-0.925-2.846-4.194-3.028v-1.517h14.484v1.517
						c-3.269,0.182-4.194,0.991-4.194,3.028V340.2h3.417c2.503,0,4.19-1.456,6.557-9.598h1.583L-30.279,344.153z"/>
				</g>
				<g id="g260" transform="translate(301.5308,418.6958)">
					<path id="path262" inkscape:connector-curvature="0" fill="none" stroke="#AED3DC" stroke-width="0.5" d="M-30.279,344.153
						l-0.122,0.015c0,0-0.602-1.271-2.511-1.271h-21.016c-1.911,0-2.512,1.271-2.512,1.271l-0.121-0.015l-1.465-13.552h1.583
						c2.367,8.142,4.054,9.598,6.557,9.598h3.417v-48.551c0-2.037-0.925-2.846-4.194-3.028v-1.517h14.484v1.517
						c-3.269,0.182-4.194,0.991-4.194,3.028V340.2h3.417c2.503,0,4.19-1.456,6.557-9.598h1.583L-30.279,344.153z"/>
				</g>
				<g id="g264" transform="translate(566.5352,373.9434)">
					<path id="path266" inkscape:connector-curvature="0" fill="#AED3DC" d="M-30.279,344.153c-2.405-8.152-4.056-9.6-6.556-9.6
						h-5.65c-1.336,0-1.702,0.398-1.702,1.848v47.006c0,1.682,0.898,2.529,5.369,2.698v1.545h-15.666v-1.517
						c3.392-0.257,4.194-0.994,4.194-3.027v-46.705c0-2.035-0.922-2.859-4.194-3.027v-1.518h21.689c1.911,0,2.542-1.291,2.542-1.291
						l0.134,0.022l1.422,13.566H-30.279z"/>
				</g>
				<g id="g268" transform="translate(566.5352,373.9434)">
					<path id="path270" inkscape:connector-curvature="0" fill="none" stroke="#AED3DC" stroke-width="0.5" d="M-30.279,344.153
						c-2.405-8.152-4.056-9.6-6.556-9.6h-5.65c-1.336,0-1.702,0.398-1.702,1.848v47.006c0,1.682,0.898,2.529,5.369,2.698v1.545
						h-15.666v-1.517c3.392-0.257,4.194-0.994,4.194-3.027v-46.705c0-2.035-0.922-2.859-4.194-3.027v-1.518h21.689
						c1.911,0,2.542-1.291,2.542-1.291l0.134,0.022l1.422,13.566H-30.279z"/>
				</g>
			</g>
		</g>
	</g>
</g>
</svg>
