<?xml version="1.0" encoding="utf-8"?>
<!-- Generator: Adobe Illustrator 16.0.0, SVG Export Plug-In . SVG Version: 6.00 Build 0)  -->
<!DOCTYPE svg PUBLIC "-//W3C//DTD SVG 1.1//EN" "http://www.w3.org/Graphics/SVG/1.1/DTD/svg11.dtd">
<svg version="1.1"
	 id="svg2" xmlns:dc="http://purl.org/dc/elements/1.1/" xmlns:cc="http://creativecommons.org/ns#" xmlns:rdf="http://www.w3.org/1999/02/22-rdf-syntax-ns#" xmlns:svg="http://www.w3.org/2000/svg" xmlns:inkscape="http://www.inkscape.org/namespaces/inkscape"
	 xmlns="http://www.w3.org/2000/svg" xmlns:xlink="http://www.w3.org/1999/xlink" x="0px" y="0px" width="765px" height="990px"
	 viewBox="0 0 765 990" enable-background="new 0 0 765 990" xml:space="preserve">
<g id="g10" transform="matrix(1.25,0,0,-1.25,0,990)">
	<g id="g12">
		<g>
			<defs>
				<rect id="SVGID_1_" x="-48.142" y="517.923" width="382.5" height="495.25"/>
			</defs>
			<clipPath id="SVGID_2_">
				<use xlink:href="#SVGID_1_"  overflow="visible"/>
			</clipPath>
			<g id="g14" clip-path="url(#SVGID_2_)">
				<g id="g20" transform="translate(162.5767,412.1089)">
					<path id="path22" inkscape:connector-curvature="0" fill="#373535" d="M-91.18,361.497c0,0.997,0.427,1.318,1.759,1.318
						c2.499,0,3.218-3.131,3.427-5.587c0.442-5.199-1.602-7.248-4.194-7.248h-0.993V361.497z M-96.328,364.164v-0.759
						c1.695-0.128,2.096-0.498,2.096-1.514v-23.364c0-1.018-0.386-1.387-2.096-1.515v-0.759h7.245v0.759
						c-1.702,0.128-2.097,0.496-2.097,1.515v10.104h2.073c3.084,0,6.404,2.451,6.404,7.761c0,5.314-2.356,7.772-6.812,7.772H-96.328
						z"/>
				</g>
				<g id="g24" transform="translate(162.5767,412.1089)">
					<path id="path26" inkscape:connector-curvature="0" fill="none" stroke="#373535" stroke-width="0.5" d="M-91.18,361.497
						c0,0.997,0.427,1.318,1.759,1.318c2.499,0,3.218-3.131,3.427-5.587c0.442-5.199-1.602-7.248-4.194-7.248h-0.993V361.497z
						 M-96.328,364.164v-0.759c1.695-0.128,2.096-0.498,2.096-1.514v-23.364c0-1.018-0.386-1.387-2.096-1.515v-0.759h7.245v0.759
						c-1.702,0.128-2.097,0.496-2.097,1.515v10.104h2.073c3.084,0,6.404,2.451,6.404,7.761c0,5.314-2.356,7.772-6.812,7.772H-96.328
						z"/>
				</g>
				<g id="g28" transform="translate(436.5986,417.4399)">
					<path id="path30" inkscape:connector-curvature="0" fill="#373535" d="M-228.191,358.833v-0.759
						c1.679-0.099,2.097-0.498,2.097-1.514v-18.638c0-5.098-2.791-5.859-4.453-5.859c-2.855,0-4.184,1.787-4.184,5.622v18.875
						c0,1.016,0.402,1.377,2.095,1.514v0.759h-7.243v-0.759c1.687-0.114,2.095-0.498,2.095-1.514v-18.875
						c0-4.826,2.291-7.173,7.002-7.173c2.841,0,6.227,1.344,6.227,7.745v18.302c0,1.016,0.423,1.393,2.097,1.514v0.759H-228.191z"/>
				</g>
				<g id="g32" transform="translate(436.5986,417.4399)">
					<path id="path34" inkscape:connector-curvature="0" fill="none" stroke="#373535" stroke-width="0.5" d="M-228.191,358.833
						v-0.759c1.679-0.099,2.097-0.498,2.097-1.514v-18.638c0-5.098-2.791-5.859-4.453-5.859c-2.855,0-4.184,1.787-4.184,5.622
						v18.875c0,1.016,0.402,1.377,2.095,1.514v0.759h-7.243v-0.759c1.687-0.114,2.095-0.498,2.095-1.514v-18.875
						c0-4.826,2.291-7.173,7.002-7.173c2.841,0,6.227,1.344,6.227,7.745v18.302c0,1.016,0.423,1.393,2.097,1.514v0.759H-228.191z"/>
				</g>
				<g id="g36" transform="translate(483.8857,403.8926)">
					<path id="path38" inkscape:connector-curvature="0" fill="#373535" d="M-251.834,365.603c0-4.892,2.381-6.459,5.983-8.179
						c3.384-1.615,4.829-3.686,4.829-6.928c0-2.421-1.234-5.248-4.712-5.248c-2.895,0-4.722,2.322-5.518,7.32h-0.702v-8.204h0.67
						c0.176,0.968,0.452,1.234,0.768,1.234c0.445,0,0.852-0.366,1.122-0.568c0.851-0.636,2.082-0.996,3.635-0.996
						c4.355,0,6.957,3.037,6.957,8.124c0,4.148-2.038,6.925-6.096,8.791c-3.698,1.698-4.611,3.155-4.611,6.024
						c0,3.15,1.875,4.626,4.279,4.626c1.88,0,4.141-1.27,4.567-6.466h0.706v7.404h-0.67c-0.24-0.777-0.445-0.952-0.768-0.952
						c-0.102,0-0.357,0.136-0.587,0.295c-0.583,0.402-1.659,1.009-3.162,1.009C-249.021,372.889-251.834,369.717-251.834,365.603"/>
				</g>
				<g id="g40" transform="translate(483.8857,403.8926)">
					<path id="path42" inkscape:connector-curvature="0" fill="none" stroke="#373535" stroke-width="0.5" d="M-251.834,365.603
						c0-4.892,2.381-6.459,5.983-8.179c3.384-1.615,4.829-3.686,4.829-6.928c0-2.421-1.234-5.248-4.712-5.248
						c-2.895,0-4.722,2.322-5.518,7.32h-0.702v-8.204h0.67c0.176,0.968,0.452,1.234,0.768,1.234c0.445,0,0.852-0.366,1.122-0.568
						c0.851-0.636,2.082-0.996,3.635-0.996c4.355,0,6.957,3.037,6.957,8.124c0,4.148-2.038,6.925-6.096,8.791
						c-3.698,1.698-4.611,3.155-4.611,6.024c0,3.15,1.875,4.626,4.279,4.626c1.88,0,4.141-1.27,4.567-6.466h0.706v7.404h-0.67
						c-0.24-0.777-0.445-0.952-0.768-0.952c-0.102,0-0.357,0.136-0.587,0.295c-0.583,0.402-1.659,1.009-3.162,1.009
						C-249.021,372.889-251.834,369.717-251.834,365.603z"/>
				</g>
				<g id="g44" transform="translate(131.3887,412.1089)">
					<path id="path46" inkscape:connector-curvature="0" fill="#373535" d="M-75.586,361.497c0,0.997,0.721,1.318,2.053,1.318
						c2.183,0,3.143-2.624,3.35-5.08c0.336-3.986-0.946-6.976-4.411-6.976h-0.992V361.497z M-80.734,364.164v-0.759
						c1.707-0.128,2.097-0.498,2.097-1.514v-23.364c0-1.018-0.405-1.387-2.097-1.515v-0.759h7.245v0.759
						c-1.72,0.128-2.096,0.496-2.096,1.515v11.034h0.997c1.723-4.209,3.219-8.054,4.027-10.131l0.613-1.564
						c0.486-1.182,1.25-1.686,2.505-1.686c1.334,0,2.202,0.073,2.202,0.073v0.759c-0.918,0-1.14,0.312-1.473,1.022l-0.848,2.145
						c0,0-3.699,9.298-3.87,9.726c2.746,0.897,4.556,3.412,4.556,6.968c0,4.77-2.293,7.291-6.75,7.291H-80.734z"/>
				</g>
				<g id="g48" transform="translate(131.3887,412.1089)">
					<path id="path50" inkscape:connector-curvature="0" fill="none" stroke="#373535" stroke-width="0.5" d="M-75.586,361.497
						c0,0.997,0.721,1.318,2.053,1.318c2.183,0,3.143-2.624,3.35-5.08c0.336-3.986-0.946-6.976-4.411-6.976h-0.992V361.497z
						 M-80.734,364.164v-0.759c1.707-0.128,2.097-0.498,2.097-1.514v-23.364c0-1.018-0.405-1.387-2.097-1.515v-0.759h7.245v0.759
						c-1.72,0.128-2.096,0.496-2.096,1.515v11.034h0.997c1.723-4.209,3.219-8.054,4.027-10.131l0.613-1.564
						c0.486-1.182,1.25-1.686,2.505-1.686c1.334,0,2.202,0.073,2.202,0.073v0.759c-0.918,0-1.14,0.312-1.473,1.022l-0.848,2.145
						c0,0-3.699,9.298-3.87,9.726c2.746,0.897,4.556,3.412,4.556,6.968c0,4.77-2.293,7.291-6.75,7.291H-80.734z"/>
				</g>
				<g id="g52" transform="translate(93.8477,389.1621)">
					<path id="path54" inkscape:connector-curvature="0" fill="#373535" d="M-56.815,372.965c-0.611,11.56,2.359,13.297,4.373,13.36
						c3.023,0.095,5.08-2.945,5.41-12.909c0.37-11.208-1.746-13.417-4.377-13.438C-53.806,359.959-56.204,361.405-56.815,372.965
						 M-60.049,373.151c0-9.952,3.33-14.402,8.125-14.402c5.233,0,8.123,4.845,8.123,14.402c0,9.557-2.927,14.403-7.988,14.403
						C-56.881,387.554-60.049,382.708-60.049,373.151"/>
				</g>
				<g id="g56" transform="translate(93.8477,389.1621)">
					<path id="path58" inkscape:connector-curvature="0" fill="none" stroke="#373535" stroke-width="0.5" d="M-56.815,372.965
						c-0.611,11.56,2.359,13.297,4.373,13.36c3.023,0.095,5.08-2.945,5.41-12.909c0.37-11.208-1.746-13.417-4.377-13.438
						C-53.806,359.959-56.204,361.405-56.815,372.965z M-60.049,373.151c0-9.952,3.33-14.402,8.125-14.402
						c5.233,0,8.123,4.845,8.123,14.402c0,9.557-2.927,14.403-7.988,14.403C-56.881,387.554-60.049,382.708-60.049,373.151z"/>
				</g>
				<g id="g60" transform="translate(188.6709,389.1621)">
					<path id="path62" inkscape:connector-curvature="0" fill="#373535" d="M-104.227,372.965c-0.611,11.56,2.36,13.297,4.375,13.36
						c3.022,0.095,5.08-2.945,5.409-12.909c0.371-11.208-1.745-13.417-4.376-13.438
						C-101.217,359.959-103.616,361.405-104.227,372.965 M-107.46,373.151c0-9.952,3.329-14.402,8.125-14.402
						c5.233,0,8.123,4.845,8.123,14.402c0,9.557-2.928,14.403-7.988,14.403C-104.292,387.554-107.46,382.708-107.46,373.151"/>
				</g>
				<g id="g64" transform="translate(188.6709,389.1621)">
					<path id="path66" inkscape:connector-curvature="0" fill="none" stroke="#373535" stroke-width="0.5" d="M-104.227,372.965
						c-0.611,11.56,2.36,13.297,4.375,13.36c3.022,0.095,5.08-2.945,5.409-12.909c0.371-11.208-1.745-13.417-4.376-13.438
						C-101.217,359.959-103.616,361.405-104.227,372.965z M-107.46,373.151c0-9.952,3.329-14.402,8.125-14.402
						c5.233,0,8.123,4.845,8.123,14.402c0,9.557-2.928,14.403-7.988,14.403C-104.292,387.554-107.46,382.708-107.46,373.151z"/>
				</g>
				<g id="g68" transform="translate(386.5391,389.1621)">
					<path id="path70" inkscape:connector-curvature="0" fill="#373535" d="M-203.161,372.965c-0.612,11.56,2.36,13.297,4.374,13.36
						c3.023,0.095,5.08-2.945,5.409-12.909c0.37-11.208-1.747-13.417-4.376-13.438
						C-200.151,359.959-202.549,361.405-203.161,372.965 M-206.395,373.151c0-9.952,3.329-14.402,8.125-14.402
						c5.234,0,8.124,4.845,8.124,14.402c0,9.557-2.928,14.403-7.988,14.403C-203.227,387.554-206.395,382.708-206.395,373.151"/>
				</g>
				<g id="g72" transform="translate(386.5391,389.1621)">
					<path id="path74" inkscape:connector-curvature="0" fill="none" stroke="#373535" stroke-width="0.5" d="M-203.161,372.965
						c-0.612,11.56,2.36,13.297,4.374,13.36c3.023,0.095,5.08-2.945,5.409-12.909c0.37-11.208-1.747-13.417-4.376-13.438
						C-200.151,359.959-202.549,361.405-203.161,372.965z M-206.395,373.151c0-9.952,3.329-14.402,8.125-14.402
						c5.234,0,8.124,4.845,8.124,14.402c0,9.557-2.928,14.403-7.988,14.403C-203.227,387.554-206.395,382.708-206.395,373.151z"/>
				</g>
				<g id="g76" transform="translate(46.4473,395.9844)">
					<path id="path78" inkscape:connector-curvature="0" fill="#373535" d="M-33.115,369.555c0-11.698,3.48-17.628,10.278-17.628
						c5.553,0,8.069,4.61,8.341,11.77h-2.216c-0.377-8.86-3.441-10.351-5.826-10.444c-2.532-0.101-6.342,1.617-6.909,16.07
						c-0.404,10.327,2.177,16.316,6.581,16.538c2.975,0,5.52-0.872,6.839-8.278h0.744v9.057h-0.654
						c-0.459-0.558-0.816-0.679-1.298-0.679c-0.428,0-0.952,0.172-1.443,0.389c-0.796,0.35-1.886,0.832-3.821,0.832
						C-26.464,387.184-33.115,384.232-33.115,369.555"/>
				</g>
				<g id="g80" transform="translate(46.4473,395.9844)">
					<path id="path82" inkscape:connector-curvature="0" fill="none" stroke="#373535" stroke-width="0.5" d="M-33.115,369.555
						c0-11.698,3.48-17.628,10.278-17.628c5.553,0,8.069,4.61,8.341,11.77h-2.216c-0.377-8.86-3.441-10.351-5.826-10.444
						c-2.532-0.101-6.342,1.617-6.909,16.07c-0.404,10.327,2.177,16.316,6.581,16.538c2.975,0,5.52-0.872,6.839-8.278h0.744v9.057
						h-0.654c-0.459-0.558-0.816-0.679-1.298-0.679c-0.428,0-0.952,0.172-1.443,0.389c-0.796,0.35-1.886,0.832-3.821,0.832
						C-26.464,387.184-33.115,384.232-33.115,369.555z"/>
				</g>
				<g id="g84" transform="translate(340.4385,395.9844)">
					<path id="path86" inkscape:connector-curvature="0" fill="#373535" d="M-180.111,369.555c0-11.698,3.479-17.628,10.277-17.628
						c5.553,0,8.069,4.61,8.341,11.77h-2.216c-0.377-8.86-3.44-10.351-5.826-10.444c-2.532-0.101-6.342,1.617-6.909,16.07
						c-0.404,10.327,2.176,16.316,6.58,16.538c2.976,0,5.52-0.872,6.84-8.278h0.742v9.057h-0.653
						c-0.459-0.558-0.816-0.679-1.298-0.679c-0.428,0-0.952,0.172-1.443,0.389c-0.796,0.35-1.886,0.832-3.821,0.832
						C-173.46,387.184-180.111,384.232-180.111,369.555"/>
				</g>
				<g id="g88" transform="translate(340.4385,395.9844)">
					<path id="path90" inkscape:connector-curvature="0" fill="none" stroke="#373535" stroke-width="0.5" d="M-180.111,369.555
						c0-11.698,3.479-17.628,10.277-17.628c5.553,0,8.069,4.61,8.341,11.77h-2.216c-0.377-8.86-3.44-10.351-5.826-10.444
						c-2.532-0.101-6.342,1.617-6.909,16.07c-0.404,10.327,2.176,16.316,6.58,16.538c2.976,0,5.52-0.872,6.84-8.278h0.742v9.057
						h-0.653c-0.459-0.558-0.816-0.679-1.298-0.679c-0.428,0-0.952,0.172-1.443,0.389c-0.796,0.35-1.886,0.832-3.821,0.832
						C-173.46,387.184-180.111,384.232-180.111,369.555z"/>
				</g>
				<g id="g92" transform="translate(254.667,384.543)">
					<path id="path94" inkscape:connector-curvature="0" fill="#373535" d="M-137.225,375.273c0.685,2.882,1.412,5.984,1.984,8.558
						c0.096,0.459,0.165,0.892,0.203,1.316c0.037-0.41,0.09-0.872,0.202-1.289c0.587-2.335,1.358-5.533,2.086-8.585H-137.225z
						 M-150.616,378.325h-0.992v10.739c0,0.997,0.721,1.317,2.053,1.317c2.183,0,3.157-2.622,3.351-5.08
						C-145.819,380.42-147.759,378.325-150.616,378.325 M-125.246,364.578c-1.585,0.121-1.851,0.609-2.104,1.574l-1.964,7.486
						c-1.708,6.888-4.627,18.535-4.627,18.535h-0.756c0,0-6.306-25.121-6.529-26.031c-0.228-0.93-0.463-1.549-0.741-1.549
						c-0.277,0-0.515,0.414-0.714,0.859l-0.905,2.292c0,0-3.7,9.298-3.87,9.726c2.746,0.897,4.555,3.412,4.555,6.968
						c0,4.77-2.292,7.291-6.749,7.291h-7.107v-0.759c1.727-0.128,2.097-0.498,2.097-1.514v-23.365c0-1.018-0.41-1.386-2.097-1.514
						v-0.759h7.245v0.759c-1.702,0.128-2.096,0.496-2.096,1.514v11.035h0.998c1.722-4.209,3.218-8.055,4.026-10.131l0.613-1.564
						c0.487-1.182,1.339-1.612,2.595-1.612h5.591v0.759c-0.955,0.066-1.373,0.179-1.569,0.492c-0.14,0.224-0.17,0.609-0.07,1.028
						c0.1,0.419,1.441,5.996,1.878,7.827h5.117c0.438-1.841,1.676-7.082,1.815-7.649c0.099-0.409,0.136-0.868-0.057-1.107
						c-0.295-0.365-0.795-0.513-1.99-0.59v-0.759h7.416V364.578z"/>
				</g>
				<g id="g96" transform="translate(254.667,384.543)">
					<path id="path98" inkscape:connector-curvature="0" fill="none" stroke="#373535" stroke-width="0.5" d="M-137.225,375.273
						c0.685,2.882,1.412,5.984,1.984,8.558c0.096,0.459,0.165,0.892,0.203,1.316c0.037-0.41,0.09-0.872,0.202-1.289
						c0.587-2.335,1.358-5.533,2.086-8.585H-137.225z M-150.616,378.325h-0.992v10.739c0,0.997,0.721,1.317,2.053,1.317
						c2.183,0,3.157-2.622,3.351-5.08C-145.819,380.42-147.759,378.325-150.616,378.325z M-125.246,364.578
						c-1.585,0.121-1.851,0.609-2.104,1.574l-1.964,7.486c-1.708,6.888-4.627,18.535-4.627,18.535h-0.756
						c0,0-6.306-25.121-6.529-26.031c-0.228-0.93-0.463-1.549-0.741-1.549c-0.277,0-0.515,0.414-0.714,0.859l-0.905,2.292
						c0,0-3.7,9.298-3.87,9.726c2.746,0.897,4.555,3.412,4.555,6.968c0,4.77-2.292,7.291-6.749,7.291h-7.107v-0.759
						c1.727-0.128,2.097-0.498,2.097-1.514v-23.365c0-1.018-0.41-1.386-2.097-1.514v-0.759h7.245v0.759
						c-1.702,0.128-2.096,0.496-2.096,1.514v11.035h0.998c1.722-4.209,3.218-8.055,4.026-10.131l0.613-1.564
						c0.487-1.182,1.339-1.612,2.595-1.612h5.591v0.759c-0.955,0.066-1.373,0.179-1.569,0.492c-0.14,0.224-0.17,0.609-0.07,1.028
						c0.1,0.419,1.441,5.996,1.878,7.827h5.117c0.438-1.841,1.676-7.082,1.815-7.649c0.099-0.409,0.136-0.868-0.057-1.107
						c-0.295-0.365-0.795-0.513-1.99-0.59v-0.759h7.416V364.578z"/>
				</g>
				<g id="g100" transform="translate(328.375,373.9434)">
					<path id="path102" inkscape:connector-curvature="0" fill="#373535" d="M-174.079,380.57c-1.202-4.078-2.027-4.802-3.278-4.802
						h-3.62c-0.667,0-0.851,0.2-0.851,0.924v11.361h3.277c1.467,0,2.142-1.691,2.245-3.326h0.759v7.453h-0.759
						c-0.155-1.693-0.609-2.778-2.245-2.778h-3.277v11.241c0,0.313,0.131,0.337,0.331,0.337h3.398c1.252,0,2.105-0.823,3.28-4.802
						h0.791l-0.713,6.771l-0.066,0.025c0,0-0.316-0.646-1.272-0.646h-10.897v-0.759c1.732-0.127,2.097-0.497,2.097-1.514v-23.364
						c0-1.018-0.405-1.393-2.097-1.514v-0.759h11.638c0.955,0,1.27-0.645,1.27-0.645l0.067,0.011l0.711,6.786H-174.079z"/>
				</g>
				<g id="g104" transform="translate(328.375,373.9434)">
					<path id="path106" inkscape:connector-curvature="0" fill="none" stroke="#373535" stroke-width="0.5" d="M-174.079,380.57
						c-1.202-4.078-2.027-4.802-3.278-4.802h-3.62c-0.667,0-0.851,0.2-0.851,0.924v11.361h3.277c1.467,0,2.142-1.691,2.245-3.326
						h0.759v7.453h-0.759c-0.155-1.693-0.609-2.778-2.245-2.778h-3.277v11.241c0,0.313,0.131,0.337,0.331,0.337h3.398
						c1.252,0,2.105-0.823,3.28-4.802h0.791l-0.713,6.771l-0.066,0.025c0,0-0.316-0.646-1.272-0.646h-10.897v-0.759
						c1.732-0.127,2.097-0.497,2.097-1.514v-23.364c0-1.018-0.405-1.393-2.097-1.514v-0.759h11.638c0.955,0,1.27-0.645,1.27-0.645
						l0.067,0.011l0.711,6.786H-174.079z"/>
				</g>
				<g id="g108" transform="translate(537.2607,373.9434)">
					<path id="path110" inkscape:connector-curvature="0" fill="#373535" d="M-278.522,380.57c-1.202-4.078-2.028-4.802-3.279-4.802
						h-3.621c-0.666,0-0.848,0.2-0.848,0.924v11.361h3.277c1.466,0,2.141-1.691,2.244-3.326h0.759v7.453h-0.759
						c-0.156-1.693-0.61-2.778-2.244-2.778h-3.277v11.241c0,0.313,0.13,0.337,0.33,0.337h3.398c1.251,0,2.105-0.823,3.279-4.802
						h0.791l-0.712,6.771l-0.065,0.025c0,0-0.316-0.646-1.273-0.646h-10.896v-0.759c1.731-0.127,2.096-0.497,2.096-1.514v-23.364
						c0-1.018-0.405-1.393-2.096-1.514v-0.759h11.638c0.955,0,1.27-0.645,1.27-0.645l0.068,0.011l0.711,6.786H-278.522z"/>
				</g>
				<g id="g112" transform="translate(537.2607,373.9434)">
					<path id="path114" inkscape:connector-curvature="0" fill="none" stroke="#373535" stroke-width="0.5" d="M-278.522,380.57
						c-1.202-4.078-2.028-4.802-3.279-4.802h-3.621c-0.666,0-0.848,0.2-0.848,0.924v11.361h3.277c1.466,0,2.141-1.691,2.244-3.326
						h0.759v7.453h-0.759c-0.156-1.693-0.61-2.778-2.244-2.778h-3.277v11.241c0,0.313,0.13,0.337,0.33,0.337h3.398
						c1.251,0,2.105-0.823,3.279-4.802h0.791l-0.712,6.771l-0.065,0.025c0,0-0.316-0.646-1.273-0.646h-10.896v-0.759
						c1.731-0.127,2.096-0.497,2.096-1.514v-23.364c0-1.018-0.405-1.393-2.096-1.514v-0.759h11.638c0.955,0,1.27-0.645,1.27-0.645
						l0.068,0.011l0.711,6.786H-278.522z"/>
				</g>
				<g id="g116" transform="translate(482.0342,417.4399)">
					<path id="path118" inkscape:connector-curvature="0" fill="#373535" d="M-250.909,358.833h-5.496v-0.759
						c1.667-0.106,2.097-0.498,2.097-1.514v-14.828l0.055-1.766l-0.628,1.608l-7.593,17.259h-4.916v-0.759
						c1.712-0.144,2.096-0.498,2.096-1.514v-23.365c0-1.018-0.429-1.408-2.096-1.514v-0.759h5.732v0.759
						c-1.656,0.115-2.096,0.496-2.096,1.514v19.656c0,0.598-0.03,1.19-0.067,1.547c0.106-0.327,0.305-0.838,0.542-1.387
						c2.081-4.83,9.69-22.523,9.69-22.523h0.819v26.072c0,1.016,0.456,1.415,2.098,1.514v0.759H-250.909z"/>
				</g>
				<g id="g120" transform="translate(482.0342,417.4399)">
					<path id="path122" inkscape:connector-curvature="0" fill="none" stroke="#373535" stroke-width="0.5" d="M-250.909,358.833
						h-5.496v-0.759c1.667-0.106,2.097-0.498,2.097-1.514v-14.828l0.055-1.766l-0.628,1.608l-7.593,17.259h-4.916v-0.759
						c1.712-0.144,2.096-0.498,2.096-1.514v-23.365c0-1.018-0.429-1.408-2.096-1.514v-0.759h5.732v0.759
						c-1.656,0.115-2.096,0.496-2.096,1.514v19.656c0,0.598-0.03,1.19-0.067,1.547c0.106-0.327,0.305-0.838,0.542-1.387
						c2.081-4.83,9.69-22.523,9.69-22.523h0.819v26.072c0,1.016,0.456,1.415,2.098,1.514v0.759H-250.909z"/>
				</g>
				<g id="g124" transform="translate(300.5308,418.6958)">
					<path id="path126" inkscape:connector-curvature="0" fill="#373535" d="M-160.157,358.205l-0.061,0.007
						c0,0-0.301-0.636-1.255-0.636h-10.508c-0.955,0-1.256,0.636-1.256,0.636l-0.06-0.007l-0.733-6.779h0.791
						c1.184,4.073,2.027,4.802,3.279,4.802h1.709V331.94c0-1.019-0.462-1.423-2.097-1.515v-0.759h7.242v0.759
						c-1.634,0.091-2.097,0.496-2.097,1.515v24.287h1.709c1.252,0,2.095-0.728,3.278-4.802h0.791L-160.157,358.205z"/>
				</g>
				<g id="g128" transform="translate(300.5308,418.6958)">
					<path id="path130" inkscape:connector-curvature="0" fill="none" stroke="#373535" stroke-width="0.5" d="M-160.157,358.205
						l-0.061,0.007c0,0-0.301-0.636-1.255-0.636h-10.508c-0.955,0-1.256,0.636-1.256,0.636l-0.06-0.007l-0.733-6.779h0.791
						c1.184,4.073,2.027,4.802,3.279,4.802h1.709V331.94c0-1.019-0.462-1.423-2.097-1.515v-0.759h7.242v0.759
						c-1.634,0.091-2.097,0.496-2.097,1.515v24.287h1.709c1.252,0,2.095-0.728,3.278-4.802h0.791L-160.157,358.205z"/>
				</g>
				<g id="g132" transform="translate(565.5352,373.9434)">
					<path id="path134" inkscape:connector-curvature="0" fill="#373535" d="M-292.659,380.57c-1.202-4.078-2.028-4.802-3.279-4.802
						h-2.825c-0.668,0-0.851,0.2-0.851,0.924v23.515c0,0.841,0.45,1.265,2.685,1.35v0.773h-7.833v-0.759
						c1.695-0.128,2.096-0.497,2.096-1.514v-23.364c0-1.018-0.461-1.43-2.096-1.514v-0.759h10.844c0.955,0,1.271-0.645,1.271-0.645
						l0.068,0.011l0.711,6.786H-292.659z"/>
				</g>
				<g id="g136" transform="translate(565.5352,373.9434)">
					<path id="path138" inkscape:connector-curvature="0" fill="none" stroke="#373535" stroke-width="0.5" d="M-292.659,380.57
						c-1.202-4.078-2.028-4.802-3.279-4.802h-2.825c-0.668,0-0.851,0.2-0.851,0.924v23.515c0,0.841,0.45,1.265,2.685,1.35v0.773
						h-7.833v-0.759c1.695-0.128,2.096-0.497,2.096-1.514v-23.364c0-1.018-0.461-1.43-2.096-1.514v-0.759h10.844
						c0.955,0,1.271-0.645,1.271-0.645l0.068,0.011l0.711,6.786H-292.659z"/>
				</g>
			</g>
		</g>
	</g>
	<g id="g144">
		<g>
			<defs>
				<rect id="SVGID_3_" x="-48.142" y="517.923" width="382.5" height="495.25"/>
			</defs>
			<clipPath id="SVGID_4_">
				<use xlink:href="#SVGID_3_"  overflow="visible"/>
			</clipPath>
			<g id="g146" clip-path="url(#SVGID_4_)">
				<g id="g152" transform="translate(163.5767,412.1089)">
					<path id="path154" inkscape:connector-curvature="0" fill="#AED3DC" d="M-91.68,361.497c0,0.997,0.427,1.318,1.759,1.318
						c2.499,0,3.218-3.131,3.427-5.587c0.442-5.199-1.602-7.248-4.194-7.248h-0.993V361.497z M-96.828,364.164v-0.759
						c1.695-0.128,2.096-0.498,2.096-1.514v-23.364c0-1.018-0.386-1.387-2.096-1.515v-0.759h7.245v0.759
						c-1.702,0.128-2.097,0.496-2.097,1.515v10.104h2.073c3.084,0,6.404,2.451,6.404,7.761c0,5.314-2.356,7.772-6.812,7.772H-96.828
						z"/>
				</g>
				<g id="g156" transform="translate(163.5767,412.1089)">
					<path id="path158" inkscape:connector-curvature="0" fill="none" stroke="#AED3DC" stroke-width="0.5" d="M-91.68,361.497
						c0,0.997,0.427,1.318,1.759,1.318c2.499,0,3.218-3.131,3.427-5.587c0.442-5.199-1.602-7.248-4.194-7.248h-0.993V361.497z
						 M-96.828,364.164v-0.759c1.695-0.128,2.096-0.498,2.096-1.514v-23.364c0-1.018-0.386-1.387-2.096-1.515v-0.759h7.245v0.759
						c-1.702,0.128-2.097,0.496-2.097,1.515v10.104h2.073c3.084,0,6.404,2.451,6.404,7.761c0,5.314-2.356,7.772-6.812,7.772H-96.828
						z"/>
				</g>
				<g id="g160" transform="translate(437.5986,417.4399)">
					<path id="path162" inkscape:connector-curvature="0" fill="#AED3DC" d="M-228.691,358.833v-0.759
						c1.679-0.099,2.097-0.498,2.097-1.514v-18.638c0-5.098-2.791-5.859-4.453-5.859c-2.855,0-4.184,1.787-4.184,5.622v18.875
						c0,1.016,0.402,1.377,2.095,1.514v0.759h-7.243v-0.759c1.687-0.114,2.095-0.498,2.095-1.514v-18.875
						c0-4.826,2.291-7.173,7.002-7.173c2.841,0,6.227,1.344,6.227,7.745v18.302c0,1.016,0.423,1.393,2.097,1.514v0.759H-228.691z"/>
				</g>
				<g id="g164" transform="translate(437.5986,417.4399)">
					<path id="path166" inkscape:connector-curvature="0" fill="none" stroke="#AED3DC" stroke-width="0.5" d="M-228.691,358.833
						v-0.759c1.679-0.099,2.097-0.498,2.097-1.514v-18.638c0-5.098-2.791-5.859-4.453-5.859c-2.855,0-4.184,1.787-4.184,5.622
						v18.875c0,1.016,0.402,1.377,2.095,1.514v0.759h-7.243v-0.759c1.687-0.114,2.095-0.498,2.095-1.514v-18.875
						c0-4.826,2.291-7.173,7.002-7.173c2.841,0,6.227,1.344,6.227,7.745v18.302c0,1.016,0.423,1.393,2.097,1.514v0.759H-228.691z"/>
				</g>
				<g id="g168" transform="translate(484.8857,403.8926)">
					<path id="path170" inkscape:connector-curvature="0" fill="#AED3DC" d="M-252.334,365.603c0-4.892,2.381-6.459,5.983-8.179
						c3.384-1.615,4.829-3.686,4.829-6.928c0-2.421-1.234-5.248-4.712-5.248c-2.895,0-4.722,2.322-5.518,7.32h-0.702v-8.204h0.67
						c0.176,0.968,0.452,1.234,0.768,1.234c0.445,0,0.852-0.366,1.122-0.568c0.851-0.636,2.082-0.996,3.635-0.996
						c4.355,0,6.957,3.037,6.957,8.124c0,4.148-2.038,6.925-6.096,8.791c-3.698,1.698-4.611,3.155-4.611,6.024
						c0,3.15,1.875,4.626,4.279,4.626c1.88,0,4.141-1.27,4.567-6.466h0.706v7.404h-0.67c-0.24-0.777-0.445-0.952-0.768-0.952
						c-0.102,0-0.357,0.136-0.587,0.295c-0.583,0.402-1.659,1.009-3.162,1.009C-249.521,372.889-252.334,369.717-252.334,365.603"/>
				</g>
				<g id="g172" transform="translate(484.8857,403.8926)">
					<path id="path174" inkscape:connector-curvature="0" fill="none" stroke="#AED3DC" stroke-width="0.5" d="M-252.334,365.603
						c0-4.892,2.381-6.459,5.983-8.179c3.384-1.615,4.829-3.686,4.829-6.928c0-2.421-1.234-5.248-4.712-5.248
						c-2.895,0-4.722,2.322-5.518,7.32h-0.702v-8.204h0.67c0.176,0.968,0.452,1.234,0.768,1.234c0.445,0,0.852-0.366,1.122-0.568
						c0.851-0.636,2.082-0.996,3.635-0.996c4.355,0,6.957,3.037,6.957,8.124c0,4.148-2.038,6.925-6.096,8.791
						c-3.698,1.698-4.611,3.155-4.611,6.024c0,3.15,1.875,4.626,4.279,4.626c1.88,0,4.141-1.27,4.567-6.466h0.706v7.404h-0.67
						c-0.24-0.777-0.445-0.952-0.768-0.952c-0.102,0-0.357,0.136-0.587,0.295c-0.583,0.402-1.659,1.009-3.162,1.009
						C-249.521,372.889-252.334,369.717-252.334,365.603z"/>
				</g>
				<g id="g176" transform="translate(132.3887,412.1089)">
					<path id="path178" inkscape:connector-curvature="0" fill="#AED3DC" d="M-76.086,361.497c0,0.997,0.721,1.318,2.053,1.318
						c2.183,0,3.143-2.624,3.35-5.08c0.336-3.986-0.946-6.976-4.411-6.976h-0.992V361.497z M-81.234,364.164v-0.759
						c1.707-0.128,2.097-0.498,2.097-1.514v-23.364c0-1.018-0.405-1.387-2.097-1.515v-0.759h7.245v0.759
						c-1.72,0.128-2.096,0.496-2.096,1.515v11.034h0.997c1.723-4.209,3.219-8.054,4.027-10.131l0.613-1.564
						c0.486-1.182,1.25-1.686,2.505-1.686c1.334,0,2.202,0.073,2.202,0.073v0.759c-0.918,0-1.14,0.312-1.473,1.022l-0.848,2.145
						c0,0-3.699,9.298-3.87,9.726c2.746,0.897,4.556,3.412,4.556,6.968c0,4.77-2.293,7.291-6.75,7.291H-81.234z"/>
				</g>
				<g id="g180" transform="translate(132.3887,412.1089)">
					<path id="path182" inkscape:connector-curvature="0" fill="none" stroke="#AED3DC" stroke-width="0.5" d="M-76.086,361.497
						c0,0.997,0.721,1.318,2.053,1.318c2.183,0,3.143-2.624,3.35-5.08c0.336-3.986-0.946-6.976-4.411-6.976h-0.992V361.497z
						 M-81.234,364.164v-0.759c1.707-0.128,2.097-0.498,2.097-1.514v-23.364c0-1.018-0.405-1.387-2.097-1.515v-0.759h7.245v0.759
						c-1.72,0.128-2.096,0.496-2.096,1.515v11.034h0.997c1.723-4.209,3.219-8.054,4.027-10.131l0.613-1.564
						c0.486-1.182,1.25-1.686,2.505-1.686c1.334,0,2.202,0.073,2.202,0.073v0.759c-0.918,0-1.14,0.312-1.473,1.022l-0.848,2.145
						c0,0-3.699,9.298-3.87,9.726c2.746,0.897,4.556,3.412,4.556,6.968c0,4.77-2.293,7.291-6.75,7.291H-81.234z"/>
				</g>
				<g id="g184" transform="translate(94.8477,389.1621)">
					<path id="path186" inkscape:connector-curvature="0" fill="#AED3DC" d="M-57.315,372.965
						c-0.611,11.56,2.359,13.297,4.373,13.36c3.023,0.095,5.08-2.945,5.41-12.909c0.37-11.208-1.746-13.417-4.377-13.438
						C-54.306,359.959-56.704,361.405-57.315,372.965 M-60.549,373.151c0-9.952,3.33-14.402,8.125-14.402
						c5.233,0,8.123,4.845,8.123,14.402c0,9.557-2.927,14.403-7.988,14.403C-57.381,387.554-60.549,382.708-60.549,373.151"/>
				</g>
				<g id="g188" transform="translate(94.8477,389.1621)">
					<path id="path190" inkscape:connector-curvature="0" fill="none" stroke="#AED3DC" stroke-width="0.5" d="M-57.315,372.965
						c-0.611,11.56,2.359,13.297,4.373,13.36c3.023,0.095,5.08-2.945,5.41-12.909c0.37-11.208-1.746-13.417-4.377-13.438
						C-54.306,359.959-56.704,361.405-57.315,372.965z M-60.549,373.151c0-9.952,3.33-14.402,8.125-14.402
						c5.233,0,8.123,4.845,8.123,14.402c0,9.557-2.927,14.403-7.988,14.403C-57.381,387.554-60.549,382.708-60.549,373.151z"/>
				</g>
				<g id="g192" transform="translate(189.6709,389.1621)">
					<path id="path194" inkscape:connector-curvature="0" fill="#AED3DC" d="M-104.727,372.965
						c-0.611,11.56,2.36,13.297,4.375,13.36c3.022,0.095,5.08-2.945,5.409-12.909c0.371-11.208-1.745-13.417-4.376-13.438
						C-101.717,359.959-104.116,361.405-104.727,372.965 M-107.96,373.151c0-9.952,3.329-14.402,8.125-14.402
						c5.233,0,8.123,4.845,8.123,14.402c0,9.557-2.928,14.403-7.988,14.403C-104.792,387.554-107.96,382.708-107.96,373.151"/>
				</g>
				<g id="g196" transform="translate(189.6709,389.1621)">
					<path id="path198" inkscape:connector-curvature="0" fill="none" stroke="#AED3DC" stroke-width="0.5" d="M-104.727,372.965
						c-0.611,11.56,2.36,13.297,4.375,13.36c3.022,0.095,5.08-2.945,5.409-12.909c0.371-11.208-1.745-13.417-4.376-13.438
						C-101.717,359.959-104.116,361.405-104.727,372.965z M-107.96,373.151c0-9.952,3.329-14.402,8.125-14.402
						c5.233,0,8.123,4.845,8.123,14.402c0,9.557-2.928,14.403-7.988,14.403C-104.792,387.554-107.96,382.708-107.96,373.151z"/>
				</g>
				<g id="g200" transform="translate(387.5391,389.1621)">
					<path id="path202" inkscape:connector-curvature="0" fill="#AED3DC" d="M-203.661,372.965
						c-0.612,11.56,2.36,13.297,4.374,13.36c3.023,0.095,5.08-2.945,5.409-12.909c0.37-11.208-1.747-13.417-4.376-13.438
						C-200.651,359.959-203.049,361.405-203.661,372.965 M-206.895,373.151c0-9.952,3.329-14.402,8.125-14.402
						c5.234,0,8.124,4.845,8.124,14.402c0,9.557-2.928,14.403-7.988,14.403C-203.727,387.554-206.895,382.708-206.895,373.151"/>
				</g>
				<g id="g204" transform="translate(387.5391,389.1621)">
					<path id="path206" inkscape:connector-curvature="0" fill="none" stroke="#AED3DC" stroke-width="0.5" d="M-203.661,372.965
						c-0.612,11.56,2.36,13.297,4.374,13.36c3.023,0.095,5.08-2.945,5.409-12.909c0.37-11.208-1.747-13.417-4.376-13.438
						C-200.651,359.959-203.049,361.405-203.661,372.965z M-206.895,373.151c0-9.952,3.329-14.402,8.125-14.402
						c5.234,0,8.124,4.845,8.124,14.402c0,9.557-2.928,14.403-7.988,14.403C-203.727,387.554-206.895,382.708-206.895,373.151z"/>
				</g>
				<g id="g208" transform="translate(47.4473,395.9844)">
					<path id="path210" inkscape:connector-curvature="0" fill="#AED3DC" d="M-33.615,369.555c0-11.698,3.48-17.628,10.278-17.628
						c5.553,0,8.069,4.61,8.341,11.77h-2.216c-0.377-8.86-3.441-10.351-5.826-10.444c-2.532-0.101-6.342,1.617-6.909,16.07
						c-0.404,10.327,2.177,16.316,6.581,16.538c2.975,0,5.52-0.872,6.839-8.278h0.744v9.057h-0.654
						c-0.459-0.558-0.816-0.679-1.298-0.679c-0.428,0-0.952,0.172-1.443,0.389c-0.796,0.35-1.886,0.832-3.821,0.832
						C-26.964,387.184-33.615,384.232-33.615,369.555"/>
				</g>
				<g id="g212" transform="translate(47.4473,395.9844)">
					<path id="path214" inkscape:connector-curvature="0" fill="none" stroke="#AED3DC" stroke-width="0.5" d="M-33.615,369.555
						c0-11.698,3.48-17.628,10.278-17.628c5.553,0,8.069,4.61,8.341,11.77h-2.216c-0.377-8.86-3.441-10.351-5.826-10.444
						c-2.532-0.101-6.342,1.617-6.909,16.07c-0.404,10.327,2.177,16.316,6.581,16.538c2.975,0,5.52-0.872,6.839-8.278h0.744v9.057
						h-0.654c-0.459-0.558-0.816-0.679-1.298-0.679c-0.428,0-0.952,0.172-1.443,0.389c-0.796,0.35-1.886,0.832-3.821,0.832
						C-26.964,387.184-33.615,384.232-33.615,369.555z"/>
				</g>
				<g id="g216" transform="translate(341.4385,395.9844)">
					<path id="path218" inkscape:connector-curvature="0" fill="#AED3DC" d="M-180.611,369.555c0-11.698,3.479-17.628,10.277-17.628
						c5.553,0,8.069,4.61,8.341,11.77h-2.216c-0.377-8.86-3.44-10.351-5.826-10.444c-2.532-0.101-6.342,1.617-6.909,16.07
						c-0.404,10.327,2.176,16.316,6.58,16.538c2.976,0,5.52-0.872,6.84-8.278h0.742v9.057h-0.653
						c-0.459-0.558-0.816-0.679-1.298-0.679c-0.428,0-0.952,0.172-1.443,0.389c-0.796,0.35-1.886,0.832-3.821,0.832
						C-173.96,387.184-180.611,384.232-180.611,369.555"/>
				</g>
				<g id="g220" transform="translate(341.4385,395.9844)">
					<path id="path222" inkscape:connector-curvature="0" fill="none" stroke="#AED3DC" stroke-width="0.5" d="M-180.611,369.555
						c0-11.698,3.479-17.628,10.277-17.628c5.553,0,8.069,4.61,8.341,11.77h-2.216c-0.377-8.86-3.44-10.351-5.826-10.444
						c-2.532-0.101-6.342,1.617-6.909,16.07c-0.404,10.327,2.176,16.316,6.58,16.538c2.976,0,5.52-0.872,6.84-8.278h0.742v9.057
						h-0.653c-0.459-0.558-0.816-0.679-1.298-0.679c-0.428,0-0.952,0.172-1.443,0.389c-0.796,0.35-1.886,0.832-3.821,0.832
						C-173.96,387.184-180.611,384.232-180.611,369.555z"/>
				</g>
				<g id="g224" transform="translate(255.667,384.543)">
					<path id="path226" inkscape:connector-curvature="0" fill="#AED3DC" d="M-137.725,375.273c0.685,2.882,1.412,5.984,1.984,8.558
						c0.096,0.459,0.165,0.892,0.203,1.316c0.037-0.41,0.09-0.872,0.202-1.289c0.587-2.335,1.358-5.533,2.086-8.585H-137.725z
						 M-151.116,378.325h-0.992v10.739c0,0.997,0.721,1.317,2.053,1.317c2.183,0,3.157-2.622,3.351-5.08
						C-146.319,380.42-148.259,378.325-151.116,378.325 M-125.746,364.578c-1.585,0.121-1.851,0.609-2.104,1.574l-1.964,7.486
						c-1.708,6.888-4.627,18.535-4.627,18.535h-0.756c0,0-6.306-25.121-6.529-26.031c-0.228-0.93-0.463-1.549-0.741-1.549
						c-0.277,0-0.515,0.414-0.714,0.859l-0.905,2.292c0,0-3.7,9.298-3.87,9.726c2.746,0.897,4.555,3.412,4.555,6.968
						c0,4.77-2.292,7.291-6.749,7.291h-7.107v-0.759c1.727-0.128,2.097-0.498,2.097-1.514v-23.365c0-1.018-0.41-1.386-2.097-1.514
						v-0.759h7.245v0.759c-1.702,0.128-2.096,0.496-2.096,1.514v11.035h0.998c1.722-4.209,3.218-8.055,4.026-10.131l0.613-1.564
						c0.487-1.182,1.339-1.612,2.595-1.612h5.591v0.759c-0.955,0.066-1.373,0.179-1.569,0.492c-0.14,0.224-0.17,0.609-0.07,1.028
						c0.1,0.419,1.441,5.996,1.878,7.827h5.117c0.438-1.841,1.676-7.082,1.815-7.649c0.099-0.409,0.136-0.868-0.057-1.107
						c-0.295-0.365-0.795-0.513-1.99-0.59v-0.759h7.416V364.578z"/>
				</g>
				<g id="g228" transform="translate(255.667,384.543)">
					<path id="path230" inkscape:connector-curvature="0" fill="none" stroke="#AED3DC" stroke-width="0.5" d="M-137.725,375.273
						c0.685,2.882,1.412,5.984,1.984,8.558c0.096,0.459,0.165,0.892,0.203,1.316c0.037-0.41,0.09-0.872,0.202-1.289
						c0.587-2.335,1.358-5.533,2.086-8.585H-137.725z M-151.116,378.325h-0.992v10.739c0,0.997,0.721,1.317,2.053,1.317
						c2.183,0,3.157-2.622,3.351-5.08C-146.319,380.42-148.259,378.325-151.116,378.325z M-125.746,364.578
						c-1.585,0.121-1.851,0.609-2.104,1.574l-1.964,7.486c-1.708,6.888-4.627,18.535-4.627,18.535h-0.756
						c0,0-6.306-25.121-6.529-26.031c-0.228-0.93-0.463-1.549-0.741-1.549c-0.277,0-0.515,0.414-0.714,0.859l-0.905,2.292
						c0,0-3.7,9.298-3.87,9.726c2.746,0.897,4.555,3.412,4.555,6.968c0,4.77-2.292,7.291-6.749,7.291h-7.107v-0.759
						c1.727-0.128,2.097-0.498,2.097-1.514v-23.365c0-1.018-0.41-1.386-2.097-1.514v-0.759h7.245v0.759
						c-1.702,0.128-2.096,0.496-2.096,1.514v11.035h0.998c1.722-4.209,3.218-8.055,4.026-10.131l0.613-1.564
						c0.487-1.182,1.339-1.612,2.595-1.612h5.591v0.759c-0.955,0.066-1.373,0.179-1.569,0.492c-0.14,0.224-0.17,0.609-0.07,1.028
						c0.1,0.419,1.441,5.996,1.878,7.827h5.117c0.438-1.841,1.676-7.082,1.815-7.649c0.099-0.409,0.136-0.868-0.057-1.107
						c-0.295-0.365-0.795-0.513-1.99-0.59v-0.759h7.416V364.578z"/>
				</g>
				<g id="g232" transform="translate(329.375,373.9434)">
					<path id="path234" inkscape:connector-curvature="0" fill="#AED3DC" d="M-174.579,380.57c-1.202-4.078-2.027-4.802-3.278-4.802
						h-3.62c-0.667,0-0.851,0.2-0.851,0.924v11.361h3.277c1.467,0,2.142-1.691,2.245-3.326h0.759v7.453h-0.759
						c-0.155-1.693-0.609-2.778-2.245-2.778h-3.277v11.241c0,0.313,0.131,0.337,0.331,0.337h3.398c1.252,0,2.105-0.823,3.28-4.802
						h0.791l-0.713,6.771l-0.066,0.025c0,0-0.316-0.646-1.272-0.646h-10.897v-0.759c1.732-0.127,2.096-0.497,2.096-1.514v-23.364
						c0-1.018-0.405-1.393-2.096-1.514v-0.759h11.638c0.955,0,1.27-0.645,1.27-0.645l0.067,0.011l0.711,6.786H-174.579z"/>
				</g>
				<g id="g236" transform="translate(329.375,373.9434)">
					<path id="path238" inkscape:connector-curvature="0" fill="none" stroke="#AED3DC" stroke-width="0.5" d="M-174.579,380.57
						c-1.202-4.078-2.027-4.802-3.278-4.802h-3.62c-0.667,0-0.851,0.2-0.851,0.924v11.361h3.277c1.467,0,2.142-1.691,2.245-3.326
						h0.759v7.453h-0.759c-0.155-1.693-0.609-2.778-2.245-2.778h-3.277v11.241c0,0.313,0.131,0.337,0.331,0.337h3.398
						c1.252,0,2.105-0.823,3.28-4.802h0.791l-0.713,6.771l-0.066,0.025c0,0-0.316-0.646-1.272-0.646h-10.897v-0.759
						c1.732-0.127,2.096-0.497,2.096-1.514v-23.364c0-1.018-0.405-1.393-2.096-1.514v-0.759h11.638c0.955,0,1.27-0.645,1.27-0.645
						l0.067,0.011l0.711,6.786H-174.579z"/>
				</g>
				<g id="g240" transform="translate(538.2607,373.9434)">
					<path id="path242" inkscape:connector-curvature="0" fill="#AED3DC" d="M-279.022,380.57c-1.202-4.078-2.028-4.802-3.279-4.802
						h-3.621c-0.666,0-0.848,0.2-0.848,0.924v11.361h3.277c1.466,0,2.141-1.691,2.244-3.326h0.759v7.453h-0.759
						c-0.156-1.693-0.61-2.778-2.244-2.778h-3.277v11.241c0,0.313,0.13,0.337,0.33,0.337h3.398c1.251,0,2.105-0.823,3.279-4.802
						h0.791l-0.712,6.771l-0.065,0.025c0,0-0.316-0.646-1.273-0.646h-10.896v-0.759c1.731-0.127,2.096-0.497,2.096-1.514v-23.364
						c0-1.018-0.405-1.393-2.096-1.514v-0.759h11.638c0.955,0,1.27-0.645,1.27-0.645l0.068,0.011l0.711,6.786H-279.022z"/>
				</g>
				<g id="g244" transform="translate(538.2607,373.9434)">
					<path id="path246" inkscape:connector-curvature="0" fill="none" stroke="#AED3DC" stroke-width="0.5" d="M-279.022,380.57
						c-1.202-4.078-2.028-4.802-3.279-4.802h-3.621c-0.666,0-0.848,0.2-0.848,0.924v11.361h3.277c1.466,0,2.141-1.691,2.244-3.326
						h0.759v7.453h-0.759c-0.156-1.693-0.61-2.778-2.244-2.778h-3.277v11.241c0,0.313,0.13,0.337,0.33,0.337h3.398
						c1.251,0,2.105-0.823,3.279-4.802h0.791l-0.712,6.771l-0.065,0.025c0,0-0.316-0.646-1.273-0.646h-10.896v-0.759
						c1.731-0.127,2.096-0.497,2.096-1.514v-23.364c0-1.018-0.405-1.393-2.096-1.514v-0.759h11.638c0.955,0,1.27-0.645,1.27-0.645
						l0.068,0.011l0.711,6.786H-279.022z"/>
				</g>
				<g id="g248" transform="translate(483.0342,417.4399)">
					<path id="path250" inkscape:connector-curvature="0" fill="#AED3DC" d="M-251.409,358.833h-5.496v-0.759
						c1.667-0.106,2.097-0.498,2.097-1.514v-14.828l0.055-1.766l-0.628,1.608l-7.593,17.259h-4.916v-0.759
						c1.712-0.144,2.096-0.498,2.096-1.514v-23.365c0-1.018-0.429-1.408-2.096-1.514v-0.759h5.732v0.759
						c-1.656,0.115-2.096,0.496-2.096,1.514v19.656c0,0.598-0.03,1.19-0.067,1.547c0.106-0.327,0.305-0.838,0.542-1.387
						c2.081-4.83,9.69-22.523,9.69-22.523h0.819v26.072c0,1.016,0.456,1.415,2.098,1.514v0.759H-251.409z"/>
				</g>
				<g id="g252" transform="translate(483.0342,417.4399)">
					<path id="path254" inkscape:connector-curvature="0" fill="none" stroke="#AED3DC" stroke-width="0.5" d="M-251.409,358.833
						h-5.496v-0.759c1.667-0.106,2.097-0.498,2.097-1.514v-14.828l0.055-1.766l-0.628,1.608l-7.593,17.259h-4.916v-0.759
						c1.712-0.144,2.096-0.498,2.096-1.514v-23.365c0-1.018-0.429-1.408-2.096-1.514v-0.759h5.732v0.759
						c-1.656,0.115-2.096,0.496-2.096,1.514v19.656c0,0.598-0.03,1.19-0.067,1.547c0.106-0.327,0.305-0.838,0.542-1.387
						c2.081-4.83,9.69-22.523,9.69-22.523h0.819v26.072c0,1.016,0.456,1.415,2.098,1.514v0.759H-251.409z"/>
				</g>
				<g id="g256" transform="translate(301.5308,418.6958)">
					<path id="path258" inkscape:connector-curvature="0" fill="#AED3DC" d="M-160.657,358.205l-0.061,0.007
						c0,0-0.301-0.636-1.255-0.636h-10.508c-0.955,0-1.256,0.636-1.256,0.636l-0.06-0.007l-0.733-6.779h0.791
						c1.184,4.073,2.027,4.802,3.279,4.802h1.709V331.94c0-1.019-0.462-1.423-2.097-1.515v-0.759h7.242v0.759
						c-1.634,0.091-2.097,0.496-2.097,1.515v24.287h1.709c1.252,0,2.095-0.728,3.278-4.802h0.791L-160.657,358.205z"/>
				</g>
				<g id="g260" transform="translate(301.5308,418.6958)">
					<path id="path262" inkscape:connector-curvature="0" fill="none" stroke="#AED3DC" stroke-width="0.5" d="M-160.657,358.205
						l-0.061,0.007c0,0-0.301-0.636-1.255-0.636h-10.508c-0.955,0-1.256,0.636-1.256,0.636l-0.06-0.007l-0.733-6.779h0.791
						c1.184,4.073,2.027,4.802,3.279,4.802h1.709V331.94c0-1.019-0.462-1.423-2.097-1.515v-0.759h7.242v0.759
						c-1.634,0.091-2.097,0.496-2.097,1.515v24.287h1.709c1.252,0,2.095-0.728,3.278-4.802h0.791L-160.657,358.205z"/>
				</g>
				<g id="g264" transform="translate(566.5352,373.9434)">
					<path id="path266" inkscape:connector-curvature="0" fill="#AED3DC" d="M-293.159,380.57c-1.202-4.078-2.028-4.802-3.279-4.802
						h-2.825c-0.668,0-0.851,0.2-0.851,0.924v23.515c0,0.841,0.45,1.265,2.685,1.35v0.773h-7.833v-0.759
						c1.695-0.128,2.096-0.497,2.096-1.514v-23.364c0-1.018-0.461-1.43-2.096-1.514v-0.759h10.844c0.955,0,1.271-0.645,1.271-0.645
						l0.068,0.011l0.711,6.786H-293.159z"/>
				</g>
				<g id="g268" transform="translate(566.5352,373.9434)">
					<path id="path270" inkscape:connector-curvature="0" fill="none" stroke="#AED3DC" stroke-width="0.5" d="M-293.159,380.57
						c-1.202-4.078-2.028-4.802-3.279-4.802h-2.825c-0.668,0-0.851,0.2-0.851,0.924v23.515c0,0.841,0.45,1.265,2.685,1.35v0.773
						h-7.833v-0.759c1.695-0.128,2.096-0.497,2.096-1.514v-23.364c0-1.018-0.461-1.43-2.096-1.514v-0.759h10.844
						c0.955,0,1.271-0.645,1.271-0.645l0.068,0.011l0.711,6.786H-293.159z"/>
				</g>
			</g>
		</g>
	</g>
</g>
</svg>
