<?xml version="1.0" encoding="UTF-8" standalone="no"?>
<!-- Created with Inkscape (http://www.inkscape.org/) -->

<svg
   xmlns:dc="http://purl.org/dc/elements/1.1/"
   xmlns:cc="http://creativecommons.org/ns#"
   xmlns:rdf="http://www.w3.org/1999/02/22-rdf-syntax-ns#"
   xmlns:svg="http://www.w3.org/2000/svg"
   xmlns="http://www.w3.org/2000/svg"
   xmlns:inkscape="http://www.inkscape.org/namespaces/inkscape"
   version="1.1"
   width="765"
   height="990"
   id="svg2"
   xml:space="preserve"><metadata
     id="metadata8"><rdf:RDF><cc:Work
         rdf:about=""><dc:format>image/svg+xml</dc:format><dc:type
           rdf:resource="http://purl.org/dc/dcmitype/StillImage" /></cc:Work></rdf:RDF></metadata><defs
     id="defs6"><clipPath
       id="clipPath16"><path
         d="M 0,792 612,792 612,0 0,0 0,792 z"
         inkscape:connector-curvature="0"
         id="path18" /></clipPath><clipPath
       id="clipPath148"><path
         d="M 0,792 612,792 612,0 0,0 0,792 z"
         inkscape:connector-curvature="0"
         id="path150" /></clipPath></defs><g
     transform="matrix(1.25,0,0,-1.25,0,990)"
     id="g10"><g
       id="g12"><g
         clip-path="url(#clipPath16)"
         id="g14"><g
           transform="translate(162.5767,412.1089)"
           id="g20"><path
             d="m 0,0 c 0,1.993 0.854,2.634 3.518,2.634 4.999,0 6.436,-6.259 6.855,-11.168 C 11.258,-18.927 7.17,-23.023 1.985,-23.023 L 0,-23.023 0,0 z m -10.296,5.331 0,-1.517 c 3.39,-0.256 4.193,-0.994 4.193,-3.026 l 0,-46.705 c 0,-2.036 -0.772,-2.772 -4.193,-3.028 l 0,-1.517 14.489,0 0,1.517 C 0.791,-48.689 0,-47.953 0,-45.917 l 0,20.197 4.147,0 c 6.169,0 12.808,4.9 12.808,15.514 0,10.623 -4.713,15.537 -13.625,15.537 l -13.626,0 z"
             inkscape:connector-curvature="0"
             id="path22"
             style="fill:#373535;fill-opacity:1;fill-rule:nonzero;stroke:none" /></g><g
           transform="translate(162.5767,412.1089)"
           id="g24"><path
             d="m 0,0 c 0,1.993 0.854,2.634 3.518,2.634 4.999,0 6.436,-6.259 6.855,-11.168 C 11.258,-18.927 7.17,-23.023 1.985,-23.023 L 0,-23.023 0,0 z m -10.296,5.331 0,-1.517 c 3.39,-0.256 4.193,-0.994 4.193,-3.026 l 0,-46.705 c 0,-2.036 -0.772,-2.772 -4.193,-3.028 l 0,-1.517 14.489,0 0,1.517 C 0.791,-48.689 0,-47.953 0,-45.917 l 0,20.197 4.147,0 c 6.169,0 12.808,4.9 12.808,15.514 0,10.623 -4.713,15.537 -13.625,15.537 l -13.626,0 z"
             inkscape:connector-curvature="0"
             id="path26"
             style="fill:none;stroke:#373535;stroke-width:0.5;stroke-linecap:butt;stroke-linejoin:miter;stroke-miterlimit:4;stroke-opacity:1;stroke-dasharray:none" /></g><g
           transform="translate(436.5986,417.4399)"
           id="g28"><path
             d="m 0,0 0,-1.517 c 3.358,-0.197 4.194,-0.994 4.194,-3.026 l 0,-37.258 c 0,-10.19 -5.582,-11.711 -8.907,-11.711 -5.711,0 -8.369,3.572 -8.369,11.238 l 0,37.731 c 0,2.032 0.805,2.753 4.19,3.026 l 0,1.517 -14.487,0 0,-1.517 c 3.374,-0.227 4.192,-0.994 4.192,-3.026 l 0,-37.731 c 0,-9.646 4.582,-14.338 14.004,-14.338 5.682,0 12.454,2.686 12.454,15.483 l 0,36.586 c 0,2.032 0.846,2.784 4.195,3.026 L 11.466,0 0,0 z"
             inkscape:connector-curvature="0"
             id="path30"
             style="fill:#373535;fill-opacity:1;fill-rule:nonzero;stroke:none" /></g><g
           transform="translate(436.5986,417.4399)"
           id="g32"><path
             d="m 0,0 0,-1.517 c 3.358,-0.197 4.194,-0.994 4.194,-3.026 l 0,-37.258 c 0,-10.19 -5.582,-11.711 -8.907,-11.711 -5.711,0 -8.369,3.572 -8.369,11.238 l 0,37.731 c 0,2.032 0.805,2.753 4.19,3.026 l 0,1.517 -14.487,0 0,-1.517 c 3.374,-0.227 4.192,-0.994 4.192,-3.026 l 0,-37.731 c 0,-9.646 4.582,-14.338 14.004,-14.338 5.682,0 12.454,2.686 12.454,15.483 l 0,36.586 c 0,2.032 0.846,2.784 4.195,3.026 L 11.466,0 0,0 z"
             inkscape:connector-curvature="0"
             id="path34"
             style="fill:none;stroke:#373535;stroke-width:0.5;stroke-linecap:butt;stroke-linejoin:miter;stroke-miterlimit:4;stroke-opacity:1;stroke-dasharray:none" /></g><g
           transform="translate(483.8857,403.8926)"
           id="g36"><path
             d="m 0,0 c 0,-9.779 4.762,-12.91 11.966,-16.348 6.769,-3.228 9.658,-7.369 9.658,-13.849 0,-4.84 -2.468,-10.491 -9.423,-10.491 -5.792,0 -9.445,4.641 -11.036,14.631 l -1.405,0 0,-16.398 1.339,0 c 0.352,1.934 0.903,2.467 1.536,2.467 0.891,0 1.703,-0.733 2.243,-1.135 1.702,-1.272 4.164,-1.99 7.27,-1.99 8.712,0 13.915,6.07 13.915,16.24 0,8.291 -4.076,13.844 -12.193,17.572 -7.394,3.395 -9.222,6.307 -9.222,12.043 0,6.297 3.75,9.247 8.559,9.247 3.76,0 8.283,-2.54 9.134,-12.927 l 1.412,0 0,14.8 -1.339,0 c -0.479,-1.552 -0.889,-1.903 -1.536,-1.903 -0.203,0 -0.713,0.272 -1.173,0.588 -1.166,0.804 -3.318,2.018 -6.323,2.018 C 5.627,14.565 0,8.224 0,0"
             inkscape:connector-curvature="0"
             id="path38"
             style="fill:#373535;fill-opacity:1;fill-rule:nonzero;stroke:none" /></g><g
           transform="translate(483.8857,403.8926)"
           id="g40"><path
             d="m 0,0 c 0,-9.779 4.762,-12.91 11.966,-16.348 6.769,-3.228 9.658,-7.369 9.658,-13.849 0,-4.84 -2.468,-10.491 -9.423,-10.491 -5.792,0 -9.445,4.641 -11.036,14.631 l -1.405,0 0,-16.398 1.339,0 c 0.352,1.934 0.903,2.467 1.536,2.467 0.891,0 1.703,-0.733 2.243,-1.135 1.702,-1.272 4.164,-1.99 7.27,-1.99 8.712,0 13.915,6.07 13.915,16.24 0,8.291 -4.076,13.844 -12.193,17.572 -7.394,3.395 -9.222,6.307 -9.222,12.043 0,6.297 3.75,9.247 8.559,9.247 3.76,0 8.283,-2.54 9.134,-12.927 l 1.412,0 0,14.8 -1.339,0 c -0.479,-1.552 -0.889,-1.903 -1.536,-1.903 -0.203,0 -0.713,0.272 -1.173,0.588 -1.166,0.804 -3.318,2.018 -6.323,2.018 C 5.627,14.565 0,8.224 0,0 z"
             inkscape:connector-curvature="0"
             id="path42"
             style="fill:none;stroke:#373535;stroke-width:0.5;stroke-linecap:butt;stroke-linejoin:miter;stroke-miterlimit:4;stroke-opacity:1;stroke-dasharray:none" /></g><g
           transform="translate(131.3887,412.1089)"
           id="g44"><path
             d="m 0,0 c 0,1.993 1.442,2.634 4.106,2.634 4.366,0 6.287,-5.245 6.701,-10.155 0.671,-7.968 -1.892,-13.945 -8.822,-13.945 L 0,-21.466 0,0 z m -10.296,5.331 0,-1.517 C -6.883,3.558 -6.103,2.82 -6.103,0.788 l 0,-46.705 c 0,-2.036 -0.811,-2.772 -4.193,-3.028 l 0,-1.517 14.489,0 0,1.517 C 0.753,-48.689 0,-47.953 0,-45.917 l 0,22.058 1.994,0 c 3.446,-8.414 6.438,-16.101 8.053,-20.252 l 1.226,-3.127 c 0.973,-2.363 2.501,-3.369 5.01,-3.369 2.667,0 4.403,0.145 4.403,0.145 l 0,1.517 c -1.836,0 -2.28,0.623 -2.947,2.043 l -1.695,4.287 c 0,0 -7.398,18.586 -7.739,19.442 5.492,1.793 9.112,6.82 9.112,13.93 0,9.535 -4.586,14.574 -13.499,14.574 l -14.214,0 z"
             inkscape:connector-curvature="0"
             id="path46"
             style="fill:#373535;fill-opacity:1;fill-rule:nonzero;stroke:none" /></g><g
           transform="translate(131.3887,412.1089)"
           id="g48"><path
             d="m 0,0 c 0,1.993 1.442,2.634 4.106,2.634 4.366,0 6.287,-5.245 6.701,-10.155 0.671,-7.968 -1.892,-13.945 -8.822,-13.945 L 0,-21.466 0,0 z m -10.296,5.331 0,-1.517 C -6.883,3.558 -6.103,2.82 -6.103,0.788 l 0,-46.705 c 0,-2.036 -0.811,-2.772 -4.193,-3.028 l 0,-1.517 14.489,0 0,1.517 C 0.753,-48.689 0,-47.953 0,-45.917 l 0,22.058 1.994,0 c 3.446,-8.414 6.438,-16.101 8.053,-20.252 l 1.226,-3.127 c 0.973,-2.363 2.501,-3.369 5.01,-3.369 2.667,0 4.403,0.145 4.403,0.145 l 0,1.517 c -1.836,0 -2.28,0.623 -2.947,2.043 l -1.695,4.287 c 0,0 -7.398,18.586 -7.739,19.442 5.492,1.793 9.112,6.82 9.112,13.93 0,9.535 -4.586,14.574 -13.499,14.574 l -14.214,0 z"
             inkscape:connector-curvature="0"
             id="path50"
             style="fill:none;stroke:#373535;stroke-width:0.5;stroke-linecap:butt;stroke-linejoin:miter;stroke-miterlimit:4;stroke-opacity:1;stroke-dasharray:none" /></g><g
           transform="translate(93.8477,389.1621)"
           id="g52"><path
             d="M 0,0 C -1.222,23.108 4.719,26.581 8.748,26.707 14.793,26.896 18.908,20.821 19.567,0.9 20.309,-21.504 16.075,-25.92 10.814,-25.961 6.02,-25.998 1.222,-23.107 0,0 m -6.467,0.373 c 0,-19.894 6.659,-28.789 16.25,-28.789 10.466,0 16.248,9.686 16.248,28.789 0,19.104 -5.856,28.791 -15.977,28.791 -10.185,0 -16.521,-9.687 -16.521,-28.791"
             inkscape:connector-curvature="0"
             id="path54"
             style="fill:#373535;fill-opacity:1;fill-rule:nonzero;stroke:none" /></g><g
           transform="translate(93.8477,389.1621)"
           id="g56"><path
             d="M 0,0 C -1.222,23.108 4.719,26.581 8.748,26.707 14.793,26.896 18.908,20.821 19.567,0.9 20.309,-21.504 16.075,-25.92 10.814,-25.961 6.02,-25.998 1.222,-23.107 0,0 z m -6.467,0.373 c 0,-19.894 6.659,-28.789 16.25,-28.789 10.466,0 16.248,9.686 16.248,28.789 0,19.104 -5.856,28.791 -15.977,28.791 -10.185,0 -16.521,-9.687 -16.521,-28.791 z"
             inkscape:connector-curvature="0"
             id="path58"
             style="fill:none;stroke:#373535;stroke-width:0.5;stroke-linecap:butt;stroke-linejoin:miter;stroke-miterlimit:4;stroke-opacity:1;stroke-dasharray:none" /></g><g
           transform="translate(188.6709,389.1621)"
           id="g60"><path
             d="M 0,0 C -1.222,23.108 4.72,26.581 8.749,26.707 14.793,26.896 18.909,20.821 19.567,0.9 20.309,-21.504 16.076,-25.92 10.815,-25.961 6.02,-25.998 1.222,-23.107 0,0 m -6.466,0.373 c 0,-19.894 6.658,-28.789 16.249,-28.789 10.466,0 16.248,9.686 16.248,28.789 0,19.104 -5.856,28.791 -15.976,28.791 -10.185,0 -16.521,-9.687 -16.521,-28.791"
             inkscape:connector-curvature="0"
             id="path62"
             style="fill:#373535;fill-opacity:1;fill-rule:nonzero;stroke:none" /></g><g
           transform="translate(188.6709,389.1621)"
           id="g64"><path
             d="M 0,0 C -1.222,23.108 4.72,26.581 8.749,26.707 14.793,26.896 18.909,20.821 19.567,0.9 20.309,-21.504 16.076,-25.92 10.815,-25.961 6.02,-25.998 1.222,-23.107 0,0 z m -6.466,0.373 c 0,-19.894 6.658,-28.789 16.249,-28.789 10.466,0 16.248,9.686 16.248,28.789 0,19.104 -5.856,28.791 -15.976,28.791 -10.185,0 -16.521,-9.687 -16.521,-28.791 z"
             inkscape:connector-curvature="0"
             id="path66"
             style="fill:none;stroke:#373535;stroke-width:0.5;stroke-linecap:butt;stroke-linejoin:miter;stroke-miterlimit:4;stroke-opacity:1;stroke-dasharray:none" /></g><g
           transform="translate(386.5391,389.1621)"
           id="g68"><path
             d="M 0,0 C -1.223,23.108 4.72,26.581 8.749,26.707 14.793,26.896 18.908,20.821 19.567,0.9 20.308,-21.504 16.074,-25.92 10.815,-25.961 6.021,-25.998 1.223,-23.107 0,0 m -6.467,0.373 c 0,-19.894 6.658,-28.789 16.25,-28.789 10.467,0 16.249,9.686 16.249,28.789 0,19.104 -5.857,28.791 -15.978,28.791 -10.185,0 -16.521,-9.687 -16.521,-28.791"
             inkscape:connector-curvature="0"
             id="path70"
             style="fill:#373535;fill-opacity:1;fill-rule:nonzero;stroke:none" /></g><g
           transform="translate(386.5391,389.1621)"
           id="g72"><path
             d="M 0,0 C -1.223,23.108 4.72,26.581 8.749,26.707 14.793,26.896 18.908,20.821 19.567,0.9 20.308,-21.504 16.074,-25.92 10.815,-25.961 6.021,-25.998 1.223,-23.107 0,0 z m -6.467,0.373 c 0,-19.894 6.658,-28.789 16.25,-28.789 10.467,0 16.249,9.686 16.249,28.789 0,19.104 -5.857,28.791 -15.978,28.791 -10.185,0 -16.521,-9.687 -16.521,-28.791 z"
             inkscape:connector-curvature="0"
             id="path74"
             style="fill:none;stroke:#373535;stroke-width:0.5;stroke-linecap:butt;stroke-linejoin:miter;stroke-miterlimit:4;stroke-opacity:1;stroke-dasharray:none" /></g><g
           transform="translate(46.4473,395.9844)"
           id="g76"><path
             d="m 0,0 c 0,-23.383 6.96,-35.238 20.556,-35.238 11.106,0 16.137,9.215 16.681,23.527 l -4.431,0 C 32.051,-29.422 25.924,-32.402 21.154,-32.588 16.09,-32.789 8.47,-29.355 7.336,-0.463 c -0.809,20.642 4.352,32.615 13.162,33.06 5.95,0 11.04,-1.743 13.678,-16.548 l 1.488,0 0,18.106 -1.308,0 c -0.919,-1.116 -1.632,-1.357 -2.598,-1.357 -0.855,0 -1.904,0.343 -2.885,0.777 -1.592,0.7 -3.772,1.664 -7.643,1.664 C 13.302,35.239 0,29.339 0,0"
             inkscape:connector-curvature="0"
             id="path78"
             style="fill:#373535;fill-opacity:1;fill-rule:nonzero;stroke:none" /></g><g
           transform="translate(46.4473,395.9844)"
           id="g80"><path
             d="m 0,0 c 0,-23.383 6.96,-35.238 20.556,-35.238 11.106,0 16.137,9.215 16.681,23.527 l -4.431,0 C 32.051,-29.422 25.924,-32.402 21.154,-32.588 16.09,-32.789 8.47,-29.355 7.336,-0.463 c -0.809,20.642 4.352,32.615 13.162,33.06 5.95,0 11.04,-1.743 13.678,-16.548 l 1.488,0 0,18.106 -1.308,0 c -0.919,-1.116 -1.632,-1.357 -2.598,-1.357 -0.855,0 -1.904,0.343 -2.885,0.777 -1.592,0.7 -3.772,1.664 -7.643,1.664 C 13.302,35.239 0,29.339 0,0 z"
             inkscape:connector-curvature="0"
             id="path82"
             style="fill:none;stroke:#373535;stroke-width:0.5;stroke-linecap:butt;stroke-linejoin:miter;stroke-miterlimit:4;stroke-opacity:1;stroke-dasharray:none" /></g><g
           transform="translate(340.4385,395.9844)"
           id="g84"><path
             d="m 0,0 c 0,-23.383 6.959,-35.238 20.556,-35.238 11.105,0 16.137,9.215 16.681,23.527 l -4.431,0 C 32.052,-29.422 25.925,-32.402 21.153,-32.588 16.09,-32.789 8.469,-29.355 7.337,-0.463 c -0.809,20.642 4.351,32.615 13.161,33.06 5.951,0 11.039,-1.743 13.679,-16.548 l 1.485,0 0,18.106 -1.306,0 c -0.918,-1.116 -1.632,-1.357 -2.598,-1.357 -0.856,0 -1.904,0.343 -2.885,0.777 -1.593,0.7 -3.773,1.664 -7.643,1.664 C 13.302,35.239 0,29.339 0,0"
             inkscape:connector-curvature="0"
             id="path86"
             style="fill:#373535;fill-opacity:1;fill-rule:nonzero;stroke:none" /></g><g
           transform="translate(340.4385,395.9844)"
           id="g88"><path
             d="m 0,0 c 0,-23.383 6.959,-35.238 20.556,-35.238 11.105,0 16.137,9.215 16.681,23.527 l -4.431,0 C 32.052,-29.422 25.925,-32.402 21.153,-32.588 16.09,-32.789 8.469,-29.355 7.337,-0.463 c -0.809,20.642 4.351,32.615 13.161,33.06 5.951,0 11.039,-1.743 13.679,-16.548 l 1.485,0 0,18.106 -1.306,0 c -0.918,-1.116 -1.632,-1.357 -2.598,-1.357 -0.856,0 -1.904,0.343 -2.885,0.777 -1.593,0.7 -3.773,1.664 -7.643,1.664 C 13.302,35.239 0,29.339 0,0 z"
             inkscape:connector-curvature="0"
             id="path90"
             style="fill:none;stroke:#373535;stroke-width:0.5;stroke-linecap:butt;stroke-linejoin:miter;stroke-miterlimit:4;stroke-opacity:1;stroke-dasharray:none" /></g><g
           transform="translate(254.667,384.543)"
           id="g92"><path
             d="m 0,0 c 1.371,5.76 2.824,11.962 3.967,17.107 0.193,0.918 0.33,1.782 0.406,2.63 C 4.448,18.918 4.554,17.995 4.777,17.161 5.95,12.493 7.493,6.1 8.948,0 L 0,0 z m -26.781,6.1 -1.985,0 0,21.466 c 0,1.993 1.442,2.634 4.106,2.634 4.366,0 6.314,-5.242 6.702,-10.155 C -17.188,10.289 -21.067,6.1 -26.781,6.1 m 50.739,-27.479 c -3.17,0.242 -3.702,1.217 -4.208,3.147 L 15.822,-3.268 C 12.407,10.5 6.569,33.783 6.569,33.783 l -1.513,0 c 0,0 -12.612,-50.217 -13.058,-52.035 -0.456,-1.859 -0.926,-3.098 -1.48,-3.098 -0.554,0 -1.03,0.829 -1.429,1.719 l -1.81,4.582 c 0,0 -7.399,18.586 -7.74,19.442 5.493,1.793 9.111,6.82 9.111,13.93 0,9.535 -4.585,14.574 -13.498,14.574 l -14.214,0 0,-1.517 c 3.452,-0.256 4.194,-0.994 4.194,-3.026 l 0,-46.706 c 0,-2.035 -0.821,-2.771 -4.194,-3.027 l 0,-1.517 14.489,0 0,1.517 c -3.404,0.256 -4.193,0.992 -4.193,3.027 l 0,22.059 1.995,0 c 3.445,-8.414 6.437,-16.102 8.052,-20.252 l 1.226,-3.127 c 0.972,-2.363 2.678,-3.224 5.188,-3.224 l 11.181,0 0,1.517 c -1.909,0.131 -2.746,0.358 -3.137,0.984 -0.279,0.448 -0.34,1.217 -0.139,2.055 0.2,0.838 2.882,11.986 3.756,15.645 l 10.235,0 c 0.875,-3.68 3.352,-14.157 3.629,-15.291 0.199,-0.817 0.272,-1.735 -0.113,-2.213 -0.589,-0.731 -1.589,-1.026 -3.981,-1.18 l 0,-1.517 14.832,0 0,1.517 z"
             inkscape:connector-curvature="0"
             id="path94"
             style="fill:#373535;fill-opacity:1;fill-rule:nonzero;stroke:none" /></g><g
           transform="translate(254.667,384.543)"
           id="g96"><path
             d="m 0,0 c 1.371,5.76 2.824,11.962 3.967,17.107 0.193,0.918 0.33,1.782 0.406,2.63 C 4.448,18.918 4.554,17.995 4.777,17.161 5.95,12.493 7.493,6.1 8.948,0 L 0,0 z m -26.781,6.1 -1.985,0 0,21.466 c 0,1.993 1.442,2.634 4.106,2.634 4.366,0 6.314,-5.242 6.702,-10.155 C -17.188,10.289 -21.067,6.1 -26.781,6.1 z m 50.739,-27.479 c -3.17,0.242 -3.702,1.217 -4.208,3.147 L 15.822,-3.268 C 12.407,10.5 6.569,33.783 6.569,33.783 l -1.513,0 c 0,0 -12.612,-50.217 -13.058,-52.035 -0.456,-1.859 -0.926,-3.098 -1.48,-3.098 -0.554,0 -1.03,0.829 -1.429,1.719 l -1.81,4.582 c 0,0 -7.399,18.586 -7.74,19.442 5.493,1.793 9.111,6.82 9.111,13.93 0,9.535 -4.585,14.574 -13.498,14.574 l -14.214,0 0,-1.517 c 3.452,-0.256 4.194,-0.994 4.194,-3.026 l 0,-46.706 c 0,-2.035 -0.821,-2.771 -4.194,-3.027 l 0,-1.517 14.489,0 0,1.517 c -3.404,0.256 -4.193,0.992 -4.193,3.027 l 0,22.059 1.995,0 c 3.445,-8.414 6.437,-16.102 8.052,-20.252 l 1.226,-3.127 c 0.972,-2.363 2.678,-3.224 5.188,-3.224 l 11.181,0 0,1.517 c -1.909,0.131 -2.746,0.358 -3.137,0.984 -0.279,0.448 -0.34,1.217 -0.139,2.055 0.2,0.838 2.882,11.986 3.756,15.645 l 10.235,0 c 0.875,-3.68 3.352,-14.157 3.629,-15.291 0.199,-0.817 0.272,-1.735 -0.113,-2.213 -0.589,-0.731 -1.589,-1.026 -3.981,-1.18 l 0,-1.517 14.832,0 0,1.517 z"
             inkscape:connector-curvature="0"
             id="path98"
             style="fill:none;stroke:#373535;stroke-width:0.5;stroke-linecap:butt;stroke-linejoin:miter;stroke-miterlimit:4;stroke-opacity:1;stroke-dasharray:none" /></g><g
           transform="translate(328.375,373.9434)"
           id="g100"><path
             d="m 0,0 c -2.404,-8.152 -4.055,-9.6 -6.557,-9.6 l -7.24,0 c -1.334,0 -1.701,0.399 -1.701,1.848 l 0,22.711 6.555,0 c 2.933,0 4.283,-3.379 4.488,-6.648 l 1.517,0 0,14.899 -1.517,0 c -0.311,-3.384 -1.219,-5.554 -4.488,-5.554 l -6.555,0 0,22.471 c 0,0.625 0.262,0.673 0.662,0.673 l 6.795,0 c 2.504,0 4.211,-1.644 6.559,-9.598 l 1.584,0 -1.426,13.536 -0.131,0.051 c 0,0 -0.633,-1.292 -2.543,-1.292 l -21.794,0 0,-1.517 c 3.464,-0.253 4.193,-0.994 4.193,-3.027 l 0,-46.705 c 0,-2.035 -0.811,-2.785 -4.193,-3.027 l 0,-1.518 23.276,0 c 1.911,0 2.541,-1.291 2.541,-1.291 L 0.16,-13.566 1.582,0 0,0 z"
             inkscape:connector-curvature="0"
             id="path102"
             style="fill:#373535;fill-opacity:1;fill-rule:nonzero;stroke:none" /></g><g
           transform="translate(328.375,373.9434)"
           id="g104"><path
             d="m 0,0 c -2.404,-8.152 -4.055,-9.6 -6.557,-9.6 l -7.24,0 c -1.334,0 -1.701,0.399 -1.701,1.848 l 0,22.711 6.555,0 c 2.933,0 4.283,-3.379 4.488,-6.648 l 1.517,0 0,14.899 -1.517,0 c -0.311,-3.384 -1.219,-5.554 -4.488,-5.554 l -6.555,0 0,22.471 c 0,0.625 0.262,0.673 0.662,0.673 l 6.795,0 c 2.504,0 4.211,-1.644 6.559,-9.598 l 1.584,0 -1.426,13.536 -0.131,0.051 c 0,0 -0.633,-1.292 -2.543,-1.292 l -21.794,0 0,-1.517 c 3.464,-0.253 4.193,-0.994 4.193,-3.027 l 0,-46.705 c 0,-2.035 -0.811,-2.785 -4.193,-3.027 l 0,-1.518 23.276,0 c 1.911,0 2.541,-1.291 2.541,-1.291 L 0.16,-13.566 1.582,0 0,0 z"
             inkscape:connector-curvature="0"
             id="path106"
             style="fill:none;stroke:#373535;stroke-width:0.5;stroke-linecap:butt;stroke-linejoin:miter;stroke-miterlimit:4;stroke-opacity:1;stroke-dasharray:none" /></g><g
           transform="translate(537.2607,373.9434)"
           id="g108"><path
             d="m 0,0 c -2.405,-8.152 -4.056,-9.6 -6.558,-9.6 l -7.241,0 c -1.333,0 -1.698,0.399 -1.698,1.848 l 0,22.711 6.553,0 c 2.933,0 4.284,-3.379 4.488,-6.648 l 1.518,0 0,14.899 -1.518,0 c -0.312,-3.384 -1.22,-5.554 -4.488,-5.554 l -6.553,0 0,22.471 c 0,0.625 0.262,0.673 0.66,0.673 l 6.797,0 c 2.501,0 4.209,-1.644 6.557,-9.598 l 1.583,0 -1.424,13.536 -0.131,0.051 c 0,0 -0.633,-1.292 -2.544,-1.292 l -21.793,0 0,-1.517 c 3.463,-0.253 4.192,-0.994 4.192,-3.027 l 0,-46.705 c 0,-2.035 -0.81,-2.785 -4.192,-3.027 l 0,-1.518 23.276,0 c 1.91,0 2.542,-1.291 2.542,-1.291 L 0.161,-13.566 1.583,0 0,0 z"
             inkscape:connector-curvature="0"
             id="path110"
             style="fill:#373535;fill-opacity:1;fill-rule:nonzero;stroke:none" /></g><g
           transform="translate(537.2607,373.9434)"
           id="g112"><path
             d="m 0,0 c -2.405,-8.152 -4.056,-9.6 -6.558,-9.6 l -7.241,0 c -1.333,0 -1.698,0.399 -1.698,1.848 l 0,22.711 6.553,0 c 2.933,0 4.284,-3.379 4.488,-6.648 l 1.518,0 0,14.899 -1.518,0 c -0.312,-3.384 -1.22,-5.554 -4.488,-5.554 l -6.553,0 0,22.471 c 0,0.625 0.262,0.673 0.66,0.673 l 6.797,0 c 2.501,0 4.209,-1.644 6.557,-9.598 l 1.583,0 -1.424,13.536 -0.131,0.051 c 0,0 -0.633,-1.292 -2.544,-1.292 l -21.793,0 0,-1.517 c 3.463,-0.253 4.192,-0.994 4.192,-3.027 l 0,-46.705 c 0,-2.035 -0.81,-2.785 -4.192,-3.027 l 0,-1.518 23.276,0 c 1.91,0 2.542,-1.291 2.542,-1.291 L 0.161,-13.566 1.583,0 0,0 z"
             inkscape:connector-curvature="0"
             id="path114"
             style="fill:none;stroke:#373535;stroke-width:0.5;stroke-linecap:butt;stroke-linejoin:miter;stroke-miterlimit:4;stroke-opacity:1;stroke-dasharray:none" /></g><g
           transform="translate(482.0342,417.4399)"
           id="g116"><path
             d="m 0,0 -10.992,0 0,-1.517 c 3.335,-0.212 4.193,-0.994 4.193,-3.026 l 0,-29.641 0.112,-3.531 -1.257,3.215 -15.185,34.5 -9.831,0 0,-1.517 c 3.424,-0.288 4.192,-0.994 4.192,-3.026 l 0,-46.706 c 0,-2.035 -0.859,-2.814 -4.192,-3.027 l 0,-1.517 11.464,0 0,1.517 c -3.313,0.229 -4.193,0.992 -4.193,3.027 l 0,39.292 c 0,1.195 -0.059,2.379 -0.135,3.092 0.213,-0.652 0.612,-1.675 1.085,-2.772 4.162,-9.656 19.38,-45.024 19.38,-45.024 l 1.637,0 0,52.118 c 0,2.032 0.913,2.829 4.195,3.026 L 0.473,0 0,0 z"
             inkscape:connector-curvature="0"
             id="path118"
             style="fill:#373535;fill-opacity:1;fill-rule:nonzero;stroke:none" /></g><g
           transform="translate(482.0342,417.4399)"
           id="g120"><path
             d="m 0,0 -10.992,0 0,-1.517 c 3.335,-0.212 4.193,-0.994 4.193,-3.026 l 0,-29.641 0.112,-3.531 -1.257,3.215 -15.185,34.5 -9.831,0 0,-1.517 c 3.424,-0.288 4.192,-0.994 4.192,-3.026 l 0,-46.706 c 0,-2.035 -0.859,-2.814 -4.192,-3.027 l 0,-1.517 11.464,0 0,1.517 c -3.313,0.229 -4.193,0.992 -4.193,3.027 l 0,39.292 c 0,1.195 -0.059,2.379 -0.135,3.092 0.213,-0.652 0.612,-1.675 1.085,-2.772 4.162,-9.656 19.38,-45.024 19.38,-45.024 l 1.637,0 0,52.118 c 0,2.032 0.913,2.829 4.195,3.026 L 0.473,0 0,0 z"
             inkscape:connector-curvature="0"
             id="path122"
             style="fill:none;stroke:#373535;stroke-width:0.5;stroke-linecap:butt;stroke-linejoin:miter;stroke-miterlimit:4;stroke-opacity:1;stroke-dasharray:none" /></g><g
           transform="translate(300.5308,418.6958)"
           id="g124"><path
             d="m 0,0 -0.122,0.015 c 0,0 -0.601,-1.271 -2.511,-1.271 l -21.015,0 c -1.911,0 -2.512,1.271 -2.512,1.271 L -26.281,0 l -1.465,-13.551 1.583,0 c 2.367,8.142 4.054,9.598 6.557,9.598 l 3.417,0 0,-48.551 c 0,-2.036 -0.925,-2.846 -4.194,-3.028 l 0,-1.517 14.485,0 0,1.517 c -3.269,0.182 -4.194,0.992 -4.194,3.028 l 0,48.551 3.417,0 c 2.503,0 4.19,-1.456 6.557,-9.598 l 1.583,0 L 0,0 z"
             inkscape:connector-curvature="0"
             id="path126"
             style="fill:#373535;fill-opacity:1;fill-rule:nonzero;stroke:none" /></g><g
           transform="translate(300.5308,418.6958)"
           id="g128"><path
             d="m 0,0 -0.122,0.015 c 0,0 -0.601,-1.271 -2.511,-1.271 l -21.015,0 c -1.911,0 -2.512,1.271 -2.512,1.271 L -26.281,0 l -1.465,-13.551 1.583,0 c 2.367,8.142 4.054,9.598 6.557,9.598 l 3.417,0 0,-48.551 c 0,-2.036 -0.925,-2.846 -4.194,-3.028 l 0,-1.517 14.485,0 0,1.517 c -3.269,0.182 -4.194,0.992 -4.194,3.028 l 0,48.551 3.417,0 c 2.503,0 4.19,-1.456 6.557,-9.598 l 1.583,0 L 0,0 z"
             inkscape:connector-curvature="0"
             id="path130"
             style="fill:none;stroke:#373535;stroke-width:0.5;stroke-linecap:butt;stroke-linejoin:miter;stroke-miterlimit:4;stroke-opacity:1;stroke-dasharray:none" /></g><g
           transform="translate(565.5352,373.9434)"
           id="g132"><path
             d="m 0,0 c -2.404,-8.152 -4.056,-9.6 -6.557,-9.6 l -5.65,0 c -1.336,0 -1.701,0.399 -1.701,1.848 l 0,47.006 c 0,1.682 0.899,2.529 5.369,2.699 l 0,1.544 -15.665,0 0,-1.517 c 3.391,-0.257 4.193,-0.994 4.193,-3.027 l 0,-46.705 c 0,-2.035 -0.922,-2.859 -4.193,-3.027 l 0,-1.518 21.688,0 c 1.911,0 2.542,-1.291 2.542,-1.291 L 0.161,-13.566 1.583,0 0,0 z"
             inkscape:connector-curvature="0"
             id="path134"
             style="fill:#373535;fill-opacity:1;fill-rule:nonzero;stroke:none" /></g><g
           transform="translate(565.5352,373.9434)"
           id="g136"><path
             d="m 0,0 c -2.404,-8.152 -4.056,-9.6 -6.557,-9.6 l -5.65,0 c -1.336,0 -1.701,0.399 -1.701,1.848 l 0,47.006 c 0,1.682 0.899,2.529 5.369,2.699 l 0,1.544 -15.665,0 0,-1.517 c 3.391,-0.257 4.193,-0.994 4.193,-3.027 l 0,-46.705 c 0,-2.035 -0.922,-2.859 -4.193,-3.027 l 0,-1.518 21.688,0 c 1.911,0 2.542,-1.291 2.542,-1.291 L 0.161,-13.566 1.583,0 0,0 z"
             inkscape:connector-curvature="0"
             id="path138"
             style="fill:none;stroke:#373535;stroke-width:0.5;stroke-linecap:butt;stroke-linejoin:miter;stroke-miterlimit:4;stroke-opacity:1;stroke-dasharray:none" /></g></g></g><text
       transform="matrix(1,0,0,-1,52,327.4805)"
       id="text140"><tspan
         x="0 5.4959998 12.084 18.792 25.379999 27.924 34.584 40.368 45.119999 47.664001 53.448002 55.992001 58.476002 64.632004 67.176003 71.928001 75.900002 79.704002 86.292 91.919998"
         y="0"
         id="tspan142"
         style="font-size:12px;font-variant:normal;font-weight:normal;font-stretch:normal;writing-mode:lr-tb;fill:#373535;fill-opacity:1;fill-rule:nonzero;stroke:none;font-family:Myriad Pro;-inkscape-font-specification:MyriadPro-Regular">Logo has a .5 stroke</tspan></text>
<g
       id="g144"><g
         clip-path="url(#clipPath148)"
         id="g146"><g
           transform="translate(163.5767,412.1089)"
           id="g152"><path
             d="m 0,0 c 0,1.993 0.854,2.634 3.518,2.634 4.999,0 6.436,-6.259 6.855,-11.168 C 11.258,-18.927 7.17,-23.023 1.985,-23.023 L 0,-23.023 0,0 z m -10.296,5.331 0,-1.517 c 3.39,-0.256 4.193,-0.994 4.193,-3.026 l 0,-46.705 c 0,-2.036 -0.772,-2.772 -4.193,-3.028 l 0,-1.517 14.489,0 0,1.517 C 0.791,-48.689 0,-47.953 0,-45.917 l 0,20.197 4.147,0 c 6.169,0 12.808,4.9 12.808,15.514 0,10.623 -4.713,15.537 -13.625,15.537 l -13.626,0 z"
             inkscape:connector-curvature="0"
             id="path154"
             style="fill:#aed3dc;fill-opacity:1;fill-rule:nonzero;stroke:none" /></g><g
           transform="translate(163.5767,412.1089)"
           id="g156"><path
             d="m 0,0 c 0,1.993 0.854,2.634 3.518,2.634 4.999,0 6.436,-6.259 6.855,-11.168 C 11.258,-18.927 7.17,-23.023 1.985,-23.023 L 0,-23.023 0,0 z m -10.296,5.331 0,-1.517 c 3.39,-0.256 4.193,-0.994 4.193,-3.026 l 0,-46.705 c 0,-2.036 -0.772,-2.772 -4.193,-3.028 l 0,-1.517 14.489,0 0,1.517 C 0.791,-48.689 0,-47.953 0,-45.917 l 0,20.197 4.147,0 c 6.169,0 12.808,4.9 12.808,15.514 0,10.623 -4.713,15.537 -13.625,15.537 l -13.626,0 z"
             inkscape:connector-curvature="0"
             id="path158"
             style="fill:none;stroke:#aed3dc;stroke-width:0.5;stroke-linecap:butt;stroke-linejoin:miter;stroke-miterlimit:4;stroke-opacity:1;stroke-dasharray:none" /></g><g
           transform="translate(437.5986,417.4399)"
           id="g160"><path
             d="m 0,0 0,-1.517 c 3.358,-0.197 4.194,-0.994 4.194,-3.026 l 0,-37.258 c 0,-10.19 -5.582,-11.711 -8.907,-11.711 -5.711,0 -8.369,3.572 -8.369,11.238 l 0,37.731 c 0,2.032 0.805,2.753 4.19,3.026 l 0,1.517 -14.487,0 0,-1.517 c 3.374,-0.227 4.192,-0.994 4.192,-3.026 l 0,-37.731 c 0,-9.646 4.582,-14.338 14.004,-14.338 5.682,0 12.454,2.686 12.454,15.483 l 0,36.586 c 0,2.032 0.846,2.784 4.195,3.026 L 11.466,0 0,0 z"
             inkscape:connector-curvature="0"
             id="path162"
             style="fill:#aed3dc;fill-opacity:1;fill-rule:nonzero;stroke:none" /></g><g
           transform="translate(437.5986,417.4399)"
           id="g164"><path
             d="m 0,0 0,-1.517 c 3.358,-0.197 4.194,-0.994 4.194,-3.026 l 0,-37.258 c 0,-10.19 -5.582,-11.711 -8.907,-11.711 -5.711,0 -8.369,3.572 -8.369,11.238 l 0,37.731 c 0,2.032 0.805,2.753 4.19,3.026 l 0,1.517 -14.487,0 0,-1.517 c 3.374,-0.227 4.192,-0.994 4.192,-3.026 l 0,-37.731 c 0,-9.646 4.582,-14.338 14.004,-14.338 5.682,0 12.454,2.686 12.454,15.483 l 0,36.586 c 0,2.032 0.846,2.784 4.195,3.026 L 11.466,0 0,0 z"
             inkscape:connector-curvature="0"
             id="path166"
             style="fill:none;stroke:#aed3dc;stroke-width:0.5;stroke-linecap:butt;stroke-linejoin:miter;stroke-miterlimit:4;stroke-opacity:1;stroke-dasharray:none" /></g><g
           transform="translate(484.8857,403.8926)"
           id="g168"><path
             d="m 0,0 c 0,-9.779 4.762,-12.91 11.966,-16.348 6.769,-3.228 9.658,-7.369 9.658,-13.849 0,-4.84 -2.468,-10.491 -9.423,-10.491 -5.792,0 -9.445,4.641 -11.036,14.631 l -1.405,0 0,-16.398 1.339,0 c 0.352,1.934 0.903,2.467 1.536,2.467 0.891,0 1.703,-0.733 2.243,-1.135 1.702,-1.272 4.164,-1.99 7.27,-1.99 8.712,0 13.915,6.07 13.915,16.24 0,8.291 -4.076,13.844 -12.193,17.572 -7.394,3.395 -9.222,6.307 -9.222,12.043 0,6.297 3.75,9.247 8.559,9.247 3.76,0 8.283,-2.54 9.134,-12.927 l 1.412,0 0,14.8 -1.339,0 c -0.479,-1.552 -0.889,-1.903 -1.536,-1.903 -0.203,0 -0.713,0.272 -1.173,0.588 -1.166,0.804 -3.318,2.018 -6.323,2.018 C 5.627,14.565 0,8.224 0,0"
             inkscape:connector-curvature="0"
             id="path170"
             style="fill:#aed3dc;fill-opacity:1;fill-rule:nonzero;stroke:none" /></g><g
           transform="translate(484.8857,403.8926)"
           id="g172"><path
             d="m 0,0 c 0,-9.779 4.762,-12.91 11.966,-16.348 6.769,-3.228 9.658,-7.369 9.658,-13.849 0,-4.84 -2.468,-10.491 -9.423,-10.491 -5.792,0 -9.445,4.641 -11.036,14.631 l -1.405,0 0,-16.398 1.339,0 c 0.352,1.934 0.903,2.467 1.536,2.467 0.891,0 1.703,-0.733 2.243,-1.135 1.702,-1.272 4.164,-1.99 7.27,-1.99 8.712,0 13.915,6.07 13.915,16.24 0,8.291 -4.076,13.844 -12.193,17.572 -7.394,3.395 -9.222,6.307 -9.222,12.043 0,6.297 3.75,9.247 8.559,9.247 3.76,0 8.283,-2.54 9.134,-12.927 l 1.412,0 0,14.8 -1.339,0 c -0.479,-1.552 -0.889,-1.903 -1.536,-1.903 -0.203,0 -0.713,0.272 -1.173,0.588 -1.166,0.804 -3.318,2.018 -6.323,2.018 C 5.627,14.565 0,8.224 0,0 z"
             inkscape:connector-curvature="0"
             id="path174"
             style="fill:none;stroke:#aed3dc;stroke-width:0.5;stroke-linecap:butt;stroke-linejoin:miter;stroke-miterlimit:4;stroke-opacity:1;stroke-dasharray:none" /></g><g
           transform="translate(132.3887,412.1089)"
           id="g176"><path
             d="m 0,0 c 0,1.993 1.442,2.634 4.106,2.634 4.366,0 6.287,-5.245 6.701,-10.155 0.671,-7.968 -1.892,-13.945 -8.822,-13.945 L 0,-21.466 0,0 z m -10.296,5.331 0,-1.517 C -6.883,3.558 -6.103,2.82 -6.103,0.788 l 0,-46.705 c 0,-2.036 -0.811,-2.772 -4.193,-3.028 l 0,-1.517 14.489,0 0,1.517 C 0.753,-48.689 0,-47.953 0,-45.917 l 0,22.058 1.994,0 c 3.446,-8.414 6.438,-16.101 8.053,-20.252 l 1.226,-3.127 c 0.973,-2.363 2.501,-3.369 5.01,-3.369 2.667,0 4.403,0.145 4.403,0.145 l 0,1.517 c -1.836,0 -2.28,0.623 -2.947,2.043 l -1.695,4.287 c 0,0 -7.398,18.586 -7.739,19.442 5.492,1.793 9.112,6.82 9.112,13.93 0,9.535 -4.586,14.574 -13.499,14.574 l -14.214,0 z"
             inkscape:connector-curvature="0"
             id="path178"
             style="fill:#aed3dc;fill-opacity:1;fill-rule:nonzero;stroke:none" /></g><g
           transform="translate(132.3887,412.1089)"
           id="g180"><path
             d="m 0,0 c 0,1.993 1.442,2.634 4.106,2.634 4.366,0 6.287,-5.245 6.701,-10.155 0.671,-7.968 -1.892,-13.945 -8.822,-13.945 L 0,-21.466 0,0 z m -10.296,5.331 0,-1.517 C -6.883,3.558 -6.103,2.82 -6.103,0.788 l 0,-46.705 c 0,-2.036 -0.811,-2.772 -4.193,-3.028 l 0,-1.517 14.489,0 0,1.517 C 0.753,-48.689 0,-47.953 0,-45.917 l 0,22.058 1.994,0 c 3.446,-8.414 6.438,-16.101 8.053,-20.252 l 1.226,-3.127 c 0.973,-2.363 2.501,-3.369 5.01,-3.369 2.667,0 4.403,0.145 4.403,0.145 l 0,1.517 c -1.836,0 -2.28,0.623 -2.947,2.043 l -1.695,4.287 c 0,0 -7.398,18.586 -7.739,19.442 5.492,1.793 9.112,6.82 9.112,13.93 0,9.535 -4.586,14.574 -13.499,14.574 l -14.214,0 z"
             inkscape:connector-curvature="0"
             id="path182"
             style="fill:none;stroke:#aed3dc;stroke-width:0.5;stroke-linecap:butt;stroke-linejoin:miter;stroke-miterlimit:4;stroke-opacity:1;stroke-dasharray:none" /></g><g
           transform="translate(94.8477,389.1621)"
           id="g184"><path
             d="M 0,0 C -1.222,23.108 4.719,26.581 8.748,26.707 14.793,26.896 18.908,20.821 19.567,0.9 20.309,-21.504 16.075,-25.92 10.814,-25.961 6.02,-25.998 1.222,-23.107 0,0 m -6.467,0.373 c 0,-19.894 6.659,-28.789 16.25,-28.789 10.466,0 16.248,9.686 16.248,28.789 0,19.104 -5.856,28.791 -15.977,28.791 -10.185,0 -16.521,-9.687 -16.521,-28.791"
             inkscape:connector-curvature="0"
             id="path186"
             style="fill:#aed3dc;fill-opacity:1;fill-rule:nonzero;stroke:none" /></g><g
           transform="translate(94.8477,389.1621)"
           id="g188"><path
             d="M 0,0 C -1.222,23.108 4.719,26.581 8.748,26.707 14.793,26.896 18.908,20.821 19.567,0.9 20.309,-21.504 16.075,-25.92 10.814,-25.961 6.02,-25.998 1.222,-23.107 0,0 z m -6.467,0.373 c 0,-19.894 6.659,-28.789 16.25,-28.789 10.466,0 16.248,9.686 16.248,28.789 0,19.104 -5.856,28.791 -15.977,28.791 -10.185,0 -16.521,-9.687 -16.521,-28.791 z"
             inkscape:connector-curvature="0"
             id="path190"
             style="fill:none;stroke:#aed3dc;stroke-width:0.5;stroke-linecap:butt;stroke-linejoin:miter;stroke-miterlimit:4;stroke-opacity:1;stroke-dasharray:none" /></g><g
           transform="translate(189.6709,389.1621)"
           id="g192"><path
             d="M 0,0 C -1.222,23.108 4.72,26.581 8.749,26.707 14.793,26.896 18.909,20.821 19.567,0.9 20.309,-21.504 16.076,-25.92 10.815,-25.961 6.02,-25.998 1.222,-23.107 0,0 m -6.466,0.373 c 0,-19.894 6.658,-28.789 16.249,-28.789 10.466,0 16.248,9.686 16.248,28.789 0,19.104 -5.856,28.791 -15.976,28.791 -10.185,0 -16.521,-9.687 -16.521,-28.791"
             inkscape:connector-curvature="0"
             id="path194"
             style="fill:#aed3dc;fill-opacity:1;fill-rule:nonzero;stroke:none" /></g><g
           transform="translate(189.6709,389.1621)"
           id="g196"><path
             d="M 0,0 C -1.222,23.108 4.72,26.581 8.749,26.707 14.793,26.896 18.909,20.821 19.567,0.9 20.309,-21.504 16.076,-25.92 10.815,-25.961 6.02,-25.998 1.222,-23.107 0,0 z m -6.466,0.373 c 0,-19.894 6.658,-28.789 16.249,-28.789 10.466,0 16.248,9.686 16.248,28.789 0,19.104 -5.856,28.791 -15.976,28.791 -10.185,0 -16.521,-9.687 -16.521,-28.791 z"
             inkscape:connector-curvature="0"
             id="path198"
             style="fill:none;stroke:#aed3dc;stroke-width:0.5;stroke-linecap:butt;stroke-linejoin:miter;stroke-miterlimit:4;stroke-opacity:1;stroke-dasharray:none" /></g><g
           transform="translate(387.5391,389.1621)"
           id="g200"><path
             d="M 0,0 C -1.223,23.108 4.72,26.581 8.749,26.707 14.793,26.896 18.908,20.821 19.567,0.9 20.308,-21.504 16.074,-25.92 10.815,-25.961 6.021,-25.998 1.223,-23.107 0,0 m -6.467,0.373 c 0,-19.894 6.658,-28.789 16.25,-28.789 10.467,0 16.249,9.686 16.249,28.789 0,19.104 -5.857,28.791 -15.978,28.791 -10.185,0 -16.521,-9.687 -16.521,-28.791"
             inkscape:connector-curvature="0"
             id="path202"
             style="fill:#aed3dc;fill-opacity:1;fill-rule:nonzero;stroke:none" /></g><g
           transform="translate(387.5391,389.1621)"
           id="g204"><path
             d="M 0,0 C -1.223,23.108 4.72,26.581 8.749,26.707 14.793,26.896 18.908,20.821 19.567,0.9 20.308,-21.504 16.074,-25.92 10.815,-25.961 6.021,-25.998 1.223,-23.107 0,0 z m -6.467,0.373 c 0,-19.894 6.658,-28.789 16.25,-28.789 10.467,0 16.249,9.686 16.249,28.789 0,19.104 -5.857,28.791 -15.978,28.791 -10.185,0 -16.521,-9.687 -16.521,-28.791 z"
             inkscape:connector-curvature="0"
             id="path206"
             style="fill:none;stroke:#aed3dc;stroke-width:0.5;stroke-linecap:butt;stroke-linejoin:miter;stroke-miterlimit:4;stroke-opacity:1;stroke-dasharray:none" /></g><g
           transform="translate(47.4473,395.9844)"
           id="g208"><path
             d="m 0,0 c 0,-23.383 6.96,-35.238 20.556,-35.238 11.106,0 16.137,9.215 16.681,23.527 l -4.431,0 C 32.051,-29.422 25.924,-32.402 21.154,-32.588 16.09,-32.789 8.47,-29.355 7.336,-0.463 c -0.809,20.642 4.352,32.615 13.162,33.06 5.95,0 11.04,-1.743 13.678,-16.548 l 1.488,0 0,18.106 -1.308,0 c -0.919,-1.116 -1.632,-1.357 -2.598,-1.357 -0.855,0 -1.904,0.343 -2.885,0.777 -1.592,0.7 -3.772,1.664 -7.643,1.664 C 13.302,35.239 0,29.339 0,0"
             inkscape:connector-curvature="0"
             id="path210"
             style="fill:#aed3dc;fill-opacity:1;fill-rule:nonzero;stroke:none" /></g><g
           transform="translate(47.4473,395.9844)"
           id="g212"><path
             d="m 0,0 c 0,-23.383 6.96,-35.238 20.556,-35.238 11.106,0 16.137,9.215 16.681,23.527 l -4.431,0 C 32.051,-29.422 25.924,-32.402 21.154,-32.588 16.09,-32.789 8.47,-29.355 7.336,-0.463 c -0.809,20.642 4.352,32.615 13.162,33.06 5.95,0 11.04,-1.743 13.678,-16.548 l 1.488,0 0,18.106 -1.308,0 c -0.919,-1.116 -1.632,-1.357 -2.598,-1.357 -0.855,0 -1.904,0.343 -2.885,0.777 -1.592,0.7 -3.772,1.664 -7.643,1.664 C 13.302,35.239 0,29.339 0,0 z"
             inkscape:connector-curvature="0"
             id="path214"
             style="fill:none;stroke:#aed3dc;stroke-width:0.5;stroke-linecap:butt;stroke-linejoin:miter;stroke-miterlimit:4;stroke-opacity:1;stroke-dasharray:none" /></g><g
           transform="translate(341.4385,395.9844)"
           id="g216"><path
             d="m 0,0 c 0,-23.383 6.959,-35.238 20.556,-35.238 11.105,0 16.137,9.215 16.681,23.527 l -4.431,0 C 32.052,-29.422 25.925,-32.402 21.153,-32.588 16.09,-32.789 8.469,-29.355 7.337,-0.463 c -0.809,20.642 4.351,32.615 13.161,33.06 5.951,0 11.039,-1.743 13.679,-16.548 l 1.485,0 0,18.106 -1.306,0 c -0.918,-1.116 -1.632,-1.357 -2.598,-1.357 -0.856,0 -1.904,0.343 -2.885,0.777 -1.593,0.7 -3.773,1.664 -7.643,1.664 C 13.302,35.239 0,29.339 0,0"
             inkscape:connector-curvature="0"
             id="path218"
             style="fill:#aed3dc;fill-opacity:1;fill-rule:nonzero;stroke:none" /></g><g
           transform="translate(341.4385,395.9844)"
           id="g220"><path
             d="m 0,0 c 0,-23.383 6.959,-35.238 20.556,-35.238 11.105,0 16.137,9.215 16.681,23.527 l -4.431,0 C 32.052,-29.422 25.925,-32.402 21.153,-32.588 16.09,-32.789 8.469,-29.355 7.337,-0.463 c -0.809,20.642 4.351,32.615 13.161,33.06 5.951,0 11.039,-1.743 13.679,-16.548 l 1.485,0 0,18.106 -1.306,0 c -0.918,-1.116 -1.632,-1.357 -2.598,-1.357 -0.856,0 -1.904,0.343 -2.885,0.777 -1.593,0.7 -3.773,1.664 -7.643,1.664 C 13.302,35.239 0,29.339 0,0 z"
             inkscape:connector-curvature="0"
             id="path222"
             style="fill:none;stroke:#aed3dc;stroke-width:0.5;stroke-linecap:butt;stroke-linejoin:miter;stroke-miterlimit:4;stroke-opacity:1;stroke-dasharray:none" /></g><g
           transform="translate(255.667,384.543)"
           id="g224"><path
             d="m 0,0 c 1.371,5.76 2.824,11.962 3.967,17.107 0.193,0.918 0.33,1.782 0.406,2.63 C 4.448,18.918 4.554,17.995 4.777,17.161 5.95,12.493 7.493,6.1 8.948,0 L 0,0 z m -26.781,6.1 -1.985,0 0,21.466 c 0,1.993 1.442,2.634 4.106,2.634 4.366,0 6.314,-5.242 6.702,-10.155 C -17.188,10.289 -21.067,6.1 -26.781,6.1 m 50.739,-27.479 c -3.17,0.242 -3.702,1.217 -4.208,3.147 L 15.822,-3.268 C 12.407,10.5 6.569,33.783 6.569,33.783 l -1.513,0 c 0,0 -12.612,-50.217 -13.058,-52.035 -0.456,-1.859 -0.926,-3.098 -1.48,-3.098 -0.554,0 -1.03,0.829 -1.429,1.719 l -1.81,4.582 c 0,0 -7.399,18.586 -7.74,19.442 5.493,1.793 9.111,6.82 9.111,13.93 0,9.535 -4.585,14.574 -13.498,14.574 l -14.214,0 0,-1.517 c 3.452,-0.256 4.194,-0.994 4.194,-3.026 l 0,-46.706 c 0,-2.035 -0.821,-2.771 -4.194,-3.027 l 0,-1.517 14.489,0 0,1.517 c -3.404,0.256 -4.193,0.992 -4.193,3.027 l 0,22.059 1.995,0 c 3.445,-8.414 6.437,-16.102 8.052,-20.252 l 1.226,-3.127 c 0.972,-2.363 2.678,-3.224 5.188,-3.224 l 11.181,0 0,1.517 c -1.909,0.131 -2.746,0.358 -3.137,0.984 -0.279,0.448 -0.34,1.217 -0.139,2.055 0.2,0.838 2.882,11.986 3.756,15.645 l 10.235,0 c 0.875,-3.68 3.352,-14.157 3.629,-15.291 0.199,-0.817 0.272,-1.735 -0.113,-2.213 -0.589,-0.731 -1.589,-1.026 -3.981,-1.18 l 0,-1.517 14.832,0 0,1.517 z"
             inkscape:connector-curvature="0"
             id="path226"
             style="fill:#aed3dc;fill-opacity:1;fill-rule:nonzero;stroke:none" /></g><g
           transform="translate(255.667,384.543)"
           id="g228"><path
             d="m 0,0 c 1.371,5.76 2.824,11.962 3.967,17.107 0.193,0.918 0.33,1.782 0.406,2.63 C 4.448,18.918 4.554,17.995 4.777,17.161 5.95,12.493 7.493,6.1 8.948,0 L 0,0 z m -26.781,6.1 -1.985,0 0,21.466 c 0,1.993 1.442,2.634 4.106,2.634 4.366,0 6.314,-5.242 6.702,-10.155 C -17.188,10.289 -21.067,6.1 -26.781,6.1 z m 50.739,-27.479 c -3.17,0.242 -3.702,1.217 -4.208,3.147 L 15.822,-3.268 C 12.407,10.5 6.569,33.783 6.569,33.783 l -1.513,0 c 0,0 -12.612,-50.217 -13.058,-52.035 -0.456,-1.859 -0.926,-3.098 -1.48,-3.098 -0.554,0 -1.03,0.829 -1.429,1.719 l -1.81,4.582 c 0,0 -7.399,18.586 -7.74,19.442 5.493,1.793 9.111,6.82 9.111,13.93 0,9.535 -4.585,14.574 -13.498,14.574 l -14.214,0 0,-1.517 c 3.452,-0.256 4.194,-0.994 4.194,-3.026 l 0,-46.706 c 0,-2.035 -0.821,-2.771 -4.194,-3.027 l 0,-1.517 14.489,0 0,1.517 c -3.404,0.256 -4.193,0.992 -4.193,3.027 l 0,22.059 1.995,0 c 3.445,-8.414 6.437,-16.102 8.052,-20.252 l 1.226,-3.127 c 0.972,-2.363 2.678,-3.224 5.188,-3.224 l 11.181,0 0,1.517 c -1.909,0.131 -2.746,0.358 -3.137,0.984 -0.279,0.448 -0.34,1.217 -0.139,2.055 0.2,0.838 2.882,11.986 3.756,15.645 l 10.235,0 c 0.875,-3.68 3.352,-14.157 3.629,-15.291 0.199,-0.817 0.272,-1.735 -0.113,-2.213 -0.589,-0.731 -1.589,-1.026 -3.981,-1.18 l 0,-1.517 14.832,0 0,1.517 z"
             inkscape:connector-curvature="0"
             id="path230"
             style="fill:none;stroke:#aed3dc;stroke-width:0.5;stroke-linecap:butt;stroke-linejoin:miter;stroke-miterlimit:4;stroke-opacity:1;stroke-dasharray:none" /></g><g
           transform="translate(329.375,373.9434)"
           id="g232"><path
             d="m 0,0 c -2.404,-8.152 -4.055,-9.6 -6.557,-9.6 l -7.24,0 c -1.334,0 -1.701,0.399 -1.701,1.848 l 0,22.711 6.555,0 c 2.933,0 4.283,-3.379 4.488,-6.648 l 1.517,0 0,14.899 -1.517,0 c -0.311,-3.384 -1.219,-5.554 -4.488,-5.554 l -6.555,0 0,22.471 c 0,0.625 0.262,0.673 0.662,0.673 l 6.795,0 c 2.504,0 4.211,-1.644 6.559,-9.598 l 1.584,0 -1.426,13.536 -0.131,0.051 c 0,0 -0.633,-1.292 -2.543,-1.292 l -21.794,0 0,-1.517 c 3.464,-0.253 4.192,-0.994 4.192,-3.027 l 0,-46.705 c 0,-2.035 -0.81,-2.785 -4.192,-3.027 l 0,-1.518 23.276,0 c 1.911,0 2.541,-1.291 2.541,-1.291 L 0.16,-13.566 1.582,0 0,0 z"
             inkscape:connector-curvature="0"
             id="path234"
             style="fill:#aed3dc;fill-opacity:1;fill-rule:nonzero;stroke:none" /></g><g
           transform="translate(329.375,373.9434)"
           id="g236"><path
             d="m 0,0 c -2.404,-8.152 -4.055,-9.6 -6.557,-9.6 l -7.24,0 c -1.334,0 -1.701,0.399 -1.701,1.848 l 0,22.711 6.555,0 c 2.933,0 4.283,-3.379 4.488,-6.648 l 1.517,0 0,14.899 -1.517,0 c -0.311,-3.384 -1.219,-5.554 -4.488,-5.554 l -6.555,0 0,22.471 c 0,0.625 0.262,0.673 0.662,0.673 l 6.795,0 c 2.504,0 4.211,-1.644 6.559,-9.598 l 1.584,0 -1.426,13.536 -0.131,0.051 c 0,0 -0.633,-1.292 -2.543,-1.292 l -21.794,0 0,-1.517 c 3.464,-0.253 4.192,-0.994 4.192,-3.027 l 0,-46.705 c 0,-2.035 -0.81,-2.785 -4.192,-3.027 l 0,-1.518 23.276,0 c 1.911,0 2.541,-1.291 2.541,-1.291 L 0.16,-13.566 1.582,0 0,0 z"
             inkscape:connector-curvature="0"
             id="path238"
             style="fill:none;stroke:#aed3dc;stroke-width:0.5;stroke-linecap:butt;stroke-linejoin:miter;stroke-miterlimit:4;stroke-opacity:1;stroke-dasharray:none" /></g><g
           transform="translate(538.2607,373.9434)"
           id="g240"><path
             d="m 0,0 c -2.405,-8.152 -4.056,-9.6 -6.558,-9.6 l -7.241,0 c -1.333,0 -1.698,0.399 -1.698,1.848 l 0,22.711 6.553,0 c 2.933,0 4.284,-3.379 4.488,-6.648 l 1.518,0 0,14.899 -1.518,0 c -0.312,-3.384 -1.22,-5.554 -4.488,-5.554 l -6.553,0 0,22.471 c 0,0.625 0.262,0.673 0.66,0.673 l 6.797,0 c 2.501,0 4.209,-1.644 6.557,-9.598 l 1.583,0 -1.424,13.536 -0.131,0.051 c 0,0 -0.633,-1.292 -2.544,-1.292 l -21.793,0 0,-1.517 c 3.463,-0.253 4.192,-0.994 4.192,-3.027 l 0,-46.705 c 0,-2.035 -0.81,-2.785 -4.192,-3.027 l 0,-1.518 23.276,0 c 1.91,0 2.542,-1.291 2.542,-1.291 L 0.161,-13.566 1.583,0 0,0 z"
             inkscape:connector-curvature="0"
             id="path242"
             style="fill:#aed3dc;fill-opacity:1;fill-rule:nonzero;stroke:none" /></g><g
           transform="translate(538.2607,373.9434)"
           id="g244"><path
             d="m 0,0 c -2.405,-8.152 -4.056,-9.6 -6.558,-9.6 l -7.241,0 c -1.333,0 -1.698,0.399 -1.698,1.848 l 0,22.711 6.553,0 c 2.933,0 4.284,-3.379 4.488,-6.648 l 1.518,0 0,14.899 -1.518,0 c -0.312,-3.384 -1.22,-5.554 -4.488,-5.554 l -6.553,0 0,22.471 c 0,0.625 0.262,0.673 0.66,0.673 l 6.797,0 c 2.501,0 4.209,-1.644 6.557,-9.598 l 1.583,0 -1.424,13.536 -0.131,0.051 c 0,0 -0.633,-1.292 -2.544,-1.292 l -21.793,0 0,-1.517 c 3.463,-0.253 4.192,-0.994 4.192,-3.027 l 0,-46.705 c 0,-2.035 -0.81,-2.785 -4.192,-3.027 l 0,-1.518 23.276,0 c 1.91,0 2.542,-1.291 2.542,-1.291 L 0.161,-13.566 1.583,0 0,0 z"
             inkscape:connector-curvature="0"
             id="path246"
             style="fill:none;stroke:#aed3dc;stroke-width:0.5;stroke-linecap:butt;stroke-linejoin:miter;stroke-miterlimit:4;stroke-opacity:1;stroke-dasharray:none" /></g><g
           transform="translate(483.0342,417.4399)"
           id="g248"><path
             d="m 0,0 -10.992,0 0,-1.517 c 3.335,-0.212 4.193,-0.994 4.193,-3.026 l 0,-29.641 0.112,-3.531 -1.257,3.215 -15.185,34.5 -9.831,0 0,-1.517 c 3.424,-0.288 4.192,-0.994 4.192,-3.026 l 0,-46.706 c 0,-2.035 -0.859,-2.814 -4.192,-3.027 l 0,-1.517 11.464,0 0,1.517 c -3.313,0.229 -4.193,0.992 -4.193,3.027 l 0,39.292 c 0,1.195 -0.059,2.379 -0.135,3.092 0.213,-0.652 0.612,-1.675 1.085,-2.772 4.162,-9.656 19.38,-45.024 19.38,-45.024 l 1.637,0 0,52.118 c 0,2.032 0.913,2.829 4.195,3.026 L 0.473,0 0,0 z"
             inkscape:connector-curvature="0"
             id="path250"
             style="fill:#aed3dc;fill-opacity:1;fill-rule:nonzero;stroke:none" /></g><g
           transform="translate(483.0342,417.4399)"
           id="g252"><path
             d="m 0,0 -10.992,0 0,-1.517 c 3.335,-0.212 4.193,-0.994 4.193,-3.026 l 0,-29.641 0.112,-3.531 -1.257,3.215 -15.185,34.5 -9.831,0 0,-1.517 c 3.424,-0.288 4.192,-0.994 4.192,-3.026 l 0,-46.706 c 0,-2.035 -0.859,-2.814 -4.192,-3.027 l 0,-1.517 11.464,0 0,1.517 c -3.313,0.229 -4.193,0.992 -4.193,3.027 l 0,39.292 c 0,1.195 -0.059,2.379 -0.135,3.092 0.213,-0.652 0.612,-1.675 1.085,-2.772 4.162,-9.656 19.38,-45.024 19.38,-45.024 l 1.637,0 0,52.118 c 0,2.032 0.913,2.829 4.195,3.026 L 0.473,0 0,0 z"
             inkscape:connector-curvature="0"
             id="path254"
             style="fill:none;stroke:#aed3dc;stroke-width:0.5;stroke-linecap:butt;stroke-linejoin:miter;stroke-miterlimit:4;stroke-opacity:1;stroke-dasharray:none" /></g><g
           transform="translate(301.5308,418.6958)"
           id="g256"><path
             d="m 0,0 -0.122,0.015 c 0,0 -0.601,-1.271 -2.511,-1.271 l -21.015,0 c -1.911,0 -2.512,1.271 -2.512,1.271 L -26.281,0 l -1.465,-13.551 1.583,0 c 2.367,8.142 4.054,9.598 6.557,9.598 l 3.417,0 0,-48.551 c 0,-2.036 -0.925,-2.846 -4.194,-3.028 l 0,-1.517 14.485,0 0,1.517 c -3.269,0.182 -4.194,0.992 -4.194,3.028 l 0,48.551 3.417,0 c 2.503,0 4.19,-1.456 6.557,-9.598 l 1.583,0 L 0,0 z"
             inkscape:connector-curvature="0"
             id="path258"
             style="fill:#aed3dc;fill-opacity:1;fill-rule:nonzero;stroke:none" /></g><g
           transform="translate(301.5308,418.6958)"
           id="g260"><path
             d="m 0,0 -0.122,0.015 c 0,0 -0.601,-1.271 -2.511,-1.271 l -21.015,0 c -1.911,0 -2.512,1.271 -2.512,1.271 L -26.281,0 l -1.465,-13.551 1.583,0 c 2.367,8.142 4.054,9.598 6.557,9.598 l 3.417,0 0,-48.551 c 0,-2.036 -0.925,-2.846 -4.194,-3.028 l 0,-1.517 14.485,0 0,1.517 c -3.269,0.182 -4.194,0.992 -4.194,3.028 l 0,48.551 3.417,0 c 2.503,0 4.19,-1.456 6.557,-9.598 l 1.583,0 L 0,0 z"
             inkscape:connector-curvature="0"
             id="path262"
             style="fill:none;stroke:#aed3dc;stroke-width:0.5;stroke-linecap:butt;stroke-linejoin:miter;stroke-miterlimit:4;stroke-opacity:1;stroke-dasharray:none" /></g><g
           transform="translate(566.5352,373.9434)"
           id="g264"><path
             d="m 0,0 c -2.404,-8.152 -4.056,-9.6 -6.557,-9.6 l -5.65,0 c -1.336,0 -1.701,0.399 -1.701,1.848 l 0,47.006 c 0,1.682 0.899,2.529 5.369,2.699 l 0,1.544 -15.665,0 0,-1.517 c 3.391,-0.257 4.193,-0.994 4.193,-3.027 l 0,-46.705 c 0,-2.035 -0.922,-2.859 -4.193,-3.027 l 0,-1.518 21.688,0 c 1.911,0 2.542,-1.291 2.542,-1.291 L 0.161,-13.566 1.583,0 0,0 z"
             inkscape:connector-curvature="0"
             id="path266"
             style="fill:#aed3dc;fill-opacity:1;fill-rule:nonzero;stroke:none" /></g><g
           transform="translate(566.5352,373.9434)"
           id="g268"><path
             d="m 0,0 c -2.404,-8.152 -4.056,-9.6 -6.557,-9.6 l -5.65,0 c -1.336,0 -1.701,0.399 -1.701,1.848 l 0,47.006 c 0,1.682 0.899,2.529 5.369,2.699 l 0,1.544 -15.665,0 0,-1.517 c 3.391,-0.257 4.193,-0.994 4.193,-3.027 l 0,-46.705 c 0,-2.035 -0.922,-2.859 -4.193,-3.027 l 0,-1.518 21.688,0 c 1.911,0 2.542,-1.291 2.542,-1.291 L 0.161,-13.566 1.583,0 0,0 z"
             inkscape:connector-curvature="0"
             id="path270"
             style="fill:none;stroke:#aed3dc;stroke-width:0.5;stroke-linecap:butt;stroke-linejoin:miter;stroke-miterlimit:4;stroke-opacity:1;stroke-dasharray:none" /></g></g></g></g></svg>