<?xml version="1.0" encoding="utf-8"?>
<!-- Generator: Adobe Illustrator 16.0.0, SVG Export Plug-In . SVG Version: 6.00 Build 0)  -->
<!DOCTYPE svg PUBLIC "-//W3C//DTD SVG 1.1//EN" "http://www.w3.org/Graphics/SVG/1.1/DTD/svg11.dtd">
<svg version="1.1"
	 id="svg2" xmlns:dc="http://purl.org/dc/elements/1.1/" xmlns:cc="http://creativecommons.org/ns#" xmlns:rdf="http://www.w3.org/1999/02/22-rdf-syntax-ns#" xmlns:svg="http://www.w3.org/2000/svg" xmlns:inkscape="http://www.inkscape.org/namespaces/inkscape"
	 xmlns="http://www.w3.org/2000/svg" xmlns:xlink="http://www.w3.org/1999/xlink" x="0px" y="0px" width="765px" height="990px"
	 viewBox="0 0 765 990" enable-background="new 0 0 765 990" xml:space="preserve">
<g id="g10" transform="matrix(1.25,0,0,-1.25,0,990)">
	<g id="g12">
		<g>
			<defs>
				<rect id="SVGID_1_" x="-24.902" y="621.471" width="232.56" height="301.112"/>
			</defs>
			<clipPath id="SVGID_2_">
				<use xlink:href="#SVGID_1_"  overflow="visible"/>
			</clipPath>
			<g id="g14" clip-path="url(#SVGID_2_)">
				<g id="g20" transform="translate(162.5767,412.1089)">
					<path id="path22" inkscape:connector-curvature="0" fill="#373535" d="M-114.799,364.817c0,0.607,0.26,0.801,1.07,0.801
						c1.519,0,1.956-1.904,2.084-3.396c0.269-3.161-0.974-4.407-2.55-4.407h-0.603V364.817z M-117.929,366.439v-0.461
						c1.031-0.078,1.275-0.302,1.275-0.921v-14.205c0-0.62-0.235-0.843-1.275-0.921v-0.461h4.405v0.461
						c-1.035,0.078-1.275,0.302-1.275,0.921v6.143h1.26c1.875,0,3.893,1.49,3.893,4.719c0,3.231-1.432,4.726-4.142,4.726H-117.929z"
						/>
				</g>
				<g id="g24" transform="translate(162.5767,412.1089)">
					<path id="path26" inkscape:connector-curvature="0" fill="none" stroke="#373535" stroke-width="0.5" d="M-114.799,364.817
						c0,0.607,0.26,0.801,1.07,0.801c1.519,0,1.956-1.904,2.084-3.396c0.269-3.161-0.974-4.407-2.55-4.407h-0.603V364.817z
						 M-117.929,366.439v-0.461c1.031-0.078,1.275-0.302,1.275-0.921v-14.205c0-0.62-0.235-0.843-1.275-0.921v-0.461h4.405v0.461
						c-1.035,0.078-1.275,0.302-1.275,0.921v6.143h1.26c1.875,0,3.893,1.49,3.893,4.719c0,3.231-1.432,4.726-4.142,4.726H-117.929z"
						/>
				</g>
				<g id="g28" transform="translate(436.5986,417.4399)">
					<path id="path30" inkscape:connector-curvature="0" fill="#373535" d="M-305.518,361.108v-0.461
						c1.021-0.06,1.275-0.302,1.275-0.921v-11.332c0-3.1-1.697-3.562-2.707-3.562c-1.736,0-2.544,1.086-2.544,3.418v11.476
						c0,0.618,0.245,0.838,1.273,0.921v0.461h-4.404v-0.461c1.025-0.07,1.274-0.302,1.274-0.921V348.25
						c0-2.934,1.393-4.361,4.257-4.361c1.727,0,3.787,0.817,3.787,4.709v11.128c0,0.618,0.257,0.847,1.275,0.921v0.461H-305.518z"/>
				</g>
				<g id="g32" transform="translate(436.5986,417.4399)">
					<path id="path34" inkscape:connector-curvature="0" fill="none" stroke="#373535" stroke-width="0.5" d="M-305.518,361.108
						v-0.461c1.021-0.06,1.275-0.302,1.275-0.921v-11.332c0-3.1-1.697-3.562-2.707-3.562c-1.736,0-2.544,1.086-2.544,3.418v11.476
						c0,0.618,0.245,0.838,1.273,0.921v0.461h-4.404v-0.461c1.025-0.07,1.274-0.302,1.274-0.921V348.25
						c0-2.934,1.393-4.361,4.257-4.361c1.727,0,3.787,0.817,3.787,4.709v11.128c0,0.618,0.257,0.847,1.275,0.921v0.461H-305.518z"/>
				</g>
				<g id="g36" transform="translate(483.8857,403.8926)">
					<path id="path38" inkscape:connector-curvature="0" fill="#373535" d="M-338.43,370.535c0-2.974,1.448-3.927,3.637-4.972
						c2.058-0.982,2.936-2.241,2.936-4.213c0-1.472-0.75-3.191-2.865-3.191c-1.76,0-2.871,1.412-3.355,4.45h-0.427v-4.988h0.407
						c0.107,0.589,0.275,0.751,0.467,0.751c0.271,0,0.518-0.223,0.682-0.346c0.517-0.387,1.266-0.605,2.21-0.605
						c2.648,0,4.23,1.846,4.23,4.939c0,2.522-1.239,4.211-3.706,5.345c-2.248,1.032-2.804,1.918-2.804,3.662
						c0,1.915,1.14,2.812,2.602,2.812c1.143,0,2.518-0.772,2.777-3.932h0.43v4.502h-0.407c-0.146-0.472-0.271-0.579-0.467-0.579
						c-0.062,0-0.217,0.083-0.357,0.179c-0.354,0.244-1.009,0.613-1.922,0.613C-336.72,374.964-338.43,373.036-338.43,370.535"/>
				</g>
				<g id="g40" transform="translate(483.8857,403.8926)">
					<path id="path42" inkscape:connector-curvature="0" fill="none" stroke="#373535" stroke-width="0.5" d="M-338.43,370.535
						c0-2.974,1.448-3.927,3.637-4.972c2.058-0.982,2.936-2.241,2.936-4.213c0-1.472-0.75-3.191-2.865-3.191
						c-1.76,0-2.871,1.412-3.355,4.45h-0.427v-4.988h0.407c0.107,0.589,0.275,0.751,0.467,0.751c0.271,0,0.518-0.223,0.682-0.346
						c0.517-0.387,1.266-0.605,2.21-0.605c2.648,0,4.23,1.846,4.23,4.939c0,2.522-1.239,4.211-3.706,5.345
						c-2.248,1.032-2.804,1.918-2.804,3.662c0,1.915,1.14,2.812,2.602,2.812c1.143,0,2.518-0.772,2.777-3.932h0.43v4.502h-0.407
						c-0.146-0.472-0.271-0.579-0.467-0.579c-0.062,0-0.217,0.083-0.357,0.179c-0.354,0.244-1.009,0.613-1.922,0.613
						C-336.72,374.964-338.43,373.036-338.43,370.535z"/>
				</g>
				<g id="g44" transform="translate(131.3887,412.1089)">
					<path id="path46" inkscape:connector-curvature="0" fill="#373535" d="M-93.092,364.817c0,0.607,0.438,0.801,1.248,0.801
						c1.327,0,1.911-1.595,2.036-3.089c0.204-2.423-0.575-4.241-2.682-4.241h-0.603V364.817z M-96.222,366.439v-0.461
						c1.037-0.078,1.275-0.302,1.275-0.921v-14.205c0-0.62-0.246-0.843-1.275-0.921v-0.461h4.404v0.461
						c-1.045,0.078-1.274,0.302-1.274,0.921v6.709h0.606c1.047-2.559,1.957-4.897,2.448-6.16l0.373-0.951
						c0.296-0.719,0.76-1.025,1.523-1.025c0.811,0,1.339,0.045,1.339,0.045v0.461c-0.558,0-0.693,0.19-0.896,0.621l-0.515,1.304
						c0,0-2.249,5.653-2.353,5.914c1.67,0.545,2.77,2.074,2.77,4.236c0,2.9-1.394,4.433-4.104,4.433H-96.222z"/>
				</g>
				<g id="g48" transform="translate(131.3887,412.1089)">
					<path id="path50" inkscape:connector-curvature="0" fill="none" stroke="#373535" stroke-width="0.5" d="M-93.092,364.817
						c0,0.607,0.438,0.801,1.248,0.801c1.327,0,1.911-1.595,2.036-3.089c0.204-2.423-0.575-4.241-2.682-4.241h-0.603V364.817z
						 M-96.222,366.439v-0.461c1.037-0.078,1.275-0.302,1.275-0.921v-14.205c0-0.62-0.246-0.843-1.275-0.921v-0.461h4.404v0.461
						c-1.045,0.078-1.274,0.302-1.274,0.921v6.709h0.606c1.047-2.559,1.957-4.897,2.448-6.16l0.373-0.951
						c0.296-0.719,0.76-1.025,1.523-1.025c0.811,0,1.339,0.045,1.339,0.045v0.461c-0.558,0-0.693,0.19-0.896,0.621l-0.515,1.304
						c0,0-2.249,5.653-2.353,5.914c1.67,0.545,2.77,2.074,2.77,4.236c0,2.9-1.394,4.433-4.104,4.433H-96.222z"/>
				</g>
				<g id="g52" transform="translate(93.8477,389.1621)">
					<path id="path54" inkscape:connector-curvature="0" fill="#373535" d="M-66.964,380.785c-0.371,7.029,1.434,8.084,2.659,8.123
						c1.838,0.057,3.089-1.79,3.289-7.848c0.225-6.815-1.062-8.158-2.661-8.17C-65.134,372.877-66.592,373.757-66.964,380.785
						 M-68.929,380.898c0-6.05,2.024-8.756,4.94-8.756c3.181,0,4.939,2.946,4.939,8.756c0,5.811-1.78,8.757-4.857,8.757
						C-67.003,389.655-68.929,386.709-68.929,380.898"/>
				</g>
				<g id="g56" transform="translate(93.8477,389.1621)">
					<path id="path58" inkscape:connector-curvature="0" fill="none" stroke="#373535" stroke-width="0.5" d="M-66.964,380.785
						c-0.371,7.029,1.434,8.084,2.659,8.123c1.838,0.057,3.089-1.79,3.289-7.848c0.225-6.815-1.062-8.158-2.661-8.17
						C-65.134,372.877-66.592,373.757-66.964,380.785z M-68.929,380.898c0-6.05,2.024-8.756,4.94-8.756
						c3.181,0,4.939,2.946,4.939,8.756c0,5.811-1.78,8.757-4.857,8.757C-67.003,389.655-68.929,386.709-68.929,380.898z"/>
				</g>
				<g id="g60" transform="translate(188.6709,389.1621)">
					<path id="path62" inkscape:connector-curvature="0" fill="#373535" d="M-132.961,380.785c-0.371,7.029,1.435,8.084,2.66,8.123
						c1.838,0.057,3.088-1.79,3.288-7.848c0.226-6.815-1.061-8.158-2.66-8.17C-131.13,372.877-132.589,373.757-132.961,380.785
						 M-134.926,380.898c0-6.05,2.024-8.756,4.94-8.756c3.181,0,4.939,2.946,4.939,8.756c0,5.811-1.78,8.757-4.857,8.757
						C-133,389.655-134.926,386.709-134.926,380.898"/>
				</g>
				<g id="g64" transform="translate(188.6709,389.1621)">
					<path id="path66" inkscape:connector-curvature="0" fill="none" stroke="#373535" stroke-width="0.5" d="M-132.961,380.785
						c-0.371,7.029,1.435,8.084,2.66,8.123c1.838,0.057,3.088-1.79,3.288-7.848c0.226-6.815-1.061-8.158-2.66-8.17
						C-131.13,372.877-132.589,373.757-132.961,380.785z M-134.926,380.898c0-6.05,2.024-8.756,4.94-8.756
						c3.181,0,4.939,2.946,4.939,8.756c0,5.811-1.78,8.757-4.857,8.757C-133,389.655-134.926,386.709-134.926,380.898z"/>
				</g>
				<g id="g68" transform="translate(386.5391,389.1621)">
					<path id="path70" inkscape:connector-curvature="0" fill="#373535" d="M-270.677,380.785c-0.371,7.029,1.435,8.084,2.66,8.123
						c1.837,0.057,3.089-1.79,3.289-7.848c0.225-6.815-1.062-8.158-2.661-8.17C-268.847,372.877-270.305,373.757-270.677,380.785
						 M-272.643,380.898c0-6.05,2.024-8.756,4.94-8.756c3.182,0,4.939,2.946,4.939,8.756c0,5.811-1.78,8.757-4.857,8.757
						C-270.717,389.655-272.643,386.709-272.643,380.898"/>
				</g>
				<g id="g72" transform="translate(386.5391,389.1621)">
					<path id="path74" inkscape:connector-curvature="0" fill="none" stroke="#373535" stroke-width="0.5" d="M-270.677,380.785
						c-0.371,7.029,1.435,8.084,2.66,8.123c1.837,0.057,3.089-1.79,3.289-7.848c0.225-6.815-1.062-8.158-2.661-8.17
						C-268.847,372.877-270.305,373.757-270.677,380.785z M-272.643,380.898c0-6.05,2.024-8.756,4.94-8.756
						c3.182,0,4.939,2.946,4.939,8.756c0,5.811-1.78,8.757-4.857,8.757C-270.717,389.655-272.643,386.709-272.643,380.898z"/>
				</g>
				<g id="g76" transform="translate(46.4473,395.9844)">
					<path id="path78" inkscape:connector-curvature="0" fill="#373535" d="M-33.973,376.037c0-7.112,2.116-10.718,6.249-10.718
						c3.376,0,4.905,2.803,5.071,7.156H-24c-0.23-5.387-2.092-6.293-3.542-6.35c-1.539-0.061-3.856,0.983-4.201,9.771
						c-0.246,6.279,1.323,9.92,4.001,10.055c1.809,0,3.356-0.53,4.158-5.033h0.452v5.507h-0.398
						c-0.279-0.339-0.496-0.413-0.789-0.413c-0.26,0-0.579,0.105-0.877,0.236c-0.484,0.213-1.147,0.506-2.323,0.506
						C-29.929,386.755-33.973,384.961-33.973,376.037"/>
				</g>
				<g id="g80" transform="translate(46.4473,395.9844)">
					<path id="path82" inkscape:connector-curvature="0" fill="none" stroke="#373535" stroke-width="0.5" d="M-33.973,376.037
						c0-7.112,2.116-10.718,6.249-10.718c3.376,0,4.905,2.803,5.071,7.156H-24c-0.23-5.387-2.092-6.293-3.542-6.35
						c-1.539-0.061-3.856,0.983-4.201,9.771c-0.246,6.279,1.323,9.92,4.001,10.055c1.809,0,3.356-0.53,4.158-5.033h0.452v5.507
						h-0.398c-0.279-0.339-0.496-0.413-0.789-0.413c-0.26,0-0.579,0.105-0.877,0.236c-0.484,0.213-1.147,0.506-2.323,0.506
						C-29.929,386.755-33.973,384.961-33.973,376.037z"/>
				</g>
				<g id="g84" transform="translate(340.4385,395.9844)">
					<path id="path86" inkscape:connector-curvature="0" fill="#373535" d="M-238.591,376.037c0-7.112,2.115-10.718,6.249-10.718
						c3.377,0,4.906,2.803,5.071,7.156h-1.347c-0.229-5.387-2.091-6.293-3.542-6.35c-1.54-0.061-3.856,0.983-4.2,9.771
						c-0.246,6.279,1.323,9.92,4.001,10.055c1.809,0,3.356-0.53,4.159-5.033h0.451v5.507h-0.397
						c-0.279-0.339-0.496-0.413-0.789-0.413c-0.26,0-0.579,0.105-0.877,0.236c-0.484,0.213-1.147,0.506-2.323,0.506
						C-234.547,386.755-238.591,384.961-238.591,376.037"/>
				</g>
				<g id="g88" transform="translate(340.4385,395.9844)">
					<path id="path90" inkscape:connector-curvature="0" fill="none" stroke="#373535" stroke-width="0.5" d="M-238.591,376.037
						c0-7.112,2.115-10.718,6.249-10.718c3.377,0,4.906,2.803,5.071,7.156h-1.347c-0.229-5.387-2.091-6.293-3.542-6.35
						c-1.54-0.061-3.856,0.983-4.2,9.771c-0.246,6.279,1.323,9.92,4.001,10.055c1.809,0,3.356-0.53,4.159-5.033h0.451v5.507h-0.397
						c-0.279-0.339-0.496-0.413-0.789-0.413c-0.26,0-0.579,0.105-0.877,0.236c-0.484,0.213-1.147,0.506-2.323,0.506
						C-234.547,386.755-238.591,384.961-238.591,376.037z"/>
				</g>
				<g id="g92" transform="translate(254.667,384.543)">
					<path id="path94" inkscape:connector-curvature="0" fill="#373535" d="M-178.894,383.999c0.416,1.752,0.858,3.639,1.206,5.203
						c0.059,0.279,0.1,0.542,0.123,0.8c0.023-0.249,0.055-0.53,0.123-0.784c0.357-1.419,0.826-3.364,1.268-5.219H-178.894z
						 M-187.035,385.854h-0.603v6.529c0,0.606,0.438,0.801,1.248,0.801c1.327,0,1.92-1.594,2.037-3.089
						C-184.119,387.128-185.298,385.854-187.035,385.854 M-171.611,377.496c-0.964,0.074-1.125,0.37-1.279,0.957l-1.195,4.551
						c-1.038,4.188-2.813,11.269-2.813,11.269h-0.46c0,0-3.834-15.273-3.97-15.827c-0.138-0.565-0.282-0.942-0.45-0.942
						c-0.168,0-0.313,0.252-0.434,0.522l-0.55,1.394c0,0-2.25,5.653-2.353,5.914c1.67,0.545,2.77,2.074,2.77,4.236
						c0,2.9-1.394,4.433-4.104,4.433h-4.321v-0.461c1.05-0.078,1.275-0.302,1.275-0.921v-14.206c0-0.619-0.25-0.842-1.275-0.921
						v-0.461h4.404v0.461c-1.034,0.078-1.274,0.302-1.274,0.921v6.709h0.606c1.047-2.559,1.957-4.897,2.448-6.16l0.372-0.951
						c0.296-0.719,0.814-0.98,1.578-0.98h3.399v0.461c-0.58,0.04-0.836,0.109-0.954,0.3c-0.085,0.136-0.103,0.37-0.042,0.625
						c0.061,0.254,0.876,3.646,1.141,4.759h3.111c0.266-1.12,1.019-4.306,1.104-4.651c0.06-0.249,0.083-0.528-0.035-0.673
						c-0.179-0.222-0.483-0.312-1.21-0.359v-0.461h4.509V377.496z"/>
				</g>
				<g id="g96" transform="translate(254.667,384.543)">
					<path id="path98" inkscape:connector-curvature="0" fill="none" stroke="#373535" stroke-width="0.5" d="M-178.894,383.999
						c0.416,1.752,0.858,3.639,1.206,5.203c0.059,0.279,0.1,0.542,0.123,0.8c0.023-0.249,0.055-0.53,0.123-0.784
						c0.357-1.419,0.826-3.364,1.268-5.219H-178.894z M-187.035,385.854h-0.603v6.529c0,0.606,0.438,0.801,1.248,0.801
						c1.327,0,1.92-1.594,2.037-3.089C-184.119,387.128-185.298,385.854-187.035,385.854z M-171.611,377.496
						c-0.964,0.074-1.125,0.37-1.279,0.957l-1.195,4.551c-1.038,4.188-2.813,11.269-2.813,11.269h-0.46
						c0,0-3.834-15.273-3.97-15.827c-0.138-0.565-0.282-0.942-0.45-0.942c-0.168,0-0.313,0.252-0.434,0.522l-0.55,1.394
						c0,0-2.25,5.653-2.353,5.914c1.67,0.545,2.77,2.074,2.77,4.236c0,2.9-1.394,4.433-4.104,4.433h-4.321v-0.461
						c1.05-0.078,1.275-0.302,1.275-0.921v-14.206c0-0.619-0.25-0.842-1.275-0.921v-0.461h4.404v0.461
						c-1.034,0.078-1.274,0.302-1.274,0.921v6.709h0.606c1.047-2.559,1.957-4.897,2.448-6.16l0.372-0.951
						c0.296-0.719,0.814-0.98,1.578-0.98h3.399v0.461c-0.58,0.04-0.836,0.109-0.954,0.3c-0.085,0.136-0.103,0.37-0.042,0.625
						c0.061,0.254,0.876,3.646,1.141,4.759h3.111c0.266-1.12,1.019-4.306,1.104-4.651c0.06-0.249,0.083-0.528-0.035-0.673
						c-0.179-0.222-0.483-0.312-1.21-0.359v-0.461h4.509V377.496z"/>
				</g>
				<g id="g100" transform="translate(328.375,373.9434)">
					<path id="path102" inkscape:connector-curvature="0" fill="#373535" d="M-230.195,391.375c-0.731-2.48-1.232-2.919-1.993-2.919
						h-2.201c-0.406,0-0.518,0.121-0.518,0.562v6.907h1.993c0.892,0,1.302-1.028,1.364-2.021h0.461v4.531h-0.461
						c-0.095-1.029-0.37-1.689-1.364-1.689h-1.993v6.834c0,0.19,0.08,0.205,0.202,0.205h2.066c0.761,0,1.28-0.5,1.994-2.919h0.481
						l-0.433,4.117l-0.04,0.015c0,0-0.192-0.393-0.773-0.393h-6.625v-0.462c1.053-0.077,1.275-0.302,1.275-0.921v-14.205
						c0-0.619-0.246-0.847-1.275-0.921v-0.462h7.076c0.581,0,0.773-0.392,0.773-0.392l0.041,0.007l0.432,4.126H-230.195z"/>
				</g>
				<g id="g104" transform="translate(328.375,373.9434)">
					<path id="path106" inkscape:connector-curvature="0" fill="none" stroke="#373535" stroke-width="0.5" d="M-230.195,391.375
						c-0.731-2.48-1.232-2.919-1.993-2.919h-2.201c-0.406,0-0.518,0.121-0.518,0.562v6.907h1.993c0.892,0,1.302-1.028,1.364-2.021
						h0.461v4.531h-0.461c-0.095-1.029-0.37-1.689-1.364-1.689h-1.993v6.834c0,0.19,0.08,0.205,0.202,0.205h2.066
						c0.761,0,1.28-0.5,1.994-2.919h0.481l-0.433,4.117l-0.04,0.015c0,0-0.192-0.393-0.773-0.393h-6.625v-0.462
						c1.053-0.077,1.275-0.302,1.275-0.921v-14.205c0-0.619-0.246-0.847-1.275-0.921v-0.462h7.076c0.581,0,0.773-0.392,0.773-0.392
						l0.041,0.007l0.432,4.126H-230.195z"/>
				</g>
				<g id="g108" transform="translate(537.2607,373.9434)">
					<path id="path110" inkscape:connector-curvature="0" fill="#373535" d="M-375.579,391.375c-0.731-2.48-1.233-2.919-1.994-2.919
						h-2.201c-0.405,0-0.516,0.121-0.516,0.562v6.907h1.992c0.891,0,1.302-1.028,1.364-2.021h0.462v4.531h-0.462
						c-0.095-1.029-0.371-1.689-1.364-1.689h-1.992v6.834c0,0.19,0.08,0.205,0.2,0.205h2.066c0.761,0,1.28-0.5,1.993-2.919h0.481
						l-0.433,4.117l-0.04,0.015c0,0-0.192-0.393-0.774-0.393h-6.625v-0.462c1.052-0.077,1.274-0.302,1.274-0.921v-14.205
						c0-0.619-0.246-0.847-1.274-0.921v-0.462h7.076c0.58,0,0.772-0.392,0.772-0.392l0.041,0.007l0.432,4.126H-375.579z"/>
				</g>
				<g id="g112" transform="translate(537.2607,373.9434)">
					<path id="path114" inkscape:connector-curvature="0" fill="none" stroke="#373535" stroke-width="0.5" d="M-375.579,391.375
						c-0.731-2.48-1.233-2.919-1.994-2.919h-2.201c-0.405,0-0.516,0.121-0.516,0.562v6.907h1.992c0.891,0,1.302-1.028,1.364-2.021
						h0.462v4.531h-0.462c-0.095-1.029-0.371-1.689-1.364-1.689h-1.992v6.834c0,0.19,0.08,0.205,0.2,0.205h2.066
						c0.761,0,1.28-0.5,1.993-2.919h0.481l-0.433,4.117l-0.04,0.015c0,0-0.192-0.393-0.774-0.393h-6.625v-0.462
						c1.052-0.077,1.274-0.302,1.274-0.921v-14.205c0-0.619-0.246-0.847-1.274-0.921v-0.462h7.076c0.58,0,0.772-0.392,0.772-0.392
						l0.041,0.007l0.432,4.126H-375.579z"/>
				</g>
				<g id="g116" transform="translate(482.0342,417.4399)">
					<path id="path118" inkscape:connector-curvature="0" fill="#373535" d="M-337.141,361.108h-3.342v-0.461
						c1.013-0.065,1.275-0.302,1.275-0.921v-9.015l0.034-1.074l-0.382,0.978l-4.616,10.493h-2.989v-0.461
						c1.041-0.087,1.274-0.302,1.274-0.921V345.52c0-0.619-0.261-0.856-1.274-0.921v-0.461h3.485v0.461
						c-1.007,0.07-1.274,0.302-1.274,0.921v11.951c0,0.363-0.018,0.723-0.041,0.94c0.065-0.198,0.186-0.509,0.33-0.843
						c1.265-2.937,5.891-13.694,5.891-13.694h0.498v15.852c0,0.618,0.278,0.861,1.275,0.921v0.461H-337.141z"/>
				</g>
				<g id="g120" transform="translate(482.0342,417.4399)">
					<path id="path122" inkscape:connector-curvature="0" fill="none" stroke="#373535" stroke-width="0.5" d="M-337.141,361.108
						h-3.342v-0.461c1.013-0.065,1.275-0.302,1.275-0.921v-9.015l0.034-1.074l-0.382,0.978l-4.616,10.493h-2.989v-0.461
						c1.041-0.087,1.274-0.302,1.274-0.921V345.52c0-0.619-0.261-0.856-1.274-0.921v-0.461h3.485v0.461
						c-1.007,0.07-1.274,0.302-1.274,0.921v11.951c0,0.363-0.018,0.723-0.041,0.94c0.065-0.198,0.186-0.509,0.33-0.843
						c1.265-2.937,5.891-13.694,5.891-13.694h0.498v15.852c0,0.618,0.278,0.861,1.275,0.921v0.461H-337.141z"/>
				</g>
				<g id="g124" transform="translate(300.5308,418.6958)">
					<path id="path126" inkscape:connector-curvature="0" fill="#373535" d="M-210.815,360.234l-0.037,0.005
						c0,0-0.182-0.387-0.763-0.387h-6.389c-0.581,0-0.764,0.387-0.764,0.387l-0.037-0.005l-0.445-4.122h0.481
						c0.72,2.477,1.233,2.919,1.994,2.919h1.039v-14.766c0-0.62-0.281-0.866-1.275-0.921v-0.461h4.404v0.461
						c-0.994,0.056-1.275,0.302-1.275,0.921v14.766h1.039c0.761,0,1.274-0.443,1.993-2.919h0.481L-210.815,360.234z"/>
				</g>
				<g id="g128" transform="translate(300.5308,418.6958)">
					<path id="path130" inkscape:connector-curvature="0" fill="none" stroke="#373535" stroke-width="0.5" d="M-210.815,360.234
						l-0.037,0.005c0,0-0.182-0.387-0.763-0.387h-6.389c-0.581,0-0.764,0.387-0.764,0.387l-0.037-0.005l-0.445-4.122h0.481
						c0.72,2.477,1.233,2.919,1.994,2.919h1.039v-14.766c0-0.62-0.281-0.866-1.275-0.921v-0.461h4.404v0.461
						c-0.994,0.056-1.275,0.302-1.275,0.921v14.766h1.039c0.761,0,1.274-0.443,1.993-2.919h0.481L-210.815,360.234z"/>
				</g>
				<g id="g132" transform="translate(565.5352,373.9434)">
					<path id="path134" inkscape:connector-curvature="0" fill="#373535" d="M-395.258,391.375c-0.731-2.48-1.233-2.919-1.993-2.919
						h-1.718c-0.406,0-0.517,0.121-0.517,0.562v14.297c0,0.512,0.274,0.769,1.632,0.821v0.47h-4.762v-0.462
						c1.03-0.078,1.274-0.302,1.274-0.921v-14.205c0-0.619-0.28-0.87-1.274-0.921v-0.462h6.593c0.58,0,0.772-0.392,0.772-0.392
						l0.042,0.007l0.432,4.126H-395.258z"/>
				</g>
				<g id="g136" transform="translate(565.5352,373.9434)">
					<path id="path138" inkscape:connector-curvature="0" fill="none" stroke="#373535" stroke-width="0.5" d="M-395.258,391.375
						c-0.731-2.48-1.233-2.919-1.993-2.919h-1.718c-0.406,0-0.517,0.121-0.517,0.562v14.297c0,0.512,0.274,0.769,1.632,0.821v0.47
						h-4.762v-0.462c1.03-0.078,1.274-0.302,1.274-0.921v-14.205c0-0.619-0.28-0.87-1.274-0.921v-0.462h6.593
						c0.58,0,0.772-0.392,0.772-0.392l0.042,0.007l0.432,4.126H-395.258z"/>
				</g>
			</g>
		</g>
	</g>
	<g id="g144">
		<g>
			<defs>
				<rect id="SVGID_3_" x="-24.902" y="621.471" width="232.56" height="301.112"/>
			</defs>
			<clipPath id="SVGID_4_">
				<use xlink:href="#SVGID_3_"  overflow="visible"/>
			</clipPath>
			<g id="g146" clip-path="url(#SVGID_4_)">
				<g id="g152" transform="translate(163.5767,412.1089)">
					<path id="path154" inkscape:connector-curvature="0" fill="#AED3DC" d="M-115.495,364.817c0,0.607,0.26,0.801,1.07,0.801
						c1.52,0,1.956-1.904,2.084-3.396c0.269-3.161-0.974-4.407-2.55-4.407h-0.603V364.817z M-118.625,366.439v-0.461
						c1.031-0.078,1.275-0.302,1.275-0.921v-14.205c0-0.62-0.235-0.843-1.275-0.921v-0.461h4.405v0.461
						c-1.035,0.078-1.275,0.302-1.275,0.921v6.143h1.261c1.875,0,3.893,1.49,3.893,4.719c0,3.231-1.432,4.726-4.142,4.726H-118.625z
						"/>
				</g>
				<g id="g156" transform="translate(163.5767,412.1089)">
					<path id="path158" inkscape:connector-curvature="0" fill="none" stroke="#AED3DC" stroke-width="0.5" d="M-115.495,364.817
						c0,0.607,0.26,0.801,1.07,0.801c1.52,0,1.956-1.904,2.084-3.396c0.269-3.161-0.974-4.407-2.55-4.407h-0.603V364.817z
						 M-118.625,366.439v-0.461c1.031-0.078,1.275-0.302,1.275-0.921v-14.205c0-0.62-0.235-0.843-1.275-0.921v-0.461h4.405v0.461
						c-1.035,0.078-1.275,0.302-1.275,0.921v6.143h1.261c1.875,0,3.893,1.49,3.893,4.719c0,3.231-1.432,4.726-4.142,4.726H-118.625z
						"/>
				</g>
				<g id="g160" transform="translate(437.5986,417.4399)">
					<path id="path162" inkscape:connector-curvature="0" fill="#AED3DC" d="M-306.214,361.108v-0.461
						c1.021-0.06,1.275-0.302,1.275-0.921v-11.332c0-3.1-1.697-3.562-2.707-3.562c-1.736,0-2.544,1.086-2.544,3.418v11.476
						c0,0.618,0.245,0.838,1.273,0.921v0.461h-4.404v-0.461c1.025-0.07,1.274-0.302,1.274-0.921V348.25
						c0-2.934,1.393-4.361,4.257-4.361c1.727,0,3.786,0.817,3.786,4.709v11.128c0,0.618,0.257,0.847,1.275,0.921v0.461H-306.214z"/>
				</g>
				<g id="g164" transform="translate(437.5986,417.4399)">
					<path id="path166" inkscape:connector-curvature="0" fill="none" stroke="#AED3DC" stroke-width="0.5" d="M-306.214,361.108
						v-0.461c1.021-0.06,1.275-0.302,1.275-0.921v-11.332c0-3.1-1.697-3.562-2.707-3.562c-1.736,0-2.544,1.086-2.544,3.418v11.476
						c0,0.618,0.245,0.838,1.273,0.921v0.461h-4.404v-0.461c1.025-0.07,1.274-0.302,1.274-0.921V348.25
						c0-2.934,1.393-4.361,4.257-4.361c1.727,0,3.786,0.817,3.786,4.709v11.128c0,0.618,0.257,0.847,1.275,0.921v0.461H-306.214z"/>
				</g>
				<g id="g168" transform="translate(484.8857,403.8926)">
					<path id="path170" inkscape:connector-curvature="0" fill="#AED3DC" d="M-339.126,370.535c0-2.974,1.447-3.927,3.637-4.972
						c2.058-0.982,2.936-2.241,2.936-4.213c0-1.472-0.75-3.191-2.865-3.191c-1.76,0-2.871,1.412-3.355,4.45h-0.427v-4.988h0.407
						c0.107,0.589,0.275,0.751,0.467,0.751c0.271,0,0.518-0.223,0.682-0.346c0.517-0.387,1.266-0.605,2.21-0.605
						c2.648,0,4.23,1.846,4.23,4.939c0,2.522-1.239,4.211-3.706,5.345c-2.248,1.032-2.803,1.918-2.803,3.662
						c0,1.915,1.14,2.812,2.602,2.812c1.143,0,2.518-0.772,2.777-3.932h0.43v4.502h-0.407c-0.146-0.472-0.271-0.579-0.467-0.579
						c-0.062,0-0.217,0.083-0.357,0.179c-0.354,0.244-1.008,0.613-1.922,0.613C-337.416,374.964-339.126,373.036-339.126,370.535"/>
				</g>
				<g id="g172" transform="translate(484.8857,403.8926)">
					<path id="path174" inkscape:connector-curvature="0" fill="none" stroke="#AED3DC" stroke-width="0.5" d="M-339.126,370.535
						c0-2.974,1.447-3.927,3.637-4.972c2.058-0.982,2.936-2.241,2.936-4.213c0-1.472-0.75-3.191-2.865-3.191
						c-1.76,0-2.871,1.412-3.355,4.45h-0.427v-4.988h0.407c0.107,0.589,0.275,0.751,0.467,0.751c0.271,0,0.518-0.223,0.682-0.346
						c0.517-0.387,1.266-0.605,2.21-0.605c2.648,0,4.23,1.846,4.23,4.939c0,2.522-1.239,4.211-3.706,5.345
						c-2.248,1.032-2.803,1.918-2.803,3.662c0,1.915,1.14,2.812,2.602,2.812c1.143,0,2.518-0.772,2.777-3.932h0.43v4.502h-0.407
						c-0.146-0.472-0.271-0.579-0.467-0.579c-0.062,0-0.217,0.083-0.357,0.179c-0.354,0.244-1.008,0.613-1.922,0.613
						C-337.416,374.964-339.126,373.036-339.126,370.535z"/>
				</g>
				<g id="g176" transform="translate(132.3887,412.1089)">
					<path id="path178" inkscape:connector-curvature="0" fill="#AED3DC" d="M-93.788,364.817c0,0.607,0.439,0.801,1.248,0.801
						c1.327,0,1.911-1.595,2.037-3.089c0.204-2.423-0.575-4.241-2.682-4.241h-0.604V364.817z M-96.918,366.439v-0.461
						c1.038-0.078,1.275-0.302,1.275-0.921v-14.205c0-0.62-0.246-0.843-1.275-0.921v-0.461h4.404v0.461
						c-1.045,0.078-1.274,0.302-1.274,0.921v6.709h0.606c1.047-2.559,1.957-4.897,2.448-6.16l0.373-0.951
						c0.296-0.719,0.76-1.025,1.523-1.025c0.811,0,1.339,0.045,1.339,0.045v0.461c-0.558,0-0.693,0.19-0.896,0.621l-0.516,1.304
						c0,0-2.249,5.653-2.353,5.914c1.67,0.545,2.77,2.074,2.77,4.236c0,2.9-1.394,4.433-4.104,4.433H-96.918z"/>
				</g>
				<g id="g180" transform="translate(132.3887,412.1089)">
					<path id="path182" inkscape:connector-curvature="0" fill="none" stroke="#AED3DC" stroke-width="0.5" d="M-93.788,364.817
						c0,0.607,0.439,0.801,1.248,0.801c1.327,0,1.911-1.595,2.037-3.089c0.204-2.423-0.575-4.241-2.682-4.241h-0.604V364.817z
						 M-96.918,366.439v-0.461c1.038-0.078,1.275-0.302,1.275-0.921v-14.205c0-0.62-0.246-0.843-1.275-0.921v-0.461h4.404v0.461
						c-1.045,0.078-1.274,0.302-1.274,0.921v6.709h0.606c1.047-2.559,1.957-4.897,2.448-6.16l0.373-0.951
						c0.296-0.719,0.76-1.025,1.523-1.025c0.811,0,1.339,0.045,1.339,0.045v0.461c-0.558,0-0.693,0.19-0.896,0.621l-0.516,1.304
						c0,0-2.249,5.653-2.353,5.914c1.67,0.545,2.77,2.074,2.77,4.236c0,2.9-1.394,4.433-4.104,4.433H-96.918z"/>
				</g>
				<g id="g184" transform="translate(94.8477,389.1621)">
					<path id="path186" inkscape:connector-curvature="0" fill="#AED3DC" d="M-67.66,380.785c-0.371,7.029,1.435,8.084,2.659,8.123
						c1.838,0.057,3.089-1.79,3.289-7.848c0.225-6.815-1.062-8.158-2.661-8.17C-65.83,372.877-67.288,373.757-67.66,380.785
						 M-69.625,380.898c0-6.05,2.024-8.756,4.94-8.756c3.181,0,4.939,2.946,4.939,8.756c0,5.811-1.78,8.757-4.857,8.757
						C-67.699,389.655-69.625,386.709-69.625,380.898"/>
				</g>
				<g id="g188" transform="translate(94.8477,389.1621)">
					<path id="path190" inkscape:connector-curvature="0" fill="none" stroke="#AED3DC" stroke-width="0.5" d="M-67.66,380.785
						c-0.371,7.029,1.435,8.084,2.659,8.123c1.838,0.057,3.089-1.79,3.289-7.848c0.225-6.815-1.062-8.158-2.661-8.17
						C-65.83,372.877-67.288,373.757-67.66,380.785z M-69.625,380.898c0-6.05,2.024-8.756,4.94-8.756
						c3.181,0,4.939,2.946,4.939,8.756c0,5.811-1.78,8.757-4.857,8.757C-67.699,389.655-69.625,386.709-69.625,380.898z"/>
				</g>
				<g id="g192" transform="translate(189.6709,389.1621)">
					<path id="path194" inkscape:connector-curvature="0" fill="#AED3DC" d="M-133.657,380.785c-0.371,7.029,1.435,8.084,2.66,8.123
						c1.837,0.057,3.088-1.79,3.288-7.848c0.226-6.815-1.061-8.158-2.66-8.17C-131.827,372.877-133.285,373.757-133.657,380.785
						 M-135.622,380.898c0-6.05,2.024-8.756,4.94-8.756c3.182,0,4.939,2.946,4.939,8.756c0,5.811-1.78,8.757-4.857,8.757
						C-133.696,389.655-135.622,386.709-135.622,380.898"/>
				</g>
				<g id="g196" transform="translate(189.6709,389.1621)">
					<path id="path198" inkscape:connector-curvature="0" fill="none" stroke="#AED3DC" stroke-width="0.5" d="M-133.657,380.785
						c-0.371,7.029,1.435,8.084,2.66,8.123c1.837,0.057,3.088-1.79,3.288-7.848c0.226-6.815-1.061-8.158-2.66-8.17
						C-131.827,372.877-133.285,373.757-133.657,380.785z M-135.622,380.898c0-6.05,2.024-8.756,4.94-8.756
						c3.182,0,4.939,2.946,4.939,8.756c0,5.811-1.78,8.757-4.857,8.757C-133.696,389.655-135.622,386.709-135.622,380.898z"/>
				</g>
				<g id="g200" transform="translate(387.5391,389.1621)">
					<path id="path202" inkscape:connector-curvature="0" fill="#AED3DC" d="M-271.373,380.785c-0.371,7.029,1.436,8.084,2.66,8.123
						c1.837,0.057,3.088-1.79,3.289-7.848c0.225-6.815-1.062-8.158-2.661-8.17C-269.543,372.877-271.001,373.757-271.373,380.785
						 M-273.339,380.898c0-6.05,2.024-8.756,4.94-8.756c3.182,0,4.939,2.946,4.939,8.756c0,5.811-1.78,8.757-4.857,8.757
						C-271.413,389.655-273.339,386.709-273.339,380.898"/>
				</g>
				<g id="g204" transform="translate(387.5391,389.1621)">
					<path id="path206" inkscape:connector-curvature="0" fill="none" stroke="#AED3DC" stroke-width="0.5" d="M-271.373,380.785
						c-0.371,7.029,1.436,8.084,2.66,8.123c1.837,0.057,3.088-1.79,3.289-7.848c0.225-6.815-1.062-8.158-2.661-8.17
						C-269.543,372.877-271.001,373.757-271.373,380.785z M-273.339,380.898c0-6.05,2.024-8.756,4.94-8.756
						c3.182,0,4.939,2.946,4.939,8.756c0,5.811-1.78,8.757-4.857,8.757C-271.413,389.655-273.339,386.709-273.339,380.898z"/>
				</g>
				<g id="g208" transform="translate(47.4473,395.9844)">
					<path id="path210" inkscape:connector-curvature="0" fill="#AED3DC" d="M-34.669,376.037c0-7.112,2.116-10.718,6.249-10.718
						c3.376,0,4.905,2.803,5.071,7.156h-1.347c-0.229-5.387-2.092-6.293-3.542-6.35c-1.539-0.061-3.856,0.983-4.201,9.771
						c-0.246,6.279,1.323,9.92,4.001,10.055c1.809,0,3.357-0.53,4.158-5.033h0.452v5.507h-0.398
						c-0.279-0.339-0.496-0.413-0.789-0.413c-0.26,0-0.579,0.105-0.877,0.236c-0.484,0.213-1.147,0.506-2.323,0.506
						C-30.625,386.755-34.669,384.961-34.669,376.037"/>
				</g>
				<g id="g212" transform="translate(47.4473,395.9844)">
					<path id="path214" inkscape:connector-curvature="0" fill="none" stroke="#AED3DC" stroke-width="0.5" d="M-34.669,376.037
						c0-7.112,2.116-10.718,6.249-10.718c3.376,0,4.905,2.803,5.071,7.156h-1.347c-0.229-5.387-2.092-6.293-3.542-6.35
						c-1.539-0.061-3.856,0.983-4.201,9.771c-0.246,6.279,1.323,9.92,4.001,10.055c1.809,0,3.357-0.53,4.158-5.033h0.452v5.507
						h-0.398c-0.279-0.339-0.496-0.413-0.789-0.413c-0.26,0-0.579,0.105-0.877,0.236c-0.484,0.213-1.147,0.506-2.323,0.506
						C-30.625,386.755-34.669,384.961-34.669,376.037z"/>
				</g>
				<g id="g216" transform="translate(341.4385,395.9844)">
					<path id="path218" inkscape:connector-curvature="0" fill="#AED3DC" d="M-239.287,376.037c0-7.112,2.115-10.718,6.249-10.718
						c3.376,0,4.906,2.803,5.071,7.156h-1.347c-0.229-5.387-2.091-6.293-3.542-6.35c-1.539-0.061-3.856,0.983-4.2,9.771
						c-0.245,6.279,1.323,9.92,4.001,10.055c1.809,0,3.356-0.53,4.159-5.033h0.451v5.507h-0.397
						c-0.279-0.339-0.496-0.413-0.789-0.413c-0.261,0-0.579,0.105-0.877,0.236c-0.484,0.213-1.147,0.506-2.323,0.506
						C-235.243,386.755-239.287,384.961-239.287,376.037"/>
				</g>
				<g id="g220" transform="translate(341.4385,395.9844)">
					<path id="path222" inkscape:connector-curvature="0" fill="none" stroke="#AED3DC" stroke-width="0.5" d="M-239.287,376.037
						c0-7.112,2.115-10.718,6.249-10.718c3.376,0,4.906,2.803,5.071,7.156h-1.347c-0.229-5.387-2.091-6.293-3.542-6.35
						c-1.539-0.061-3.856,0.983-4.2,9.771c-0.245,6.279,1.323,9.92,4.001,10.055c1.809,0,3.356-0.53,4.159-5.033h0.451v5.507h-0.397
						c-0.279-0.339-0.496-0.413-0.789-0.413c-0.261,0-0.579,0.105-0.877,0.236c-0.484,0.213-1.147,0.506-2.323,0.506
						C-235.243,386.755-239.287,384.961-239.287,376.037z"/>
				</g>
				<g id="g224" transform="translate(255.667,384.543)">
					<path id="path226" inkscape:connector-curvature="0" fill="#AED3DC" d="M-179.589,383.999c0.416,1.752,0.858,3.639,1.205,5.203
						c0.059,0.279,0.101,0.542,0.124,0.8c0.023-0.249,0.054-0.53,0.122-0.784c0.357-1.419,0.826-3.364,1.268-5.219H-179.589z
						 M-187.731,385.854h-0.603v6.529c0,0.606,0.438,0.801,1.248,0.801c1.327,0,1.92-1.594,2.037-3.089
						C-184.814,387.128-185.994,385.854-187.731,385.854 M-172.307,377.496c-0.964,0.074-1.125,0.37-1.279,0.957l-1.195,4.551
						c-1.038,4.188-2.813,11.269-2.813,11.269h-0.46c0,0-3.834-15.273-3.97-15.827c-0.138-0.565-0.282-0.942-0.45-0.942
						c-0.168,0-0.313,0.252-0.434,0.522l-0.55,1.394c0,0-2.25,5.653-2.353,5.914c1.67,0.545,2.77,2.074,2.77,4.236
						c0,2.9-1.394,4.433-4.104,4.433h-4.321v-0.461c1.049-0.078,1.275-0.302,1.275-0.921v-14.206c0-0.619-0.25-0.842-1.275-0.921
						v-0.461h4.404v0.461c-1.034,0.078-1.274,0.302-1.274,0.921v6.709h0.606c1.047-2.559,1.957-4.897,2.448-6.16l0.372-0.951
						c0.296-0.719,0.814-0.98,1.578-0.98h3.399v0.461c-0.58,0.04-0.836,0.109-0.954,0.3c-0.084,0.136-0.103,0.37-0.042,0.625
						c0.061,0.254,0.876,3.646,1.142,4.759h3.111c0.266-1.12,1.019-4.306,1.103-4.651c0.061-0.249,0.083-0.528-0.034-0.673
						c-0.179-0.222-0.483-0.312-1.21-0.359v-0.461h4.508V377.496z"/>
				</g>
				<g id="g228" transform="translate(255.667,384.543)">
					<path id="path230" inkscape:connector-curvature="0" fill="none" stroke="#AED3DC" stroke-width="0.5" d="M-179.589,383.999
						c0.416,1.752,0.858,3.639,1.205,5.203c0.059,0.279,0.101,0.542,0.124,0.8c0.023-0.249,0.054-0.53,0.122-0.784
						c0.357-1.419,0.826-3.364,1.268-5.219H-179.589z M-187.731,385.854h-0.603v6.529c0,0.606,0.438,0.801,1.248,0.801
						c1.327,0,1.92-1.594,2.037-3.089C-184.814,387.128-185.994,385.854-187.731,385.854z M-172.307,377.496
						c-0.964,0.074-1.125,0.37-1.279,0.957l-1.195,4.551c-1.038,4.188-2.813,11.269-2.813,11.269h-0.46
						c0,0-3.834-15.273-3.97-15.827c-0.138-0.565-0.282-0.942-0.45-0.942c-0.168,0-0.313,0.252-0.434,0.522l-0.55,1.394
						c0,0-2.25,5.653-2.353,5.914c1.67,0.545,2.77,2.074,2.77,4.236c0,2.9-1.394,4.433-4.104,4.433h-4.321v-0.461
						c1.049-0.078,1.275-0.302,1.275-0.921v-14.206c0-0.619-0.25-0.842-1.275-0.921v-0.461h4.404v0.461
						c-1.034,0.078-1.274,0.302-1.274,0.921v6.709h0.606c1.047-2.559,1.957-4.897,2.448-6.16l0.372-0.951
						c0.296-0.719,0.814-0.98,1.578-0.98h3.399v0.461c-0.58,0.04-0.836,0.109-0.954,0.3c-0.084,0.136-0.103,0.37-0.042,0.625
						c0.061,0.254,0.876,3.646,1.142,4.759h3.111c0.266-1.12,1.019-4.306,1.103-4.651c0.061-0.249,0.083-0.528-0.034-0.673
						c-0.179-0.222-0.483-0.312-1.21-0.359v-0.461h4.508V377.496z"/>
				</g>
				<g id="g232" transform="translate(329.375,373.9434)">
					<path id="path234" inkscape:connector-curvature="0" fill="#AED3DC" d="M-230.891,391.375c-0.731-2.48-1.232-2.919-1.993-2.919
						h-2.201c-0.406,0-0.518,0.121-0.518,0.562v6.907h1.993c0.892,0,1.302-1.028,1.365-2.021h0.461v4.531h-0.461
						c-0.095-1.029-0.371-1.689-1.365-1.689h-1.993v6.834c0,0.19,0.08,0.205,0.202,0.205h2.066c0.761,0,1.28-0.5,1.994-2.919h0.481
						l-0.433,4.117l-0.04,0.015c0,0-0.192-0.393-0.773-0.393h-6.625v-0.462c1.053-0.077,1.274-0.302,1.274-0.921v-14.205
						c0-0.619-0.246-0.847-1.274-0.921v-0.462h7.076c0.58,0,0.772-0.392,0.772-0.392l0.041,0.007l0.432,4.126H-230.891z"/>
				</g>
				<g id="g236" transform="translate(329.375,373.9434)">
					<path id="path238" inkscape:connector-curvature="0" fill="none" stroke="#AED3DC" stroke-width="0.5" d="M-230.891,391.375
						c-0.731-2.48-1.232-2.919-1.993-2.919h-2.201c-0.406,0-0.518,0.121-0.518,0.562v6.907h1.993c0.892,0,1.302-1.028,1.365-2.021
						h0.461v4.531h-0.461c-0.095-1.029-0.371-1.689-1.365-1.689h-1.993v6.834c0,0.19,0.08,0.205,0.202,0.205h2.066
						c0.761,0,1.28-0.5,1.994-2.919h0.481l-0.433,4.117l-0.04,0.015c0,0-0.192-0.393-0.773-0.393h-6.625v-0.462
						c1.053-0.077,1.274-0.302,1.274-0.921v-14.205c0-0.619-0.246-0.847-1.274-0.921v-0.462h7.076c0.58,0,0.772-0.392,0.772-0.392
						l0.041,0.007l0.432,4.126H-230.891z"/>
				</g>
				<g id="g240" transform="translate(538.2607,373.9434)">
					<path id="path242" inkscape:connector-curvature="0" fill="#AED3DC" d="M-376.275,391.375c-0.731-2.48-1.233-2.919-1.994-2.919
						h-2.202c-0.405,0-0.516,0.121-0.516,0.562v6.907h1.992c0.892,0,1.302-1.028,1.364-2.021h0.462v4.531h-0.462
						c-0.095-1.029-0.371-1.689-1.364-1.689h-1.992v6.834c0,0.19,0.08,0.205,0.2,0.205h2.066c0.761,0,1.28-0.5,1.993-2.919h0.482
						l-0.433,4.117l-0.04,0.015c0,0-0.192-0.393-0.773-0.393h-6.625v-0.462c1.053-0.077,1.274-0.302,1.274-0.921v-14.205
						c0-0.619-0.246-0.847-1.274-0.921v-0.462h7.077c0.58,0,0.772-0.392,0.772-0.392l0.041,0.007l0.432,4.126H-376.275z"/>
				</g>
				<g id="g244" transform="translate(538.2607,373.9434)">
					<path id="path246" inkscape:connector-curvature="0" fill="none" stroke="#AED3DC" stroke-width="0.5" d="M-376.275,391.375
						c-0.731-2.48-1.233-2.919-1.994-2.919h-2.202c-0.405,0-0.516,0.121-0.516,0.562v6.907h1.992c0.892,0,1.302-1.028,1.364-2.021
						h0.462v4.531h-0.462c-0.095-1.029-0.371-1.689-1.364-1.689h-1.992v6.834c0,0.19,0.08,0.205,0.2,0.205h2.066
						c0.761,0,1.28-0.5,1.993-2.919h0.482l-0.433,4.117l-0.04,0.015c0,0-0.192-0.393-0.773-0.393h-6.625v-0.462
						c1.053-0.077,1.274-0.302,1.274-0.921v-14.205c0-0.619-0.246-0.847-1.274-0.921v-0.462h7.077c0.58,0,0.772-0.392,0.772-0.392
						l0.041,0.007l0.432,4.126H-376.275z"/>
				</g>
				<g id="g248" transform="translate(483.0342,417.4399)">
					<path id="path250" inkscape:connector-curvature="0" fill="#AED3DC" d="M-337.837,361.108h-3.342v-0.461
						c1.013-0.065,1.275-0.302,1.275-0.921v-9.015l0.034-1.074l-0.382,0.978l-4.616,10.493h-2.989v-0.461
						c1.041-0.087,1.274-0.302,1.274-0.921V345.52c0-0.619-0.261-0.856-1.274-0.921v-0.461h3.485v0.461
						c-1.007,0.07-1.274,0.302-1.274,0.921v11.951c0,0.363-0.018,0.723-0.041,0.94c0.065-0.198,0.186-0.509,0.33-0.843
						c1.266-2.937,5.891-13.694,5.891-13.694h0.498v15.852c0,0.618,0.278,0.861,1.275,0.921v0.461H-337.837z"/>
				</g>
				<g id="g252" transform="translate(483.0342,417.4399)">
					<path id="path254" inkscape:connector-curvature="0" fill="none" stroke="#AED3DC" stroke-width="0.5" d="M-337.837,361.108
						h-3.342v-0.461c1.013-0.065,1.275-0.302,1.275-0.921v-9.015l0.034-1.074l-0.382,0.978l-4.616,10.493h-2.989v-0.461
						c1.041-0.087,1.274-0.302,1.274-0.921V345.52c0-0.619-0.261-0.856-1.274-0.921v-0.461h3.485v0.461
						c-1.007,0.07-1.274,0.302-1.274,0.921v11.951c0,0.363-0.018,0.723-0.041,0.94c0.065-0.198,0.186-0.509,0.33-0.843
						c1.266-2.937,5.891-13.694,5.891-13.694h0.498v15.852c0,0.618,0.278,0.861,1.275,0.921v0.461H-337.837z"/>
				</g>
				<g id="g256" transform="translate(301.5308,418.6958)">
					<path id="path258" inkscape:connector-curvature="0" fill="#AED3DC" d="M-211.511,360.234l-0.037,0.005
						c0,0-0.183-0.387-0.764-0.387h-6.389c-0.581,0-0.764,0.387-0.764,0.387l-0.037-0.005l-0.445-4.122h0.481
						c0.72,2.477,1.233,2.919,1.994,2.919h1.039v-14.766c0-0.62-0.281-0.866-1.275-0.921v-0.461h4.404v0.461
						c-0.994,0.056-1.275,0.302-1.275,0.921v14.766h1.039c0.761,0,1.274-0.443,1.993-2.919h0.481L-211.511,360.234z"/>
				</g>
				<g id="g260" transform="translate(301.5308,418.6958)">
					<path id="path262" inkscape:connector-curvature="0" fill="none" stroke="#AED3DC" stroke-width="0.5" d="M-211.511,360.234
						l-0.037,0.005c0,0-0.183-0.387-0.764-0.387h-6.389c-0.581,0-0.764,0.387-0.764,0.387l-0.037-0.005l-0.445-4.122h0.481
						c0.72,2.477,1.233,2.919,1.994,2.919h1.039v-14.766c0-0.62-0.281-0.866-1.275-0.921v-0.461h4.404v0.461
						c-0.994,0.056-1.275,0.302-1.275,0.921v14.766h1.039c0.761,0,1.274-0.443,1.993-2.919h0.481L-211.511,360.234z"/>
				</g>
				<g id="g264" transform="translate(566.5352,373.9434)">
					<path id="path266" inkscape:connector-curvature="0" fill="#AED3DC" d="M-395.954,391.375c-0.731-2.48-1.233-2.919-1.993-2.919
						h-1.718c-0.406,0-0.518,0.121-0.518,0.562v14.297c0,0.512,0.274,0.769,1.633,0.821v0.47h-4.762v-0.462
						c1.03-0.078,1.274-0.302,1.274-0.921v-14.205c0-0.619-0.28-0.87-1.274-0.921v-0.462h6.593c0.58,0,0.773-0.392,0.773-0.392
						l0.041,0.007l0.432,4.126H-395.954z"/>
				</g>
				<g id="g268" transform="translate(566.5352,373.9434)">
					<path id="path270" inkscape:connector-curvature="0" fill="none" stroke="#AED3DC" stroke-width="0.5" d="M-395.954,391.375
						c-0.731-2.48-1.233-2.919-1.993-2.919h-1.718c-0.406,0-0.518,0.121-0.518,0.562v14.297c0,0.512,0.274,0.769,1.633,0.821v0.47
						h-4.762v-0.462c1.03-0.078,1.274-0.302,1.274-0.921v-14.205c0-0.619-0.28-0.87-1.274-0.921v-0.462h6.593
						c0.58,0,0.773-0.392,0.773-0.392l0.041,0.007l0.432,4.126H-395.954z"/>
				</g>
			</g>
		</g>
	</g>
</g>
</svg>
