<?xml version="1.0" encoding="utf-8"?>
<!-- Generator: Adobe Illustrator 16.0.0, SVG Export Plug-In . SVG Version: 6.00 Build 0)  -->
<!DOCTYPE svg PUBLIC "-//W3C//DTD SVG 1.1//EN" "http://www.w3.org/Graphics/SVG/1.1/DTD/svg11.dtd">
<svg version="1.1"
	 id="svg2" xmlns:dc="http://purl.org/dc/elements/1.1/" xmlns:cc="http://creativecommons.org/ns#" xmlns:rdf="http://www.w3.org/1999/02/22-rdf-syntax-ns#" xmlns:svg="http://www.w3.org/2000/svg" xmlns:inkscape="http://www.inkscape.org/namespaces/inkscape"
	 xmlns="http://www.w3.org/2000/svg" xmlns:xlink="http://www.w3.org/1999/xlink" x="0px" y="0px" width="765px" height="1260px"
	 viewBox="0 0 765 1260" enable-background="new 0 0 765 1260" xml:space="preserve">
<g id="g10" transform="matrix(1.25,0,0,-1.25,0,1260)">
	<g id="g12" transform="translate(178.2637,522.8784)">
		<path id="path14" inkscape:connector-curvature="0" fill="#3B473B" d="M-165.78,456.97v17.852h7.696v-13.62h12.317v-4.232H-165.78
			z"/>
	</g>
	<g id="g16" transform="translate(336.668,600.3628)">
		<path id="path18" inkscape:connector-curvature="0" fill="#3B473B" d="M-287.688,397.338v-4.232h-7.833v-13.62h-7.696v13.62
			h-7.832v4.232H-287.688z"/>
	</g>
	<g id="g20" transform="translate(340.8145,522.8784)">
		<path id="path22" inkscape:connector-curvature="0" fill="#3B473B" d="M-290.879,456.97v17.852h8.659l6.909-7.148h0.051
			l-0.001,7.148h7.191V456.97h-5.86l-9.709,9.993h-0.049v-9.993H-290.879z"/>
	</g>
	<g id="g24" transform="translate(178.2637,500.373)">
		<path id="path26" inkscape:connector-curvature="0" fill="#3B473B" d="M-165.78,474.291v3.922h0.869v-3.27h1.302v-0.652H-165.78z"
			/>
	</g>
	<g id="g28" transform="translate(195.2334,514.1172)">
		<path id="path30" inkscape:connector-curvature="0" fill="#3B473B" d="M-178.84,463.713h-0.011l-0.397-1.695h0.829
			L-178.84,463.713z M-180.515,460.546l1.152,3.922h1.146l1.129-3.922h-0.916l-0.23,0.869h-1.186l-0.236-0.869H-180.515z"/>
	</g>
	<g id="g32" transform="translate(202.5801,517.394)">
		<path id="path34" inkscape:connector-curvature="0" fill="#3B473B" d="M-184.494,461.191h0.892l0.542-2.754h0.011l0.656,2.754
			h1.025l0.622-2.754h0.011l0.518,2.754h0.852l-0.921-3.922h-0.962l-0.651,2.868h-0.011l-0.72-2.868h-0.944L-184.494,461.191z"/>
	</g>
	<g id="g36" transform="translate(242.6924,517.394)">
		<path id="path38" inkscape:connector-curvature="0" fill="#3B473B" d="M-215.364,461.191v-0.652h-0.968v-3.27h-0.869v3.27h-0.968
			v0.652H-215.364z"/>
	</g>
	<g id="g40" transform="translate(244.4414,500.373)">
		<path id="path42" inkscape:connector-curvature="0" fill="#3B473B" d="M-216.71,474.291v3.922h2.269v-0.603h-1.4v-0.966h1.29
			v-0.603h-1.29v-1.146h1.445v-0.603H-216.71z"/>
	</g>
	<g id="g44">
		<g>
			<defs>
				<rect id="SVGID_1_" x="-46.214" y="830.347" width="176.256" height="290.304"/>
			</defs>
			<clipPath id="SVGID_2_">
				<use xlink:href="#SVGID_1_"  overflow="visible"/>
			</clipPath>
			<g id="g46" clip-path="url(#SVGID_2_)">
				<g id="g52" transform="translate(256.7617,508.8838)">
					<path id="path54" inkscape:connector-curvature="0" fill="#3B473B" d="M-226.192,467.74c0,1.037,0,2.026,1.434,2.026
						c0.887,0,1.244-0.461,1.209-1.304h-0.852c0,0.522-0.098,0.717-0.357,0.717c-0.489,0-0.553-0.434-0.553-1.439
						c0-1.004,0.063-1.439,0.553-1.439c0.403,0,0.386,0.489,0.397,0.798h0.858c0-1.049-0.443-1.385-1.255-1.385
						C-226.192,465.715-226.192,466.714-226.192,467.74"/>
				</g>
				<g id="g56" transform="translate(279.0557,510.5811)">
					<path id="path58" inkscape:connector-curvature="0" fill="#3B473B" d="M-243.349,466.435v1.569h0.87v-3.922h-0.87v1.749h-0.996
						v-1.749h-0.87v3.922h0.87v-1.569H-243.349z"/>
				</g>
				<g id="g60" transform="translate(286.6274,500.373)">
					<path id="path62" inkscape:connector-curvature="0" fill="#3B473B" d="M-249.176,474.291v3.922h1.175l1.105-2.716h0.012v2.716
						h0.812v-3.922h-1.146l-1.134,2.868h-0.012v-2.868H-249.176z"/>
				</g>
				<g id="g64" transform="translate(311.7197,508.8838)">
					<path id="path66" inkscape:connector-curvature="0" fill="#3B473B" d="M-268.488,467.74c0,1.005-0.063,1.439-0.552,1.439
						c-0.489,0-0.553-0.434-0.553-1.439c0-1.004,0.063-1.439,0.553-1.439C-268.551,466.301-268.488,466.736-268.488,467.74
						 M-270.474,467.74c0,1.037,0,2.026,1.434,2.026s1.434-0.989,1.434-2.026c0-1.026,0-2.026-1.434-2.026
						S-270.474,466.714-270.474,467.74"/>
				</g>
				<g id="g68" transform="translate(318.5654,500.373)">
					<path id="path70" inkscape:connector-curvature="0" fill="#3B473B" d="M-273.755,474.291v3.922h0.869v-3.27h1.302v-0.652
						H-273.755z"/>
				</g>
				<g id="g72" transform="translate(337.085,508.8838)">
					<path id="path74" inkscape:connector-curvature="0" fill="#3B473B" d="M-288.009,467.74c0,1.005-0.063,1.439-0.553,1.439
						c-0.489,0-0.553-0.434-0.553-1.439c0-1.004,0.063-1.439,0.553-1.439C-288.072,466.301-288.009,466.736-288.009,467.74
						 M-289.995,467.74c0,1.037,0,2.026,1.434,2.026s1.434-0.989,1.434-2.026c0-1.026,0-2.026-1.434-2.026
						S-289.995,466.714-289.995,467.74"/>
				</g>
				<g id="g76" transform="translate(352.1553,512.1606)">
					<path id="path78" inkscape:connector-curvature="0" fill="#3B473B" d="M-299.607,465.219c0.006,0.364-0.057,0.684-0.518,0.684
						c-0.542,0-0.542-0.689-0.542-1.45c0-1.228,0.127-1.445,0.622-1.445c0.144,0,0.3,0.032,0.432,0.076v0.87h-0.472v0.603h1.341
						v-1.988c-0.236-0.044-0.829-0.13-1.175-0.13c-1.463,0-1.63,0.57-1.63,2.059c0,0.989,0.052,1.993,1.474,1.993
						c0.852,0,1.382-0.451,1.33-1.271H-299.607z"/>
				</g>
				<g id="g80" transform="translate(361.501,506.2666)">
					<path id="path82" inkscape:connector-curvature="0" fill="#3B473B" d="M-306.8,469.754l-1.088,2.564h0.95l0.622-1.657
						l0.663,1.657h0.887l-1.163-2.564v-1.357h-0.87V469.754z"/>
				</g>
				<g id="g84" transform="translate(377.6455,500.373)">
					<path id="path86" inkscape:connector-curvature="0" fill="#3B473B" d="M-319.224,474.291v3.922h1.175l1.105-2.716h0.011v2.716
						h0.813v-3.922h-1.146l-1.135,2.868h-0.011v-2.868H-319.224z"/>
				</g>
				<g id="g88" transform="translate(394.79,500.373)">
					<path id="path90" inkscape:connector-curvature="0" fill="#3B473B" d="M-332.418,474.291v3.922h2.269v-0.603h-1.4v-0.966h1.29
						v-0.603h-1.29v-1.146h1.446v-0.603H-332.418z"/>
				</g>
				<g id="g92" transform="translate(405.6865,517.394)">
					<path id="path94" inkscape:connector-curvature="0" fill="#3B473B" d="M-340.804,461.191h0.892l0.542-2.754h0.012l0.656,2.754
						h1.025l0.622-2.754h0.012l0.518,2.754h0.853l-0.922-3.922h-0.962l-0.651,2.868h-0.011l-0.72-2.868h-0.945L-340.804,461.191z"/>
				</g>
				<g id="g96" transform="translate(434.4033,500.0898)">
					<path id="path98" inkscape:connector-curvature="0" fill="#3B473B" d="M-362.905,474.509c-1.077,0-1.279,0.598-1.232,1.277
						h0.87c0-0.375,0.018-0.69,0.495-0.69c0.294,0,0.438,0.179,0.438,0.445c0,0.706-1.751,0.75-1.751,1.917
						c0,0.614,0.311,1.103,1.37,1.103c0.846,0,1.267-0.358,1.209-1.179h-0.847c0,0.293-0.051,0.592-0.403,0.592
						c-0.282,0-0.449-0.147-0.449-0.418c0-0.744,1.751-0.679,1.751-1.912C-361.454,474.629-362.243,474.509-362.905,474.509"/>
				</g>
			</g>
		</g>
	</g>
</g>
</svg>
