<?xml version="1.0" encoding="utf-8"?>
<!-- Generator: Adobe Illustrator 16.0.0, SVG Export Plug-In . SVG Version: 6.00 Build 0)  -->
<!DOCTYPE svg PUBLIC "-//W3C//DTD SVG 1.1//EN" "http://www.w3.org/Graphics/SVG/1.1/DTD/svg11.dtd">
<svg version="1.1"
	 id="svg2" xmlns:dc="http://purl.org/dc/elements/1.1/" xmlns:cc="http://creativecommons.org/ns#" xmlns:rdf="http://www.w3.org/1999/02/22-rdf-syntax-ns#" xmlns:svg="http://www.w3.org/2000/svg" xmlns:inkscape="http://www.inkscape.org/namespaces/inkscape"
	 xmlns="http://www.w3.org/2000/svg" xmlns:xlink="http://www.w3.org/1999/xlink" x="0px" y="0px" width="765px" height="1260px"
	 viewBox="0 0 765 1260" enable-background="new 0 0 765 1260" xml:space="preserve">
<g id="g10" transform="matrix(1.25,0,0,-1.25,0,1260)">
	<g id="g12" transform="translate(178.2637,522.8784)">
		<path id="path14" inkscape:connector-curvature="0" fill="#3B473B" d="M-166.025,453.862v24.795h10.689V459.74h17.107v-5.878
			H-166.025z"/>
	</g>
	<g id="g16" transform="translate(336.668,600.3628)">
		<path id="path18" inkscape:connector-curvature="0" fill="#3B473B" d="M-273.74,401.172v-5.878h-10.879v-18.917h-10.688v18.917
			h-10.879v5.878H-273.74z"/>
	</g>
	<g id="g20" transform="translate(340.8145,522.8784)">
		<path id="path22" inkscape:connector-curvature="0" fill="#3B473B" d="M-276.56,453.862v24.795h12.026l9.596-9.927h0.071
			l-0.002,9.927h9.987v-24.795h-8.139l-13.484,13.879h-0.069v-13.879H-276.56z"/>
	</g>
	<g id="g24" transform="translate(178.2637,500.373)">
		<path id="path26" inkscape:connector-curvature="0" fill="#3B473B" d="M-166.025,469.165v5.447h1.208v-4.541h1.808v-0.906
			H-166.025z"/>
	</g>
	<g id="g28" transform="translate(195.2334,514.1172)">
		<path id="path30" inkscape:connector-curvature="0" fill="#3B473B" d="M-177.565,459.82h-0.016l-0.552-2.354h1.152
			L-177.565,459.82z M-179.892,455.421l1.6,5.447h1.591l1.568-5.447h-1.272l-0.32,1.207h-1.648l-0.328-1.207H-179.892z"/>
	</g>
	<g id="g32" transform="translate(202.5801,517.394)">
		<path id="path34" inkscape:connector-curvature="0" fill="#3B473B" d="M-182.56,457.591h1.239l0.752-3.825h0.016l0.912,3.825
			h1.424l0.864-3.825h0.016l0.72,3.825h1.184l-1.28-5.447h-1.336l-0.904,3.984h-0.016l-1-3.984h-1.312L-182.56,457.591z"/>
	</g>
	<g id="g36" transform="translate(242.6924,517.394)">
		<path id="path38" inkscape:connector-curvature="0" fill="#3B473B" d="M-209.837,457.591v-0.905h-1.344v-4.542h-1.207v4.542
			h-1.344v0.905H-209.837z"/>
	</g>
	<g id="g40" transform="translate(244.4414,500.373)">
		<path id="path42" inkscape:connector-curvature="0" fill="#3B473B" d="M-211.026,469.165v5.447h3.151v-0.837h-1.944v-1.343h1.792
			v-0.838h-1.792v-1.592h2.007v-0.838H-211.026z"/>
	</g>
	<g id="g44">
		<g>
			<defs>
				<rect id="SVGID_1_" x="-69.286" y="769.1" width="244.8" height="403.2"/>
			</defs>
			<clipPath id="SVGID_2_">
				<use xlink:href="#SVGID_1_"  overflow="visible"/>
			</clipPath>
			<g id="g46" clip-path="url(#SVGID_2_)">
				<g id="g52" transform="translate(256.7617,508.8838)">
					<path id="path54" inkscape:connector-curvature="0" fill="#3B473B" d="M-219.404,463.378c0,1.441,0,2.814,1.992,2.814
						c1.232,0,1.728-0.641,1.68-1.811h-1.184c0,0.724-0.136,0.996-0.496,0.996c-0.68,0-0.768-0.604-0.768-1.999
						c0-1.395,0.088-1.998,0.768-1.998c0.56,0,0.536,0.679,0.552,1.109h1.191c0-1.456-0.616-1.924-1.743-1.924
						C-219.404,460.564-219.404,461.953-219.404,463.378"/>
				</g>
				<g id="g56" transform="translate(279.0557,510.5811)">
					<path id="path58" inkscape:connector-curvature="0" fill="#3B473B" d="M-234.564,462.224v2.18h1.208v-5.447h-1.208v2.429
						h-1.384v-2.429h-1.208v5.447h1.208v-2.18H-234.564z"/>
				</g>
				<g id="g60" transform="translate(286.6274,500.373)">
					<path id="path62" inkscape:connector-curvature="0" fill="#3B473B" d="M-239.712,469.165v5.447h1.632l1.535-3.772h0.016v3.772
						h1.128v-5.447h-1.592l-1.576,3.984h-0.016v-3.984H-239.712z"/>
				</g>
				<g id="g64" transform="translate(311.7197,508.8838)">
					<path id="path66" inkscape:connector-curvature="0" fill="#3B473B" d="M-256.776,463.378c0,1.396-0.087,1.999-0.768,1.999
						c-0.68,0-0.768-0.604-0.768-1.999c0-1.395,0.088-1.998,0.768-1.998C-256.863,461.379-256.776,461.983-256.776,463.378
						 M-259.535,463.378c0,1.441,0,2.814,1.991,2.814c1.992,0,1.992-1.373,1.992-2.814c0-1.425,0-2.814-1.992-2.814
						C-259.535,460.564-259.535,461.953-259.535,463.378"/>
				</g>
				<g id="g68" transform="translate(318.5654,500.373)">
					<path id="path70" inkscape:connector-curvature="0" fill="#3B473B" d="M-261.43,469.165v5.447h1.208v-4.541h1.807v-0.906
						H-261.43z"/>
				</g>
				<g id="g72" transform="translate(337.085,508.8838)">
					<path id="path74" inkscape:connector-curvature="0" fill="#3B473B" d="M-274.024,463.378c0,1.396-0.087,1.999-0.767,1.999
						c-0.68,0-0.768-0.604-0.768-1.999c0-1.395,0.088-1.998,0.768-1.998C-274.111,461.379-274.024,461.983-274.024,463.378
						 M-276.783,463.378c0,1.441,0,2.814,1.992,2.814c1.991,0,1.991-1.373,1.991-2.814c0-1.425,0-2.814-1.991-2.814
						C-276.783,460.564-276.783,461.953-276.783,463.378"/>
				</g>
				<g id="g76" transform="translate(352.1553,512.1606)">
					<path id="path78" inkscape:connector-curvature="0" fill="#3B473B" d="M-284.271,461.15c0.008,0.505-0.08,0.95-0.72,0.95
						c-0.752,0-0.752-0.958-0.752-2.014c0-1.705,0.177-2.007,0.864-2.007c0.2,0,0.416,0.045,0.6,0.105v1.207h-0.655v0.837h1.863
						v-2.761c-0.327-0.061-1.152-0.181-1.632-0.181c-2.031,0-2.263,0.792-2.263,2.859c0,1.373,0.073,2.769,2.048,2.769
						c1.183,0,1.92-0.626,1.847-1.765H-284.271z"/>
				</g>
				<g id="g80" transform="translate(361.501,506.2666)">
					<path id="path82" inkscape:connector-curvature="0" fill="#3B473B" d="M-290.627,465.158l-1.511,3.561h1.319l0.864-2.301
						l0.92,2.301h1.232l-1.616-3.561v-1.886h-1.208V465.158z"/>
				</g>
				<g id="g84" transform="translate(377.6455,500.373)">
					<path id="path86" inkscape:connector-curvature="0" fill="#3B473B" d="M-301.605,469.165v5.447h1.632l1.535-3.772h0.016v3.772
						h1.129v-5.447h-1.592l-1.576,3.984h-0.016v-3.984H-301.605z"/>
				</g>
				<g id="g88" transform="translate(394.79,500.373)">
					<path id="path90" inkscape:connector-curvature="0" fill="#3B473B" d="M-313.263,469.165v5.447h3.151v-0.837h-1.944v-1.343
						h1.792v-0.838h-1.792v-1.592h2.008v-0.838H-313.263z"/>
				</g>
				<g id="g92" transform="translate(405.6865,517.394)">
					<path id="path94" inkscape:connector-curvature="0" fill="#3B473B" d="M-320.673,457.591h1.239l0.752-3.825h0.016l0.912,3.825
						h1.423l0.864-3.825h0.016l0.72,3.825h1.184l-1.28-5.447h-1.336l-0.904,3.984h-0.015l-1-3.984h-1.312L-320.673,457.591z"/>
				</g>
				<g id="g96" transform="translate(434.4033,500.0898)">
					<path id="path98" inkscape:connector-curvature="0" fill="#3B473B" d="M-340.2,469.358c-1.496,0-1.776,0.83-1.712,1.773h1.207
						c0-0.52,0.025-0.958,0.688-0.958c0.409,0,0.609,0.248,0.609,0.618c0,0.98-2.432,1.041-2.432,2.663
						c0,0.852,0.432,1.531,1.904,1.531c1.175,0,1.76-0.498,1.68-1.637h-1.176c0,0.408-0.071,0.822-0.56,0.822
						c-0.392,0-0.624-0.204-0.624-0.58c0-1.034,2.432-0.943,2.432-2.656C-338.185,469.525-339.281,469.358-340.2,469.358"/>
				</g>
			</g>
		</g>
	</g>
</g>
</svg>
