<?xml version="1.0" encoding="utf-8"?>
<!-- Generator: Adobe Illustrator 16.0.0, SVG Export Plug-In . SVG Version: 6.00 Build 0)  -->
<!DOCTYPE svg PUBLIC "-//W3C//DTD SVG 1.1//EN" "http://www.w3.org/Graphics/SVG/1.1/DTD/svg11.dtd">
<svg version="1.1"
	 id="svg2" xmlns:dc="http://purl.org/dc/elements/1.1/" xmlns:cc="http://creativecommons.org/ns#" xmlns:rdf="http://www.w3.org/1999/02/22-rdf-syntax-ns#" xmlns:svg="http://www.w3.org/2000/svg" xmlns:inkscape="http://www.inkscape.org/namespaces/inkscape"
	 xmlns="http://www.w3.org/2000/svg" xmlns:xlink="http://www.w3.org/1999/xlink" x="0px" y="0px" width="765px" height="1260px"
	 viewBox="0 0 765 1260" enable-background="new 0 0 765 1260" xml:space="preserve">
<g id="g10" transform="matrix(1.25,0,0,-1.25,0,1260)">
	<g id="g12" transform="translate(178.2637,522.8784)">
		<path id="path14" inkscape:connector-curvature="0" fill="#3B473B" d="M-165.85,454.254v19.836h8.551v-15.134h13.686v-4.702
			H-165.85z"/>
	</g>
	<g id="g16" transform="translate(336.668,600.3628)">
		<path id="path18" inkscape:connector-curvature="0" fill="#3B473B" d="M-283.703,396.605v-4.702h-8.703V376.77h-8.551v15.134
			h-8.703v4.702H-283.703z"/>
	</g>
	<g id="g20" transform="translate(340.8145,522.8784)">
		<path id="path22" inkscape:connector-curvature="0" fill="#3B473B" d="M-286.788,454.254v19.836h9.621l7.677-7.942h0.057
			l-0.001,7.942h7.989v-19.836h-6.511l-10.788,11.103h-0.055v-11.103H-286.788z"/>
	</g>
	<g id="g24" transform="translate(178.2637,500.373)">
		<path id="path26" inkscape:connector-curvature="0" fill="#3B473B" d="M-165.85,470.998v4.357h0.966v-3.633h1.446v-0.725H-165.85z
			"/>
	</g>
	<g id="g28" transform="translate(195.2334,514.1172)">
		<path id="path30" inkscape:connector-curvature="0" fill="#3B473B" d="M-178.475,460.772h-0.012l-0.441-1.883h0.921
			L-178.475,460.772z M-180.337,457.253l1.28,4.358h1.273l1.254-4.358h-1.018l-0.256,0.966h-1.318l-0.263-0.966H-180.337z"/>
	</g>
	<g id="g32" transform="translate(202.5801,517.394)">
		<path id="path34" inkscape:connector-curvature="0" fill="#3B473B" d="M-183.941,458.334h0.991l0.602-3.06h0.012l0.729,3.06h1.139
			l0.691-3.06h0.013l0.576,3.06h0.947l-1.024-4.357h-1.069l-0.723,3.187h-0.012l-0.8-3.187h-1.049L-183.941,458.334z"/>
	</g>
	<g id="g36" transform="translate(242.6924,517.394)">
		<path id="path38" inkscape:connector-curvature="0" fill="#3B473B" d="M-213.785,458.334v-0.724h-1.075v-3.633h-0.966v3.633
			h-1.075v0.724H-213.785z"/>
	</g>
	<g id="g40" transform="translate(244.4414,500.373)">
		<path id="path42" inkscape:connector-curvature="0" fill="#3B473B" d="M-215.086,470.998v4.357h2.521v-0.67h-1.555v-1.074h1.434
			v-0.67h-1.434v-1.273h1.606v-0.67H-215.086z"/>
	</g>
	<g id="g44">
		<g>
			<defs>
				<rect id="SVGID_1_" x="-52.806" y="811.019" width="195.84" height="322.56"/>
			</defs>
			<clipPath id="SVGID_2_">
				<use xlink:href="#SVGID_1_"  overflow="visible"/>
			</clipPath>
			<g id="g46" clip-path="url(#SVGID_2_)">
				<g id="g52" transform="translate(256.7617,508.8838)">
					<path id="path54" inkscape:connector-curvature="0" fill="#3B473B" d="M-224.252,464.665c0,1.153,0,2.251,1.593,2.251
						c0.985,0,1.382-0.512,1.344-1.448h-0.947c0,0.58-0.109,0.797-0.396,0.797c-0.544,0-0.614-0.483-0.614-1.6
						c0-1.116,0.07-1.599,0.614-1.599c0.448,0,0.429,0.543,0.441,0.887h0.953c0-1.165-0.492-1.539-1.395-1.539
						C-224.252,462.415-224.252,463.525-224.252,464.665"/>
				</g>
				<g id="g56" transform="translate(279.0557,510.5811)">
					<path id="path58" inkscape:connector-curvature="0" fill="#3B473B" d="M-240.839,463.403v1.744h0.966v-4.357h-0.966v1.944
						h-1.107v-1.944h-0.966v4.357h0.966v-1.744H-240.839z"/>
				</g>
				<g id="g60" transform="translate(286.6274,500.373)">
					<path id="path62" inkscape:connector-curvature="0" fill="#3B473B" d="M-246.473,470.998v4.357h1.305l1.228-3.018h0.013v3.018
						h0.902v-4.357h-1.273l-1.261,3.187h-0.013v-3.187H-246.473z"/>
				</g>
				<g id="g64" transform="translate(311.7197,508.8838)">
					<path id="path66" inkscape:connector-curvature="0" fill="#3B473B" d="M-265.141,464.665c0,1.117-0.07,1.6-0.614,1.6
						c-0.544,0-0.614-0.483-0.614-1.6c0-1.116,0.07-1.599,0.614-1.599C-265.212,463.067-265.141,463.549-265.141,464.665
						 M-267.349,464.665c0,1.153,0,2.251,1.593,2.251c1.593,0,1.593-1.098,1.593-2.251c0-1.14,0-2.251-1.593-2.251
						C-267.349,462.415-267.349,463.525-267.349,464.665"/>
				</g>
				<g id="g68" transform="translate(318.5654,500.373)">
					<path id="path70" inkscape:connector-curvature="0" fill="#3B473B" d="M-270.234,470.998v4.357h0.966v-3.633h1.446v-0.725
						H-270.234z"/>
				</g>
				<g id="g72" transform="translate(337.085,508.8838)">
					<path id="path74" inkscape:connector-curvature="0" fill="#3B473B" d="M-284.013,464.665c0,1.117-0.07,1.6-0.614,1.6
						c-0.544,0-0.614-0.483-0.614-1.6c0-1.116,0.071-1.599,0.614-1.599C-284.083,463.067-284.013,463.549-284.013,464.665
						 M-286.22,464.665c0,1.153,0,2.251,1.593,2.251c1.593,0,1.593-1.098,1.593-2.251c0-1.14,0-2.251-1.593-2.251
						C-286.22,462.415-286.22,463.525-286.22,464.665"/>
				</g>
				<g id="g76" transform="translate(352.1553,512.1606)">
					<path id="path78" inkscape:connector-curvature="0" fill="#3B473B" d="M-295.225,462.228c0.006,0.404-0.064,0.761-0.576,0.761
						c-0.602,0-0.602-0.766-0.602-1.611c0-1.364,0.141-1.605,0.691-1.605c0.16,0,0.333,0.036,0.48,0.084v0.966h-0.525v0.669h1.49
						v-2.209c-0.262-0.049-0.921-0.145-1.305-0.145c-1.625,0-1.811,0.634-1.811,2.287c0,1.099,0.058,2.215,1.638,2.215
						c0.947,0,1.536-0.501,1.478-1.412H-295.225z"/>
				</g>
				<g id="g80" transform="translate(361.501,506.2666)">
					<path id="path82" inkscape:connector-curvature="0" fill="#3B473B" d="M-302.179,466.613l-1.209,2.849h1.055l0.691-1.841
						l0.736,1.841h0.986l-1.293-2.849v-1.509h-0.967V466.613z"/>
				</g>
				<g id="g84" transform="translate(377.6455,500.373)">
					<path id="path86" inkscape:connector-curvature="0" fill="#3B473B" d="M-314.19,470.998v4.357h1.306l1.228-3.018h0.012v3.018
						h0.903v-4.357h-1.273l-1.261,3.187h-0.012v-3.187H-314.19z"/>
				</g>
				<g id="g88" transform="translate(394.79,500.373)">
					<path id="path90" inkscape:connector-curvature="0" fill="#3B473B" d="M-326.945,470.998v4.357h2.521v-0.67h-1.555v-1.074
						h1.434v-0.67h-1.434v-1.273h1.606v-0.67H-326.945z"/>
				</g>
				<g id="g92" transform="translate(405.6865,517.394)">
					<path id="path94" inkscape:connector-curvature="0" fill="#3B473B" d="M-335.052,458.334h0.991l0.602-3.06h0.013l0.729,3.06
						h1.139l0.691-3.06h0.013l0.576,3.06h0.948l-1.024-4.357h-1.069l-0.723,3.187h-0.012l-0.8-3.187h-1.05L-335.052,458.334z"/>
				</g>
				<g id="g96" transform="translate(434.4033,500.0898)">
					<path id="path98" inkscape:connector-curvature="0" fill="#3B473B" d="M-356.418,471.209c-1.197,0-1.421,0.664-1.37,1.418
						h0.966c0-0.416,0.02-0.766,0.55-0.766c0.327,0,0.487,0.199,0.487,0.495c0,0.784-1.945,0.833-1.945,2.13
						c0,0.682,0.345,1.225,1.523,1.225c0.94,0,1.408-0.398,1.344-1.309h-0.941c0,0.326-0.057,0.658-0.448,0.658
						c-0.314,0-0.499-0.163-0.499-0.464c0-0.827,1.945-0.755,1.945-2.125C-354.806,471.342-355.683,471.209-356.418,471.209"/>
				</g>
			</g>
		</g>
	</g>
</g>
</svg>
