<?xml version="1.0" encoding="UTF-8" standalone="no"?>
<!-- Created with Inkscape (http://www.inkscape.org/) -->

<svg
   xmlns:dc="http://purl.org/dc/elements/1.1/"
   xmlns:cc="http://creativecommons.org/ns#"
   xmlns:rdf="http://www.w3.org/1999/02/22-rdf-syntax-ns#"
   xmlns:svg="http://www.w3.org/2000/svg"
   xmlns="http://www.w3.org/2000/svg"
   xmlns:inkscape="http://www.inkscape.org/namespaces/inkscape"
   version="1.1"
   width="765"
   height="1260"
   id="svg2"
   xml:space="preserve"><metadata
     id="metadata8"><rdf:RDF><cc:Work
         rdf:about=""><dc:format>image/svg+xml</dc:format><dc:type
           rdf:resource="http://purl.org/dc/dcmitype/StillImage" /></cc:Work></rdf:RDF></metadata><defs
     id="defs6"><clipPath
       id="clipPath48"><path
         d="m 0,1008 612,0 L 612,0 0,0 0,1008 z"
         inkscape:connector-curvature="0"
         id="path50" /></clipPath></defs><g
     transform="matrix(1.25,0,0,-1.25,0,1260)"
     id="g10"><g
       transform="translate(178.2637,522.8784)"
       id="g12"><path
         d="m 0,0 0,77.484 33.402,0 0,-59.116 53.458,0 L 86.86,0 0,0 z"
         inkscape:connector-curvature="0"
         id="path14"
         style="fill:#3b473b;fill-opacity:1;fill-rule:nonzero;stroke:none" /></g><g
       transform="translate(336.668,600.3628)"
       id="g16"><path
         d="m 0,0 0,-18.368 -33.996,0 0,-59.116 -33.401,0 0,59.116 -33.996,0 0,18.368 L 0,0 z"
         inkscape:connector-curvature="0"
         id="path18"
         style="fill:#3b473b;fill-opacity:1;fill-rule:nonzero;stroke:none" /></g><g
       transform="translate(340.8145,522.8784)"
       id="g20"><path
         d="m 0,0 0,77.484 37.581,0 29.988,-31.023 0.219,0 -0.004,31.023 31.209,0 0,-77.484 -25.434,0 -42.138,43.371 -0.216,0 L 31.205,0 0,0 z"
         inkscape:connector-curvature="0"
         id="path22"
         style="fill:#3b473b;fill-opacity:1;fill-rule:nonzero;stroke:none" /></g><g
       transform="translate(178.2637,500.373)"
       id="g24"><path
         d="m 0,0 0,17.021 3.774,0 0,-14.192 5.649,0 L 9.423,0 0,0 z"
         inkscape:connector-curvature="0"
         id="path26"
         style="fill:#3b473b;fill-opacity:1;fill-rule:nonzero;stroke:none" /></g><g
       transform="translate(195.2334,514.1172)"
       id="g28"><path
         d="m 0,0 -0.05,0 -1.724,-7.355 3.599,0 L 0,0 z m -7.273,-13.744 4.999,17.021 4.973,0 4.899,-17.021 -3.974,0 -0.999,3.772 -5.149,0 -1.025,-3.772 -3.724,0 z"
         inkscape:connector-curvature="0"
         id="path30"
         style="fill:#3b473b;fill-opacity:1;fill-rule:nonzero;stroke:none" /></g><g
       transform="translate(202.5801,517.394)"
       id="g32"><path
         d="m 0,0 3.874,0 2.35,-11.953 0.049,0 2.85,11.953 4.449,0 2.699,-11.953 0.05,0 L 18.57,0 l 3.7,0 -3.999,-17.021 -4.174,0 -2.825,12.448 -0.05,0 -3.124,-12.448 -4.099,0 L 0,0 z"
         inkscape:connector-curvature="0"
         id="path34"
         style="fill:#3b473b;fill-opacity:1;fill-rule:nonzero;stroke:none" /></g><g
       transform="translate(242.6924,517.394)"
       id="g36"><path
         d="m 0,0 0,-2.829 -4.199,0 0,-14.192 -3.774,0 0,14.192 -4.199,0 0,2.829 L 0,0 z"
         inkscape:connector-curvature="0"
         id="path38"
         style="fill:#3b473b;fill-opacity:1;fill-rule:nonzero;stroke:none" /></g><g
       transform="translate(244.4414,500.373)"
       id="g40"><path
         d="m 0,0 0,17.021 9.848,0 0,-2.617 -6.074,0 0,-4.196 5.599,0 0,-2.617 -5.599,0 0,-4.974 6.273,0 L 10.047,0 0,0 z"
         inkscape:connector-curvature="0"
         id="path42"
         style="fill:#3b473b;fill-opacity:1;fill-rule:nonzero;stroke:none" /></g><g
       id="g44"><g
         clip-path="url(#clipPath48)"
         id="g46"><g
           transform="translate(256.7617,508.8838)"
           id="g52"><path
             d="m 0,0 c 0,4.502 0,8.793 6.224,8.793 3.849,0 5.399,-2.003 5.249,-5.658 l -3.7,0 c 0,2.263 -0.424,3.112 -1.549,3.112 -2.125,0 -2.4,-1.886 -2.4,-6.247 0,-4.362 0.275,-6.247 2.4,-6.247 1.749,0 1.674,2.121 1.724,3.465 l 3.724,0 c 0,-4.55 -1.924,-6.012 -5.448,-6.012 C 0,-8.794 0,-4.456 0,0"
             inkscape:connector-curvature="0"
             id="path54"
             style="fill:#3b473b;fill-opacity:1;fill-rule:nonzero;stroke:none" /></g><g
           transform="translate(279.0557,510.5811)"
           id="g56"><path
             d="m 0,0 0,6.813 3.774,0 0,-17.021 -3.774,0 0,7.591 -4.324,0 0,-7.591 -3.774,0 0,17.021 3.774,0 L -4.324,0 0,0 z"
             inkscape:connector-curvature="0"
             id="path58"
             style="fill:#3b473b;fill-opacity:1;fill-rule:nonzero;stroke:none" /></g><g
           transform="translate(286.6274,500.373)"
           id="g60"><path
             d="m 0,0 0,17.021 5.099,0 4.798,-11.788 0.051,0 0,11.788 3.524,0 0,-17.021 -4.974,0 -4.924,12.448 -0.05,0 L 3.524,0 0,0 z"
             inkscape:connector-curvature="0"
             id="path62"
             style="fill:#3b473b;fill-opacity:1;fill-rule:nonzero;stroke:none" /></g><g
           transform="translate(311.7197,508.8838)"
           id="g64"><path
             d="m 0,0 c 0,4.361 -0.274,6.247 -2.399,6.247 -2.125,0 -2.4,-1.886 -2.4,-6.247 0,-4.362 0.275,-6.247 2.4,-6.247 C -0.274,-6.247 0,-4.362 0,0 m -8.623,0 c 0,4.502 0,8.793 6.224,8.793 6.223,0 6.223,-4.291 6.223,-8.793 0,-4.456 0,-8.794 -6.223,-8.794 -6.224,0 -6.224,4.338 -6.224,8.794"
             inkscape:connector-curvature="0"
             id="path66"
             style="fill:#3b473b;fill-opacity:1;fill-rule:nonzero;stroke:none" /></g><g
           transform="translate(318.5654,500.373)"
           id="g68"><path
             d="m 0,0 0,17.021 3.775,0 0,-14.192 5.649,0 L 9.424,0 0,0 z"
             inkscape:connector-curvature="0"
             id="path70"
             style="fill:#3b473b;fill-opacity:1;fill-rule:nonzero;stroke:none" /></g><g
           transform="translate(337.085,508.8838)"
           id="g72"><path
             d="m 0,0 c 0,4.361 -0.273,6.247 -2.398,6.247 -2.125,0 -2.401,-1.886 -2.401,-6.247 0,-4.362 0.276,-6.247 2.401,-6.247 C -0.273,-6.247 0,-4.362 0,0 m -8.623,0 c 0,4.502 0,8.793 6.225,8.793 6.222,0 6.222,-4.291 6.222,-8.793 0,-4.456 0,-8.794 -6.222,-8.794 -6.225,0 -6.225,4.338 -6.225,8.794"
             inkscape:connector-curvature="0"
             id="path74"
             style="fill:#3b473b;fill-opacity:1;fill-rule:nonzero;stroke:none" /></g><g
           transform="translate(352.1553,512.1606)"
           id="g76"><path
             d="m 0,0 c 0.025,1.579 -0.25,2.97 -2.25,2.97 -2.35,0 -2.35,-2.994 -2.35,-6.294 0,-5.328 0.551,-6.271 2.7,-6.271 0.625,0 1.3,0.141 1.875,0.33 l 0,3.772 -2.049,0 0,2.617 5.822,0 0,-8.628 c -1.023,-0.19 -3.598,-0.567 -5.098,-0.567 -6.349,0 -7.074,2.476 -7.074,8.935 0,4.291 0.227,8.652 6.399,8.652 3.699,0 6,-1.956 5.773,-5.516 L 0,0 z"
             inkscape:connector-curvature="0"
             id="path78"
             style="fill:#3b473b;fill-opacity:1;fill-rule:nonzero;stroke:none" /></g><g
           transform="translate(361.501,506.2666)"
           id="g80"><path
             d="m 0,0 -4.723,11.127 4.123,0 2.7,-7.19 2.875,7.19 3.849,0 L 3.775,0 3.775,-5.894 0,-5.894 0,0 z"
             inkscape:connector-curvature="0"
             id="path82"
             style="fill:#3b473b;fill-opacity:1;fill-rule:nonzero;stroke:none" /></g><g
           transform="translate(377.6455,500.373)"
           id="g84"><path
             d="m 0,0 0,17.021 5.1,0 4.798,-11.788 0.049,0 0,11.788 3.526,0 0,-17.021 -4.975,0 -4.924,12.448 -0.049,0 L 3.525,0 0,0 z"
             inkscape:connector-curvature="0"
             id="path86"
             style="fill:#3b473b;fill-opacity:1;fill-rule:nonzero;stroke:none" /></g><g
           transform="translate(394.79,500.373)"
           id="g88"><path
             d="m 0,0 0,17.021 9.848,0 0,-2.617 -6.075,0 0,-4.196 5.6,0 0,-2.617 -5.6,0 0,-4.974 6.274,0 L 10.047,0 0,0 z"
             inkscape:connector-curvature="0"
             id="path90"
             style="fill:#3b473b;fill-opacity:1;fill-rule:nonzero;stroke:none" /></g><g
           transform="translate(405.6865,517.394)"
           id="g92"><path
             d="m 0,0 3.873,0 2.35,-11.953 0.05,0 2.85,11.953 4.449,0 2.699,-11.953 0.049,0 2.25,11.953 3.7,0 -4,-17.021 -4.174,0 -2.825,12.448 -0.048,0 -3.125,-12.448 -4.1,0 L 0,0 z"
             inkscape:connector-curvature="0"
             id="path94"
             style="fill:#3b473b;fill-opacity:1;fill-rule:nonzero;stroke:none" /></g><g
           transform="translate(434.4033,500.0898)"
           id="g96"><path
             d="m 0,0 c -4.674,0 -5.549,2.594 -5.35,5.541 l 3.774,0 c 0,-1.627 0.076,-2.994 2.15,-2.994 1.276,0 1.901,0.777 1.901,1.932 0,3.065 -7.6,3.254 -7.6,8.322 0,2.664 1.35,4.786 5.949,4.786 3.674,0 5.498,-1.556 5.248,-5.116 l -3.674,0 c 0,1.274 -0.224,2.57 -1.75,2.57 -1.224,0 -1.949,-0.637 -1.949,-1.815 0,-3.23 7.598,-2.947 7.598,-8.299 C 6.297,0.52 2.873,0 0,0"
             inkscape:connector-curvature="0"
             id="path98"
             style="fill:#3b473b;fill-opacity:1;fill-rule:nonzero;stroke:none" /></g></g></g></g></svg>