<?xml version="1.0" encoding="utf-8"?>
<!-- Generator: Adobe Illustrator 16.0.0, SVG Export Plug-In . SVG Version: 6.00 Build 0)  -->
<!DOCTYPE svg PUBLIC "-//W3C//DTD SVG 1.1//EN" "http://www.w3.org/Graphics/SVG/1.1/DTD/svg11.dtd">
<svg version="1.1"
	 id="svg2" xmlns:dc="http://purl.org/dc/elements/1.1/" xmlns:cc="http://creativecommons.org/ns#" xmlns:rdf="http://www.w3.org/1999/02/22-rdf-syntax-ns#" xmlns:svg="http://www.w3.org/2000/svg" xmlns:inkscape="http://www.inkscape.org/namespaces/inkscape"
	 xmlns="http://www.w3.org/2000/svg" xmlns:xlink="http://www.w3.org/1999/xlink" x="0px" y="0px" width="765px" height="1260px"
	 viewBox="0 0 765 1260" enable-background="new 0 0 765 1260" xml:space="preserve">
<g id="g10" transform="matrix(1.25,0,0,-1.25,0,1260)">
	<g id="g12" transform="translate(178.2637,522.8784)">
		<path id="path14" inkscape:connector-curvature="0" fill="#3B473B" d="M-164.226,443.292v30.994h13.361v-23.646h21.383v-7.347
			H-164.226z"/>
	</g>
	<g id="g16" transform="translate(336.668,600.3628)">
		<path id="path18" inkscape:connector-curvature="0" fill="#3B473B" d="M-259.269,396.801v-7.347h-13.599v-23.646h-13.361v23.646
			h-13.598v7.347H-259.269z"/>
	</g>
	<g id="g20" transform="translate(340.8145,522.8784)">
		<path id="path22" inkscape:connector-curvature="0" fill="#3B473B" d="M-261.757,443.292v30.994h15.032l11.995-12.409h0.088
			l-0.002,12.409h12.483v-30.994h-10.173l-16.856,17.348h-0.086v-17.348H-261.757z"/>
	</g>
	<g id="g24" transform="translate(178.2637,500.373)">
		<path id="path26" inkscape:connector-curvature="0" fill="#3B473B" d="M-164.226,456.794v6.809h1.51v-5.677h2.26v-1.132H-164.226z
			"/>
	</g>
	<g id="g28" transform="translate(195.2334,514.1172)">
		<path id="path30" inkscape:connector-curvature="0" fill="#3B473B" d="M-174.408,448.548h-0.02l-0.689-2.942h1.439
			L-174.408,448.548z M-177.317,443.051l2,6.809h1.989l1.96-6.809h-1.59l-0.4,1.509h-2.059l-0.41-1.509H-177.317z"/>
	</g>
	<g id="g32" transform="translate(202.5801,517.394)">
		<path id="path34" inkscape:connector-curvature="0" fill="#3B473B" d="M-178.816,446.582h1.55l0.94-4.781h0.02l1.14,4.781h1.78
			l1.08-4.781h0.02l0.9,4.781h1.48l-1.6-6.809h-1.67l-1.13,4.98h-0.02l-1.249-4.98h-1.64L-178.816,446.582z"/>
	</g>
	<g id="g36" transform="translate(242.6924,517.394)">
		<path id="path38" inkscape:connector-curvature="0" fill="#3B473B" d="M-202.884,446.582v-1.132h-1.68v-5.677h-1.509v5.677h-1.68
			v1.132H-202.884z"/>
	</g>
	<g id="g40" transform="translate(244.4414,500.373)">
		<path id="path42" inkscape:connector-curvature="0" fill="#3B473B" d="M-203.933,456.794v6.809h3.939v-1.046h-2.43v-1.679h2.24
			v-1.047h-2.24v-1.989h2.509v-1.048H-203.933z"/>
	</g>
	<g id="g44">
		<g>
			<defs>
				<rect id="SVGID_1_" x="-87.868" y="706.619" width="306" height="504"/>
			</defs>
			<clipPath id="SVGID_2_">
				<use xlink:href="#SVGID_1_"  overflow="visible"/>
			</clipPath>
			<g id="g46" clip-path="url(#SVGID_2_)">
				<g id="g52" transform="translate(256.7617,508.8838)">
					<path id="path54" inkscape:connector-curvature="0" fill="#3B473B" d="M-211.325,451.688c0,1.801,0,3.517,2.489,3.517
						c1.54,0,2.16-0.801,2.1-2.263h-1.48c0,0.905-0.17,1.245-0.62,1.245c-0.85,0-0.96-0.754-0.96-2.499
						c0-1.745,0.11-2.498,0.96-2.498c0.7,0,0.67,0.848,0.69,1.386h1.489c0-1.82-0.77-2.405-2.179-2.405
						C-211.325,448.171-211.325,449.906-211.325,451.688"/>
				</g>
				<g id="g56" transform="translate(279.0557,510.5811)">
					<path id="path58" inkscape:connector-curvature="0" fill="#3B473B" d="M-224.702,450.67v2.725h1.51v-6.808h-1.51v3.036h-1.73
						v-3.036h-1.51v6.808h1.51v-2.725H-224.702z"/>
				</g>
				<g id="g60" transform="translate(286.6274,500.373)">
					<path id="path62" inkscape:connector-curvature="0" fill="#3B473B" d="M-229.244,456.794v6.809h2.039l1.919-4.715h0.02v4.715
						h1.41v-6.809h-1.99l-1.97,4.98h-0.02v-4.98H-229.244z"/>
				</g>
				<g id="g64" transform="translate(311.7197,508.8838)">
					<path id="path66" inkscape:connector-curvature="0" fill="#3B473B" d="M-244.3,451.688c0,1.745-0.109,2.499-0.959,2.499
						c-0.85,0-0.96-0.754-0.96-2.499c0-1.745,0.11-2.498,0.96-2.498C-244.41,449.19-244.3,449.944-244.3,451.688 M-247.749,451.688
						c0,1.801,0,3.517,2.489,3.517s2.489-1.716,2.489-3.517c0-1.782,0-3.517-2.489-3.517S-247.749,449.906-247.749,451.688"/>
				</g>
				<g id="g68" transform="translate(318.5654,500.373)">
					<path id="path70" inkscape:connector-curvature="0" fill="#3B473B" d="M-248.407,456.794v6.809h1.51v-5.677h2.259v-1.132
						H-248.407z"/>
				</g>
				<g id="g72" transform="translate(337.085,508.8838)">
					<path id="path74" inkscape:connector-curvature="0" fill="#3B473B" d="M-259.519,451.688c0,1.745-0.109,2.499-0.959,2.499
						c-0.85,0-0.961-0.754-0.961-2.499c0-1.745,0.111-2.498,0.961-2.498C-259.628,449.19-259.519,449.944-259.519,451.688
						 M-262.968,451.688c0,1.801,0,3.517,2.49,3.517c2.489,0,2.489-1.716,2.489-3.517c0-1.782,0-3.517-2.489-3.517
						C-262.968,448.171-262.968,449.906-262.968,451.688"/>
				</g>
				<g id="g76" transform="translate(352.1553,512.1606)">
					<path id="path78" inkscape:connector-curvature="0" fill="#3B473B" d="M-268.561,449.722c0.01,0.632-0.1,1.188-0.9,1.188
						c-0.94,0-0.94-1.197-0.94-2.518c0-2.131,0.221-2.508,1.08-2.508c0.25,0,0.52,0.056,0.75,0.132v1.509h-0.819v1.047h2.328v-3.451
						c-0.409-0.077-1.439-0.227-2.039-0.227c-2.539,0-2.829,0.99-2.829,3.573c0,1.717,0.091,3.461,2.559,3.461
						c1.479,0,2.4-0.782,2.309-2.206H-268.561z"/>
				</g>
				<g id="g80" transform="translate(361.501,506.2666)">
					<path id="path82" inkscape:connector-curvature="0" fill="#3B473B" d="M-274.169,453.258l-1.889,4.451h1.649l1.08-2.876
						l1.15,2.876h1.54l-2.02-4.451v-2.358h-1.51V453.258z"/>
				</g>
				<g id="g84" transform="translate(377.6455,500.373)">
					<path id="path86" inkscape:connector-curvature="0" fill="#3B473B" d="M-283.855,456.794v6.809h2.04l1.919-4.715h0.02v4.715
						h1.411v-6.809h-1.99l-1.97,4.98h-0.019v-4.98H-283.855z"/>
				</g>
				<g id="g88" transform="translate(394.79,500.373)">
					<path id="path90" inkscape:connector-curvature="0" fill="#3B473B" d="M-294.142,456.794v6.809h3.939v-1.046h-2.43v-1.679h2.24
						v-1.047h-2.24v-1.989h2.51v-1.048H-294.142z"/>
				</g>
				<g id="g92" transform="translate(405.6865,517.394)">
					<path id="path94" inkscape:connector-curvature="0" fill="#3B473B" d="M-300.68,446.582h1.549l0.94-4.781h0.02l1.14,4.781
						h1.779l1.08-4.781h0.02l0.9,4.781h1.48l-1.6-6.809h-1.67l-1.13,4.98h-0.019l-1.25-4.98h-1.64L-300.68,446.582z"/>
				</g>
				<g id="g96" transform="translate(434.4033,500.0898)">
					<path id="path98" inkscape:connector-curvature="0" fill="#3B473B" d="M-317.91,456.965c-1.87,0-2.22,1.037-2.14,2.216h1.509
						c0-0.65,0.03-1.197,0.86-1.197c0.511,0,0.761,0.311,0.761,0.773c0,1.226-3.04,1.302-3.04,3.329c0,1.066,0.54,1.914,2.379,1.914
						c1.47,0,2.2-0.622,2.1-2.046h-1.47c0,0.51-0.089,1.028-0.7,1.028c-0.489,0-0.78-0.255-0.78-0.726
						c0-1.292,3.039-1.179,3.039-3.32C-315.391,457.173-316.761,456.965-317.91,456.965"/>
				</g>
			</g>
		</g>
	</g>
</g>
</svg>
