<?xml version="1.0" encoding="utf-8"?>
<!-- Generator: Adobe Illustrator 16.0.0, SVG Export Plug-In . SVG Version: 6.00 Build 0)  -->
<!DOCTYPE svg PUBLIC "-//W3C//DTD SVG 1.1//EN" "http://www.w3.org/Graphics/SVG/1.1/DTD/svg11.dtd">
<svg version="1.1"
	 id="svg2" xmlns:dc="http://purl.org/dc/elements/1.1/" xmlns:cc="http://creativecommons.org/ns#" xmlns:rdf="http://www.w3.org/1999/02/22-rdf-syntax-ns#" xmlns:svg="http://www.w3.org/2000/svg" xmlns:inkscape="http://www.inkscape.org/namespaces/inkscape"
	 xmlns="http://www.w3.org/2000/svg" xmlns:xlink="http://www.w3.org/1999/xlink" x="0px" y="0px" width="765px" height="1260px"
	 viewBox="0 0 765 1260" enable-background="new 0 0 765 1260" xml:space="preserve">
<g id="g10" transform="matrix(1.25,0,0,-1.25,0,1260)">
	<g id="g12" transform="translate(178.2637,522.8784)">
		<path id="path14" inkscape:connector-curvature="0" fill="#3B473B" d="M-166.142,456.46v19.043h8.209v-14.528h13.138v-4.514
			H-166.142z"/>
	</g>
	<g id="g16" transform="translate(336.668,600.3628)">
		<path id="path18" inkscape:connector-curvature="0" fill="#3B473B" d="M-285.617,398.018v-4.514h-8.355v-14.529h-8.209v14.529
			h-8.355v4.514H-285.617z"/>
	</g>
	<g id="g20" transform="translate(340.8145,522.8784)">
		<path id="path22" inkscape:connector-curvature="0" fill="#3B473B" d="M-288.744,456.46v19.043h9.236l7.37-7.624h0.054
			l-0.001,7.624h7.67V456.46h-6.25l-10.356,10.659h-0.053V456.46H-288.744z"/>
	</g>
	<g id="g24" transform="translate(178.2637,500.373)">
		<path id="path26" inkscape:connector-curvature="0" fill="#3B473B" d="M-166.142,473.435v4.183h0.927v-3.488h1.389v-0.696
			H-166.142z"/>
	</g>
	<g id="g28" transform="translate(195.2334,514.1172)">
		<path id="path30" inkscape:connector-curvature="0" fill="#3B473B" d="M-178.941,463.069h-0.012l-0.424-1.807h0.884
			L-178.941,463.069z M-180.729,459.691l1.229,4.184h1.222l1.204-4.184h-0.977l-0.245,0.927h-1.265l-0.252-0.927H-180.729z"/>
	</g>
	<g id="g32" transform="translate(202.5801,517.394)">
		<path id="path34" inkscape:connector-curvature="0" fill="#3B473B" d="M-184.482,460.597h0.952l0.578-2.938h0.012l0.7,2.938h1.093
			l0.663-2.938h0.013l0.553,2.938h0.909l-0.983-4.183h-1.026l-0.695,3.059h-0.012l-0.768-3.059h-1.007L-184.482,460.597z"/>
	</g>
	<g id="g36" transform="translate(242.6924,517.394)">
		<path id="path38" inkscape:connector-curvature="0" fill="#3B473B" d="M-214.737,460.597v-0.695h-1.032v-3.488h-0.927v3.488
			h-1.032v0.695H-214.737z"/>
	</g>
	<g id="g40" transform="translate(244.4414,500.373)">
		<path id="path42" inkscape:connector-curvature="0" fill="#3B473B" d="M-216.056,473.435v4.183h2.42v-0.643h-1.493v-1.031h1.377
			v-0.643h-1.377v-1.222h1.542v-0.644H-216.056z"/>
	</g>
	<g id="g44">
		<g>
			<defs>
				<rect id="SVGID_1_" x="-50.489" y="819.871" width="188.006" height="309.658"/>
			</defs>
			<clipPath id="SVGID_2_">
				<use xlink:href="#SVGID_1_"  overflow="visible"/>
			</clipPath>
			<g id="g46" clip-path="url(#SVGID_2_)">
				<g id="g52" transform="translate(256.7617,508.8838)">
					<path id="path54" inkscape:connector-curvature="0" fill="#3B473B" d="M-225.349,467.015c0,1.107,0,2.161,1.53,2.161
						c0.946,0,1.327-0.492,1.29-1.391h-0.909c0,0.557-0.104,0.765-0.381,0.765c-0.522,0-0.59-0.463-0.59-1.536
						c0-1.072,0.068-1.535,0.59-1.535c0.43,0,0.412,0.521,0.424,0.852h0.915c0-1.119-0.472-1.477-1.339-1.477
						C-225.349,464.855-225.349,465.921-225.349,467.015"/>
				</g>
				<g id="g56" transform="translate(279.0557,510.5811)">
					<path id="path58" inkscape:connector-curvature="0" fill="#3B473B" d="M-242.163,465.736v1.674h0.928v-4.183h-0.928v1.866
						h-1.063v-1.866h-0.928v4.183h0.928v-1.674H-242.163z"/>
				</g>
				<g id="g60" transform="translate(286.6274,500.373)">
					<path id="path62" inkscape:connector-curvature="0" fill="#3B473B" d="M-247.874,473.435v4.183h1.253l1.179-2.897h0.013v2.897
						h0.866v-4.183h-1.222l-1.21,3.059h-0.013v-3.059H-247.874z"/>
				</g>
				<g id="g64" transform="translate(311.7197,508.8838)">
					<path id="path66" inkscape:connector-curvature="0" fill="#3B473B" d="M-266.8,467.015c0,1.072-0.068,1.536-0.589,1.536
						c-0.522,0-0.589-0.463-0.589-1.536c0-1.072,0.067-1.535,0.589-1.535C-266.868,465.481-266.8,465.944-266.8,467.015
						 M-268.919,467.015c0,1.107,0,2.161,1.53,2.161c1.529,0,1.529-1.055,1.529-2.161c0-1.095,0-2.161-1.529-2.161
						C-268.919,464.855-268.919,465.921-268.919,467.015"/>
				</g>
				<g id="g68" transform="translate(318.5654,500.373)">
					<path id="path70" inkscape:connector-curvature="0" fill="#3B473B" d="M-271.963,473.435v4.183h0.927v-3.488h1.388v-0.696
						H-271.963z"/>
				</g>
				<g id="g72" transform="translate(337.085,508.8838)">
					<path id="path74" inkscape:connector-curvature="0" fill="#3B473B" d="M-285.931,467.015c0,1.072-0.067,1.536-0.589,1.536
						c-0.522,0-0.59-0.463-0.59-1.536c0-1.072,0.068-1.535,0.59-1.535C-285.998,465.481-285.931,465.944-285.931,467.015
						 M-288.05,467.015c0,1.107,0,2.161,1.53,2.161s1.53-1.055,1.53-2.161c0-1.095,0-2.161-1.53-2.161
						S-288.05,465.921-288.05,467.015"/>
				</g>
				<g id="g76" transform="translate(352.1553,512.1606)">
					<path id="path78" inkscape:connector-curvature="0" fill="#3B473B" d="M-297.298,464.544c0.006,0.388-0.062,0.73-0.553,0.73
						c-0.578,0-0.578-0.736-0.578-1.547c0-1.309,0.136-1.541,0.664-1.541c0.153,0,0.319,0.034,0.461,0.081v0.927h-0.504v0.643h1.431
						v-2.12c-0.252-0.047-0.884-0.139-1.253-0.139c-1.56,0-1.738,0.608-1.738,2.195c0,1.055,0.055,2.127,1.572,2.127
						c0.909,0,1.475-0.481,1.419-1.356H-297.298z"/>
				</g>
				<g id="g80" transform="translate(361.501,506.2666)">
					<path id="path82" inkscape:connector-curvature="0" fill="#3B473B" d="M-304.347,468.99l-1.16,2.735h1.013l0.664-1.767
						l0.706,1.767h0.946l-1.241-2.735v-1.448h-0.928V468.99z"/>
				</g>
				<g id="g84" transform="translate(377.6455,500.373)">
					<path id="path86" inkscape:connector-curvature="0" fill="#3B473B" d="M-316.524,473.435v4.183h1.254l1.179-2.897h0.012v2.897
						h0.867v-4.183h-1.222l-1.211,3.059h-0.012v-3.059H-316.524z"/>
				</g>
				<g id="g88" transform="translate(394.79,500.373)">
					<path id="path90" inkscape:connector-curvature="0" fill="#3B473B" d="M-329.455,473.435v4.183h2.42v-0.643h-1.493v-1.031
						h1.376v-0.643h-1.376v-1.222h1.542v-0.644H-329.455z"/>
				</g>
				<g id="g92" transform="translate(405.6865,517.394)">
					<path id="path94" inkscape:connector-curvature="0" fill="#3B473B" d="M-337.673,460.597h0.952l0.578-2.938h0.013l0.7,2.938
						h1.093l0.663-2.938h0.013l0.553,2.938h0.91l-0.983-4.183h-1.026l-0.695,3.059h-0.011l-0.768-3.059h-1.007L-337.673,460.597z"/>
				</g>
				<g id="g96" transform="translate(434.4033,500.0898)">
					<path id="path98" inkscape:connector-curvature="0" fill="#3B473B" d="M-359.333,473.649c-1.149,0-1.364,0.638-1.315,1.361
						h0.927c0-0.4,0.019-0.736,0.529-0.736c0.314,0,0.467,0.191,0.467,0.475c0,0.753-1.868,0.8-1.868,2.045
						c0,0.655,0.332,1.176,1.462,1.176c0.903,0,1.352-0.382,1.29-1.257h-0.903c0,0.313-0.055,0.631-0.43,0.631
						c-0.301,0-0.479-0.157-0.479-0.446c0-0.794,1.868-0.725,1.868-2.04C-357.785,473.777-358.627,473.649-359.333,473.649"/>
				</g>
			</g>
		</g>
	</g>
</g>
</svg>
