<?xml version="1.0" encoding="UTF-8" standalone="no"?>
<!-- Created with Inkscape (http://www.inkscape.org/) -->

<svg
   xmlns:dc="http://purl.org/dc/elements/1.1/"
   xmlns:cc="http://creativecommons.org/ns#"
   xmlns:rdf="http://www.w3.org/1999/02/22-rdf-syntax-ns#"
   xmlns:svg="http://www.w3.org/2000/svg"
   xmlns="http://www.w3.org/2000/svg"
   xmlns:inkscape="http://www.inkscape.org/namespaces/inkscape"
   version="1.1"
   width="1242.6"
   height="156.3875"
   id="svg2"
   xml:space="preserve"><metadata
     id="metadata8"><rdf:RDF><cc:Work
         rdf:about=""><dc:format>image/svg+xml</dc:format><dc:type
           rdf:resource="http://purl.org/dc/dcmitype/StillImage" /></cc:Work></rdf:RDF></metadata><defs
     id="defs6" /><g
     transform="matrix(1.25,0,0,-1.25,0,156.3875)"
     id="g10"><g
       transform="scale(0.1,0.1)"
       id="g12"><path
         d="m 13.8906,111.75 9926.8994,0"
         inkscape:connector-curvature="0"
         id="path14"
         style="fill:none;stroke:#231f20;stroke-width:20;stroke-linecap:butt;stroke-linejoin:miter;stroke-miterlimit:4;stroke-opacity:1;stroke-dasharray:none" /><path
         d="m 3807.1,582.117 c -19.19,-13.379 -47.18,-18.554 -67.2,-18.554 -41.96,0 -64.07,0.82 -74.12,7.5 -4.03,2.695 -5.94,7.07 -5.94,11.23 l 0,226.484 c 0,4.981 2.52,8.321 6.68,10 8.38,2.5 30.9,5 55.94,5 80.97,0 120.46,-56.328 123.34,-141.543 1.3,-39.453 -9.5,-80.078 -38.7,-100.117 m 876.23,266.641 c 5.83,0 9.18,2.5 9.18,5.84 0,5.019 -5.87,5.84 -15,5.84 -34.23,0 -68.82,-2.5 -87.22,-2.5 -17.83,0 -59.87,2.5 -97.4,2.5 -10.04,0 -16.72,-0.821 -16.72,-5.84 0,-3.34 0.84,-5.84 6.68,-5.84 6.68,0 25.88,-0.805 40.9,-4.16 25.87,-6.684 31.71,-25.039 32.53,-79.317 l 3.36,-347.09 0.82,-15.332 c -2.69,2.969 -6.13,8.496 -9.02,11.637 -28.11,30.59 -89.71,89.399 -174.41,178.578 -129.71,136.543 -221,238.164 -233.52,252.34 -8.34,8.344 -22.48,26.703 -29.18,26.703 -6.68,0 -9.41,-6.308 -9.41,-38.871 l -0.59,-481.031 c 0,-75.899 -8.34,-98.516 -28.94,-101.293 -24.07,-3.281 -45.47,9.476 -83.6,53.519 -46.42,53.512 -158.28,255.957 -158.28,255.957 89.16,51.993 112.68,92.071 112.68,153.848 0,57.578 -37.07,98.574 -57.97,113.574 -44.18,31.739 -109.03,32.618 -161.6,32.618 -25.86,0 -116.16,-2.5 -125.34,-2.5 -4.18,0 -56.75,2.5 -94.29,2.5 -9.2,0 -13.36,-1.661 -13.36,-6.68 0,-3.32 3.34,-5 6.68,-5 7.5,0 21.68,-0.805 28.36,-2.461 27.58,-5.883 34.22,-19.219 35.88,-47.598 1.64,-26.703 1.64,-50.078 1.64,-180.273 l 0,-146.856 c 0,-80.117 0,-146.054 -4.14,-181.074 -3.32,-24.219 -10.51,-38.461 -22.39,-44.394 -6.83,-3.461 -32.59,-4.84 -40.11,-4.84 -5.02,0 -8.46,-3.153 -8.46,-5.692 0,-4.98 4.86,-5.992 14,-5.992 14.77,0 95.14,2.051 106.27,2.051 12.64,0 70.18,-2.051 116.1,-2.051 9.18,0 13.32,2.481 13.32,6.66 0,2.5 -1.64,5.024 -6.64,5.024 -7.52,0 -25.88,1.75 -37.56,3.34 -24.36,3.257 -30.06,21.675 -32.54,45.894 -4.2,35.02 -4.2,126.817 -4.2,206.953 l 0,22.969 c 0,4.199 1.68,6.719 5.86,6.719 l 67.15,0.191 c 5.04,0 8.73,-2.984 12.05,-6.324 16.7,-21.699 47.99,-88.086 80.8,-146.367 44.59,-79.16 70.84,-109.16 106.6,-128.676 38.24,-20.84 93.05,-16.383 139.8,-16.383 0,0 47.11,1.66 64.22,1.66 20.37,0 61.57,-1.66 94.55,-1.66 10.02,0 15.02,1.66 15.02,6.66 0,3.34 -2.5,5.024 -6.68,5.024 -7.48,0 -25.86,0.84 -41.71,4.976 -22.52,6.7 -30.86,28.399 -32.54,96.817 l -6.39,334.433 -1.45,9.176 c 1.16,-1.266 4.75,-6.812 6.12,-8.316 29.92,-32.969 102.22,-105.45 194.86,-205.215 90.41,-97.348 173.28,-178.985 192.05,-196.016 44.22,-44.195 54.22,-53.578 60.92,-53.379 7.07,0.172 7.5,4.313 7.5,59.239 l 1.68,489.019 c 0,50.063 3.34,68.418 30.86,74.301 10.02,2.461 28.06,2.461 32.22,2.461 m -1232.94,11.68 c -25.06,0 -71.78,-2.5 -77.62,-2.5 -5,0 -50.9,2.5 -88.48,2.5 -9.16,0 -13.34,-1.661 -13.34,-6.68 0,-3.32 3.36,-5 6.68,-5 7.52,0 21.7,-0.805 28.36,-2.461 27.58,-5.883 34.24,-19.219 35.88,-47.598 1.7,-26.703 1.7,-50.078 1.7,-180.273 l 0,-104.297 c 0,-85.977 -0.8,-155.117 -35.72,-196.699 -33.09,-39.434 -83.4,-49.785 -137.43,-49.785 -47.59,0 -86.91,1.738 -127.81,40.136 -35.88,34.199 -42.71,78.203 -42.71,198.36 l 0.76,115.644 c 0,130.176 -0.22,150.762 1.44,177.461 1.68,29.219 10.82,43.668 33.34,47.051 10.02,1.656 18.77,2.461 24.63,2.461 3.32,0 6.68,1.68 6.68,5 0,5.019 -4.18,6.68 -13.34,6.68 -25.06,0 -106.25,-2.5 -113.75,-2.5 -7.5,0 -58.4,2.5 -95.97,2.5 -9.18,0 -13.34,-1.661 -13.34,-6.68 0,-3.32 3.32,-5 6.68,-5 7.48,0 21.68,-0.805 28.36,-2.461 27.53,-5.883 34.21,-19.219 35.89,-47.598 1.66,-26.703 0.53,-42.011 0.53,-172.207 l -1.11,-153.789 c 0,-111.445 23.73,-161.387 64.61,-200.586 59.29,-55.898 153.08,-54.238 196.17,-54.238 83.81,0 141.54,16.312 185,60.898 50.08,51.368 55.74,124.082 57.19,250.371 l 0,89.278 c 0,130.195 0,153.57 1.64,180.273 1.66,29.199 8.36,43.379 30.88,47.598 10.02,2.461 15.04,2.461 20.89,2.461 3.33,0 6.65,1.68 6.65,5 0,5.019 -4.18,6.68 -13.34,6.68 M 2500.23,264.656 c -146.75,-7.988 -244.24,110.625 -243.95,305.059 0.24,171.949 87.92,255.176 220.2,259.648 131.78,4.453 226.54,-99.59 229.53,-287.461 3.71,-238.593 -130.74,-273.144 -205.78,-277.246 m -17.64,607.461 c -230.32,0 -328.77,-196.562 -328.77,-331.738 0,-150.234 95.13,-322.5 323.78,-322.5 201.15,0 333.2,138.926 332.94,334.082 -0.23,194.434 -140.19,320.156 -327.95,320.156 m -364.78,-11.703 c -25.02,0 -104.31,-2.574 -108.49,-2.574 -4.17,0 -61.83,3.262 -99.37,3.262 -9.18,0 -13.38,-1.711 -13.38,-6.875 0,-3.45 3.36,-5.157 6.72,-5.157 7.5,0 21.69,-0.871 28.36,-2.59 27.53,-6.027 35.1,-16.179 36.77,-45.468 1.67,-27.559 1.67,-69.91 1.67,-204.266 l 0,-230.715 c 0,-222.172 -25.59,-258.57 -81.78,-323.8513 -7.05,-8.1797 -19.2,-18.0703 -29.22,-24.1211 -7.48,-5.1367 -11.68,-7.7383 -11.68,-12.91016 0,-3.4375 3.34,-5.14844 5.84,-5.14844 2.52,0 4.18,0.871094 5.84,1.71094 8.36,4.30859 21.7,13.77736 32.54,21.50786 67.61,48.2617 129.39,108.4292 149.28,150.3832 22.46,47.386 20.87,98.086 23.17,230.332 l 0,188.476 c 0,134.375 0.15,176.707 1.68,204.285 1.88,34.512 9.12,43.118 37.87,49.121 9.96,2.024 15.02,2.539 20.84,2.539 3.34,0 6.72,1.739 6.72,5.168 0,5.176 -4.2,6.891 -13.38,6.891 m 2899.26,-368.766 -150.12,0 c -3.62,0 -4.69,2.696 -3.01,6.875 l 74.39,194.278 c 4.2,12.519 8.38,12.519 12.54,0 l 69.54,-195.313 c 0.84,-3.34 0.84,-5.84 -3.34,-5.84 m 665.11,-146.113 c -4.94,0.801 -7.4,-5.566 -9.72,-12.969 -3.34,-10.605 -8.66,-23.339 -19.5,-36.679 -20.02,-24.199 -65.7,-25.059 -109.94,-25.059 -65.1,0 -73.98,5.86 -87.34,19.219 -15.04,14.98 -18.36,57.168 -18.36,179.863 l 0,148.516 c 0,130.195 0,153.57 1.66,180.273 1.66,29.199 8.38,43.379 32.56,47.598 10.02,1.656 21.66,2.461 27.54,2.461 3.32,0 6.68,1.68 6.68,5 0,5.019 -4.16,6.68 -13.36,6.68 -25.04,0 -98.73,-2.5 -102.91,-2.5 -4.18,0 -67.95,2.5 -105.53,2.5 -9.18,0 -13.32,-1.661 -13.32,-6.68 0,-3.32 3.36,-5 6.68,-5 7.5,0 21.66,-0.805 28.36,-2.461 27.54,-5.883 34.2,-19.219 35.86,-47.598 1.68,-26.703 1.68,-50.078 1.68,-180.273 l 0,-146.856 c 0,-80.117 0,-136.054 -4.16,-171.117 -3.34,-24.215 -9.9,-35.523 -25.84,-44.351 -14.14,-7.774 -49.05,-6.661 -63.44,-2.11 -17.52,4.981 -39.1,10.606 -69.18,84.903 -50.86,126.851 -185.94,471.464 -198.46,503.183 -9.98,25.875 -13.34,30.039 -18.34,30.039 -5.02,0 -8.36,-4.98 -18.38,-32.539 L 4736.81,321.355 c -17.26,-40.332 -31.7,-73.433 -70.08,-78.457 -6.66,-0.796 -18.38,-1.636 -24.2,-1.636 -4.14,0 -7.5,-1.684 -7.5,-5.024 0,-5 5,-6.66 15.84,-6.66 39.2,0 85.12,2.481 94.3,2.481 9.16,0 73.05,-2.329 93.09,-2.329 7.52,0 12.52,1.68 12.52,6.7 0,3.34 -2.56,4.98 -8.36,4.98 l -8.36,0 c -14.18,0 -39.85,9.512 -41.99,28.891 -1.57,14.082 0.15,28.769 11.56,54.492 l 40.84,116.719 c 1.66,4.199 4.16,6.679 8.38,6.679 l 181.29,0 c 4.16,0 5.86,-1.66 7.48,-5 l 54.14,-149.707 c 4.53,-14.55 4.06,-30.996 -10.1,-39.218 -17.25,-10.028 -47.5,-11.836 -50.49,-12.856 -3.34,-0.82 -7.19,-1.64 -7.19,-6.351 0,-4.469 4.73,-5.329 21.19,-5.329 21.37,0 85.83,1.45 112.8,1.45 45.8,0.058 117.48,-1.602 118.18,-1.602 25.02,0 90.82,2.481 119.22,2.481 48.46,0 103.52,-3.418 223.67,-3.418 44.22,0 45.8,1.757 51.62,20.937 6.68,24.199 11.72,70.195 12.27,79.356 0.57,9.199 0,15.879 -4.75,16.601"
         inkscape:connector-curvature="0"
         id="path16"
         style="fill:#a11632;fill-opacity:1;fill-rule:nonzero;stroke:none" /><path
         d="m 2996.46,1240.7 c 3.34,0 9.67,-0.38 12.64,-1.11 12.22,-2.61 15.19,-8.53 15.91,-21.14 0.77,-11.87 0.77,-22.26 0.77,-80.15 l 0,-65.28 c 0,-35.62 0,-64.93 -1.88,-80.493 -1.44,-10.742 -2.17,-15.351 -9.2,-19.082 -4.2,-2.238 -10.78,-2.793 -14.12,-2.793 -2.21,0 -2.95,-1.125 -2.95,-2.246 0,-2.218 1.84,-2.961 5.94,-2.961 11.11,0 37.34,1.114 40.72,1.114 21.51,0 50.74,-2.215 104.14,-2.215 19.67,0 20.78,1.492 23.4,10 2.95,10.777 5.57,33.026 5.57,37.086 0,4.11 -0.37,5.57 -2.25,5.57 -2.19,0 -2.95,-1.84 -3.32,-4.82 -1.11,-7.04 -4.86,-12.06 -9.67,-18.004 -8.88,-10.731 -29.96,-9.61 -49.63,-9.61 -28.94,0 -29.88,2.571 -35.78,8.547 -6.68,6.68 -8.18,24.637 -8.18,79.177 l 0,66.01 c 0,57.89 0,68.28 0.76,80.15 0.74,13 3.71,19.27 14.45,21.14 4.5,0.73 9.67,1.11 12.25,1.11 1.5,0 2.99,0.75 2.99,2.23 0,2.23 -1.86,2.96 -5.96,2.96 -11.09,0 -38.2,-1.14 -40.06,-1.14 -1.85,0 -36.85,1.14 -53.57,1.14 -4.06,0 -5.94,-0.73 -5.94,-2.96 0,-1.48 1.51,-2.23 2.97,-2.23 m -822.44,-5.45 c 59.42,2.95 105.26,-44.93 105.26,-133.95 0,-107.991 -59.66,-122.105 -93.03,-123.46 -66.48,-2.617 -106.03,50.06 -106.03,136.48 0,81.27 35.83,118.03 93.8,120.93 m 2.62,-275 c 89.4,0 151.15,58.02 149.68,150.91 -1.31,82.4 -64,139.94 -147.47,139.94 -102.38,0 -144.5,-81.24 -146.15,-145.08 -1.77,-69.14 42.28,-145.77 143.94,-145.77 m -300.29,5.195 c 11.15,0 49.88,1.114 51.74,1.114 1.83,0 29.85,-1.114 50.3,-1.114 4.07,0 5.9,1.114 5.9,2.961 0,1.121 -0.74,2.246 -2.95,2.246 -3.33,0 -11.49,0.719 -16.7,1.485 -11.13,1.465 -13.34,9.648 -14.47,20.39 -1.85,15.563 -1.85,44.873 -1.85,80.493 l 0,65.28 c 0,57.89 0,68.28 0.74,80.15 0.74,13 3.72,19.27 13.71,21.14 4.45,0.73 8.31,1.11 10.9,1.11 1.5,0 2.97,0.75 2.97,2.23 0,2.23 -1.85,2.96 -5.94,2.96 -11.12,0 -37.16,-1.14 -42.61,-1.14 -5.69,0 -33.6,1.14 -45.85,1.14 -4.11,0 -5.94,-0.73 -5.94,-2.96 0,-1.48 1.46,-2.23 2.95,-2.23 2.6,0 7.44,-0.38 11.53,-1.47 8.12,-1.85 11.87,-8.17 12.59,-20.78 0.75,-11.87 0.75,-22.26 0.75,-80.15 l 0,-65.28 c 0,-35.62 0,-64.93 -1.86,-80.493 -1.48,-10.742 -3.59,-16.582 -9.45,-19.082 -4.06,-1.75 -16.05,-2.793 -19.42,-2.793 -2.2,0 -2.95,-1.125 -2.95,-2.246 0,-2.218 1.85,-2.961 5.91,-2.961 M 13.5,1198.66 c 1.4688,0 2.6094,0.72 3.7227,3.72 1.1093,2.59 2.8711,5.47 7.3593,11.48 6.8985,9.23 13.7657,11.51 36.7618,11.88 l 43.6292,0.73 0,-153.45 c 0,-35.62 0,-64.93 -1.844,-80.493 -1.508,-10.742 -1.938,-15.761 -9.4376,-18.828 -4.4297,-1.797 -15.8008,-3.047 -19.1328,-3.047 -2.2188,0 -2.9648,-1.125 -2.9648,-2.246 0,-2.218 1.8281,-2.961 5.9179,-2.961 11.1211,0 49.1333,1.114 50.9803,1.114 1.863,0 30.047,-1.114 50.449,-1.114 4.051,0 5.918,1.114 5.918,2.961 0,1.121 -0.734,2.246 -2.949,2.246 -3.34,0 -11.515,0.719 -16.711,1.485 -11.113,1.465 -13.359,9.648 -14.433,20.39 -1.883,15.563 -1.883,44.873 -1.883,80.493 l 0,153.45 41.18,-0.73 c 35.605,-0.77 42.089,-8.24 44.882,-18.81 l 1.106,-5.69 c 0.379,-5.18 1.133,-6.31 2.996,-6.31 1.476,0 2.578,1.48 2.578,4.82 0,4.11 1.113,33.17 1.113,44.29 0,2.25 0,4.44 -1.855,4.44 -2.969,0 -12.969,-3.73 -36.699,-3.73 l -135.0317,0 c -4.4609,0 -18.5625,0.77 -29.3046,1.9 -10.0391,0.73 -13.7266,4.45 -16.3555,4.45 -1.4609,0 -3.3789,-2.45 -4.2188,-7.65 -0.8203,-5.34 -7.6328,-37.73 -7.6328,-41.46 0,-2.24 0.7539,-3.33 1.8594,-3.33 m 1399.99,-107.83 32.42,84.58 c 1.85,5.59 3.69,5.59 5.56,0 l 32.7,-84.58 c 0.36,-1.47 0.36,-2.58 -1.49,-2.58 l -68.08,0 c -1.11,0 -1.87,0.72 -1.11,2.58 m -94.28,-125.385 c 17.45,0 33.64,1.114 37.71,1.114 4.09,0 26.79,-1.114 35.67,-1.114 3.37,0 5.59,0.743 5.59,2.961 0,1.504 -1.13,2.246 -3.71,2.246 l -3.73,0 c -6.29,0 -15.56,3.407 -16.6,10.758 -1.06,7.348 1.45,13.461 5.44,23.11 l 23.59,61.22 c 0.75,1.87 1.86,2.97 3.73,2.97 l 83.88,0 c 1.83,0 2.59,-0.71 3.34,-2.2 l 28.86,-74.139 c 2.8,-8.359 -0.97,-14.629 -6.56,-16.719 -7.77,-2.929 -17.97,-4.492 -19.24,-4.933 -1.5,-0.36 -2.6,-1.121 -2.6,-2.586 0,-2.246 4.07,-2.246 11.14,-2.578 10.94,-0.332 27.97,1.14 46.25,1.191 24.4,0.02 49.72,-1.301 52.88,-1.301 4.09,0 7.45,0.743 7.45,2.961 0,1.875 -1.48,2.246 -3.72,2.246 -3.73,0 -9.27,0.352 -14.83,2.215 -7.8,2.199 -18.66,10.332 -31.91,41.173 -23.99,55.83 -88.26,209.61 -93.86,223.68 -4.44,11.51 -5.91,13.38 -8.16,13.38 -2.22,0 -3.67,-2.22 -8.13,-14.46 l -94.25,-230.38 c -6.68,-18.557 -14.07,-32.658 -31.16,-34.889 -2.96,-0.367 -8.15,-0.719 -10.76,-0.719 -1.83,0 -3.34,-0.742 -3.34,-2.246 0,-2.218 2.23,-2.961 7.03,-2.961 m 1461.94,125.385 32.39,84.58 c 1.87,5.59 3.73,5.59 5.58,0 l 32.69,-84.58 c 0.35,-1.47 0.35,-2.58 -1.5,-2.58 l -68.06,0 c -1.1,0 -1.86,0.72 -1.1,2.58 m -94.29,-125.385 c 17.45,0 33.62,1.114 37.71,1.114 4.08,0 26.75,-1.114 35.66,-1.114 3.35,0 5.59,0.743 5.59,2.961 0,1.504 -1.14,2.246 -3.74,2.246 l -3.67,0 c -6.31,0 -15.62,3.407 -16.64,10.758 -1.03,7.348 1.45,13.461 5.45,23.11 l 23.6,61.22 c 0.74,1.87 1.85,2.97 3.71,2.97 l 83.84,0 c 1.88,0 2.62,-0.71 3.34,-2.2 l 28.93,-74.139 c 2.77,-8.359 -1,-14.629 -6.56,-16.719 -7.8,-2.929 -18.01,-4.492 -19.26,-4.933 -1.5,-0.36 -2.62,-1.121 -2.62,-2.586 0,-2.246 4.08,-2.246 11.13,-2.578 10.96,-0.332 28.03,1.14 46.29,1.191 24.4,0.02 49.71,-1.301 52.88,-1.301 4.08,0 7.42,0.743 7.42,2.961 0,1.875 -1.47,2.246 -3.71,2.246 -3.71,0 -9.24,0.352 -14.83,2.215 -7.81,2.199 -18.67,10.332 -31.89,41.173 -23.97,55.83 -88.28,209.61 -93.85,223.68 -4.45,11.51 -5.96,13.38 -8.16,13.38 -2.24,0 -3.7,-2.22 -8.15,-14.46 l -94.26,-230.38 c -6.68,-18.557 -14.09,-32.658 -31.15,-34.889 -2.96,-0.367 -8.16,-0.719 -10.77,-0.719 -1.85,0 -3.31,-0.742 -3.31,-2.246 0,-2.218 2.23,-2.961 7.02,-2.961 m -311.86,0 c 16.67,0 35.82,1.114 39.14,1.114 3.36,0 18.2,-1.114 39.35,-1.114 4.43,0 6.67,0.743 6.67,2.961 0,1.504 -1.1,2.246 -2.95,2.246 -3.36,0 -11.53,0.352 -18.56,2.215 -10.02,2.949 -13.71,12.598 -14.48,43.043 0,0 -2.1,142.52 -2.2,149.5 -0.14,6.95 -1.83,14.2 -1.83,14.2 1.5,-1.72 3.62,-6.13 7.69,-10.14 4.07,-4.01 53.24,-53.9 91.36,-93.67 40.57,-42.3 89.72,-85.48 93.79,-89.202 19.7,-19.649 24.1,-23.75 27.09,-23.75 2.61,0 3.34,1.847 3.34,26.34 l 0.75,217.392 c 0,22.28 1.47,30.4 13.75,33.01 4.44,1.11 10.19,1.11 12.05,1.11 2.59,0 4.07,1.12 4.07,2.59 0,2.23 -2.59,2.6 -6.65,2.6 -15.24,0 -30.62,-1.14 -34.7,-1.14 -4.1,0 -21.9,1.14 -38.58,1.14 -4.5,0 -7.43,-0.37 -7.43,-2.6 0,-1.47 0.36,-2.59 2.93,-2.59 3,0 11.53,-0.38 18.21,-1.84 11.49,-2.97 14.08,-11.14 14.46,-35.25 0,0 0.71,-150.87 0.99,-159.23 0.25,-8.38 1.38,-14.2 1.38,-14.2 -1.52,1.52 -3.04,4.46 -7.83,9.48 -4.73,5 -43.57,42.82 -76.2,76.7 -59.66,62.01 -115.67,116.56 -121.27,122.87 -3.7,3.7 -10.01,12.11 -12.97,11.87 -5.2,-0.45 -4.08,-4.09 -4.08,-18.55 l -0.36,-212.58 c 0,-33.751 -1.88,-44.493 -11.13,-47.103 -5.57,-1.863 -15.8,-2.215 -18.77,-2.215 -1.87,0 -2.99,-0.742 -2.99,-2.246 0,-2.57 2.24,-2.961 5.96,-2.961 m -1367.19,0 c 16.68,0 35.84,1.114 39.2,1.114 3.34,0 18.15,-1.114 39.29,-1.114 4.48,0 6.66,0.743 6.66,2.961 0,1.504 -1.08,2.246 -2.93,2.246 -3.34,0 -11.52,0.352 -18.56,2.215 -10.01,2.949 -13.73,12.598 -14.44,43.043 0,0 -2.11,142.52 -2.24,149.5 -0.12,6.95 -1.85,14.2 -1.85,14.2 1.55,-1.72 3.62,-6.13 7.71,-10.14 4.08,-4.01 53.21,-53.9 91.38,-93.67 40.54,-42.3 89.7,-85.48 93.79,-89.202 19.66,-19.649 24.14,-23.75 27.1,-23.75 2.58,0 3.33,1.847 3.33,26.34 l 0.74,217.392 c 0,22.28 1.5,30.4 13.75,33.01 4.42,1.11 10.21,1.11 12.04,1.11 2.61,0 4.08,1.12 4.08,2.59 0,2.23 -2.6,2.6 -6.67,2.6 -15.23,0 -30.62,-1.14 -34.71,-1.14 -4.07,0 -21.88,1.14 -38.58,1.14 -4.42,0 -7.39,-0.37 -7.39,-2.6 0,-1.47 0.33,-2.59 2.97,-2.59 2.93,0 11.48,-0.38 18.15,-1.84 11.51,-2.97 14.12,-11.14 14.47,-35.25 0,0 0.7,-150.87 0.98,-159.23 0.26,-8.38 1.4,-14.2 1.4,-14.2 -1.54,1.52 -3.08,4.46 -7.86,9.48 -4.7,5 -43.58,42.82 -76.19,76.7 -59.7,62.01 -115.69,116.56 -121.24,122.87 -3.72,3.7 -10.02,12.11 -12.98,11.87 -5.2,-0.45 -4.1,-4.09 -4.1,-18.55 l -0.35,-212.58 c 0,-33.751 -1.87,-44.493 -11.16,-47.103 -5.54,-1.863 -15.79,-2.215 -18.75,-2.215 -1.85,0 -2.98,-0.742 -2.98,-2.246 0,-2.57 2.25,-2.961 5.94,-2.961 M 650.719,1240.7 c 3.34,0 9.648,-0.38 12.597,-1.11 12.254,-2.61 15.235,-8.53 15.957,-21.14 0.743,-11.87 0.743,-22.26 0.743,-80.15 l 0,-65.28 c 0,-35.62 0,-64.93 -1.848,-80.493 -1.492,-10.742 -3.34,-18.925 -10.77,-20.39 -3.359,-0.766 -12.5,-1.485 -15.839,-1.485 -2.227,0 -2.969,-1.125 -2.969,-2.246 0,-2.218 1.836,-2.961 5.937,-2.961 11.133,0 39.219,1.114 41.063,1.114 22.598,0 68.371,-2.215 112.551,-2.215 14.492,0 17.441,0 20.047,9.609 1.867,7.832 4.835,33.037 4.835,36.007 0,2.61 0,5.58 -2.246,5.58 -1.855,0 -1.855,-1.72 -3.32,-5.58 -5,-12.98 -7.07,-16.995 -16.719,-21.05 -9.648,-4.117 -25.949,-4.234 -35.605,-4.117 -42.578,0.613 -48.703,4.863 -49.824,30.427 -0.352,7.8 0,45.2 0,57.8 l 0,32.66 c 0,1.48 0.722,2.59 2.597,2.59 6.309,0 49.824,-0.76 59.852,-1.84 14.465,-1.5 20.148,-7.82 21.613,-13.02 1.504,-4.85 1.504,-8.56 1.504,-12.24 0,-1.87 0.742,-3.34 2.598,-3.34 2.597,0 2.597,4.07 2.597,7.02 0,2.59 0.137,15.98 0.848,23.39 1.145,12.28 1.262,22.35 1.262,24.61 0,2.24 -0.762,2.97 -1.856,2.97 -1.504,0 -3.008,-1.89 -5.586,-4.84 -3.32,-3.71 -8.515,-4.44 -17.441,-5.2 -8.508,-0.73 -60.938,-0.73 -65.762,-0.73 -1.847,0 -2.226,1.11 -2.226,3.74 l 0,96.26 c 0,2.58 0.722,3.68 2.226,3.68 4.082,0 51.317,-0.34 57.617,-1.1 20.039,-2.24 25.313,-6.27 27.911,-12.17 1.855,-4.48 2.195,-8.07 2.195,-10.67 0,-2.99 0.781,-4.85 3,-4.85 1.484,0 2.226,2.26 2.597,4.11 0.723,4.41 0.926,14.73 1.329,18.43 1.093,10.39 1.933,20.45 1.933,23.04 0,1.86 -0.39,3.36 -1.484,3.36 -1.856,0 -3.371,-1.5 -5.215,-1.87 -2.949,-0.72 -8.918,-1.49 -15.949,-1.85 3.312,0.13 -91.453,-0.41 -105.879,-0.41 -1.844,0 -25.223,1.14 -41.922,1.14 -4.063,0 -5.93,-0.73 -5.93,-2.96 0,-1.48 1.457,-2.23 2.981,-2.23 M 317.699,992.527 c -1.484,-10.742 -3.367,-16.582 -9.785,-19.394 -3.125,-1.348 -14.375,-2.481 -17.715,-2.481 -2.246,0 -2.976,-1.125 -2.976,-2.246 0,-2.218 1.843,-2.961 5.925,-2.961 11.125,0 40.137,1.114 42.004,1.114 1.844,0 39.071,-1.114 59.461,-1.114 4.094,0 5.977,1.114 5.977,2.961 0,1.121 -0.781,2.246 -2.996,2.246 -3.352,0 -11.496,0.719 -16.711,1.485 -11.133,1.465 -13.32,9.648 -14.442,20.39 -1.867,15.563 -1.867,44.873 -1.867,80.493 l 0,35.33 c 0,1.85 1.114,2.2 2.219,2.2 l 144.336,0 c 1.113,0 2.226,-0.72 2.226,-2.2 l 0,-35.33 c 0,-35.62 0,-64.93 -1.867,-80.493 -1.453,-10.742 -3.34,-18.925 -10.75,-20.39 -3.32,-0.766 -11.25,-1.485 -14.609,-1.485 -2.207,0 -2.949,-1.125 -2.949,-2.246 0,-2.218 1.855,-2.961 5.937,-2.961 11.133,0 51.719,1.114 53.582,1.114 1.848,0 25.227,-1.114 45.617,-1.114 4.102,0 5.957,1.114 5.957,2.961 0,1.121 -0.753,2.246 -2.968,2.246 -3.34,0 -11.516,0.719 -16.719,1.485 -11.094,1.465 -13.32,9.648 -14.453,20.39 -1.856,15.563 -1.856,44.873 -1.856,80.493 l 0,65.28 c 0,57.89 0,68.28 0.743,80.15 0.742,13 3.718,19.27 13.71,21.14 4.473,0.73 6.7,1.11 9.297,1.11 1.465,0 2.93,0.75 2.93,2.23 0,2.23 -1.828,2.96 -5.918,2.96 -11.113,0 -34.492,-1.14 -36.34,-1.14 -1.863,0 -38.992,1.14 -55.691,1.14 -4.082,0 -5.938,-0.73 -5.938,-2.96 0,-1.48 1.504,-2.23 2.969,-2.23 3.34,0 9.629,-0.38 12.617,-1.11 12.227,-2.61 15.196,-8.53 15.918,-21.14 0.781,-11.87 0.781,-22.26 0.781,-80.15 l 0,-7.78 c 0,-1.84 -1.113,-2.2 -2.226,-2.2 l -144.336,0 c -1.105,0 -2.219,0.36 -2.219,2.2 l 0,7.78 c 0,57.89 0,68.28 0.742,80.15 0.715,13 3.711,19.27 13.731,21.14 4.445,0.73 6.66,1.11 9.277,1.11 1.477,0 2.949,0.75 2.949,2.23 0,2.23 -1.855,2.96 -5.918,2.96 -11.132,0 -48.359,-1.14 -50.203,-1.14 -1.867,0 -25.226,1.14 -41.906,1.14 -4.101,0 -5.965,-0.73 -5.965,-2.96 0,-1.48 1.492,-2.23 2.996,-2.23 3.313,0 9.629,-0.38 12.578,-1.11 12.258,-2.61 15.235,-8.53 15.958,-21.14 0.742,-11.87 0.742,-22.26 0.742,-80.15 l 0,-65.28 c 0,-35.62 0,-64.93 -1.856,-80.493 M 1826.44,1248.48 c -2.98,0 -13,-3.73 -36.73,-3.73 l -135.03,0 c -4.42,0 -18.51,0.77 -29.29,1.9 -10,0.73 -13.72,4.45 -16.31,4.45 -1.51,0 -3.43,-2.45 -4.25,-7.65 -0.85,-5.34 -7.63,-37.73 -7.63,-41.46 0,-2.24 0.74,-3.33 1.83,-3.33 1.49,0 2.63,0.72 3.72,3.72 1.11,2.59 2.85,5.47 7.36,11.48 6.94,9.23 13.8,11.51 36.79,11.88 l 43.63,0.73 0,-153.45 c 0,-35.62 0,-64.93 -1.86,-80.493 -1.5,-10.742 -1.94,-15.761 -9.46,-18.828 -4.39,-1.797 -15.79,-3.047 -19.12,-3.047 -2.22,0 -2.97,-1.125 -2.97,-2.246 0,-2.218 1.88,-2.961 5.94,-2.961 11.13,0 49.14,1.114 51,1.114 1.85,0 30.02,-1.114 50.43,-1.114 4.06,0 5.92,1.114 5.92,2.961 0,1.121 -0.73,2.246 -2.97,2.246 -3.34,0 -11.48,0.719 -16.66,1.485 -11.16,1.465 -13.36,9.648 -14.5,20.39 -1.87,15.563 -1.87,44.873 -1.87,80.493 l 0,153.45 41.19,-0.73 c 35.63,-0.77 42.1,-8.24 44.86,-18.81 l 1.18,-5.69 c 0.33,-5.18 1.09,-6.31 2.91,-6.31 1.5,0 2.62,1.48 2.62,4.82 0,4.11 1.11,33.17 1.11,44.29 0,2.25 0,4.44 -1.84,4.44"
         inkscape:connector-curvature="0"
         id="path18"
         style="fill:#231f20;fill-opacity:1;fill-rule:nonzero;stroke:none" /><path
         d="m 1739.81,867.184 c -25.85,0 -61.73,-2.508 -67.6,-2.508 -7.5,0 -55.76,2.508 -98.31,2.508 -10.03,0 -14.19,-1.661 -14.19,-5.848 0,-3.34 3.33,-5.84 7.5,-5.84 38.41,0 45.27,-10.195 47.55,-25.019 1.49,-9.446 1.07,-23.118 -9.14,-53.418 -38.63,-114.289 -93.31,-278.047 -122.4,-361.504 l -3.34,0 -171.49,432.918 c -10.06,28.379 -15.04,39.23 -20.89,39.23 -5,0 -8.33,-4.164 -20.83,-38.379 l -163.89,-436.672 -2.41,0 c -12.54,44.258 -100.374,291.106 -119.065,346.536 -11.985,35.664 -17.813,55.156 -18.106,71.289 -0.195,10.839 5.828,17.519 10.84,20.019 10.008,5 29.571,5 36.241,5 4.19,0 8.37,0.84 8.37,5.84 0,3.34 -3.38,5.848 -15.04,5.848 -41.731,0 -102.102,-2.508 -109.63,-2.508 -9.171,0 -58.273,2.508 -101.679,2.508 -8.332,0 -13.352,-1.661 -13.352,-5.848 0,-5 3.36,-5.84 7.52,-5.84 5.832,0 26.691,-0.801 37.558,-5 21.692,-8.32 31.907,-23.887 47.481,-71.25 L 1041.5,302.633 c 20.06,-57.211 24.24,-77.852 36.48,-77.852 10.04,0 13.39,9.028 26.7,44.063 30.07,77.597 132.58,355.812 162.61,435.898 l 1.67,0 167.36,-436.707 c 12.25,-31.555 16.72,-44.035 25.06,-43.414 6.13,0.438 8.11,8.508 15.58,28.578 9.08,24.192 18.5,50.91 35.59,99.953 57.25,164.219 106.81,295.133 148.82,408.028 16.93,45.523 29.21,80.996 54.25,90.156 9.17,3.359 25.03,4.16 28.35,4.16 5.04,0 7.53,2.5 7.53,6.66 0,3.367 -4.17,5.028 -11.69,5.028 M 674.488,498.387 l -150.109,0 c -2.508,0 -4.695,2.703 -2.996,6.875 l 74.394,194.273 c 4.2,12.524 8.36,12.524 12.5,0 l 69.571,-195.308 c 0.82,-3.34 0.82,-5.84 -3.36,-5.84 M 943.219,247.988 c -8.371,0 -20.899,0.852 -33.399,4.989 -17.511,5.019 -41.711,18.367 -71.769,92.656 -50.906,126.855 -185.946,471.465 -198.465,503.183 -10.02,25.879 -13.34,30.039 -18.359,30.039 -5,0 -8.34,-4.972 -18.379,-32.539 0,0 -200.801,-497.636 -202.032,-500.878 -5.8,-15.079 -13.339,-34.895 -30.234,-50.254 -24.543,-22.286 -53.961,-20.586 -98.223,-20.586 -65.058,0 -78.992,6.453 -90.148,21.699 -17.289,23.672 -15.539,57.664 -15.539,180.351 l 0,148.524 c 0,130.187 0,153.566 1.68,180.266 1.668,29.199 8.359,43.378 32.554,47.597 10.012,1.66 21.715,2.461 27.532,2.461 3.343,0 6.703,1.688 6.703,5 0,5.027 -4.203,6.688 -13.383,6.688 -25.028,0 -98.762,-2.508 -102.918,-2.508 -4.16,0 -67.9337,2.508 -105.4806,2.508 C 4.17969,867.184 0,865.523 0,860.496 c 0,-3.312 3.33984,-5 6.64844,-5 7.53126,0 21.69926,-0.801 28.39846,-2.461 27.5312,-5.879 34.1719,-19.219 35.8789,-47.597 1.6719,-26.7 1.6719,-50.079 1.6719,-180.266 l 0,-146.863 c 0,-80.118 0,-146.055 -4.1797,-181.075 -3.3399,-24.218 -7.5,-42.578 -24.2071,-45.898 -7.5,-1.695 -17.5117,-3.348 -25.0429,-3.348 -4.9883,0 -6.668,-2.519 -6.668,-5.019 0,-5 4.1797,-6.66 13.3594,-6.66 25.0469,0 85.4806,2.492 92.9806,2.492 47.344,0 48.402,-2.11 152.73,-2.321 24.336,0 107.91,1.75 135.028,1.75 9.199,0 64.316,-1.75 84.336,-1.75 7.527,0 12.519,1.668 12.519,6.692 0,3.34 -2.539,4.988 -8.332,4.988 l -12.019,1.66 c -15.059,2.317 -32.883,11.301 -34.512,27.91 -1.094,11.133 3.047,26.719 12.48,53.801 l 41.602,116.446 c 1.648,4.16 4.168,6.679 8.328,6.679 l 178.313,0.274 c 4.179,0 5.828,-1.66 7.527,-5 l 56.32,-149.707 c 5.438,-17.305 0.996,-37.383 -20.644,-44.231 -16.719,-5.281 -33.731,-7.23 -39.895,-7.832 -3.32,-0.832 -5.848,-2.5 -5.848,-5.84 0,-4.992 3.965,-4.992 19.825,-5.84 21.367,-0.609 102.48,1.442 129.492,1.442 45.762,0.047 90.918,-1.613 98.758,-1.613 9.23,0 16.699,1.66 16.699,6.66 0,4.179 -3.34,5.019 -8.328,5.019"
         inkscape:connector-curvature="0"
         id="path20"
         style="fill:#231f20;fill-opacity:1;fill-rule:nonzero;stroke:none" /></g></g></svg>