<?xml version="1.0" encoding="utf-8"?>
<!-- Generator: Adobe Illustrator 16.0.0, SVG Export Plug-In . SVG Version: 6.00 Build 0)  -->
<!DOCTYPE svg PUBLIC "-//W3C//DTD SVG 1.1//EN" "http://www.w3.org/Graphics/SVG/1.1/DTD/svg11.dtd">
<svg version="1.1"
	 id="svg2" xmlns:dc="http://purl.org/dc/elements/1.1/" xmlns:cc="http://creativecommons.org/ns#" xmlns:rdf="http://www.w3.org/1999/02/22-rdf-syntax-ns#" xmlns:svg="http://www.w3.org/2000/svg" xmlns:inkscape="http://www.inkscape.org/namespaces/inkscape"
	 xmlns="http://www.w3.org/2000/svg" xmlns:xlink="http://www.w3.org/1999/xlink" x="0px" y="0px" width="1242.6px"
	 height="156.387px" viewBox="0 0 1242.6 156.387" enable-background="new 0 0 1242.6 156.387" xml:space="preserve">
<g id="g10" transform="matrix(1.25,0,0,-1.25,0,156.3875)">
	<g id="g12" transform="scale(0.1,0.1)">
		<path id="path14" inkscape:connector-curvature="0" fill="none" stroke="#231F20" stroke-width="20" d="M121.951,718.256h3970.761
			"/>
		<path id="path16" inkscape:connector-curvature="0" fill="#A11632" d="M1639.232,906.397c-7.676-5.344-18.871-7.422-26.875-7.422
			c-16.789,0-25.633,0.328-29.652,3c-1.613,1.078-2.375,2.828-2.375,4.5v90.59c0,1.992,1.008,3.328,2.668,4
			c3.359,1,12.363,2,22.375,2c32.395,0,48.188-22.531,49.34-56.617C1655.232,930.666,1650.912,914.412,1639.232,906.397
			 M1989.724,1013.057c2.332,0,3.676,1,3.676,2.336c0,2.008-2.352,2.336-6,2.336c-13.695,0-27.531-1-34.887-1
			c-7.141,0-23.953,1-38.965,1c-4.02,0-6.688-0.328-6.688-2.336c0-1.336,0.34-2.336,2.668-2.336c2.676,0,10.359-0.32,16.363-1.664
			c10.352-2.672,12.684-10.016,13.012-31.727l1.344-138.832l0.328-6.141c-1.078,1.188-2.453,3.406-3.609,4.656
			c-11.242,12.234-35.879,35.766-69.762,71.438c-51.887,54.613-88.398,95.262-93.406,100.934c-3.336,3.336-8.992,10.68-11.676,10.68
			c-2.668,0-3.762-2.523-3.762-15.547l-0.238-192.41c0-30.359-3.336-39.406-11.574-40.516c-9.629-1.312-18.188,3.781-33.441,21.406
			c-18.562,21.406-63.309,102.375-63.309,102.375c35.664,20.797,45.07,36.832,45.07,61.543c0,23.031-14.824,39.43-23.188,45.43
			c-17.676,12.695-43.613,13.047-64.637,13.047c-10.344,0-46.469-1-50.141-1c-1.672,0-22.699,1-37.719,1
			c-3.68,0-5.344-0.664-5.344-2.672c0-1.328,1.34-2,2.676-2c3,0,8.668-0.32,11.344-0.984c11.031-2.352,13.688-7.688,14.352-19.039
			c0.656-10.68,0.656-20.031,0.656-72.109v-58.746c0-32.047,0-58.422-1.656-72.422c-1.324-9.688-4.207-15.391-8.957-17.766
			c-2.73-1.375-13.039-1.93-16.043-1.93c-2.008,0-3.383-1.258-3.383-2.281c0-1.992,1.945-2.398,5.602-2.398
			c5.906,0,38.055,0.828,42.504,0.828c5.059,0,28.07-0.828,46.437-0.828c3.676,0,5.332,1,5.332,2.672c0,1-0.656,2.008-2.656,2.008
			c-3.004,0-10.348,0.695-15.023,1.336c-9.746,1.297-12.027,8.672-13.02,18.359c-1.676,14-1.676,50.719-1.676,82.781v9.188
			c0,1.672,0.668,2.688,2.344,2.688l26.855,0.078c2.02,0,3.496-1.203,4.828-2.531c6.672-8.688,19.191-35.234,32.316-58.547
			c17.832-31.672,28.332-43.672,42.637-51.477c15.297-8.336,37.219-6.555,55.922-6.555c0,0,18.844,0.672,25.688,0.672
			c8.148,0,24.629-0.672,37.824-0.672c4.004,0,6.004,0.672,6.004,2.672c0,1.328-1,2.008-2.672,2.008
			c-2.988,0-10.344,0.336-16.684,1.992c-9.004,2.672-12.344,11.359-13.02,38.719l-2.555,133.777l-0.574,3.672
			c0.461-0.508,1.898-2.727,2.441-3.328c11.969-13.188,40.891-42.184,77.945-82.09c36.168-38.938,69.312-71.594,76.82-78.406
			c17.691-17.672,21.691-21.43,24.367-21.344c2.832,0.062,3,1.719,3,23.688l0.676,195.613c0,20.023,1.336,27.367,12.344,29.719
			C1980.842,1013.057,1988.06,1013.057,1989.724,1013.057 M1496.549,1017.729c-10.023,0-28.711-1-31.051-1c-2,0-20.355,1-35.391,1
			c-3.664,0-5.332-0.664-5.332-2.672c0-1.328,1.344-2,2.668-2c3.008,0,8.68-0.32,11.344-0.984
			c11.031-2.352,13.699-7.688,14.355-19.039c0.676-10.68,0.676-20.031,0.676-72.109v-41.715c0-34.391-0.32-62.047-14.289-78.688
			c-13.23-15.766-33.355-19.906-54.969-19.906c-19.035,0-34.762,0.688-51.125,16.047c-14.348,13.688-17.086,31.281-17.086,79.344
			l0.305,46.262c0,52.07-0.086,60.305,0.578,70.984c0.672,11.688,4.328,17.469,13.336,18.82c4.008,0.664,7.508,0.984,9.852,0.984
			c1.328,0,2.672,0.672,2.672,2c0,2.008-1.672,2.672-5.336,2.672c-10.023,0-42.5-1-45.5-1s-23.355,1-38.387,1
			c-3.668,0-5.34-0.664-5.34-2.672c0-1.328,1.332-2,2.676-2c2.996,0,8.668-0.32,11.344-0.984
			c11.012-2.352,13.684-7.688,14.355-19.039c0.664-10.68,0.215-16.805,0.215-68.883l-0.445-61.52
			c0-44.578,9.488-64.547,25.844-80.234c23.715-22.359,61.23-21.688,78.469-21.688c33.52,0,56.613,6.516,74,24.359
			c20.031,20.547,22.293,49.625,22.875,100.141v35.715c0,52.078,0,61.43,0.656,72.109c0.664,11.68,3.344,17.352,12.352,19.039
			c4.004,0.984,6.02,0.984,8.355,0.984c1.332,0,2.664,0.672,2.664,2C1501.889,1017.065,1500.213,1017.729,1496.549,1017.729
			 M1116.486,779.412c-58.699-3.188-97.699,44.25-97.582,122.031c0.094,68.777,35.172,102.066,88.082,103.855
			c52.715,1.781,90.613-39.836,91.812-114.98C1200.279,794.881,1146.498,781.053,1116.486,779.412 M1109.432,1022.401
			c-92.133,0-131.508-78.625-131.508-132.691c0-60.094,38.051-129,129.508-129c80.461,0,133.281,55.562,133.18,133.625
			C1240.517,972.112,1184.529,1022.401,1109.432,1022.401 M963.517,1017.721c-10.004,0-41.723-1.031-43.395-1.031
			c-1.668,0-24.734,1.305-39.75,1.305c-3.672,0-5.348-0.684-5.348-2.75c0-1.379,1.344-2.062,2.688-2.062
			c3,0,8.676-0.348,11.344-1.035c11.012-2.41,14.035-6.473,14.707-18.188c0.668-11.023,0.668-27.965,0.668-81.703v-92.289
			c0-88.867-10.238-103.43-32.715-129.539c-2.816-3.273-7.68-7.234-11.688-9.648c-2.992-2.055-4.672-3.102-4.672-5.164
			c0-1.375,1.336-2.062,2.336-2.062c1.008,0,1.676,0.352,2.336,0.688c3.344,1.719,8.684,5.508,13.016,8.602
			c27.043,19.305,51.754,43.367,59.711,60.148c8.988,18.953,8.352,39.234,9.27,92.141v75.391c0,53.746,0.062,70.68,0.676,81.711
			c0.75,13.801,3.641,17.246,15.141,19.645c3.988,0.812,6.016,1.02,8.34,1.02c1.336,0,2.688,0.695,2.688,2.066
			C968.869,1017.033,967.185,1017.721,963.517,1017.721 M2123.213,870.209h-60.039c-1.449,0-1.875,1.078-1.207,2.75l29.758,77.715
			c1.68,5.008,3.352,5.008,5.02,0l27.812-78.121c0.336-1.344,0.336-2.344-1.328-2.344 M2389.267,811.772
			c-1.977,0.312-2.961-2.234-3.898-5.188c-1.328-4.25-3.453-9.344-7.797-14.672c-8-9.688-26.273-10.031-43.969-10.031
			c-26.047,0-29.594,2.344-34.938,7.688c-6.016,6-7.344,22.875-7.344,71.953v59.402c0,52.078,0,61.43,0.664,72.109
			c0.664,11.68,3.352,17.352,13.023,19.039c4.008,0.664,8.664,0.984,11.016,0.984c1.328,0,2.672,0.672,2.672,2
			c0,2.008-1.672,2.672-5.344,2.672c-10.016,0-39.492-1-41.172-1c-1.664,0-27.172,1-42.203,1c-3.672,0-5.328-0.664-5.328-2.672
			c0-1.328,1.344-2,2.672-2c3,0,8.664-0.32,11.344-0.984c11.016-2.352,13.672-7.688,14.344-19.039
			c0.672-10.68,0.672-20.031,0.672-72.109v-58.746c0-32.047,0-54.422-1.664-68.438c-1.336-9.688-3.961-14.219-10.336-17.75
			c-5.656-3.109-19.625-2.656-25.375-0.844c-7.008,2-15.641,4.25-27.672,33.969c-20.344,50.734-74.375,188.582-79.391,201.27
			c-3.988,10.352-5.332,12.016-7.332,12.016c-2.008,0-3.344-1.992-7.352-13.016L2011.119,802.1
			c-6.906-16.141-12.684-29.375-28.031-31.391c-2.668-0.312-7.355-0.648-9.684-0.648c-1.656,0-3-0.68-3-2.008
			c0-2,2-2.672,6.34-2.672c15.676,0,34.043,1,37.719,1c3.66,0,29.219-0.938,37.238-0.938c3.004,0,5.004,0.672,5.004,2.68
			c0,1.336-1.023,1.992-3.344,1.992h-3.344c-5.676,0-15.941,3.812-16.801,11.562c-0.625,5.625,0.062,11.5,4.625,21.797l16.34,46.688
			c0.66,1.672,1.66,2.672,3.348,2.672h72.52c1.664,0,2.344-0.672,2.992-2l21.656-59.891c1.812-5.812,1.625-12.391-4.047-15.688
			c-6.891-4.008-19-4.734-20.188-5.141c-1.344-0.328-2.875-0.656-2.875-2.531c0-1.797,1.891-2.141,8.469-2.141
			c8.547,0,34.336,0.578,45.125,0.578c18.312,0.031,46.992-0.641,47.273-0.641c10.008,0,36.32,1,47.688,1
			c19.383,0,41.406-1.375,89.461-1.375c17.695,0,18.328,0.703,20.656,8.375c2.672,9.688,4.688,28.078,4.906,31.75
			c0.227,3.672,0,6.344-1.906,6.641"/>
		<path id="path18" inkscape:connector-curvature="0" fill="#231F20" d="M1314.974,1169.834c1.336,0,3.867-0.152,5.055-0.441
			c4.891-1.047,6.082-3.414,6.371-8.457c0.305-4.75,0.305-8.906,0.305-32.062v-26.109c0-14.246,0-25.973-0.75-32.199
			c-0.582-4.297-0.867-6.141-3.68-7.633c-1.684-0.898-4.312-1.117-5.652-1.117c-0.879,0-1.18-0.449-1.18-0.898
			c0-0.887,0.738-1.184,2.375-1.184c4.449,0,14.938,0.445,16.293,0.445c8.602,0,20.293-0.887,41.652-0.887
			c7.867,0,8.312,0.598,9.359,4c1.184,4.312,2.234,13.211,2.234,14.836c0,1.645-0.152,2.227-0.902,2.227
			c-0.879,0-1.18-0.738-1.332-1.93c-0.441-2.812-1.941-4.82-3.867-7.203c-3.551-4.289-11.98-3.844-19.852-3.844
			c-11.574,0-11.949,1.031-14.312,3.422c-2.672,2.672-3.273,9.855-3.273,31.672v26.402c0,23.156,0,27.312,0.305,32.062
			c0.297,5.199,1.488,7.707,5.781,8.457c1.801,0.289,3.871,0.441,4.902,0.441c0.598,0,1.191,0.301,1.191,0.891
			c0,0.891-0.742,1.184-2.379,1.184c-4.438,0-15.281-0.453-16.027-0.453c-0.734,0-14.734,0.453-21.43,0.453
			c-1.617,0-2.375-0.293-2.375-1.184C1313.787,1170.135,1314.392,1169.834,1314.974,1169.834 M985.998,1167.655
			c23.77,1.18,42.109-17.973,42.109-53.582c0-43.195-23.863-48.84-37.215-49.383c-26.594-1.047-42.41,20.027-42.41,54.594
			C948.482,1151.791,962.81,1166.494,985.998,1167.655 M987.049,1057.655c35.762,0,60.465,23.207,59.875,60.363
			c-0.523,32.961-25.598,55.977-58.988,55.977c-40.953,0-57.797-32.496-58.461-58.031
			C928.767,1088.307,946.389,1057.655,987.049,1057.655 M866.935,1059.733c4.457,0,19.953,0.445,20.695,0.445
			c0.73,0,11.938-0.445,20.117-0.445c1.633,0,2.363,0.445,2.363,1.184c0,0.449-0.301,0.898-1.18,0.898
			c-1.332,0-4.594,0.289-6.684,0.594c-4.449,0.586-5.336,3.859-5.785,8.156c-0.738,6.227-0.738,17.953-0.738,32.199v26.109
			c0,23.156,0,27.312,0.293,32.062c0.293,5.199,1.488,7.707,5.48,8.457c1.781,0.289,3.328,0.441,4.363,0.441
			c0.602,0,1.188,0.301,1.188,0.891c0,0.891-0.738,1.184-2.375,1.184c-4.449,0-14.863-0.453-17.043-0.453
			c-2.273,0-13.445,0.453-18.344,0.453c-1.645,0-2.375-0.293-2.375-1.184c0-0.59,0.586-0.891,1.18-0.891
			c1.047,0,2.977-0.152,4.613-0.586c3.25-0.742,4.75-3.27,5.039-8.312c0.301-4.75,0.301-8.906,0.301-32.062v-26.109
			c0-14.246,0-25.973-0.746-32.199c-0.594-4.297-1.438-6.633-3.781-7.633c-1.625-0.699-6.418-1.117-7.77-1.117
			c-0.879,0-1.18-0.449-1.18-0.898C864.568,1060.03,865.31,1059.733,866.935,1059.733 M121.795,1153.018
			c0.586,0,1.043,0.289,1.484,1.488c0.445,1.035,1.152,2.188,2.945,4.59c2.762,3.695,5.508,4.609,14.707,4.754l17.449,0.293v-61.379
			c0-14.246,0-25.973-0.738-32.199c-0.598-4.297-0.773-6.305-3.773-7.531c-1.77-0.719-6.32-1.219-7.652-1.219
			c-0.887,0-1.188-0.449-1.188-0.898c0-0.887,0.734-1.184,2.371-1.184c4.449,0,19.648,0.445,20.395,0.445
			c0.742,0,12.016-0.445,20.172-0.445c1.625,0,2.371,0.445,2.371,1.184c0,0.449-0.293,0.898-1.184,0.898
			c-1.328,0-4.605,0.289-6.68,0.594c-4.445,0.586-5.344,3.859-5.773,8.156c-0.75,6.227-0.75,17.953-0.75,32.199v61.379l16.469-0.293
			c14.242-0.309,16.836-3.297,17.953-7.523l0.438-2.277c0.156-2.07,0.457-2.523,1.203-2.523c0.594,0,1.031,0.59,1.031,1.93
			c0,1.641,0.441,13.266,0.441,17.719c0,0.898,0,1.773-0.738,1.773c-1.188,0-5.188-1.492-14.68-1.492h-54.012
			c-1.789,0-7.426,0.309-11.727,0.762c-4.012,0.289-5.488,1.777-6.535,1.777c-0.59,0-1.359-0.977-1.688-3.059
			c-0.332-2.137-3.059-15.094-3.059-16.586C121.049,1153.455,121.35,1153.018,121.795,1153.018 M681.787,1109.885l12.969,33.832
			c0.742,2.238,1.48,2.238,2.227,0l13.078-33.832c0.145-0.586,0.145-1.031-0.594-1.031h-27.23
			C681.787,1108.854,681.486,1109.143,681.787,1109.885 M644.08,1059.733c6.977,0,13.457,0.445,15.082,0.445
			c1.637,0,10.719-0.445,14.27-0.445c1.348,0,2.238,0.297,2.238,1.184c0,0.602-0.457,0.898-1.488,0.898h-1.496
			c-2.512,0-6.219,1.363-6.637,4.301c-0.426,2.941,0.582,5.387,2.176,9.246l9.438,24.488c0.301,0.746,0.742,1.188,1.492,1.188
			h33.551c0.73,0,1.039-0.285,1.34-0.879l11.543-29.656c1.117-3.344-0.387-5.852-2.625-6.688c-3.105-1.172-7.188-1.797-7.695-1.973
			c-0.598-0.145-1.043-0.449-1.043-1.035c0-0.898,1.633-0.898,4.457-1.031c4.375-0.133,11.188,0.457,18.5,0.477
			c9.762,0.008,19.887-0.52,21.156-0.52c1.629,0,2.973,0.297,2.973,1.184c0,0.75-0.586,0.898-1.484,0.898
			c-1.488,0-3.707,0.141-5.934,0.887c-3.117,0.879-7.461,4.133-12.762,16.473c-9.594,22.328-35.305,83.844-37.543,89.469
			c-1.777,4.605-2.363,5.352-3.262,5.352c-0.891,0-1.469-0.887-3.258-5.785l-37.699-92.148c-2.668-7.426-5.625-13.066-12.465-13.957
			c-1.18-0.148-3.262-0.289-4.305-0.289c-0.73,0-1.332-0.297-1.332-0.898C641.267,1060.03,642.154,1059.733,644.08,1059.733
			 M1228.857,1109.885l12.953,33.832c0.746,2.238,1.488,2.238,2.234,0l13.074-33.832c0.137-0.586,0.137-1.031-0.602-1.031h-27.223
			C1228.857,1108.854,1228.549,1109.143,1228.857,1109.885 M1191.139,1059.733c6.98,0,13.449,0.445,15.078,0.445
			c1.641,0,10.703-0.445,14.27-0.445c1.34,0,2.23,0.297,2.23,1.184c0,0.602-0.453,0.898-1.492,0.898h-1.469
			c-2.523,0-6.242,1.363-6.656,4.301c-0.414,2.941,0.582,5.387,2.18,9.246l9.438,24.488c0.301,0.746,0.746,1.188,1.488,1.188h33.539
			c0.75,0,1.043-0.285,1.332-0.879l11.574-29.656c1.105-3.344-0.402-5.852-2.625-6.688c-3.121-1.172-7.207-1.797-7.707-1.973
			c-0.602-0.145-1.043-0.449-1.043-1.035c0-0.898,1.629-0.898,4.449-1.031c4.387-0.133,11.211,0.457,18.52,0.477
			c9.754,0.008,19.879-0.52,21.148-0.52c1.633,0,2.969,0.297,2.969,1.184c0,0.75-0.586,0.898-1.488,0.898
			c-1.48,0-3.691,0.141-5.93,0.887c-3.125,0.879-7.469,4.133-12.758,16.473c-9.586,22.328-35.312,83.844-37.535,89.469
			c-1.781,4.605-2.387,5.352-3.262,5.352c-0.902,0-1.484-0.887-3.266-5.785l-37.703-92.148c-2.672-7.426-5.633-13.066-12.457-13.957
			c-1.188-0.148-3.262-0.289-4.309-0.289c-0.742,0-1.324-0.297-1.324-0.898C1188.33,1060.03,1189.217,1059.733,1191.139,1059.733
			 M1066.392,1059.733c6.668,0,14.332,0.445,15.656,0.445c1.344,0,7.281-0.445,15.738-0.445c1.773,0,2.668,0.297,2.668,1.184
			c0,0.602-0.438,0.898-1.18,0.898c-1.344,0-4.605,0.141-7.418,0.887c-4.016,1.176-5.488,5.039-5.797,17.215
			c0,0-0.836,57.008-0.879,59.801c-0.059,2.781-0.73,5.68-0.73,5.68c0.598-0.688,1.449-2.449,3.074-4.055
			c1.629-1.605,21.293-21.559,36.543-37.469c16.23-16.918,35.887-34.191,37.52-35.684c7.875-7.855,9.637-9.5,10.832-9.5
			c1.043,0,1.336,0.742,1.336,10.539l0.301,86.957c0,8.91,0.586,12.16,5.5,13.207c1.773,0.441,4.074,0.441,4.816,0.441
			c1.039,0,1.633,0.449,1.633,1.035c0,0.895-1.039,1.039-2.664,1.039c-6.094,0-12.242-0.453-13.875-0.453
			c-1.641,0-8.762,0.453-15.438,0.453c-1.797,0-2.969-0.145-2.969-1.039c0-0.586,0.145-1.035,1.172-1.035
			c1.199,0,4.609-0.152,7.285-0.738c4.594-1.188,5.633-4.453,5.781-14.098c0,0,0.289-60.348,0.402-63.691
			c0.098-3.352,0.547-5.68,0.547-5.68c-0.605,0.609-1.219,1.781-3.129,3.789c-1.895,2-17.434,17.133-30.48,30.68
			c-23.863,24.809-46.27,46.625-48.508,49.152c-1.48,1.477-4.008,4.844-5.188,4.746c-2.082-0.18-1.633-1.633-1.633-7.422
			l-0.141-85.031c0-13.5-0.758-17.797-4.457-18.84c-2.227-0.746-6.32-0.887-7.508-0.887c-0.75,0-1.191-0.297-1.191-0.898
			C1064.014,1059.889,1064.904,1059.733,1066.392,1059.733 M519.518,1059.733c6.668,0,14.34,0.445,15.684,0.445
			c1.328,0,7.254-0.445,15.711-0.445c1.793,0,2.668,0.297,2.668,1.184c0,0.602-0.438,0.898-1.176,0.898
			c-1.336,0-4.605,0.141-7.422,0.887c-4,1.176-5.496,5.039-5.777,17.215c0,0-0.844,57.008-0.895,59.801
			c-0.047,2.781-0.742,5.68-0.742,5.68c0.617-0.688,1.449-2.449,3.086-4.055c1.633-1.605,21.281-21.559,36.551-37.469
			c16.219-16.918,35.883-34.191,37.52-35.684c7.863-7.855,9.656-9.5,10.836-9.5c1.031,0,1.332,0.742,1.332,10.539l0.293,86.957
			c0,8.91,0.602,12.16,5.5,13.207c1.77,0.441,4.09,0.441,4.82,0.441c1.043,0,1.633,0.449,1.633,1.035
			c0,0.891-1.039,1.039-2.672,1.039c-6.086,0-12.242-0.453-13.879-0.453c-1.633,0-8.758,0.453-15.434,0.453
			c-1.766,0-2.953-0.148-2.953-1.039c0-0.586,0.129-1.035,1.188-1.035c1.168,0,4.594-0.152,7.254-0.738
			c4.605-1.188,5.652-4.453,5.789-14.098c0,0,0.281-60.348,0.395-63.691c0.105-3.352,0.562-5.68,0.562-5.68
			c-0.621,0.609-1.234,1.781-3.145,3.789c-1.883,2-17.434,17.133-30.477,30.68c-23.879,24.809-46.281,46.625-48.5,49.152
			c-1.488,1.477-4.004,4.844-5.188,4.746c-2.082-0.18-1.645-1.633-1.645-7.422l-0.137-85.031c0-13.5-0.75-17.797-4.469-18.84
			c-2.211-0.746-6.312-0.887-7.5-0.887c-0.738,0-1.188-0.297-1.188-0.898C517.143,1059.889,518.045,1059.733,519.518,1059.733
			 M376.682,1169.834c1.336,0,3.863-0.152,5.035-0.441c4.906-1.047,6.094-3.414,6.391-8.457c0.293-4.75,0.293-8.906,0.293-32.062
			v-26.109c0-14.246,0-25.973-0.738-32.199c-0.602-4.297-1.336-7.57-4.305-8.156c-1.344-0.305-5-0.594-6.34-0.594
			c-0.895,0-1.188-0.449-1.188-0.898c0-0.887,0.73-1.184,2.375-1.184c4.449,0,15.688,0.445,16.426,0.445
			c9.039,0,27.352-0.887,45.02-0.887c5.801,0,6.973,0,8.02,3.844c0.75,3.133,1.938,13.215,1.938,14.402c0,1.043,0,2.234-0.902,2.234
			c-0.742,0-0.742-0.691-1.332-2.234c-2-5.191-2.824-6.797-6.688-8.422c-3.855-1.645-10.375-1.691-14.234-1.645
			c-17.031,0.246-19.484,1.945-19.934,12.172c-0.145,3.121,0,18.078,0,23.121v13.062c0,0.59,0.289,1.035,1.039,1.035
			c2.523,0,19.93-0.301,23.941-0.734c5.781-0.602,8.059-3.129,8.645-5.211c0.602-1.938,0.602-3.422,0.602-4.895
			c0-0.75,0.301-1.336,1.035-1.336c1.047,0,1.047,1.629,1.047,2.809c0,1.035,0.047,6.391,0.336,9.355
			c0.457,4.914,0.508,8.941,0.508,9.844c0,0.898-0.309,1.188-0.746,1.188c-0.598,0-1.207-0.754-2.238-1.934
			c-1.324-1.484-3.406-1.773-6.973-2.082c-3.402-0.293-24.375-0.293-26.309-0.293c-0.734,0-0.887,0.445-0.887,1.5v38.5
			c0,1.035,0.289,1.477,0.887,1.477c1.641,0,20.531-0.141,23.051-0.441c8.012-0.898,10.125-2.512,11.164-4.871
			c0.742-1.789,0.879-3.227,0.879-4.266c0-1.199,0.312-1.941,1.203-1.941c0.594,0,0.887,0.906,1.035,1.645
			c0.289,1.766,0.371,5.891,0.531,7.375c0.438,4.156,0.777,8.176,0.777,9.215c0,0.742-0.156,1.344-0.594,1.344
			c-0.746,0-1.352-0.602-2.09-0.746c-1.18-0.289-3.566-0.598-6.379-0.746c1.324,0.059-36.582-0.16-42.352-0.16
			c-0.738,0-10.086,0.453-16.77,0.453c-1.625,0-2.375-0.293-2.375-1.184C375.486,1170.135,376.076,1169.834,376.682,1169.834
			 M243.475,1070.565c-0.594-4.297-1.352-6.633-3.914-7.758c-1.25-0.539-5.75-0.992-7.086-0.992c-0.898,0-1.195-0.449-1.195-0.898
			c0-0.887,0.738-1.184,2.375-1.184c4.453,0,16.051,0.445,16.801,0.445c0.738,0,15.625-0.445,23.781-0.445
			c1.637,0,2.395,0.445,2.395,1.184c0,0.449-0.312,0.898-1.199,0.898c-1.34,0-4.602,0.289-6.684,0.594
			c-4.453,0.586-5.328,3.859-5.781,8.156c-0.742,6.227-0.742,17.953-0.742,32.199v14.129c0,0.742,0.445,0.879,0.887,0.879h57.73
			c0.453,0,0.895-0.285,0.895-0.879v-14.129c0-14.246,0-25.973-0.75-32.199c-0.582-4.297-1.332-7.57-4.301-8.156
			c-1.324-0.305-4.5-0.594-5.844-0.594c-0.879,0-1.172-0.449-1.172-0.898c0-0.887,0.734-1.184,2.375-1.184
			c4.449,0,20.688,0.445,21.43,0.445c0.738,0,10.086-0.445,18.242-0.445c1.645,0,2.391,0.445,2.391,1.184
			c0,0.449-0.309,0.898-1.188,0.898c-1.34,0-4.609,0.289-6.688,0.594c-4.438,0.586-5.332,3.859-5.781,8.156
			c-0.746,6.227-0.746,17.953-0.746,32.199v26.109c0,23.156,0,27.312,0.293,32.062c0.301,5.199,1.488,7.707,5.488,8.457
			c1.789,0.289,2.684,0.441,3.719,0.441c0.59,0,1.168,0.301,1.168,0.891c0,0.891-0.73,1.184-2.359,1.184
			c-4.453,0-13.801-0.453-14.539-0.453c-0.742,0-15.602,0.453-22.273,0.453c-1.641,0-2.375-0.293-2.375-1.184
			c0-0.59,0.598-0.891,1.188-0.891c1.328,0,3.848-0.152,5.043-0.441c4.895-1.047,6.082-3.414,6.367-8.457
			c0.312-4.75,0.312-8.906,0.312-32.062v-3.109c0-0.738-0.441-0.883-0.895-0.883h-57.73c-0.441,0-0.887,0.145-0.887,0.883v3.109
			c0,23.156,0,27.312,0.293,32.062c0.289,5.199,1.488,7.707,5.496,8.457c1.781,0.289,2.66,0.441,3.711,0.441
			c0.586,0,1.18,0.301,1.18,0.891c0,0.891-0.742,1.184-2.367,1.184c-4.457,0-19.344-0.453-20.082-0.453
			c-0.75,0-10.094,0.453-16.762,0.453c-1.645,0-2.387-0.293-2.387-1.184c0-0.59,0.598-0.891,1.199-0.891
			c1.324,0,3.852-0.152,5.031-0.441c4.898-1.047,6.094-3.414,6.383-8.457c0.297-4.75,0.297-8.906,0.297-32.062v-26.109
			C244.217,1088.518,244.217,1076.791,243.475,1070.565 M846.967,1172.948c-1.188,0-5.199-1.492-14.688-1.492h-54.012
			c-1.77,0-7.406,0.309-11.719,0.762c-4,0.289-5.488,1.777-6.523,1.777c-0.602,0-1.371-0.977-1.699-3.059
			c-0.34-2.137-3.051-15.094-3.051-16.586c0-0.895,0.293-1.332,0.73-1.332c0.594,0,1.051,0.289,1.488,1.488
			c0.441,1.035,1.145,2.188,2.941,4.59c2.777,3.695,5.52,4.609,14.719,4.754l17.453,0.293v-61.379c0-14.246,0-25.973-0.746-32.199
			c-0.598-4.297-0.773-6.305-3.781-7.531c-1.754-0.719-6.316-1.219-7.648-1.219c-0.887,0-1.188-0.449-1.188-0.898
			c0-0.887,0.75-1.184,2.375-1.184c4.449,0,19.656,0.445,20.398,0.445c0.738,0,12.008-0.445,20.168-0.445
			c1.625,0,2.371,0.445,2.371,1.184c0,0.449-0.289,0.898-1.188,0.898c-1.332,0-4.59,0.289-6.664,0.594
			c-4.461,0.586-5.344,3.859-5.801,8.156c-0.75,6.227-0.75,17.953-0.75,32.199v61.379l16.484-0.293
			c14.25-0.309,16.836-3.297,17.941-7.523l0.469-2.277c0.133-2.07,0.438-2.523,1.164-2.523c0.598,0,1.051,0.59,1.051,1.93
			c0,1.641,0.441,13.266,0.441,17.719C847.705,1172.073,847.705,1172.948,846.967,1172.948"/>
		<path id="path20" inkscape:connector-curvature="0" fill="#231F20" d="M812.318,1020.428c-10.336,0-24.695-1.004-27.039-1.004
			c-3,0-22.305,1.004-39.324,1.004c-4.012,0-5.676-0.664-5.676-2.34c0-1.336,1.332-2.336,3-2.336
			c15.363,0,18.109-4.078,19.02-10.008c0.594-3.777,0.426-9.246-3.656-21.367c-15.457-45.715-37.324-111.215-48.961-144.605h-1.34
			l-68.594,173.172c-4.023,11.352-6.012,15.691-8.355,15.691c-2,0-3.332-1.664-8.332-15.352l-65.555-174.668h-0.961
			c-5.02,17.703-40.152,116.441-47.625,138.613c-4.797,14.266-7.125,22.062-7.246,28.516c-0.082,4.336,2.332,7.008,4.34,8.008
			c4,2,11.824,2,14.492,2c1.676,0,3.352,0.336,3.352,2.336c0,1.336-1.359,2.34-6.02,2.34c-16.695,0-40.84-1.004-43.852-1.004
			c-3.668,0-23.312,1.004-40.676,1.004c-3.328,0-5.336-0.664-5.336-2.34c0-2,1.344-2.336,3.008-2.336c2.328,0,10.672-0.32,15.023-2
			c8.676-3.328,12.762-9.555,18.992-28.5L532.994,794.6c8.023-22.875,9.691-31.133,14.594-31.133c4.012,0,5.355,3.617,10.68,17.625
			c12.027,31.039,53.031,142.324,65.043,174.359h0.672l66.941-174.68c4.902-12.625,6.688-17.617,10.02-17.367
			c2.457,0.18,3.242,3.398,6.238,11.43c3.629,9.672,7.398,20.359,14.23,39.984c22.898,65.688,42.727,118.047,59.531,163.207
			c6.77,18.211,11.68,32.398,21.699,36.062c3.668,1.344,10.012,1.664,11.34,1.664c2.016,0,3.012,1,3.012,2.664
			C816.994,1019.764,815.326,1020.428,812.318,1020.428 M386.186,872.912h-60.043c-1,0-1.875,1.078-1.191,2.75l29.754,77.703
			c1.684,5.012,3.344,5.012,5,0l27.824-78.125C387.861,873.912,387.861,872.912,386.186,872.912 M493.682,772.748
			c-3.352,0-8.355,0.344-13.355,1.992c-7.008,2.016-16.688,7.352-28.715,37.062c-20.363,50.75-74.375,188.59-79.379,201.277
			c-4.016,10.352-5.34,12.016-7.344,12.016c-2,0-3.34-1.988-7.359-13.016c0,0-80.316-199.059-80.812-200.355
			c-2.316-6.031-5.328-13.953-12.094-20.094c-9.812-8.922-21.578-8.234-39.285-8.234c-26.027,0-31.594,2.578-36.059,8.672
			c-6.918,9.469-6.219,23.062-6.219,72.141v59.414c0,52.074,0,61.426,0.676,72.105c0.664,11.68,3.344,17.352,13.02,19.039
			c4.008,0.664,8.688,0.984,11.012,0.984c1.34,0,2.684,0.676,2.684,2c0,2.012-1.684,2.676-5.352,2.676
			c-10.012,0-39.508-1.004-41.168-1.004c-1.664,0-27.176,1.004-42.195,1.004c-3.668,0-5.344-0.664-5.344-2.676
			c0-1.324,1.34-2,2.664-2c3.012,0,8.676-0.32,11.355-0.984c11.012-2.352,13.668-7.688,14.352-19.039
			c0.668-10.68,0.668-20.031,0.668-72.105v-58.742c0-32.047,0-58.422-1.668-72.438c-1.34-9.688-3-17.031-9.684-18.359
			c-3-0.672-7.004-1.336-10.02-1.336c-1.992,0-2.668-1.008-2.668-2.008c0-2,1.676-2.656,5.344-2.656
			c10.02,0,34.195,0.984,37.195,0.984c18.938,0,19.363-0.844,61.094-0.922c9.73,0,43.16,0.703,54.004,0.703
			c3.684,0,25.734-0.703,33.738-0.703c3.012,0,5.008,0.664,5.008,2.672c0,1.344-1.012,2-3.332,2l-4.805,0.656
			c-6.027,0.938-13.156,4.531-13.809,11.172c-0.438,4.453,1.219,10.688,4.996,21.516l16.637,46.578
			c0.66,1.672,1.668,2.672,3.332,2.672l71.324,0.109c1.676,0,2.332-0.656,3.012-2l22.523-59.875
			c2.176-6.922,0.402-14.953-8.254-17.703c-6.688-2.109-13.496-2.883-15.957-3.125c-1.332-0.328-2.336-1-2.336-2.344
			c0-1.984,1.578-1.984,7.922-2.328c8.551-0.242,40.996,0.578,51.801,0.578c18.309,0.016,36.371-0.641,39.5-0.641
			c3.695,0,6.684,0.656,6.684,2.656C497.014,772.412,495.674,772.748,493.682,772.748"/>
	</g>
</g>
</svg>
