<?xml version="1.0" encoding="utf-8"?>
<!-- Generator: Adobe Illustrator 16.0.0, SVG Export Plug-In . SVG Version: 6.00 Build 0)  -->
<!DOCTYPE svg PUBLIC "-//W3C//DTD SVG 1.1//EN" "http://www.w3.org/Graphics/SVG/1.1/DTD/svg11.dtd">
<svg version="1.1"
	 id="svg2" xmlns:dc="http://purl.org/dc/elements/1.1/" xmlns:cc="http://creativecommons.org/ns#" xmlns:rdf="http://www.w3.org/1999/02/22-rdf-syntax-ns#" xmlns:svg="http://www.w3.org/2000/svg" xmlns:inkscape="http://www.inkscape.org/namespaces/inkscape"
	 xmlns="http://www.w3.org/2000/svg" xmlns:xlink="http://www.w3.org/1999/xlink" x="0px" y="0px" width="990px" height="1170px"
	 viewBox="0 0 990 1170" enable-background="new 0 0 990 1170" xml:space="preserve">
<g id="g10" transform="matrix(1.25,0,0,-1.25,0,1170)">
	<g id="g12">
		<g>
			<defs>
				<rect id="SVGID_1_" x="-50.198" y="618.445" width="316.8" height="374.4"/>
			</defs>
			<clipPath id="SVGID_2_">
				<use xlink:href="#SVGID_1_"  overflow="visible"/>
			</clipPath>
			<g id="g14" clip-path="url(#SVGID_2_)">
				<path id="path20" inkscape:connector-curvature="0" fill="#231F20" d="M145.274,908.681c0.227-0.729,1.286-3.877,2.278-6.971
					h-4.45C143.962,904.485,144.846,907.311,145.274,908.681 M151.543,896.158c-0.421,1.283-4.378,13.652-4.82,15.013h-3.584v-0.434
					c0.411-0.045,0.807-0.169,1.024-0.386c0.183-0.184,0.364-0.491,0.364-0.809c0-0.044-4.221-12.911-4.382-13.388
					c-0.218-0.639-0.361-0.86-0.59-1.088c-0.215-0.217-0.58-0.362-1.036-0.415v-0.434h4.152v0.434
					c-0.455,0.054-0.936,0.169-1.154,0.407c-0.243,0.266-0.273,0.608-0.123,1.126c0.244,0.846,0.699,2.255,1.434,4.627h5.01
					c0.754-2.348,1.214-3.826,1.461-4.631c0.157-0.514,0.066-0.905-0.169-1.134c-0.24-0.232-0.624-0.343-1.109-0.398v-0.435
					l5.146,0.004v0.434c-0.456,0.054-0.776,0.175-1.027,0.403C151.919,895.258,151.754,895.515,151.543,896.158"/>
				<path id="path22" inkscape:connector-curvature="0" fill="#231F20" d="M138.783,899.07c-0.357-1.162-1.627-2.7-2.417-3.247
					c-0.765-0.531-1.454-0.531-2.664-0.531h-2.536c-0.328,0-0.545,0.146-0.734,0.309c-0.234,0.203-0.417,0.517-0.417,1.127v18.207
					c0,0.61,0.175,1.031,0.499,1.332c0.331,0.308,0.869,0.496,1.585,0.57v0.597h-6.569v-0.597c0.716-0.074,1.254-0.262,1.585-0.57
					c0.325-0.301,0.5-0.722,0.5-1.332v-18.207c0-0.609-0.175-1.031-0.5-1.332c-0.33-0.306-0.869-0.494-1.585-0.568v-0.609h9.359
					l3.151-0.031l1.576,4.884H138.783L138.783,899.07z"/>
				<path id="path24" inkscape:connector-curvature="0" fill="#231F20" d="M59.388,895.854c-0.505-0.346-1.301-0.782-2.304-0.782
					h-2.017c-0.578,0-0.98,0.364-0.98,1.047v6.945h2.72c0.512,0,0.91-0.143,1.203-0.492c0.251-0.296,0.375-0.752,0.536-1.376
					l0.648,0.068c-0.343,1.719-0.28,2.819-0.293,4.043l-0.161,0.06c-0.117-0.297-0.341-0.767-0.603-0.977
					c-0.383-0.31-0.68-0.426-1.398-0.426h-2.652v6.35h2.69c0.882,0,1.386,0,1.943-0.388c0.576-0.399,0.724-1.053,0.941-1.943h0.607
					c0.012,1.297,0.216,2.597,0.455,3.21l-1.293-0.026h-8.988v-0.436c0.521-0.055,0.914-0.185,1.154-0.41
					c0.236-0.219,0.365-0.528,0.365-0.971v-13.306c0-0.444-0.129-0.752-0.365-0.971c-0.241-0.224-0.633-0.361-1.154-0.414v-0.44
					h8.678c0.468,0,0.773-0.117,0.888-0.236c0.118,0.202,1.378,3.231,1.378,3.231l-0.451,0.296
					C60.497,896.875,59.944,896.234,59.388,895.854"/>
				<path id="path26" inkscape:connector-curvature="0" fill="#231F20" d="M18.925,904.584c1.178,3.796,2.35,7.564,2.935,9.441
					c0.311-0.997,1.726-5.207,3.084-9.441H18.925z M47.869,896.046c-0.003,0.044-0.647,13.23-0.649,13.275
					c-0.022,0.445,0.101,0.771,0.327,0.991c0.231,0.224,0.591,0.359,1.111,0.414l-0.004,0.44h-4.254l-3.709-14.476l-3.703,14.476
					h-4.554v-0.436c0.522-0.054,0.982-0.213,1.262-0.459c0.302-0.266,0.47-0.779,0.443-1.346
					c-0.006-0.134-0.775-12.748-0.783-12.884c-0.027-0.444-0.138-0.787-0.368-1.007c-0.22-0.211-0.561-0.343-1.02-0.343
					c-0.446,0-0.82,0.118-1.185,0.483c-0.293,0.291-0.533,0.753-0.822,1.634c-0.577,1.756-5.992,18.761-6.598,20.625h-4.106v-0.436
					c0.563-0.061,1.054-0.315,1.351-0.613c0.25-0.251,0.55-0.746,0.55-1.18c0-0.06-5.779-17.675-6-18.327
					c-0.296-0.875-0.494-1.34-0.806-1.652c-0.296-0.297-0.795-0.502-1.418-0.574v-0.432h5.366v0.427
					c-0.622,0.073-1.28,0.237-1.579,0.563c-0.333,0.364-0.375,0.832-0.17,1.541c0.335,1.158,1.027,3.491,2.032,6.736l6.714,0.003
					c1.031-3.214,1.739-5.638,2.076-6.739c0.216-0.704,0.091-1.235-0.231-1.547c-0.329-0.317-0.854-0.477-1.517-0.553v-0.432h6.127
					h4.205l-0.003,0.436c-0.52,0.054-0.904,0.19-1.132,0.415c-0.223,0.22-0.332,0.529-0.305,0.973
					c0.007,0.12,0.629,10.572,0.777,12.947l3.983-14.771h1.894l3.908,14.791c0.086-1.742,0.661-12.927,0.663-12.967
					c0.022-0.444-0.091-0.753-0.318-0.973c-0.231-0.225-0.618-0.362-1.138-0.416l-0.001-0.437l5.174,0.002l0.002,0.436
					c-0.526,0.054-0.926,0.194-1.178,0.418C48.033,895.292,47.889,895.601,47.869,896.046"/>
				<path id="path28" inkscape:connector-curvature="0" fill="#231F20" d="M73.994,910.735c0.521-0.054,0.916-0.191,1.157-0.416
					c0.236-0.221,0.365-0.529,0.365-0.973v-13.305c0-0.444-0.129-0.753-0.365-0.973c-0.241-0.225-0.636-0.363-1.157-0.416v-0.435
					h5.17v0.436c-0.521,0.054-0.914,0.195-1.156,0.418c-0.236,0.22-0.363,0.528-0.363,0.973v13.298c0,0.444,0.127,0.753,0.363,0.973
					c0.242,0.224,0.636,0.361,1.156,0.414v0.437l-5.17,0.003V910.735L73.994,910.735z"/>
				<path id="path30" inkscape:connector-curvature="0" fill="#231F20" d="M95.306,901.711c0.86,2.774,1.742,5.6,2.17,6.971
					c0.229-0.729,1.289-3.877,2.282-6.971H95.306z M114.522,910.731c0.523-0.054,0.917-0.191,1.158-0.415
					c0.236-0.219,0.365-0.529,0.365-0.974v-9.054c0-0.556-0.002-0.862,0.022-1.668c-0.391,0.773-0.78,1.47-0.78,1.47l-6.112,11.076
					h-3.888v-0.436c0.521-0.054,0.916-0.191,1.158-0.415c0.237-0.219,0.365-0.529,0.365-0.974v-13.301
					c0-0.444-0.136-0.795-0.373-1.015c-0.234-0.218-0.537-0.372-1.011-0.372c-0.469,0-0.835,0.153-1.082,0.405
					c-0.211,0.216-0.388,0.457-0.6,1.099c-0.421,1.283-4.377,13.652-4.82,15.013h-3.584v-0.434c0.412-0.045,0.808-0.169,1.025-0.386
					c0.184-0.184,0.364-0.491,0.364-0.809c0-0.044-4.222-12.911-4.384-13.388c-0.216-0.639-0.361-0.86-0.589-1.088
					c-0.217-0.217-0.581-0.362-1.036-0.415v-0.434h4.152v0.434c-0.455,0.054-0.936,0.169-1.154,0.407
					c-0.243,0.266-0.274,0.608-0.124,1.126c0.245,0.846,0.7,2.255,1.435,4.627h5.011c0.754-2.348,1.214-3.826,1.461-4.631
					c0.158-0.514,0.066-0.902-0.17-1.13c-0.24-0.232-0.623-0.344-1.107-0.4v-0.434h9.268v0.436c-0.524,0.054-0.916,0.19-1.158,0.415
					c-0.237,0.22-0.365,0.529-0.365,0.973v11.575c0,0.514-0.003,0.902-0.036,1.382c0.22-0.456,0.63-1.22,0.63-1.22l7.505-13.562
					h1.136v15.125c0,0.445,0.128,0.754,0.364,0.974c0.242,0.224,0.635,0.361,1.158,0.415v0.436h-4.205V910.731L114.522,910.731z"/>
				<path id="path32" inkscape:connector-curvature="0" fill="#231F20" d="M72.54,895.514c0,0,0,0,0,0.001
					c-1.457,2.392-2.752,4.651-4.535,7.549c3.238,1.047,4.383,2.573,4.383,4.389c0,2.509-1.638,3.715-5.369,3.715h-5.384v-0.438
					c0.522-0.053,0.916-0.19,1.158-0.414c0.236-0.22,0.364-0.528,0.364-0.973v-13.301c0-0.445-0.128-0.753-0.364-0.973
					c-0.242-0.224-0.636-0.361-1.158-0.416v-0.436h5.354v0.436c-0.522,0.054-1.095,0.191-1.338,0.416
					c-0.237,0.22-0.366,0.529-0.366,0.973v13.126c0.003,0.779,0.436,1.141,1.714,1.141c2.111,0,3.141-0.877,3.141-2.921
					c0-2.276-1.463-3.426-4.321-4.282v-0.432c0,0,2.033-3.359,4.438-7.471c0.189-0.323,0.368-0.846,0.368-0.986h3.2v0.44
					C73.274,894.78,72.889,894.942,72.54,895.514"/>
				<path id="path34" inkscape:connector-curvature="0" fill="#231F20" d="M202.937,895.514c0,0-0.001,0-0.001,0.001
					c-1.755,2.618-4.857,7.549-4.857,7.549c3.238,1.047,4.383,2.573,4.383,4.389c0,2.509-1.638,3.715-5.369,3.715h-5.384v-0.438
					c0.523-0.053,0.916-0.19,1.157-0.414c0.236-0.22,0.365-0.528,0.365-0.973v-13.301c0-0.445-0.129-0.753-0.365-0.973
					c-0.241-0.224-0.635-0.361-1.157-0.416v-0.436h5.354v0.436c-0.522,0.054-1.095,0.191-1.338,0.416
					c-0.237,0.22-0.366,0.529-0.366,0.973v13.126c0.002,0.779,0.436,1.141,1.714,1.141c2.11,0,3.141-0.877,3.141-2.921
					c0-2.276-1.463-3.426-4.321-4.282v-0.432c0,0,2.287-3.359,4.692-7.471c0.189-0.323,0.368-0.846,0.368-0.986h3.268v0.44
					C203.67,894.78,203.285,894.942,202.937,895.514"/>
				<path id="path36" inkscape:connector-curvature="0" fill="#231F20" d="M94.21,923.711c0.344,0.388,0.755,0.592,1.19,0.592h0.661
					c0.1,0,0.202-0.039,0.263-0.099c0.059-0.059,0.138-0.171,0.138-0.457v-8.74c0-0.255-0.07-0.443-0.213-0.576
					c-0.142-0.132-0.448-0.223-0.776-0.257v-0.368h3.512v0.368c-0.328,0.034-0.634,0.125-0.776,0.257
					c-0.145,0.135-0.213,0.318-0.213,0.576v8.694c0,0.281,0.022,0.395,0.148,0.523c0.054,0.053,0.138,0.08,0.254,0.08h0.57
					c0.426,0,0.834,0,1.177-0.238c0.27-0.187,0.397-0.816,0.443-1.03c0.045-0.214,0.095-0.434,0.095-0.434l0.38,0.002
					c0.007,0.843,0.289,1.978,0.438,2.357l-7.289-0.001c-0.454,0-0.634,0.161-0.634,0.161s-0.516-2.47-0.564-2.718l0.361-0.033
					C93.622,922.958,93.971,923.441,94.21,923.711"/>
				<path id="path38" inkscape:connector-curvature="0" fill="#231F20" d="M119.203,914.896c-0.36-0.246-0.8-0.438-1.206-0.438
					h-1.711c-0.344,0-0.434,0.395-0.434,0.604v4.459h1.64c0.327,0,0.555-0.093,0.723-0.292c0.147-0.174,0.266-0.475,0.375-0.895
					l0.385,0.07c-0.179,0.815-0.199,1.445-0.2,2.042l-0.008,0.657l-0.222,0.095c-0.055-0.16-0.22-0.517-0.397-0.659
					c-0.227-0.183-0.396-0.26-0.86-0.26h-1.436v4.025h1.67c0.565,0,0.976,0,1.318-0.238c0.341-0.236,0.488-0.744,0.62-1.289h0.378
					c0.009,0.891,0.176,1.868,0.315,2.223c0,0-0.2-0.042-0.909-0.042h-5.909v-0.369c0.328-0.035,0.632-0.126,0.773-0.257
					c0.144-0.133,0.214-0.321,0.214-0.575v-8.754c0-0.253-0.07-0.442-0.213-0.575c-0.141-0.131-0.447-0.222-0.773-0.256v-0.368
					h5.709c0.459,0,0.616-0.173,0.616-0.173c0.068,0.173,0.861,2.007,0.945,2.209l-0.311,0.194
					C120.011,915.628,119.551,915.135,119.203,914.896"/>
				<path id="path40" inkscape:connector-curvature="0" fill="#231F20" d="M105.796,914.173c-0.327,0.034-0.633,0.125-0.775,0.257
					c-0.145,0.134-0.212,0.317-0.212,0.576v4.516h4.434v-4.518c0-0.254-0.07-0.443-0.213-0.577c-0.143-0.132-0.45-0.222-0.776-0.255
					v-0.366h3.509v0.368c-0.328,0.034-0.634,0.125-0.776,0.257c-0.145,0.134-0.212,0.317-0.212,0.576v8.752
					c0,0.259,0.067,0.442,0.212,0.577c0.142,0.132,0.448,0.222,0.776,0.256v0.368h-3.509v-0.367
					c0.328-0.034,0.634-0.126,0.776-0.257c0.145-0.136,0.213-0.319,0.213-0.576v-3.452h-4.434v3.452
					c0,0.258,0.068,0.441,0.213,0.576c0.141,0.132,0.448,0.222,0.774,0.255v0.369h-3.509v-0.368
					c0.327-0.034,0.634-0.125,0.776-0.257c0.144-0.135,0.212-0.318,0.212-0.576v-8.753c0-0.258-0.068-0.441-0.212-0.577
					c-0.143-0.132-0.45-0.222-0.776-0.255v-0.366h3.509V914.173L105.796,914.173z"/>
				<path id="path42" inkscape:connector-curvature="0" fill="#231F20" d="M160.811,905.656c-0.127,0.443-0.249,0.832-0.364,1.159
					c-0.427,1.226-0.748,2.141-0.83,2.371c-0.209,0.587-0.047,1.021,0.17,1.241c0.181,0.183,0.466,0.336,0.961,0.336
					c0.495,0,0.772-0.133,0.967-0.331c0.218-0.218,0.357-0.647,0.174-1.242c-0.091-0.296-0.375-1.198-0.75-2.383
					C161.035,906.481,160.926,906.112,160.811,905.656 M191.011,897.509c-0.44-0.634-0.953-1.233-1.503-1.623
					c-0.549-0.389-1.373-0.813-2.197-0.813h-2.229c-0.458,0-0.92,0.331-0.92,1.047v6.945h2.72c0.512,0,0.91-0.143,1.203-0.492
					c0.25-0.296,0.375-0.752,0.536-1.376l0.647,0.068c-0.343,1.719-0.28,2.819-0.293,4.042l-0.161,0.06
					c-0.117-0.297-0.341-0.767-0.603-0.977c-0.383-0.31-0.681-0.426-1.398-0.426h-2.652v6.35h2.69c0.882,0,1.386,0,1.943-0.388
					c0.577-0.398,0.724-1.053,0.941-1.942h0.607c0.012,1.297,0.216,2.597,0.455,3.21l-1.293-0.026l-13.354-0.004v-0.436
					c0.632-0.061,1.036-0.205,1.249-0.448c0.247-0.284,0.312-0.783,0.105-1.206c-0.321-0.653-1.216-2.504-2.291-4.899
					c-0.156-0.348-0.316-0.777-0.479-1.146c-0.159,0.312-0.339,0.733-0.531,1.11c-0.866,1.699-1.977,3.879-2.521,4.96
					c-0.283,0.56-0.087,0.995,0.141,1.215c0.233,0.224,0.547,0.36,1.051,0.414v0.436l-6.731,0.006v-0.439
					c0.478-0.054,0.921-0.201,1.142-0.425c0.217-0.218,0.382-0.519,0.199-1.114c-0.337-1.096-3.33-10.513-3.757-11.817
					c-0.126,0.383-1.262,3.651-2.311,6.661c0.803,2.543,1.47,4.662,1.638,5.186c0.144,0.447,0.43,0.869,0.647,1.088
					c0.221,0.223,0.582,0.36,1.059,0.414v0.446h-9.087v-0.433c0.476-0.054,0.837-0.207,1.057-0.431
					c0.216-0.218,0.491-0.645,0.649-1.087c0.245-0.686,1.276-3.661,2.363-6.805c-0.737-2.317-1.423-4.465-1.611-5.039
					c-0.229,0.697-3.809,10.959-4.112,11.813c-0.208,0.587-0.02,0.896,0.198,1.115c0.22,0.223,0.665,0.381,1.144,0.434v0.433h-5.284
					v-0.433c0.477-0.054,0.837-0.207,1.058-0.431c0.216-0.218,0.491-0.645,0.648-1.087c0.532-1.489,4.773-13.777,5.237-15.138h1.205
					c0.424,1.26,1.117,3.418,1.85,5.722c0.091,0.285,0.165,0.673,0.256,1.067c0.104-0.418,0.224-0.807,0.326-1.102
					c0.945-2.734,1.77-5.129,1.96-5.687h1.205c1.173,3.492,4.424,13.886,4.83,15.141c0.051,0.159,0.114,0.369,0.17,0.604
					c0.124-0.27,0.27-0.539,0.303-0.599c0.848-1.552,3.266-6.031,4.018-7.456v-5.727c0-0.445-0.128-0.753-0.364-0.973
					c-0.242-0.224-0.636-0.361-1.158-0.416v-0.436l5.175-0.003v0.437c-0.523,0.053-0.916,0.191-1.158,0.415
					c-0.237,0.22-0.366,0.529-0.366,0.973v5.731c1.361,3.089,3.273,6.783,3.596,7.456c0.212,0.441,0.467,0.9,0.705,1.11
					c0.245,0.216,0.611,0.418,1.026,0.418c0.415,0,0.797-0.131,1.026-0.345c0.236-0.219,0.411-0.616,0.411-1.059v-13.306
					c0-0.444-0.129-0.752-0.365-0.971c-0.241-0.224-0.633-0.361-1.154-0.415v-0.44h8.678c0.467,0,0.773-0.116,0.888-0.235
					c0.119,0.202,1.378,3.23,1.378,3.23L191.011,897.509L191.011,897.509z"/>
				<path id="path44" inkscape:connector-curvature="0" fill="#231F20" d="M90.494,899.402c0-3.429-1.358-4.662-3.456-4.662
					c-2.342,0-4.071,2.395-4.071,7.958c0,5.565,1.847,7.844,4.105,7.844c1.984,0,2.828-1.166,3.809-4.051h0.433v4.668H90.86
					c-0.099-0.428-0.465-0.602-0.891-0.437c-0.824,0.32-1.466,0.674-2.912,0.674c-3.739,0-6.346-3.338-6.346-9.085
					c0-5.267,2.491-8.327,6.286-8.327c3.007,0,4.522,2.017,4.886,5.419H90.494z"/>
			</g>
		</g>
	</g>
</g>
</svg>
