<?xml version="1.0" encoding="utf-8"?>
<!-- Generator: Adobe Illustrator 16.0.0, SVG Export Plug-In . SVG Version: 6.00 Build 0)  -->
<!DOCTYPE svg PUBLIC "-//W3C//DTD SVG 1.1//EN" "http://www.w3.org/Graphics/SVG/1.1/DTD/svg11.dtd">
<svg version="1.1"
	 id="svg2" xmlns:dc="http://purl.org/dc/elements/1.1/" xmlns:cc="http://creativecommons.org/ns#" xmlns:rdf="http://www.w3.org/1999/02/22-rdf-syntax-ns#" xmlns:svg="http://www.w3.org/2000/svg" xmlns:inkscape="http://www.inkscape.org/namespaces/inkscape"
	 xmlns="http://www.w3.org/2000/svg" xmlns:xlink="http://www.w3.org/1999/xlink" x="0px" y="0px" width="990px" height="1170px"
	 viewBox="0 0 990 1170" enable-background="new 0 0 990 1170" xml:space="preserve">
<g id="g10" transform="matrix(1.25,0,0,-1.25,0,1170)">
	<g id="g12">
		<g>
			<defs>
				<rect id="SVGID_1_" x="-43.947" y="653.136" width="285.12" height="336.96"/>
			</defs>
			<clipPath id="SVGID_2_">
				<use xlink:href="#SVGID_1_"  overflow="visible"/>
			</clipPath>
			<g id="g14" clip-path="url(#SVGID_2_)">
				<path id="path20" inkscape:connector-curvature="0" fill="#231F20" d="M131.977,914.349c0.205-0.655,1.157-3.489,2.05-6.273
					h-4.005C130.797,910.572,131.592,913.115,131.977,914.349 M137.62,903.078c-0.379,1.155-3.94,12.287-4.338,13.512h-3.225v-0.391
					c0.37-0.04,0.727-0.152,0.921-0.347c0.165-0.166,0.327-0.443,0.327-0.728c0-0.039-3.799-11.62-3.944-12.049
					c-0.196-0.575-0.325-0.774-0.531-0.979c-0.194-0.195-0.522-0.326-0.932-0.373v-0.39h3.737v0.39
					c-0.41,0.048-0.843,0.152-1.039,0.366c-0.219,0.239-0.246,0.547-0.111,1.013c0.22,0.762,0.629,2.03,1.291,4.164h4.509
					c0.679-2.113,1.093-3.444,1.315-4.168c0.141-0.463,0.06-0.815-0.152-1.02c-0.216-0.209-0.561-0.308-0.998-0.358v-0.391
					l4.632,0.003v0.39c-0.41,0.048-0.698,0.157-0.924,0.363C137.958,902.268,137.81,902.5,137.62,903.078"/>
				<path id="path22" inkscape:connector-curvature="0" fill="#231F20" d="M126.136,905.699c-0.321-1.046-1.464-2.43-2.175-2.922
					c-0.689-0.478-1.309-0.478-2.398-0.478h-2.282c-0.295,0-0.491,0.131-0.661,0.279c-0.211,0.182-0.375,0.465-0.375,1.014v16.387
					c0,0.549,0.158,0.928,0.449,1.198c0.298,0.277,0.782,0.446,1.427,0.513v0.537h-5.912v-0.537
					c0.644-0.067,1.129-0.236,1.426-0.513c0.292-0.271,0.45-0.65,0.45-1.198v-16.387c0-0.548-0.157-0.928-0.45-1.199
					c-0.297-0.275-0.782-0.445-1.426-0.511v-0.548h8.423l2.836-0.028l1.418,4.395H126.136L126.136,905.699z"/>
				<path id="path24" inkscape:connector-curvature="0" fill="#231F20" d="M54.68,902.804c-0.455-0.311-1.171-0.703-2.073-0.703
					h-1.815c-0.52,0-0.882,0.328-0.882,0.942v6.25h2.448c0.461,0,0.819-0.129,1.083-0.443c0.226-0.266,0.338-0.677,0.483-1.238
					l0.583,0.061c-0.309,1.547-0.252,2.537-0.263,3.638l-0.145,0.054c-0.105-0.267-0.307-0.69-0.543-0.88
					c-0.345-0.279-0.612-0.384-1.258-0.384H49.91v5.715h2.421c0.795,0,1.248,0,1.749-0.348c0.519-0.359,0.652-0.948,0.847-1.748
					h0.547c0.011,1.168,0.194,2.337,0.409,2.889l-1.163-0.023H46.63v-0.393c0.469-0.05,0.822-0.167,1.039-0.369
					c0.213-0.197,0.329-0.475,0.329-0.874v-11.976c0-0.399-0.116-0.676-0.329-0.874c-0.216-0.202-0.57-0.325-1.039-0.373v-0.396
					h7.81c0.421,0,0.696-0.105,0.8-0.212c0.106,0.182,1.24,2.908,1.24,2.908l-0.405,0.266
					C55.678,903.723,55.181,903.146,54.68,902.804"/>
				<path id="path26" inkscape:connector-curvature="0" fill="#231F20" d="M18.263,910.661c1.06,3.416,2.114,6.808,2.641,8.497
					c0.28-0.897,1.554-4.686,2.776-8.497H18.263z M44.313,902.977c-0.003,0.039-0.582,11.907-0.584,11.948
					c-0.02,0.4,0.091,0.695,0.295,0.892c0.208,0.202,0.532,0.323,0.999,0.373l-0.004,0.396H41.19l-3.338-13.028l-3.333,13.028
					h-4.098v-0.393c0.47-0.049,0.884-0.191,1.136-0.414c0.271-0.239,0.423-0.701,0.399-1.211c-0.005-0.12-0.697-11.473-0.705-11.596
					c-0.025-0.4-0.125-0.709-0.331-0.907c-0.198-0.189-0.505-0.309-0.918-0.309c-0.402,0-0.738,0.106-1.066,0.434
					c-0.263,0.262-0.479,0.678-0.739,1.471c-0.52,1.58-5.393,16.885-5.938,18.562h-3.696v-0.393
					c0.507-0.055,0.948-0.284,1.216-0.552c0.225-0.226,0.495-0.671,0.495-1.062c0-0.054-5.201-15.907-5.4-16.495
					c-0.266-0.788-0.445-1.206-0.725-1.486c-0.266-0.267-0.715-0.452-1.277-0.517v-0.389h4.829v0.384
					c-0.56,0.066-1.152,0.213-1.421,0.507c-0.299,0.328-0.337,0.749-0.152,1.387c0.301,1.042,0.924,3.141,1.829,6.062l6.042,0.003
					c0.928-2.892,1.565-5.073,1.868-6.065c0.195-0.634,0.082-1.111-0.208-1.393c-0.296-0.286-0.769-0.429-1.366-0.498v-0.388h5.514
					h3.785l-0.003,0.392c-0.468,0.049-0.814,0.171-1.019,0.373c-0.201,0.198-0.299,0.476-0.274,0.875
					c0.006,0.108,0.566,9.515,0.699,11.652l3.585-13.293h1.704l3.517,13.311c0.077-1.568,0.595-11.634,0.596-11.67
					c0.02-0.4-0.082-0.677-0.286-0.875c-0.208-0.202-0.556-0.325-1.024-0.374l-0.001-0.393l4.657,0.002l0.002,0.393
					c-0.473,0.048-0.833,0.174-1.06,0.376C44.461,902.298,44.331,902.577,44.313,902.977"/>
				<path id="path28" inkscape:connector-curvature="0" fill="#231F20" d="M67.826,916.197c0.469-0.049,0.824-0.172,1.041-0.374
					c0.213-0.199,0.328-0.476,0.328-0.876v-11.974c0-0.4-0.116-0.677-0.328-0.876c-0.217-0.202-0.573-0.327-1.041-0.374v-0.391
					h4.653v0.392c-0.468,0.049-0.823,0.175-1.041,0.377c-0.213,0.198-0.327,0.475-0.327,0.876v11.968c0,0.4,0.114,0.677,0.327,0.876
					c0.218,0.201,0.572,0.324,1.041,0.372v0.393l-4.653,0.003V916.197L67.826,916.197z"/>
				<path id="path30" inkscape:connector-curvature="0" fill="#231F20" d="M87.006,908.075c0.774,2.496,1.568,5.04,1.953,6.273
					c0.205-0.655,1.161-3.489,2.054-6.273H87.006z M104.301,916.193c0.471-0.049,0.825-0.172,1.042-0.373
					c0.213-0.198,0.329-0.476,0.329-0.877v-8.148c0-0.5-0.002-0.777,0.02-1.501c-0.352,0.696-0.702,1.323-0.702,1.323l-5.5,9.969
					h-3.5v-0.393c0.469-0.049,0.824-0.172,1.042-0.373c0.213-0.198,0.329-0.476,0.329-0.877v-11.971c0-0.4-0.122-0.716-0.336-0.914
					c-0.211-0.196-0.483-0.335-0.91-0.335c-0.422,0-0.752,0.138-0.973,0.365c-0.19,0.194-0.349,0.411-0.539,0.989
					c-0.379,1.155-3.939,12.287-4.338,13.512h-3.226v-0.391c0.371-0.04,0.727-0.152,0.923-0.347
					c0.166-0.166,0.328-0.443,0.328-0.728c0-0.039-3.8-11.62-3.945-12.049c-0.195-0.575-0.325-0.774-0.53-0.979
					c-0.195-0.195-0.523-0.326-0.932-0.373v-0.39h3.737v0.39c-0.41,0.048-0.843,0.152-1.039,0.366
					c-0.219,0.239-0.246,0.547-0.112,1.013c0.22,0.762,0.63,2.03,1.291,4.164h4.509c0.678-2.113,1.093-3.444,1.315-4.168
					c0.142-0.463,0.059-0.812-0.153-1.017c-0.216-0.209-0.561-0.309-0.996-0.359v-0.39h8.341v0.392
					c-0.471,0.049-0.825,0.171-1.042,0.373c-0.214,0.198-0.329,0.476-0.329,0.875v10.418c0,0.462-0.003,0.812-0.032,1.244
					c0.198-0.411,0.568-1.098,0.568-1.098l6.755-12.206h1.022v13.612c0,0.401,0.115,0.679,0.328,0.877
					c0.218,0.201,0.571,0.324,1.042,0.373v0.393h-3.785V916.193L104.301,916.193z"/>
				<path id="path32" inkscape:connector-curvature="0" fill="#231F20" d="M66.517,902.498c0,0,0,0,0,0.001
					c-1.311,2.153-2.476,4.186-4.082,6.794c2.914,0.943,3.945,2.316,3.945,3.951c0,2.258-1.474,3.343-4.832,3.343h-4.846v-0.394
					c0.47-0.048,0.824-0.171,1.042-0.373c0.213-0.198,0.328-0.475,0.328-0.876v-11.971c0-0.4-0.115-0.678-0.328-0.876
					c-0.218-0.202-0.572-0.325-1.042-0.374v-0.392h4.818v0.392c-0.47,0.049-0.985,0.172-1.204,0.374
					c-0.213,0.198-0.329,0.475-0.329,0.876v11.813c0.003,0.701,0.393,1.027,1.543,1.027c1.899,0,2.827-0.789,2.827-2.628
					c0-2.048-1.317-3.084-3.889-3.854v-0.388c0,0,1.83-3.023,3.994-6.724c0.171-0.291,0.331-0.761,0.331-0.887h2.88v0.396
					C67.178,901.838,66.831,901.983,66.517,902.498"/>
				<path id="path34" inkscape:connector-curvature="0" fill="#231F20" d="M183.874,902.498c0,0-0.001,0-0.001,0.001
					c-1.58,2.356-4.371,6.794-4.371,6.794c2.914,0.943,3.945,2.316,3.945,3.951c0,2.258-1.474,3.343-4.832,3.343h-4.846v-0.394
					c0.47-0.048,0.825-0.171,1.042-0.373c0.212-0.198,0.329-0.475,0.329-0.876v-11.971c0-0.4-0.116-0.678-0.329-0.876
					c-0.217-0.202-0.571-0.325-1.042-0.374v-0.392h4.818v0.392c-0.47,0.049-0.985,0.172-1.204,0.374
					c-0.214,0.198-0.329,0.475-0.329,0.876v11.813c0.002,0.701,0.392,1.027,1.543,1.027c1.899,0,2.827-0.789,2.827-2.628
					c0-2.048-1.317-3.084-3.888-3.854v-0.388c0,0,2.059-3.023,4.222-6.724c0.171-0.291,0.331-0.761,0.331-0.887h2.941v0.396
					C184.534,901.838,184.188,901.983,183.874,902.498"/>
				<path id="path36" inkscape:connector-curvature="0" fill="#231F20" d="M86.02,927.875c0.31,0.348,0.679,0.532,1.071,0.532h0.595
					c0.09,0,0.182-0.035,0.237-0.089c0.053-0.053,0.124-0.154,0.124-0.411v-7.866c0-0.229-0.062-0.399-0.191-0.518
					c-0.128-0.118-0.404-0.2-0.699-0.231v-0.331h3.161v0.331c-0.295,0.031-0.571,0.113-0.698,0.231
					c-0.131,0.121-0.192,0.286-0.192,0.518v7.824c0,0.253,0.02,0.355,0.134,0.471c0.048,0.048,0.124,0.072,0.229,0.072h0.512
					c0.383,0,0.75,0,1.059-0.214c0.243-0.168,0.357-0.734,0.398-0.927c0.041-0.193,0.086-0.39,0.086-0.39l0.342,0.001
					c0.007,0.759,0.26,1.78,0.395,2.122l-6.561-0.001c-0.409,0-0.57,0.145-0.57,0.145s-0.464-2.223-0.508-2.446l0.325-0.03
					C85.49,927.198,85.805,927.633,86.02,927.875"/>
				<path id="path38" inkscape:connector-curvature="0" fill="#231F20" d="M108.514,919.943c-0.324-0.221-0.72-0.394-1.086-0.394
					h-1.54c-0.309,0-0.39,0.355-0.39,0.543v4.013h1.476c0.294,0,0.5-0.084,0.651-0.263c0.132-0.157,0.239-0.427,0.337-0.806
					l0.346,0.063c-0.161,0.734-0.179,1.301-0.18,1.838l-0.007,0.592l-0.2,0.086c-0.049-0.144-0.198-0.465-0.357-0.593
					c-0.204-0.164-0.357-0.234-0.774-0.234h-1.292v3.622h1.503c0.509,0,0.879,0,1.186-0.214c0.307-0.212,0.439-0.67,0.559-1.16h0.34
					c0.008,0.802,0.159,1.681,0.283,2c0,0-0.18-0.037-0.818-0.037h-5.318v-0.332c0.295-0.031,0.569-0.113,0.695-0.231
					c0.129-0.12,0.192-0.289,0.192-0.517v-7.879c0-0.228-0.063-0.398-0.192-0.518c-0.127-0.118-0.402-0.2-0.696-0.23v-0.331h5.138
					c0.414,0,0.554-0.156,0.554-0.156c0.061,0.156,0.775,1.806,0.85,1.988l-0.28,0.175
					C109.241,920.601,108.827,920.157,108.514,919.943"/>
				<path id="path40" inkscape:connector-curvature="0" fill="#231F20" d="M96.447,919.291c-0.294,0.03-0.57,0.112-0.698,0.231
					c-0.13,0.12-0.191,0.285-0.191,0.518v4.064h3.99v-4.066c0-0.229-0.063-0.399-0.192-0.52c-0.128-0.118-0.405-0.2-0.698-0.23
					v-0.33h3.158v0.331c-0.295,0.03-0.57,0.113-0.698,0.231c-0.13,0.12-0.191,0.285-0.191,0.518v7.877
					c0,0.233,0.061,0.397,0.191,0.519c0.128,0.118,0.403,0.2,0.698,0.23v0.331h-3.158v-0.33c0.295-0.031,0.571-0.113,0.698-0.231
					c0.13-0.122,0.192-0.287,0.192-0.518v-3.107h-3.99v3.107c0,0.232,0.061,0.397,0.192,0.518c0.127,0.118,0.403,0.2,0.697,0.23
					v0.332h-3.158v-0.331c0.294-0.031,0.57-0.113,0.698-0.232c0.13-0.121,0.191-0.286,0.191-0.518v-7.878
					c0-0.232-0.061-0.397-0.191-0.52c-0.129-0.118-0.404-0.2-0.698-0.23v-0.33h3.158V919.291L96.447,919.291z"/>
				<path id="path42" inkscape:connector-curvature="0" fill="#231F20" d="M145.961,911.627c-0.115,0.398-0.224,0.748-0.328,1.043
					c-0.384,1.104-0.673,1.927-0.747,2.134c-0.188,0.528-0.042,0.919,0.153,1.116c0.163,0.165,0.42,0.303,0.865,0.303
					c0.446,0,0.695-0.12,0.87-0.298c0.196-0.196,0.321-0.582,0.157-1.118c-0.082-0.266-0.337-1.078-0.675-2.145
					C146.163,912.369,146.064,912.036,145.961,911.627 M173.141,904.294c-0.396-0.571-0.858-1.109-1.353-1.461
					c-0.494-0.35-1.236-0.732-1.977-0.732h-2.006c-0.413,0-0.828,0.298-0.828,0.942v6.25h2.448c0.461,0,0.819-0.129,1.083-0.443
					c0.225-0.266,0.338-0.677,0.482-1.238l0.583,0.061c-0.309,1.547-0.252,2.537-0.263,3.638l-0.145,0.054
					c-0.105-0.267-0.307-0.69-0.543-0.88c-0.345-0.279-0.613-0.384-1.259-0.384h-2.386v5.715h2.421c0.795,0,1.248,0,1.749-0.349
					c0.519-0.359,0.652-0.948,0.847-1.748h0.547c0.011,1.168,0.194,2.337,0.409,2.889l-1.163-0.023l-12.019-0.003v-0.392
					c0.569-0.055,0.932-0.184,1.124-0.404c0.223-0.255,0.28-0.705,0.095-1.085c-0.289-0.588-1.094-2.253-2.062-4.409
					c-0.141-0.314-0.284-0.699-0.431-1.031c-0.143,0.281-0.305,0.66-0.478,0.999c-0.779,1.529-1.779,3.491-2.269,4.464
					c-0.255,0.504-0.078,0.896,0.127,1.094c0.21,0.202,0.492,0.324,0.946,0.373v0.392l-6.058,0.005v-0.395
					c0.43-0.049,0.83-0.181,1.028-0.382c0.195-0.196,0.343-0.468,0.179-1.003c-0.303-0.986-2.997-9.461-3.382-10.635
					c-0.113,0.345-1.136,3.286-2.08,5.995c0.723,2.289,1.322,4.195,1.474,4.668c0.13,0.402,0.387,0.782,0.582,0.979
					c0.199,0.201,0.523,0.324,0.953,0.373v0.402h-8.178v-0.39c0.428-0.049,0.753-0.187,0.951-0.388
					c0.195-0.196,0.442-0.58,0.584-0.978c0.22-0.617,1.148-3.295,2.127-6.125c-0.663-2.086-1.281-4.018-1.45-4.536
					c-0.207,0.627-3.428,9.863-3.701,10.632c-0.187,0.528-0.018,0.806,0.178,1.003c0.198,0.201,0.598,0.343,1.029,0.391v0.39h-4.756
					v-0.39c0.429-0.049,0.754-0.187,0.952-0.388c0.195-0.196,0.441-0.58,0.584-0.978c0.479-1.34,4.296-12.399,4.714-13.624h1.084
					c0.381,1.134,1.005,3.077,1.665,5.15c0.082,0.257,0.149,0.606,0.23,0.96c0.094-0.377,0.202-0.726,0.293-0.992
					c0.85-2.461,1.593-4.616,1.764-5.118h1.084c1.055,3.143,3.981,12.497,4.346,13.627c0.046,0.143,0.102,0.332,0.153,0.544
					c0.111-0.243,0.243-0.485,0.273-0.539c0.763-1.396,2.939-5.428,3.616-6.711v-5.154c0-0.4-0.115-0.678-0.328-0.876
					c-0.218-0.202-0.572-0.325-1.042-0.374v-0.393l4.658-0.003v0.393c-0.471,0.048-0.825,0.172-1.042,0.374
					c-0.214,0.197-0.329,0.475-0.329,0.875v5.157c1.225,2.781,2.945,6.105,3.237,6.711c0.191,0.396,0.42,0.81,0.635,0.999
					c0.22,0.194,0.55,0.376,0.923,0.376c0.373,0,0.718-0.118,0.923-0.311c0.212-0.197,0.37-0.554,0.37-0.953v-11.976
					c0-0.4-0.116-0.676-0.329-0.874c-0.216-0.202-0.57-0.325-1.039-0.373v-0.396h7.81c0.421,0,0.696-0.105,0.799-0.212
					c0.107,0.182,1.24,2.907,1.24,2.907L173.141,904.294L173.141,904.294z"/>
				<path id="path44" inkscape:connector-curvature="0" fill="#231F20" d="M82.676,905.997c0-3.086-1.222-4.196-3.11-4.196
					c-2.108,0-3.664,2.155-3.664,7.162c0,5.008,1.662,7.059,3.695,7.059c1.786,0,2.545-1.049,3.429-3.646h0.39v4.201h-0.41
					c-0.089-0.385-0.418-0.542-0.802-0.393c-0.742,0.288-1.319,0.607-2.62,0.607c-3.365,0-5.712-3.004-5.712-8.176
					c0-4.74,2.243-7.495,5.657-7.495c2.707,0,4.07,1.815,4.398,4.877H82.676z"/>
			</g>
		</g>
	</g>
</g>
</svg>
