<?xml version="1.0" encoding="utf-8"?>
<!-- Generator: Adobe Illustrator 16.0.0, SVG Export Plug-In . SVG Version: 6.00 Build 0)  -->
<!DOCTYPE svg PUBLIC "-//W3C//DTD SVG 1.1//EN" "http://www.w3.org/Graphics/SVG/1.1/DTD/svg11.dtd">
<svg version="1.1"
	 id="svg2" xmlns:dc="http://purl.org/dc/elements/1.1/" xmlns:cc="http://creativecommons.org/ns#" xmlns:rdf="http://www.w3.org/1999/02/22-rdf-syntax-ns#" xmlns:svg="http://www.w3.org/2000/svg" xmlns:inkscape="http://www.inkscape.org/namespaces/inkscape"
	 xmlns="http://www.w3.org/2000/svg" xmlns:xlink="http://www.w3.org/1999/xlink" x="0px" y="0px" width="990px" height="1170px" style="background-color: white"
	 viewBox="0 0 990 1170" enable-background="new 0 0 990 1170" xml:space="preserve">
<g id="g10" transform="matrix(1.25,0,0,-1.25,0,1170)">
	<g id="g12">
		<g>
			<defs>
				<rect id="SVGID_1_" x="-39.781" y="668.365" width="265.447" height="313.709"/>
			</defs>
			<clipPath id="SVGID_2_">
				<use xlink:href="#SVGID_1_"  overflow="visible"/>
			</clipPath>
			<g id="g14" clip-path="url(#SVGID_2_)">
				<path id="path20" inkscape:connector-curvature="0" fill="#231F20" d="M124.005,911.554c0.191-0.611,1.077-3.249,1.909-5.841
					h-3.729C122.906,908.037,123.647,910.405,124.005,911.554 M129.258,901.061c-0.353,1.075-3.668,11.439-4.038,12.58h-3.002
					v-0.364c0.344-0.037,0.676-0.142,0.858-0.323c0.154-0.154,0.305-0.412,0.305-0.678c0-0.037-3.536-10.819-3.672-11.218
					c-0.182-0.535-0.303-0.72-0.495-0.911c-0.18-0.182-0.486-0.303-0.868-0.348v-0.363h3.479v0.363
					c-0.382,0.045-0.785,0.141-0.967,0.341c-0.204,0.223-0.229,0.509-0.103,0.944c0.204,0.709,0.586,1.89,1.202,3.877h4.198
					c0.632-1.967,1.018-3.206,1.225-3.88c0.131-0.431,0.055-0.759-0.142-0.95c-0.201-0.194-0.522-0.287-0.929-0.334v-0.364
					l4.312,0.003v0.363c-0.382,0.045-0.65,0.146-0.861,0.338C129.573,900.306,129.435,900.522,129.258,901.061"/>
				<path id="path22" inkscape:connector-curvature="0" fill="#231F20" d="M118.567,903.5c-0.299-0.974-1.363-2.262-2.025-2.721
					c-0.641-0.445-1.218-0.445-2.232-0.445h-2.124c-0.275,0-0.457,0.122-0.615,0.259c-0.196,0.17-0.35,0.433-0.35,0.944v15.256
					c0,0.511,0.147,0.864,0.418,1.116c0.277,0.258,0.728,0.415,1.328,0.477v0.5h-5.504v-0.5c0.6-0.062,1.051-0.219,1.328-0.477
					c0.272-0.252,0.419-0.605,0.419-1.116v-15.256c0-0.511-0.146-0.864-0.419-1.117c-0.277-0.256-0.728-0.414-1.328-0.476v-0.511
					h7.842l2.64-0.026l1.32,4.092H118.567L118.567,903.5z"/>
				<path id="path24" inkscape:connector-curvature="0" fill="#231F20" d="M52.042,900.806c-0.423-0.29-1.09-0.655-1.93-0.655h-1.69
					c-0.484,0-0.821,0.305-0.821,0.877v5.819h2.279c0.429,0,0.762-0.12,1.008-0.412c0.21-0.248,0.314-0.63,0.45-1.153l0.543,0.057
					c-0.287,1.44-0.235,2.362-0.245,3.388l-0.135,0.05c-0.098-0.248-0.286-0.643-0.505-0.819c-0.321-0.26-0.57-0.357-1.171-0.357
					H47.6v5.321h2.254c0.74,0,1.161,0,1.628-0.324c0.483-0.334,0.607-0.883,0.789-1.628h0.509c0.01,1.087,0.18,2.176,0.381,2.69
					l-1.083-0.022h-7.531v-0.366c0.437-0.046,0.766-0.155,0.967-0.344c0.198-0.184,0.306-0.442,0.306-0.814v-11.149
					c0-0.372-0.108-0.63-0.306-0.814c-0.202-0.188-0.53-0.302-0.967-0.347v-0.368h7.271c0.392,0,0.648-0.098,0.745-0.198
					c0.098,0.17,1.154,2.707,1.154,2.707l-0.377,0.248C52.971,901.661,52.508,901.124,52.042,900.806"/>
				<path id="path26" inkscape:connector-curvature="0" fill="#231F20" d="M18.138,908.12c0.987,3.181,1.968,6.339,2.459,7.911
					c0.261-0.836,1.446-4.363,2.584-7.911H18.138z M42.389,900.967c-0.002,0.037-0.542,11.086-0.544,11.123
					c-0.018,0.372,0.085,0.646,0.274,0.831c0.194,0.188,0.495,0.301,0.931,0.347l-0.004,0.369h-3.565l-3.107-12.13l-3.103,12.13
					h-3.815v-0.366c0.437-0.046,0.823-0.178,1.057-0.385c0.252-0.223,0.394-0.653,0.371-1.127
					c-0.005-0.112-0.649-10.682-0.656-10.796c-0.022-0.372-0.116-0.66-0.308-0.844c-0.185-0.177-0.471-0.287-0.855-0.287
					c-0.373,0-0.687,0.098-0.993,0.404c-0.245,0.244-0.446,0.631-0.689,1.369c-0.484,1.471-5.021,15.72-5.528,17.282h-3.441v-0.366
					c0.472-0.051,0.883-0.264,1.132-0.514c0.21-0.21,0.461-0.625,0.461-0.989c0-0.05-4.843-14.81-5.028-15.357
					c-0.248-0.733-0.414-1.123-0.675-1.384c-0.248-0.249-0.666-0.42-1.188-0.481v-0.362h4.496v0.358
					c-0.521,0.061-1.073,0.199-1.323,0.472c-0.279,0.305-0.314,0.697-0.142,1.291c0.281,0.97,0.86,2.925,1.703,5.644l5.625,0.003
					c0.864-2.693,1.457-4.723,1.739-5.646c0.181-0.59,0.076-1.034-0.193-1.296c-0.276-0.266-0.716-0.4-1.271-0.464v-0.361h5.134
					h3.524l-0.003,0.365c-0.436,0.045-0.758,0.159-0.948,0.348c-0.188,0.185-0.279,0.443-0.255,0.815
					c0.005,0.1,0.527,8.858,0.65,10.848l3.337-12.376h1.587l3.275,12.393c0.072-1.459,0.554-10.831,0.555-10.865
					c0.018-0.372-0.077-0.63-0.266-0.815c-0.194-0.189-0.518-0.303-0.954-0.348l-0.001-0.366l4.336,0.002l0.002,0.366
					c-0.44,0.045-0.776,0.162-0.987,0.35C42.527,900.335,42.407,900.594,42.389,900.967"/>
				<path id="path28" inkscape:connector-curvature="0" fill="#231F20" d="M64.28,913.275c0.437-0.045,0.767-0.16,0.97-0.348
					c0.198-0.185,0.305-0.443,0.305-0.815v-11.148c0-0.372-0.108-0.63-0.305-0.815c-0.202-0.188-0.533-0.304-0.97-0.348v-0.364
					h4.332v0.365c-0.436,0.045-0.766,0.163-0.969,0.35c-0.198,0.184-0.304,0.442-0.304,0.816v11.143c0,0.372,0.107,0.63,0.304,0.815
					c0.203,0.187,0.533,0.302,0.969,0.346v0.366l-4.332,0.003V913.275L64.28,913.275z"/>
				<path id="path30" inkscape:connector-curvature="0" fill="#231F20" d="M82.138,905.713c0.721,2.324,1.459,4.692,1.818,5.841
					c0.191-0.611,1.08-3.249,1.912-5.841H82.138z M98.239,913.271c0.438-0.046,0.768-0.16,0.97-0.347
					c0.198-0.184,0.306-0.443,0.306-0.816v-7.586c0-0.466-0.002-0.723,0.018-1.397c-0.327,0.648-0.654,1.232-0.654,1.232
					l-5.121,9.281h-3.258v-0.366c0.437-0.046,0.767-0.16,0.97-0.347c0.198-0.184,0.306-0.443,0.306-0.816v-11.145
					c0-0.372-0.114-0.666-0.312-0.851c-0.196-0.182-0.45-0.312-0.847-0.312c-0.393,0-0.7,0.128-0.906,0.339
					c-0.177,0.18-0.325,0.383-0.502,0.921c-0.352,1.075-3.667,11.439-4.038,12.58h-3.003v-0.364
					c0.345-0.037,0.677-0.142,0.859-0.323c0.154-0.154,0.305-0.412,0.305-0.678c0-0.037-3.537-10.819-3.673-11.218
					c-0.181-0.535-0.302-0.72-0.493-0.911c-0.182-0.182-0.487-0.303-0.868-0.348v-0.363h3.479v0.363
					c-0.381,0.045-0.784,0.141-0.967,0.341c-0.204,0.223-0.229,0.509-0.104,0.944c0.205,0.709,0.587,1.89,1.202,3.877h4.198
					c0.631-1.967,1.017-3.206,1.224-3.88c0.132-0.431,0.055-0.756-0.143-0.947c-0.201-0.194-0.522-0.288-0.928-0.334v-0.363h7.765
					v0.365c-0.439,0.045-0.767,0.159-0.97,0.348c-0.199,0.185-0.306,0.443-0.306,0.815v9.699c0,0.43-0.003,0.756-0.03,1.158
					c0.184-0.382,0.528-1.022,0.528-1.022l6.289-11.364h0.952v12.673c0,0.373,0.107,0.632,0.305,0.816
					c0.203,0.187,0.532,0.302,0.97,0.347v0.366h-3.523V913.271L98.239,913.271z"/>
				<path id="path32" inkscape:connector-curvature="0" fill="#231F20" d="M63.062,900.521c0,0,0,0,0,0.001
					c-1.221,2.004-2.305,3.897-3.8,6.325c2.713,0.877,3.673,2.156,3.673,3.678c0,2.103-1.373,3.113-4.498,3.113h-4.512v-0.366
					c0.438-0.044,0.767-0.159,0.97-0.347c0.198-0.184,0.305-0.443,0.305-0.815v-11.145c0-0.373-0.107-0.631-0.305-0.816
					c-0.203-0.188-0.533-0.303-0.97-0.348v-0.365h4.486v0.365c-0.437,0.045-0.917,0.16-1.12,0.348
					c-0.199,0.184-0.307,0.443-0.307,0.816v10.998c0.003,0.652,0.366,0.956,1.437,0.956c1.768,0,2.632-0.734,2.632-2.447
					c0-1.907-1.226-2.871-3.621-3.588v-0.361c0,0,1.704-2.814,3.719-6.26c0.159-0.271,0.309-0.709,0.309-0.826h2.681v0.368
					C63.677,899.906,63.354,900.041,63.062,900.521"/>
				<path id="path34" inkscape:connector-curvature="0" fill="#231F20" d="M172.322,900.521c0,0-0.001,0-0.001,0.001
					c-1.471,2.193-4.07,6.325-4.07,6.325c2.713,0.877,3.673,2.156,3.673,3.678c0,2.103-1.373,3.113-4.498,3.113h-4.512v-0.366
					c0.438-0.044,0.768-0.159,0.97-0.347c0.197-0.184,0.306-0.443,0.306-0.815v-11.145c0-0.373-0.109-0.631-0.306-0.816
					c-0.203-0.188-0.532-0.303-0.97-0.348v-0.365h4.486v0.365c-0.437,0.045-0.917,0.16-1.12,0.348
					c-0.199,0.184-0.307,0.443-0.307,0.816v10.998c0.002,0.652,0.365,0.956,1.437,0.956c1.768,0,2.631-0.734,2.631-2.447
					c0-1.907-1.226-2.871-3.62-3.588v-0.361c0,0,1.916-2.814,3.931-6.26c0.159-0.271,0.309-0.709,0.309-0.826h2.738v0.368
					C172.935,899.906,172.613,900.041,172.322,900.521"/>
				<path id="path36" inkscape:connector-curvature="0" fill="#231F20" d="M81.219,924.147c0.288,0.324,0.632,0.495,0.997,0.495
					h0.554c0.084,0,0.17-0.032,0.221-0.083c0.049-0.049,0.116-0.143,0.116-0.383v-7.323c0-0.213-0.058-0.371-0.178-0.482
					c-0.119-0.11-0.375-0.187-0.651-0.216v-0.308h2.943v0.308c-0.275,0.029-0.531,0.105-0.65,0.216
					c-0.121,0.113-0.178,0.266-0.178,0.482v7.284c0,0.236,0.018,0.33,0.124,0.438c0.045,0.044,0.116,0.067,0.212,0.067h0.477
					c0.357,0,0.698,0,0.986-0.2c0.226-0.157,0.332-0.683,0.371-0.863c0.038-0.179,0.08-0.363,0.08-0.363l0.319,0.001
					c0.006,0.707,0.242,1.657,0.367,1.975l-6.108-0.001c-0.38,0-0.53,0.134-0.53,0.134s-0.432-2.069-0.473-2.277l0.303-0.028
					C80.726,923.516,81.019,923.921,81.219,924.147"/>
				<path id="path38" inkscape:connector-curvature="0" fill="#231F20" d="M102.161,916.762c-0.302-0.207-0.671-0.367-1.011-0.367
					h-1.434c-0.288,0-0.363,0.331-0.363,0.506v3.736h1.374c0.273,0,0.465-0.078,0.606-0.245c0.123-0.146,0.223-0.398,0.314-0.75
					l0.323,0.059c-0.15,0.683-0.167,1.211-0.168,1.711l-0.007,0.551l-0.186,0.08c-0.046-0.134-0.185-0.434-0.333-0.552
					c-0.19-0.153-0.332-0.217-0.721-0.217h-1.203v3.372h1.399c0.473,0,0.818,0,1.105-0.2c0.286-0.197,0.409-0.623,0.52-1.08h0.317
					c0.007,0.747,0.147,1.565,0.263,1.862c0,0-0.167-0.035-0.762-0.035h-4.952v-0.31c0.275-0.029,0.53-0.105,0.647-0.215
					c0.12-0.112,0.179-0.269,0.179-0.481v-7.335c0-0.212-0.059-0.371-0.179-0.482c-0.118-0.11-0.375-0.186-0.648-0.215v-0.308h4.783
					c0.385,0,0.516-0.145,0.516-0.145c0.057,0.145,0.721,1.681,0.792,1.85l-0.261,0.163
					C102.838,917.375,102.452,916.961,102.161,916.762"/>
				<path id="path40" inkscape:connector-curvature="0" fill="#231F20" d="M90.926,916.155c-0.273,0.029-0.53,0.105-0.649,0.216
					c-0.121,0.112-0.178,0.265-0.178,0.482v3.784h3.714v-3.785c0-0.213-0.058-0.372-0.178-0.484c-0.12-0.11-0.377-0.186-0.65-0.214
					v-0.307h2.94v0.308c-0.275,0.029-0.531,0.105-0.65,0.216c-0.121,0.111-0.177,0.265-0.177,0.482v7.334
					c0,0.216,0.056,0.37,0.177,0.483c0.119,0.111,0.375,0.186,0.65,0.214v0.308h-2.94v-0.307c0.275-0.029,0.531-0.105,0.65-0.215
					c0.121-0.114,0.178-0.268,0.178-0.482v-2.893h-3.714v2.893c0,0.216,0.056,0.369,0.178,0.482
					c0.118,0.111,0.376,0.186,0.649,0.214v0.309h-2.94v-0.308c0.274-0.029,0.531-0.104,0.65-0.216
					c0.121-0.113,0.178-0.266,0.178-0.482v-7.334c0-0.217-0.057-0.37-0.178-0.484c-0.12-0.11-0.376-0.186-0.65-0.214v-0.307h2.94
					V916.155L90.926,916.155z"/>
				<path id="path42" inkscape:connector-curvature="0" fill="#231F20" d="M137.024,909.019c-0.107,0.371-0.209,0.697-0.305,0.971
					c-0.357,1.028-0.626,1.794-0.695,1.987c-0.175,0.492-0.039,0.855,0.143,1.039c0.152,0.154,0.391,0.282,0.805,0.282
					c0.415,0,0.646-0.111,0.81-0.277c0.183-0.182,0.299-0.542,0.146-1.041c-0.076-0.248-0.314-1.003-0.628-1.996
					C137.212,909.71,137.12,909.401,137.024,909.019 M162.329,902.193c-0.369-0.532-0.798-1.033-1.259-1.36
					c-0.46-0.326-1.15-0.682-1.841-0.682h-1.868c-0.384,0-0.771,0.278-0.771,0.877v5.819h2.279c0.429,0,0.762-0.12,1.008-0.412
					c0.21-0.248,0.314-0.63,0.45-1.153l0.542,0.057c-0.287,1.44-0.235,2.362-0.245,3.387l-0.135,0.051
					c-0.098-0.248-0.285-0.643-0.505-0.819c-0.321-0.26-0.57-0.357-1.171-0.357h-2.222v5.321h2.254c0.739,0,1.162,0,1.628-0.325
					c0.483-0.334,0.606-0.882,0.789-1.628h0.509c0.011,1.087,0.18,2.176,0.381,2.69l-1.083-0.022l-11.19-0.003v-0.365
					c0.53-0.051,0.868-0.171,1.046-0.375c0.207-0.238,0.261-0.656,0.088-1.011c-0.269-0.547-1.019-2.098-1.92-4.105
					c-0.131-0.292-0.265-0.65-0.402-0.96c-0.133,0.261-0.284,0.614-0.445,0.93c-0.725,1.424-1.657,3.25-2.113,4.156
					c-0.237,0.469-0.073,0.834,0.118,1.018c0.195,0.188,0.458,0.301,0.881,0.347v0.365l-5.64,0.005v-0.368
					c0.401-0.046,0.773-0.169,0.957-0.356c0.182-0.183,0.32-0.436,0.167-0.934c-0.282-0.918-2.79-8.808-3.148-9.901
					c-0.105,0.321-1.057,3.059-1.936,5.581c0.673,2.131,1.231,3.906,1.373,4.346c0.12,0.374,0.36,0.728,0.542,0.911
					c0.186,0.188,0.488,0.302,0.887,0.347v0.374h-7.614v-0.363c0.398-0.046,0.701-0.174,0.886-0.361
					c0.181-0.183,0.411-0.541,0.544-0.911c0.205-0.575,1.069-3.067,1.98-5.702c-0.617-1.942-1.193-3.741-1.35-4.222
					c-0.193,0.584-3.191,9.182-3.445,9.898c-0.174,0.492-0.016,0.75,0.166,0.934c0.184,0.187,0.556,0.319,0.958,0.364v0.363h-4.428
					v-0.363c0.399-0.046,0.701-0.174,0.886-0.361c0.181-0.183,0.411-0.541,0.543-0.911c0.446-1.247,4-11.543,4.389-12.684h1.009
					c0.355,1.056,0.936,2.864,1.55,4.794c0.076,0.239,0.139,0.564,0.215,0.894c0.087-0.351,0.188-0.676,0.273-0.923
					c0.791-2.291,1.483-4.298,1.642-4.765h1.009c0.983,2.926,3.707,11.635,4.047,12.687c0.043,0.133,0.095,0.309,0.143,0.506
					c0.104-0.226,0.226-0.452,0.254-0.502c0.711-1.3,2.736-5.054,3.367-6.248v-4.798c0-0.373-0.107-0.631-0.305-0.816
					c-0.202-0.188-0.532-0.303-0.97-0.348v-0.366l4.336-0.003v0.366c-0.439,0.045-0.768,0.159-0.97,0.348
					c-0.199,0.184-0.306,0.442-0.306,0.815v4.802c1.14,2.589,2.742,5.684,3.013,6.248c0.178,0.369,0.391,0.753,0.591,0.93
					c0.205,0.18,0.512,0.35,0.86,0.35c0.347,0,0.668-0.11,0.859-0.289c0.197-0.183,0.344-0.516,0.344-0.888v-11.149
					c0-0.372-0.109-0.63-0.306-0.814c-0.202-0.188-0.531-0.303-0.967-0.348v-0.368h7.271c0.392,0,0.648-0.097,0.745-0.197
					c0.099,0.17,1.154,2.707,1.154,2.707L162.329,902.193L162.329,902.193z"/>
				<path id="path44" inkscape:connector-curvature="0" fill="#231F20" d="M78.106,903.779c0-2.873-1.138-3.907-2.896-3.907
					c-1.962,0-3.411,2.006-3.411,6.668c0,4.662,1.548,6.572,3.439,6.572c1.662,0,2.369-0.977,3.192-3.395h0.363v3.911h-0.381
					c-0.083-0.358-0.39-0.504-0.746-0.366c-0.691,0.268-1.228,0.565-2.439,0.565c-3.133,0-5.318-2.797-5.318-7.612
					c0-4.413,2.088-6.978,5.267-6.978c2.52,0,3.789,1.69,4.094,4.541H78.106z"/>
			</g>
		</g>
	</g>
</g>
</svg>
