<?xml version="1.0" encoding="UTF-8" standalone="no"?>
<!-- Created with Inkscape (http://www.inkscape.org/) -->

<svg
   xmlns:dc="http://purl.org/dc/elements/1.1/"
   xmlns:cc="http://creativecommons.org/ns#"
   xmlns:rdf="http://www.w3.org/1999/02/22-rdf-syntax-ns#"
   xmlns:svg="http://www.w3.org/2000/svg"
   xmlns="http://www.w3.org/2000/svg"
   xmlns:inkscape="http://www.inkscape.org/namespaces/inkscape"
   version="1.1"
   width="990"
   height="1170"
   id="svg2"
   xml:space="preserve"><metadata
     id="metadata8"><rdf:RDF><cc:Work
         rdf:about=""><dc:format>image/svg+xml</dc:format><dc:type
           rdf:resource="http://purl.org/dc/dcmitype/StillImage" /></cc:Work></rdf:RDF></metadata><defs
     id="defs6"><clipPath
       id="clipPath16"><path
         d="M 0,936 792,936 792,0 0,0 0,936 z"
         inkscape:connector-curvature="0"
         id="path18" /></clipPath></defs><g
     transform="matrix(1.25,0,0,-1.25,0,1170)"
     id="g10"><g
       id="g12"><g
         clip-path="url(#clipPath16)"
         id="g14"><path
           d="m 511.85,789.989 c 0.711,-2.276 4.017,-12.117 7.119,-21.783 l -13.906,0 c 2.687,8.668 5.449,17.5 6.787,21.783 m 19.591,-39.135 c -1.316,4.008 -13.679,42.662 -15.06,46.916 l -11.199,0 0,-1.357 c 1.285,-0.139 2.523,-0.528 3.201,-1.207 0.572,-0.573 1.138,-1.534 1.138,-2.526 0,-0.137 -13.193,-40.349 -13.697,-41.839 -0.678,-1.996 -1.129,-2.686 -1.843,-3.399 -0.673,-0.677 -1.813,-1.129 -3.237,-1.295 l 0,-1.357 12.975,0 0,1.357 c -1.423,0.166 -2.926,0.526 -3.608,1.27 -0.759,0.832 -0.853,1.902 -0.384,3.52 0.763,2.644 2.186,7.048 4.482,14.459 l 15.657,0 c 2.355,-7.338 3.794,-11.956 4.566,-14.471 0.492,-1.606 0.207,-2.83 -0.53,-3.543 -0.749,-0.725 -1.949,-1.07 -3.463,-1.244 l 0,-1.358 16.081,0.01 0,1.357 c -1.424,0.166 -2.424,0.545 -3.207,1.258 -0.698,0.635 -1.212,1.44 -1.872,3.449"
           inkscape:connector-curvature="0"
           id="path20"
           style="fill:#231f20;fill-opacity:1;fill-rule:nonzero;stroke:none" /><path
           d="m 491.567,759.954 c -1.118,-3.632 -5.085,-8.437 -7.553,-10.148 -2.391,-1.66 -4.545,-1.66 -8.327,-1.66 l -7.923,0 c -1.024,0 -1.703,0.458 -2.293,0.968 -0.732,0.633 -1.305,1.617 -1.305,3.52 l 0,56.898 c 0,1.906 0.549,3.222 1.562,4.161 1.034,0.964 2.715,1.55 4.952,1.781 l 0,1.867 -20.528,0 0,-1.867 c 2.238,-0.231 3.921,-0.817 4.954,-1.781 1.013,-0.939 1.56,-2.255 1.56,-4.161 l 0,-56.898 c 0,-1.903 -0.547,-3.221 -1.56,-4.164 -1.033,-0.957 -2.716,-1.545 -4.954,-1.776 l 0,-1.904 29.246,0 9.848,-0.098 4.925,15.262 -2.604,0 z"
           inkscape:connector-curvature="0"
           id="path22"
           style="fill:#231f20;fill-opacity:1;fill-rule:nonzero;stroke:none" /><path
           d="m 243.457,749.903 c -1.578,-1.08 -4.064,-2.443 -7.199,-2.443 l -6.302,0 c -1.807,0 -3.063,1.14 -3.063,3.273 l 0,21.7 8.5,0 c 1.601,0 2.843,-0.446 3.759,-1.537 0.783,-0.926 1.172,-2.352 1.676,-4.301 l 2.024,0.213 c -1.071,5.371 -0.876,8.811 -0.914,12.634 l -0.504,0.186 c -0.366,-0.926 -1.066,-2.395 -1.885,-3.053 -1.197,-0.969 -2.127,-1.332 -4.369,-1.332 l -8.287,0 0,19.844 8.407,0 c 2.757,0 4.331,0 6.072,-1.211 1.8,-1.246 2.261,-3.291 2.941,-6.07 l 1.898,0 c 0.039,4.054 0.674,8.116 1.423,10.032 l -4.04,-0.082 -28.088,0 0,-1.363 c 1.629,-0.172 2.855,-0.578 3.607,-1.281 0.737,-0.684 1.141,-1.649 1.141,-3.035 l 0,-41.582 c 0,-1.387 -0.404,-2.349 -1.141,-3.035 -0.752,-0.699 -1.978,-1.127 -3.607,-1.295 l 0,-1.375 27.119,0 c 1.461,0 2.416,-0.365 2.775,-0.736 0.371,0.633 4.307,10.097 4.307,10.097 l -1.41,0.924 c -1.375,-1.982 -3.102,-3.983 -4.84,-5.172"
           inkscape:connector-curvature="0"
           id="path24"
           style="fill:#231f20;fill-opacity:1;fill-rule:nonzero;stroke:none" /><path
           d="m 117.01,777.183 c 3.679,11.864 7.342,23.64 9.172,29.504 0.974,-3.116 5.394,-16.272 9.638,-29.504 l -18.81,0 z m 90.449,-26.68 c -0.009,0.137 -2.021,41.347 -2.029,41.486 -0.069,1.39 0.317,2.412 1.024,3.098 0.722,0.701 1.846,1.124 3.47,1.294 l -0.014,1.375 -13.295,0 -11.59,-45.237 -11.571,45.237 -14.231,0 0,-1.363 c 1.631,-0.168 3.071,-0.664 3.943,-1.437 0.943,-0.829 1.469,-2.432 1.386,-4.204 -0.019,-0.418 -2.421,-39.839 -2.448,-40.263 -0.086,-1.388 -0.432,-2.461 -1.151,-3.148 -0.687,-0.658 -1.753,-1.072 -3.187,-1.072 -1.394,0 -2.563,0.369 -3.703,1.509 -0.914,0.912 -1.665,2.354 -2.569,5.106 -1.803,5.488 -18.725,58.63 -20.617,64.453 l -12.832,0 0,-1.363 c 1.76,-0.19 3.293,-0.985 4.221,-1.915 0.783,-0.785 1.721,-2.33 1.721,-3.689 0,-0.186 -18.06,-55.234 -18.752,-57.273 -0.924,-2.735 -1.544,-4.186 -2.52,-5.16 -0.924,-0.928 -2.483,-1.569 -4.431,-1.795 l 0,-1.352 16.767,0 0,1.336 c -1.945,0.227 -4.002,0.74 -4.934,1.76 -1.041,1.138 -1.172,2.601 -0.531,4.816 1.047,3.619 3.209,10.908 6.352,21.051 l 20.98,0.01 c 3.224,-10.043 5.434,-17.617 6.488,-21.059 0.674,-2.201 0.283,-3.859 -0.724,-4.836 -1.027,-0.992 -2.668,-1.49 -4.741,-1.728 l 0,-1.35 19.145,0 13.143,0 -0.01,1.363 c -1.625,0.17 -2.827,0.594 -3.537,1.297 -0.699,0.688 -1.04,1.651 -0.953,3.039 0.022,0.375 1.967,33.037 2.427,40.461 l 12.448,-46.16 5.918,0 12.212,46.222 c 0.266,-5.443 2.065,-40.396 2.071,-40.523 0.068,-1.388 -0.285,-2.353 -0.992,-3.039 -0.722,-0.703 -1.931,-1.131 -3.557,-1.299 l -0.002,-1.365 16.17,0.004 0.005,1.365 c -1.644,0.168 -2.894,0.604 -3.681,1.305 -0.775,0.687 -1.224,1.652 -1.289,3.043"
           inkscape:connector-curvature="0"
           id="path26"
           style="fill:#231f20;fill-opacity:1;fill-rule:nonzero;stroke:none" /><path
           d="m 289.103,796.407 c 1.627,-0.17 2.86,-0.596 3.615,-1.299 0.739,-0.691 1.14,-1.652 1.14,-3.041 l 0,-41.578 c 0,-1.388 -0.401,-2.353 -1.14,-3.041 -0.755,-0.701 -1.988,-1.133 -3.615,-1.297 l 0,-1.361 16.156,0 0,1.363 c -1.628,0.17 -2.857,0.608 -3.614,1.307 -0.738,0.686 -1.135,1.65 -1.135,3.041 l 0,41.556 c 0,1.389 0.397,2.352 1.135,3.041 0.757,0.699 1.986,1.127 3.614,1.293 l 0,1.365 -16.156,0.012 0,-1.361 z"
           inkscape:connector-curvature="0"
           id="path28"
           style="fill:#231f20;fill-opacity:1;fill-rule:nonzero;stroke:none" /><path
           d="m 355.702,768.206 c 2.687,8.668 5.444,17.5 6.78,21.783 0.713,-2.276 4.028,-12.117 7.129,-21.783 l -13.909,0 z m 60.051,28.189 c 1.634,-0.17 2.864,-0.598 3.618,-1.297 0.739,-0.687 1.141,-1.652 1.141,-3.043 l 0,-28.294 c 0,-1.735 -0.008,-2.694 0.068,-5.21 -1.22,2.415 -2.437,4.593 -2.437,4.593 l -19.1,34.614 -12.15,0 0,-1.363 c 1.63,-0.17 2.861,-0.598 3.618,-1.297 0.739,-0.687 1.141,-1.652 1.141,-3.043 l 0,-41.566 c 0,-1.388 -0.425,-2.485 -1.166,-3.173 -0.73,-0.679 -1.677,-1.163 -3.158,-1.163 -1.467,0 -2.611,0.477 -3.381,1.264 -0.66,0.674 -1.213,1.428 -1.873,3.437 -1.316,4.008 -13.678,42.662 -15.062,46.916 l -11.199,0 0,-1.357 c 1.287,-0.139 2.525,-0.528 3.203,-1.207 0.574,-0.573 1.138,-1.534 1.138,-2.526 0,-0.137 -13.193,-40.349 -13.698,-41.839 -0.677,-1.996 -1.127,-2.686 -1.84,-3.399 -0.677,-0.677 -1.814,-1.129 -3.236,-1.295 l 0,-1.357 12.972,0 0,1.357 c -1.421,0.166 -2.924,0.526 -3.605,1.27 -0.761,0.832 -0.855,1.902 -0.388,3.52 0.764,2.644 2.186,7.048 4.483,14.459 l 15.658,0 c 2.355,-7.338 3.794,-11.956 4.566,-14.471 0.492,-1.606 0.206,-2.819 -0.531,-3.531 -0.75,-0.725 -1.948,-1.073 -3.461,-1.247 l 0,-1.357 28.961,0 0,1.363 c -1.635,0.17 -2.863,0.594 -3.618,1.297 -0.741,0.688 -1.141,1.651 -1.141,3.039 l 0,36.173 c 0,1.605 -0.01,2.821 -0.112,4.32 0.686,-1.423 1.969,-3.81 1.969,-3.81 l 23.455,-42.382 3.548,0 0,47.265 c 0,1.391 0.401,2.356 1.14,3.043 0.755,0.699 1.984,1.127 3.619,1.297 l 0,1.363 -13.142,0 0,-1.363 z"
           inkscape:connector-curvature="0"
           id="path30"
           style="fill:#231f20;fill-opacity:1;fill-rule:nonzero;stroke:none" /><path
           d="m 284.56,748.839 c -10e-4,0.002 -0.002,0.002 -0.003,0.004 -4.553,7.476 -8.598,14.535 -14.172,23.59 10.118,3.274 13.698,8.043 13.698,13.718 0,7.842 -5.12,11.611 -16.777,11.611 l -16.827,0 0,-1.367 c 1.632,-0.166 2.863,-0.594 3.618,-1.295 0.739,-0.689 1.14,-1.65 1.14,-3.041 l 0,-41.566 c 0,-1.39 -0.401,-2.355 -1.14,-3.041 -0.755,-0.701 -1.986,-1.129 -3.618,-1.299 l 0,-1.363 16.73,0 0,1.363 c -1.631,0.17 -3.422,0.598 -4.18,1.299 -0.74,0.686 -1.141,1.651 -1.141,3.041 l 0,41.019 c 0.007,2.432 1.36,3.565 5.355,3.565 6.595,0 9.817,-2.739 9.817,-9.127 0,-7.113 -4.574,-10.707 -13.503,-13.383 l 0,-1.349 c 0,0 6.354,-10.496 13.869,-23.346 0.592,-1.01 1.15,-2.643 1.15,-3.082 l 10,0 0,1.375 c -1.725,0.383 -2.927,0.887 -4.016,2.674"
           inkscape:connector-curvature="0"
           id="path32"
           style="fill:#231f20;fill-opacity:1;fill-rule:nonzero;stroke:none" /><path
           d="m 692.048,748.839 c -10e-4,0.002 -0.002,0.002 -0.003,0.004 -5.484,8.182 -15.178,23.59 -15.178,23.59 10.119,3.274 13.698,8.043 13.698,13.718 0,7.842 -5.12,11.611 -16.777,11.611 l -16.827,0 0,-1.367 c 1.633,-0.166 2.863,-0.594 3.618,-1.295 0.739,-0.689 1.141,-1.65 1.141,-3.041 l 0,-41.566 c 0,-1.39 -0.402,-2.355 -1.141,-3.041 -0.755,-0.701 -1.985,-1.129 -3.618,-1.299 l 0,-1.363 16.73,0 0,1.363 c -1.63,0.17 -3.421,0.598 -4.179,1.299 -0.741,0.686 -1.142,1.651 -1.142,3.041 l 0,41.019 c 0.007,2.432 1.36,3.565 5.356,3.565 6.594,0 9.816,-2.739 9.816,-9.127 0,-7.113 -4.573,-10.707 -13.503,-13.383 l 0,-1.349 c 0,0 7.149,-10.496 14.663,-23.346 0.592,-1.01 1.151,-2.643 1.151,-3.082 l 10.211,0 0,1.375 c -1.725,0.383 -2.926,0.887 -4.016,2.674"
           inkscape:connector-curvature="0"
           id="path34"
           style="fill:#231f20;fill-opacity:1;fill-rule:nonzero;stroke:none" /><path
           d="m 352.276,836.956 c 1.075,1.21 2.36,1.849 3.719,1.849 l 2.064,0 c 0.31,0 0.632,-0.122 0.822,-0.31 0.184,-0.184 0.432,-0.535 0.432,-1.429 l 0,-27.313 c 0,-0.796 -0.217,-1.385 -0.665,-1.799 -0.442,-0.412 -1.401,-0.697 -2.425,-0.804 l 0,-1.15 10.974,0 0,1.15 c -1.025,0.107 -1.982,0.392 -2.425,0.803 -0.454,0.421 -0.665,0.993 -0.665,1.8 l 0,27.168 c 0,0.877 0.067,1.234 0.463,1.634 0.166,0.165 0.432,0.25 0.793,0.25 l 1.78,0 c 1.33,0 2.605,0 3.678,-0.745 0.843,-0.584 1.243,-2.549 1.384,-3.218 0.141,-0.67 0.298,-1.355 0.298,-1.355 l 1.188,0.004 c 0.023,2.635 0.903,6.18 1.37,7.367 l -22.78,-0.004 c -1.42,0 -1.979,0.501 -1.979,0.501 0,0 -1.614,-7.718 -1.765,-8.493 l 1.13,-0.105 c 0.771,1.846 1.863,3.356 2.609,4.199"
           inkscape:connector-curvature="0"
           id="path36"
           style="fill:#231f20;fill-opacity:1;fill-rule:nonzero;stroke:none" /><path
           d="m 430.379,809.412 c -1.125,-0.769 -2.5,-1.37 -3.769,-1.37 l -5.349,0 c -1.072,0 -1.355,1.235 -1.355,1.887 l 0,13.936 5.126,0 c 1.018,0 1.735,-0.291 2.26,-0.914 0.459,-0.543 0.831,-1.483 1.172,-2.798 l 1.202,0.219 c -0.56,2.547 -0.623,4.516 -0.625,6.382 l -0.025,2.054 -0.694,0.298 c -0.172,-0.5 -0.689,-1.615 -1.242,-2.057 -0.709,-0.573 -1.237,-0.813 -2.687,-0.813 l -4.487,0 0,12.577 5.219,0 c 1.766,0 3.052,0 4.119,-0.743 1.067,-0.737 1.526,-2.326 1.94,-4.027 l 1.179,0 c 0.027,2.783 0.552,5.836 0.985,6.945 0,0 -0.626,-0.13 -2.842,-0.13 l -18.467,0 0,-1.154 c 1.024,-0.109 1.977,-0.393 2.415,-0.803 0.449,-0.416 0.667,-1.003 0.667,-1.796 l 0,-27.358 c 0,-0.791 -0.218,-1.38 -0.665,-1.797 -0.442,-0.41 -1.397,-0.695 -2.417,-0.8 l 0,-1.15 17.841,0 c 1.435,0 1.923,-0.542 1.923,-0.542 0.212,0.542 2.692,6.272 2.954,6.903 l -0.973,0.606 c -0.879,-1.269 -2.317,-2.81 -3.405,-3.555"
           inkscape:connector-curvature="0"
           id="path38"
           style="fill:#231f20;fill-opacity:1;fill-rule:nonzero;stroke:none" /><path
           d="m 388.482,807.15 c -1.022,0.105 -1.979,0.391 -2.422,0.803 -0.453,0.418 -0.664,0.989 -0.664,1.799 l 0,14.113 13.854,0 0,-14.119 c 0,-0.793 -0.218,-1.384 -0.666,-1.803 -0.445,-0.412 -1.404,-0.695 -2.425,-0.799 l 0,-1.144 10.966,0 0,1.15 c -1.022,0.106 -1.981,0.392 -2.424,0.803 -0.451,0.417 -0.662,0.989 -0.662,1.799 l 0,27.352 c 0,0.808 0.211,1.38 0.662,1.801 0.443,0.411 1.4,0.694 2.424,0.799 l 0,1.15 -10.966,0 0,-1.147 c 1.025,-0.107 1.982,-0.392 2.426,-0.804 0.453,-0.424 0.665,-0.997 0.665,-1.8 l 0,-10.789 -13.854,0 0,10.787 c 0,0.807 0.211,1.379 0.665,1.801 0.442,0.412 1.4,0.694 2.421,0.799 l 0,1.153 -10.965,0 0,-1.15 c 1.021,-0.107 1.98,-0.392 2.425,-0.804 0.451,-0.423 0.662,-0.995 0.662,-1.8 l 0,-27.354 c 0,-0.806 -0.211,-1.379 -0.663,-1.803 -0.447,-0.412 -1.405,-0.695 -2.424,-0.799 l 0,-1.144 10.965,0 0,1.15 z"
           inkscape:connector-curvature="0"
           id="path40"
           style="fill:#231f20;fill-opacity:1;fill-rule:nonzero;stroke:none" /><path
           d="m 560.405,780.536 c -0.398,1.384 -0.78,2.598 -1.138,3.623 -1.338,3.832 -2.339,6.691 -2.594,7.41 -0.652,1.834 -0.148,3.191 0.53,3.876 0.566,0.573 1.458,1.052 3.005,1.052 1.547,0 2.411,-0.416 3.021,-1.036 0.681,-0.68 1.116,-2.022 0.545,-3.881 -0.284,-0.925 -1.173,-3.745 -2.345,-7.447 -0.323,-1.019 -0.666,-2.174 -1.024,-3.597 m 94.374,-25.461 c -1.375,-1.982 -2.979,-3.853 -4.697,-5.073 -1.716,-1.217 -4.29,-2.542 -6.865,-2.542 l -6.966,0 c -1.433,0 -2.876,1.036 -2.876,3.273 l 0,21.7 8.5,0 c 1.602,0 2.844,-0.446 3.76,-1.537 0.782,-0.926 1.172,-2.352 1.676,-4.301 l 2.023,0.213 c -1.07,5.371 -0.875,8.811 -0.914,12.634 l -0.504,0.186 c -0.365,-0.926 -1.065,-2.395 -1.885,-3.053 -1.197,-0.969 -2.127,-1.332 -4.369,-1.332 l -8.287,0 0,19.844 8.407,0 c 2.757,0 4.331,0 6.072,-1.211 1.8,-1.246 2.261,-3.291 2.941,-6.07 l 1.898,0 c 0.039,4.054 0.674,8.116 1.423,10.032 l -4.04,-0.082 -41.732,-0.011 0,-1.36 c 1.976,-0.191 3.238,-0.64 3.902,-1.402 0.775,-0.887 0.975,-2.447 0.33,-3.768 -1.001,-2.041 -3.798,-7.824 -7.158,-15.31 -0.488,-1.089 -0.989,-2.426 -1.498,-3.58 -0.498,0.975 -1.061,2.291 -1.66,3.468 -2.706,5.311 -6.177,12.122 -7.879,15.499 -0.885,1.751 -0.272,3.111 0.439,3.798 0.729,0.7 1.709,1.125 3.285,1.295 l 0,1.36 -21.032,0.019 0,-1.374 c 1.493,-0.169 2.878,-0.628 3.567,-1.327 0.68,-0.68 1.194,-1.624 0.624,-3.483 -1.052,-3.425 -10.406,-32.852 -11.743,-36.928 -0.392,1.197 -3.944,11.41 -7.222,20.817 2.51,7.946 4.591,14.568 5.12,16.206 0.451,1.398 1.343,2.718 2.02,3.401 0.692,0.697 1.818,1.124 3.312,1.294 l 0,1.394 -28.398,0 0,-1.354 c 1.487,-0.17 2.616,-0.648 3.304,-1.347 0.675,-0.68 1.533,-2.017 2.027,-3.397 0.765,-2.142 3.989,-11.44 7.385,-21.265 -2.303,-7.242 -4.447,-13.954 -5.036,-15.749 -0.716,2.178 -11.902,34.247 -12.849,36.917 -0.651,1.834 -0.06,2.799 0.617,3.484 0.689,0.697 2.079,1.19 3.574,1.357 l 0,1.354 -16.513,0 0,-1.354 c 1.489,-0.17 2.617,-0.648 3.307,-1.347 0.674,-0.68 1.532,-2.017 2.025,-3.397 1.663,-4.652 14.916,-43.052 16.367,-47.306 l 3.766,0 c 1.323,3.938 3.489,10.682 5.78,17.881 0.284,0.891 0.516,2.104 0.802,3.334 0.324,-1.307 0.699,-2.522 1.018,-3.444 2.951,-8.544 5.529,-16.027 6.123,-17.771 l 3.766,0 c 3.665,10.913 13.825,43.394 15.092,47.315 0.161,0.498 0.356,1.153 0.531,1.89 0.387,-0.843 0.844,-1.685 0.948,-1.873 2.65,-4.848 10.205,-18.849 12.556,-23.302 l 0,-17.897 c 0,-1.39 -0.4,-2.355 -1.138,-3.041 -0.756,-0.701 -1.987,-1.129 -3.619,-1.299 l 0,-1.363 16.171,-0.01 0,1.364 c -1.634,0.169 -2.863,0.597 -3.617,1.298 -0.742,0.686 -1.142,1.651 -1.142,3.041 l 0,17.907 c 4.252,9.654 10.226,21.198 11.238,23.302 0.662,1.377 1.459,2.812 2.205,3.468 0.763,0.674 1.909,1.305 3.206,1.305 1.297,0 2.492,-0.411 3.206,-1.078 0.736,-0.684 1.283,-1.924 1.283,-3.31 l 0,-41.582 c 0,-1.387 -0.404,-2.349 -1.14,-3.035 -0.752,-0.699 -1.979,-1.127 -3.608,-1.295 l 0,-1.375 27.119,0 c 1.461,0 2.416,-0.365 2.776,-0.736 0.371,0.633 4.306,10.097 4.306,10.097 l -1.41,0.924 z"
           inkscape:connector-curvature="0"
           id="path42"
           style="fill:#231f20;fill-opacity:1;fill-rule:nonzero;stroke:none" /><path
           d="m 340.665,760.99 c 0,-10.717 -4.244,-14.571 -10.799,-14.571 -7.319,0 -12.722,7.483 -12.722,24.87 0,17.39 5.773,24.511 12.829,24.511 6.199,0 8.836,-3.642 11.905,-12.66 l 1.354,0 0,14.587 -1.422,0 c -0.311,-1.337 -1.453,-1.882 -2.784,-1.365 -2.576,1.001 -4.581,2.107 -9.099,2.107 -11.684,0 -19.834,-10.431 -19.834,-28.39 0,-16.459 7.786,-26.023 19.644,-26.023 9.398,0 14.132,6.303 15.27,16.934 l -4.342,0 z"
           inkscape:connector-curvature="0"
           id="path44"
           style="fill:#231f20;fill-opacity:1;fill-rule:nonzero;stroke:none" /></g></g></g></svg>