<?xml version="1.0" encoding="utf-8"?>
<!-- Generator: Adobe Illustrator 16.0.0, SVG Export Plug-In . SVG Version: 6.00 Build 0)  -->
<!DOCTYPE svg PUBLIC "-//W3C//DTD SVG 1.1//EN" "http://www.w3.org/Graphics/SVG/1.1/DTD/svg11.dtd">
<svg version="1.1"
	 id="svg2" xmlns:dc="http://purl.org/dc/elements/1.1/" xmlns:cc="http://creativecommons.org/ns#" xmlns:rdf="http://www.w3.org/1999/02/22-rdf-syntax-ns#" xmlns:svg="http://www.w3.org/2000/svg" xmlns:inkscape="http://www.inkscape.org/namespaces/inkscape"
	 xmlns="http://www.w3.org/2000/svg" xmlns:xlink="http://www.w3.org/1999/xlink" x="0px" y="0px" width="990px" height="1170px"
	 viewBox="0 0 990 1170" enable-background="new 0 0 990 1170" xml:space="preserve">
<g id="g10" transform="matrix(1.25,0,0,-1.25,0,1170)">
	<g id="g12">
		<g>
			<defs>
				<rect id="SVGID_1_" x="-41.564" y="667.653" width="270.864" height="320.112"/>
			</defs>
			<clipPath id="SVGID_2_">
				<use xlink:href="#SVGID_1_"  overflow="visible"/>
			</clipPath>
			<g id="g14" clip-path="url(#SVGID_2_)">
				<path id="path20" inkscape:connector-curvature="0" fill="#231F20" d="M125.564,915.805c0.195-0.623,1.099-3.315,1.948-5.96
					h-3.805C124.443,912.217,125.199,914.633,125.564,915.805 M130.925,905.098c-0.36,1.097-3.743,11.672-4.121,12.836h-3.064
					v-0.371c0.351-0.038,0.69-0.145,0.875-0.33c0.157-0.157,0.311-0.421,0.311-0.692c0-0.037-3.609-11.039-3.747-11.447
					c-0.186-0.546-0.309-0.735-0.504-0.93c-0.184-0.186-0.496-0.309-0.886-0.355v-0.371h3.55v0.371
					c-0.389,0.046-0.801,0.145-0.987,0.348c-0.208,0.227-0.233,0.52-0.105,0.963c0.209,0.723,0.598,1.929,1.226,3.956h4.284
					c0.645-2.007,1.038-3.271,1.25-3.959c0.134-0.439,0.057-0.774-0.145-0.969c-0.205-0.198-0.533-0.293-0.948-0.341v-0.372
					l4.4,0.003v0.371c-0.39,0.046-0.663,0.149-0.878,0.345C131.246,904.328,131.105,904.548,130.925,905.098"/>
				<path id="path22" inkscape:connector-curvature="0" fill="#231F20" d="M120.015,907.587c-0.305-0.994-1.391-2.308-2.066-2.776
					c-0.654-0.454-1.243-0.454-2.278-0.454h-2.168c-0.28,0-0.466,0.125-0.628,0.265c-0.2,0.173-0.357,0.442-0.357,0.963v15.567
					c0,0.521,0.15,0.882,0.427,1.139c0.283,0.264,0.743,0.424,1.355,0.487v0.511h-5.616v-0.511c0.612-0.063,1.072-0.223,1.355-0.487
					c0.278-0.257,0.427-0.617,0.427-1.139v-15.567c0-0.521-0.15-0.881-0.427-1.139c-0.282-0.261-0.743-0.422-1.355-0.486v-0.521
					h8.002l2.694-0.027l1.347,4.175H120.015L120.015,907.587z"/>
				<path id="path24" inkscape:connector-curvature="0" fill="#231F20" d="M52.132,904.838c-0.432-0.296-1.112-0.668-1.97-0.668
					h-1.725c-0.494,0-0.838,0.312-0.838,0.895v5.938h2.326c0.438,0,0.778-0.122,1.029-0.421c0.214-0.253,0.321-0.643,0.459-1.177
					l0.554,0.058c-0.293,1.47-0.24,2.411-0.25,3.457l-0.138,0.051c-0.1-0.254-0.292-0.656-0.516-0.836
					c-0.327-0.265-0.581-0.364-1.195-0.364H47.6v5.429h2.3c0.755,0,1.185,0,1.661-0.331c0.493-0.341,0.619-0.901,0.805-1.661h0.52
					c0.01,1.109,0.184,2.22,0.389,2.745l-1.105-0.022h-7.685v-0.373c0.446-0.047,0.781-0.159,0.987-0.351
					c0.202-0.187,0.312-0.451,0.312-0.83V905c0-0.379-0.111-0.643-0.312-0.83c-0.205-0.192-0.541-0.309-0.987-0.355v-0.376h7.42
					c0.4,0,0.661-0.1,0.76-0.202c0.101,0.173,1.178,2.763,1.178,2.763l-0.385,0.253C53.08,905.711,52.608,905.163,52.132,904.838"/>
				<path id="path26" inkscape:connector-curvature="0" fill="#231F20" d="M17.537,912.302c1.007,3.246,2.009,6.468,2.509,8.072
					c0.266-0.852,1.476-4.452,2.637-8.072H17.537z M42.283,905.002c-0.002,0.037-0.553,11.312-0.555,11.35
					c-0.018,0.38,0.087,0.66,0.28,0.848c0.198,0.192,0.505,0.307,0.95,0.354l-0.004,0.377h-3.637l-3.171-12.377l-3.166,12.377
					h-3.893v-0.373c0.446-0.047,0.839-0.182,1.079-0.393c0.258-0.227,0.402-0.666,0.379-1.15c-0.005-0.114-0.662-10.9-0.67-11.016
					c-0.023-0.38-0.118-0.673-0.314-0.861c-0.189-0.18-0.48-0.293-0.873-0.293c-0.381,0-0.701,0.1-1.013,0.412
					c-0.25,0.249-0.455,0.644-0.703,1.397c-0.493,1.501-5.123,16.041-5.641,17.634H17.82v-0.373c0.482-0.052,0.901-0.27,1.155-0.524
					c0.214-0.214,0.471-0.638,0.471-1.009c0-0.052-4.941-15.112-5.13-15.67c-0.253-0.748-0.422-1.146-0.689-1.412
					c-0.253-0.254-0.68-0.429-1.213-0.491v-0.37H17v0.365c-0.532,0.062-1.095,0.203-1.35,0.482
					c-0.284,0.311-0.321,0.711-0.145,1.318c0.286,0.99,0.878,2.984,1.738,5.759l5.74,0.003c0.882-2.748,1.487-4.82,1.775-5.762
					c0.185-0.602,0.078-1.055-0.198-1.323c-0.281-0.271-0.73-0.407-1.297-0.473v-0.369h5.238h3.596l-0.003,0.373
					c-0.445,0.047-0.773,0.162-0.968,0.355c-0.191,0.189-0.284,0.452-0.261,0.832c0.005,0.102,0.538,9.039,0.664,11.07l3.405-12.629
					h1.619l3.341,12.646c0.073-1.489,0.565-11.052,0.567-11.087c0.019-0.38-0.078-0.643-0.271-0.832
					c-0.198-0.192-0.528-0.309-0.973-0.355l-0.001-0.373l4.424,0.002l0.002,0.373c-0.449,0.046-0.791,0.166-1.007,0.357
					C42.424,904.357,42.301,904.621,42.283,905.002"/>
				<path id="path28" inkscape:connector-curvature="0" fill="#231F20" d="M64.621,917.561c0.445-0.046,0.783-0.163,0.989-0.355
					c0.202-0.189,0.312-0.452,0.312-0.832v-11.375c0-0.38-0.11-0.643-0.312-0.832c-0.206-0.192-0.544-0.31-0.989-0.355v-0.372h4.42
					v0.373c-0.445,0.046-0.782,0.166-0.989,0.358c-0.202,0.188-0.311,0.451-0.311,0.832v11.37c0,0.38,0.109,0.643,0.311,0.832
					c0.207,0.191,0.544,0.308,0.989,0.354v0.374l-4.42,0.003V917.561L64.621,917.561z"/>
				<path id="path30" inkscape:connector-curvature="0" fill="#231F20" d="M82.842,909.845c0.736,2.372,1.489,4.788,1.855,5.96
					c0.195-0.623,1.102-3.315,1.951-5.96H82.842z M99.272,917.557c0.447-0.047,0.784-0.163,0.99-0.354
					c0.202-0.188,0.312-0.452,0.312-0.833v-7.741c0-0.475-0.002-0.738,0.019-1.426c-0.334,0.661-0.667,1.257-0.667,1.257
					l-5.225,9.47h-3.325v-0.373c0.446-0.047,0.783-0.163,0.99-0.354c0.202-0.188,0.312-0.452,0.312-0.833v-11.372
					c0-0.38-0.116-0.68-0.319-0.868c-0.2-0.186-0.459-0.318-0.864-0.318c-0.401,0-0.714,0.13-0.925,0.346
					c-0.18,0.184-0.332,0.391-0.513,0.94c-0.36,1.097-3.742,11.672-4.12,12.836h-3.064v-0.371c0.352-0.038,0.691-0.145,0.876-0.33
					c0.157-0.157,0.311-0.421,0.311-0.692c0-0.037-3.609-11.039-3.748-11.447c-0.185-0.546-0.308-0.735-0.504-0.93
					c-0.186-0.186-0.496-0.309-0.886-0.355v-0.371h3.55v0.371c-0.389,0.046-0.8,0.145-0.987,0.348
					c-0.208,0.227-0.234,0.52-0.106,0.963c0.209,0.723,0.598,1.929,1.227,3.956h4.284c0.644-2.007,1.038-3.271,1.249-3.959
					c0.135-0.439,0.056-0.771-0.146-0.966c-0.205-0.198-0.533-0.294-0.946-0.341v-0.371h7.924v0.373
					c-0.448,0.047-0.783,0.162-0.99,0.355c-0.203,0.189-0.312,0.452-0.312,0.832v9.897c0,0.439-0.003,0.771-0.031,1.182
					c0.188-0.39,0.539-1.043,0.539-1.043l6.418-11.596h0.971v12.932c0,0.38,0.109,0.645,0.311,0.833
					c0.207,0.191,0.543,0.308,0.99,0.354v0.373h-3.595V917.557L99.272,917.557z"/>
				<path id="path32" inkscape:connector-curvature="0" fill="#231F20" d="M63.378,904.547c0,0,0,0,0,0.001
					c-1.246,2.045-2.352,3.977-3.877,6.454c2.768,0.895,3.748,2.2,3.748,3.753c0,2.145-1.401,3.176-4.59,3.176h-4.604v-0.374
					c0.446-0.045,0.783-0.162,0.99-0.354c0.202-0.188,0.311-0.452,0.311-0.832v-11.372c0-0.38-0.109-0.644-0.311-0.832
					c-0.207-0.192-0.544-0.309-0.99-0.355v-0.373h4.577v0.373c-0.446,0.047-0.936,0.164-1.143,0.355
					c-0.203,0.188-0.313,0.452-0.313,0.832v11.222c0.003,0.666,0.373,0.975,1.466,0.975c1.804,0,2.686-0.749,2.686-2.497
					c0-1.946-1.251-2.929-3.695-3.662v-0.369c0,0,1.738-2.871,3.795-6.387c0.162-0.276,0.315-0.723,0.315-0.843h2.736v0.376
					C64.005,903.92,63.676,904.058,63.378,904.547"/>
				<path id="path34" inkscape:connector-curvature="0" fill="#231F20" d="M174.867,904.547c0,0-0.001,0-0.001,0.001
					c-1.501,2.238-4.153,6.454-4.153,6.454c2.769,0.895,3.748,2.2,3.748,3.753c0,2.145-1.4,3.176-4.59,3.176h-4.604v-0.374
					c0.447-0.045,0.783-0.162,0.99-0.354c0.202-0.188,0.312-0.452,0.312-0.832v-11.372c0-0.38-0.111-0.644-0.312-0.832
					c-0.207-0.192-0.543-0.309-0.99-0.355v-0.373h4.577v0.373c-0.446,0.047-0.936,0.164-1.143,0.355
					c-0.203,0.188-0.313,0.452-0.313,0.832v11.222c0.002,0.666,0.373,0.975,1.466,0.975c1.804,0,2.685-0.749,2.685-2.497
					c0-1.946-1.251-2.929-3.694-3.662v-0.369c0,0,1.955-2.871,4.011-6.387c0.163-0.276,0.315-0.723,0.315-0.843h2.794v0.376
					C175.493,903.92,175.164,904.058,174.867,904.547"/>
				<path id="path36" inkscape:connector-curvature="0" fill="#231F20" d="M81.905,928.655c0.294,0.331,0.645,0.505,1.017,0.505
					h0.565c0.085,0,0.173-0.033,0.225-0.084c0.05-0.05,0.118-0.146,0.118-0.391v-7.473c0-0.218-0.059-0.379-0.182-0.492
					c-0.121-0.112-0.383-0.191-0.664-0.22v-0.314h3.003v0.314c-0.28,0.029-0.542,0.107-0.664,0.22
					c-0.124,0.115-0.182,0.271-0.182,0.492v7.433c0,0.24,0.018,0.337,0.127,0.447c0.046,0.045,0.118,0.068,0.217,0.068h0.487
					c0.364,0,0.713,0,1.006-0.204c0.23-0.16,0.339-0.697,0.379-0.881c0.039-0.183,0.081-0.371,0.081-0.371l0.325,0.001
					c0.007,0.721,0.247,1.691,0.375,2.016l-6.232-0.001c-0.388,0-0.541,0.137-0.541,0.137s-0.441-2.111-0.483-2.324l0.309-0.028
					C81.402,928.011,81.701,928.425,81.905,928.655"/>
				<path id="path38" inkscape:connector-curvature="0" fill="#231F20" d="M103.274,921.119c-0.308-0.211-0.684-0.375-1.032-0.375
					h-1.463c-0.294,0-0.371,0.338-0.371,0.516v3.812h1.402c0.279,0,0.475-0.079,0.618-0.25c0.126-0.149,0.227-0.406,0.32-0.766
					l0.329,0.06c-0.153,0.697-0.17,1.236-0.171,1.746l-0.007,0.562l-0.189,0.082c-0.047-0.137-0.189-0.442-0.34-0.563
					c-0.194-0.156-0.339-0.222-0.736-0.222h-1.227v3.441h1.428c0.483,0,0.835,0,1.127-0.203c0.291-0.201,0.417-0.636,0.53-1.102
					h0.323c0.007,0.761,0.15,1.597,0.269,1.9c0,0-0.171-0.036-0.777-0.036h-5.052v-0.316c0.28-0.03,0.541-0.107,0.661-0.22
					c0.123-0.114,0.182-0.275,0.182-0.491v-7.485c0-0.216-0.06-0.378-0.182-0.492c-0.121-0.112-0.382-0.19-0.661-0.219v-0.314h4.881
					c0.393,0,0.527-0.148,0.527-0.148c0.058,0.148,0.736,1.716,0.808,1.888l-0.266,0.166
					C103.965,921.745,103.572,921.323,103.274,921.119"/>
				<path id="path40" inkscape:connector-curvature="0" fill="#231F20" d="M91.811,920.5c-0.279,0.029-0.541,0.107-0.662,0.22
					c-0.124,0.114-0.182,0.27-0.182,0.492v3.861h3.791v-3.862c0-0.217-0.06-0.379-0.182-0.494c-0.122-0.112-0.384-0.19-0.664-0.218
					v-0.313h3v0.314c-0.28,0.029-0.542,0.107-0.663,0.22c-0.123,0.114-0.181,0.27-0.181,0.492v7.484
					c0,0.221,0.057,0.377,0.181,0.493c0.121,0.112,0.383,0.19,0.663,0.218v0.314h-3v-0.314c0.28-0.029,0.542-0.107,0.664-0.219
					c0.124-0.116,0.182-0.273,0.182-0.493v-2.952h-3.791v2.952c0,0.22,0.057,0.377,0.182,0.493c0.121,0.112,0.383,0.189,0.662,0.218
					v0.315h-3v-0.314c0.279-0.029,0.542-0.107,0.664-0.22c0.123-0.116,0.181-0.272,0.181-0.493v-7.484
					c0-0.221-0.058-0.378-0.182-0.494c-0.122-0.112-0.384-0.19-0.663-0.218v-0.313h3V920.5L91.811,920.5z"/>
				<path id="path42" inkscape:connector-curvature="0" fill="#231F20" d="M138.849,913.219c-0.109,0.378-0.213,0.711-0.312,0.991
					c-0.365,1.048-0.639,1.83-0.709,2.027c-0.179,0.502-0.04,0.873,0.145,1.061c0.155,0.157,0.399,0.287,0.822,0.287
					c0.423,0,0.66-0.114,0.827-0.283c0.187-0.186,0.305-0.553,0.149-1.062c-0.077-0.253-0.321-1.024-0.641-2.037
					C139.041,913.924,138.947,913.608,138.849,913.219 M164.67,906.253c-0.376-0.542-0.815-1.054-1.285-1.388
					c-0.47-0.333-1.174-0.695-1.878-0.695h-1.906c-0.392,0-0.787,0.283-0.787,0.895v5.938h2.326c0.438,0,0.778-0.122,1.029-0.421
					c0.214-0.253,0.321-0.643,0.459-1.177l0.554,0.058c-0.293,1.47-0.24,2.411-0.25,3.456l-0.138,0.052
					c-0.1-0.254-0.291-0.656-0.516-0.836c-0.328-0.265-0.582-0.364-1.196-0.364h-2.267v5.429h2.3c0.755,0,1.186,0,1.661-0.331
					c0.493-0.341,0.619-0.9,0.805-1.661h0.52c0.011,1.109,0.184,2.22,0.389,2.745l-1.105-0.022l-11.418-0.003v-0.373
					c0.541-0.052,0.886-0.175,1.068-0.383c0.212-0.243,0.266-0.669,0.09-1.031c-0.274-0.559-1.039-2.141-1.959-4.189
					c-0.134-0.298-0.27-0.664-0.41-0.98c-0.136,0.267-0.29,0.627-0.454,0.949c-0.74,1.453-1.69,3.316-2.155,4.241
					c-0.242,0.479-0.074,0.851,0.12,1.039c0.199,0.191,0.468,0.307,0.899,0.354v0.373l-5.755,0.005v-0.375
					c0.409-0.047,0.788-0.172,0.977-0.363c0.186-0.186,0.326-0.444,0.17-0.953c-0.288-0.937-2.847-8.988-3.213-10.103
					c-0.107,0.327-1.079,3.122-1.976,5.695c0.686,2.174,1.256,3.986,1.4,4.434c0.123,0.382,0.367,0.743,0.553,0.93
					c0.189,0.191,0.497,0.308,0.905,0.354v0.381h-7.769v-0.37c0.407-0.047,0.716-0.177,0.904-0.368
					c0.185-0.186,0.42-0.552,0.555-0.929c0.209-0.586,1.091-3.13,2.02-5.818c-0.63-1.981-1.217-3.818-1.377-4.309
					c-0.196,0.596-3.256,9.37-3.516,10.1c-0.178,0.502-0.017,0.766,0.169,0.953c0.188,0.191,0.568,0.326,0.978,0.371v0.37h-4.518
					v-0.37c0.407-0.047,0.716-0.177,0.904-0.368c0.185-0.186,0.42-0.552,0.554-0.929c0.455-1.273,4.081-11.779,4.478-12.943h1.03
					c0.362,1.077,0.955,2.923,1.582,4.892c0.078,0.244,0.141,0.576,0.219,0.912c0.089-0.358,0.191-0.69,0.279-0.942
					c0.808-2.337,1.513-4.385,1.676-4.862h1.03c1.003,2.986,3.782,11.872,4.129,12.946c0.044,0.136,0.097,0.315,0.146,0.516
					c0.105-0.23,0.23-0.461,0.259-0.512c0.725-1.327,2.792-5.157,3.436-6.375v-4.896c0-0.38-0.11-0.644-0.312-0.832
					c-0.207-0.192-0.543-0.309-0.99-0.355v-0.373l4.425-0.003v0.373c-0.448,0.046-0.784,0.163-0.99,0.355
					c-0.203,0.188-0.312,0.452-0.312,0.832v4.9c1.164,2.641,2.798,5.8,3.075,6.375c0.181,0.377,0.399,0.769,0.603,0.949
					c0.209,0.184,0.522,0.357,0.877,0.357c0.355,0,0.682-0.113,0.877-0.295c0.202-0.187,0.351-0.526,0.351-0.906V905
					c0-0.38-0.111-0.643-0.312-0.83c-0.205-0.192-0.541-0.309-0.987-0.355v-0.376h7.42c0.4,0,0.661-0.099,0.759-0.201
					c0.102,0.173,1.178,2.762,1.178,2.762L164.67,906.253L164.67,906.253z"/>
				<path id="path44" inkscape:connector-curvature="0" fill="#231F20" d="M78.728,907.871c0-2.932-1.161-3.987-2.955-3.987
					c-2.002,0-3.48,2.047-3.48,6.804c0,4.758,1.579,6.707,3.51,6.707c1.696,0,2.418-0.997,3.257-3.464h0.37v3.991h-0.389
					c-0.085-0.366-0.398-0.515-0.762-0.373c-0.705,0.274-1.253,0.576-2.489,0.576c-3.197,0-5.427-2.854-5.427-7.767
					c0-4.503,2.13-7.12,5.375-7.12c2.571,0,3.866,1.725,4.178,4.633H78.728z"/>
			</g>
		</g>
	</g>
</g>
</svg>
